<?xml version="1.0" encoding="UTF-8"?>
<svg fill="#FFFFFF" width="100pt" height="100pt" version="1.1" viewBox="0 0 100 100" xmlns="http://www.w3.org/2000/svg">
 <g>
  <path d="m49.801 97.699c-26.5 0-48.102-21.602-48.102-48.102 0-26.496 21.5-48.199 48.102-48.199 26.598 0 48.098 21.602 48.098 48.102s-21.598 48.199-48.098 48.199zm0-6c23.199 0 42.199-18.898 42.199-42.199-0.10156-23.199-19-42.102-42.199-42.102-23.301 0-42.199 18.902-42.199 42.102 0 23.301 18.898 42.199 42.199 42.199z"/>
  <path d="m29.102 50.801l25.898 25.898c1 1 2.6992 1 3.8008 0 1-1 1-2.6992 0-3.8008l-24-24 24-24c1-1 1-2.6992 0-3.8008-0.5-0.5-1.1992-0.80078-1.8984-0.80078-0.69922 0-1.3984 0.30078-1.8984 0.80078l-25.902 25.801c-0.5 0.5-0.80078 1.3008-0.80078 2 0 0.60156 0.19922 1.3008 0.80078 1.9023z"/>
 </g>
</svg>
