<?xml version="1.0" encoding="UTF-8"?>
<svg fill="#FFFFFF" width="100pt" height="100pt" version="1.1" viewBox="0 0 100 100" xmlns="http://www.w3.org/2000/svg">
 <path d="m61.312 38.684c-1.1719-1.1719-3.0703-1.1719-4.2422 0l-7.0703 7.0742-7.0703-7.0703c-1.1719-1.1719-3.0703-1.1719-4.2422 0s-1.1719 3.0703 0 4.2422l7.0703 7.0703-7.0703 7.0703c-1.1719 1.1719-1.1719 3.0703 0 4.2422s3.0703 1.1719 4.2422 0l7.0703-7.0703 7.0703 7.0703c1.1719 1.1719 3.0703 1.1719 4.2422 0s1.1719-3.0703 0-4.2422l-7.0703-7.0703 7.0703-7.0703c1.1719-1.1719 1.1719-3.0703 0-4.2422z"/>
</svg>
