<?xml version="1.0" encoding="utf-8"?>
<!-- Generator: Adobe Illustrator 22.1.0, SVG Export Plug-In . SVG Version: 6.00 Build 0)  -->
<svg version="1.1" id="Layer_1" xmlns="http://www.w3.org/2000/svg" xmlns:xlink="http://www.w3.org/1999/xlink" x="0px" y="0px"
	 viewBox="0 0 512 512" style="enable-background:new 0 0 512 512;" xml:space="preserve">
<style type="text/css">
	.st0{fill:#CCCCCC;}
	.st1{fill:#46647A;}
	.st2{fill:#FFFFFF;}
	.st3{opacity:0.5;fill:#FFFFFF;}
	.st4{opacity:0.7;fill:#FFFFFF;}
	.st5{opacity:0.59;fill:#FFFFFF;}
	.st6{opacity:0.44;fill:#FFFFFF;}
	.st7{fill:#F2F2F2;}
	.st8{opacity:0.4;fill:url(#SVGID_1_);}
	.st9{opacity:0.4;fill:url(#SVGID_2_);}
	.st10{fill:#DE75AB;}
	.st11{fill:#FFC7E6;}
	.st12{opacity:0.7;fill:#DE75AB;enable-background:new    ;}
	.st13{fill:#31B2E8;}
	.st14{fill:#88E6FF;}
	.st15{opacity:0.7;fill:#31B2E8;enable-background:new    ;}
</style>
<title>Wikipedia-zh-acg-n logo</title>
<circle class="st0" cx="256" cy="256" r="256"/>
<circle class="st1" cx="256" cy="256" r="245.1"/>
<g>
	<circle class="st2" cx="299.2" cy="98.6" r="4"/>
	<circle class="st2" cx="248.9" cy="122.7" r="3.1"/>
	<circle class="st2" cx="235.2" cy="62.5" r="3.1"/>
	<circle class="st3" cx="258.4" cy="84.7" r="4.4"/>
	<circle class="st2" cx="233.6" cy="161.9" r="1.9"/>
	<circle class="st3" cx="201.5" cy="135.6" r="4.1"/>
	<circle class="st2" cx="291.1" cy="168" r="1.3"/>
	<circle class="st2" cx="314.7" cy="143.1" r="1.1"/>
	<circle class="st2" cx="338.7" cy="115.4" r="2.2"/>
	<circle class="st2" cx="205.8" cy="111.5" r="1.6"/>
	<circle class="st2" cx="204.2" cy="181.1" r="1.4"/>
	<circle class="st2" cx="294.6" cy="40.4" r="2.2"/>
	<circle class="st2" cx="260.6" cy="154.6" r="2.2"/>
	<circle class="st2" cx="306.1" cy="181.8" r="0.7"/>
	<circle class="st2" cx="263.6" cy="24.4" r="1.9"/>
	<circle class="st2" cx="321.1" cy="30.6" r="1.3"/>
	<circle class="st2" cx="290.6" cy="17.1" r="2.2"/>
	<circle class="st2" cx="336.1" cy="44.3" r="0.7"/>
	<circle class="st2" cx="177.9" cy="150.5" r="1.9"/>
	<circle class="st2" cx="155.4" cy="62.5" r="1.9"/>
	<circle class="st2" cx="153.2" cy="93.5" r="2.2"/>
	<circle class="st2" cx="179.1" cy="69.5" r="3.1"/>
	<circle class="st2" cx="146" cy="125.4" r="2.7"/>
	<circle class="st2" cx="473.7" cy="200.8" r="2"/>
	<circle class="st2" cx="465" cy="142" r="2"/>
	<circle class="st2" cx="219.3" cy="19.3" r="2"/>
	<circle class="st2" cx="294.6" cy="202.9" r="2.2"/>
	<circle class="st2" cx="389.7" cy="212.1" r="1.9"/>
	<circle class="st2" cx="310.7" cy="66.4" r="1.9"/>
	<circle class="st2" cx="447.2" cy="218.2" r="1.3"/>
	<circle class="st2" cx="362.1" cy="52.6" r="1.4"/>
	<circle class="st2" cx="391.6" cy="62.5" r="2.2"/>
	<circle class="st2" cx="245.8" cy="35.8" r="0.7"/>
	<circle class="st2" cx="340.4" cy="62.5" r="3.9"/>
	<circle class="st2" cx="284" cy="56.1" r="1.7"/>
	<circle class="st3" cx="222.9" cy="47" r="4.8"/>
	<circle class="st4" cx="95.8" cy="88" r="3.3"/>
	<circle class="st2" cx="129.8" cy="59.2" r="1.3"/>
	<circle class="st4" cx="100.2" cy="127.1" r="4.4"/>
	<circle class="st2" cx="129.8" cy="86" r="1.3"/>
	<circle class="st2" cx="192.1" cy="26.4" r="1.3"/>
	<circle class="st2" cx="131.8" cy="152.5" r="2"/>
	<circle class="st2" cx="172.8" cy="185.9" r="2"/>
	<circle class="st2" cx="102.4" cy="163.3" r="3.4"/>
	<circle class="st2" cx="185.3" cy="52.9" r="1.2"/>
	<circle class="st2" cx="195.4" cy="65.6" r="1.2"/>
	<circle class="st2" cx="202.8" cy="51.8" r="1.2"/>
	<circle class="st2" cx="111.5" cy="196.6" r="2.2"/>
	<circle class="st2" cx="28.7" cy="192.5" r="1.9"/>
	<circle class="st2" cx="310.6" cy="86.4" r="1.9"/>
	<circle class="st2" cx="335.3" cy="189.2" r="3.3"/>
	<circle class="st2" cx="370.2" cy="93" r="1.6"/>
	<circle class="st2" cx="382" cy="130.4" r="3.3"/>
	<circle class="st2" cx="57.8" cy="168.8" r="2"/>
	<circle class="st2" cx="451.1" cy="138" r="2.7"/>
	<circle class="st3" cx="405.3" cy="139.7" r="4.4"/>
	<circle class="st2" cx="434.9" cy="98.7" r="1.3"/>
	<circle class="st2" cx="437" cy="165.2" r="2"/>
	<circle class="st2" cx="407.6" cy="176" r="3.4"/>
	<circle class="st3" cx="447" cy="200.4" r="4.1"/>
	<circle class="st2" cx="362.9" cy="181.4" r="2"/>
	<circle class="st2" cx="164" cy="53.3" r="2"/>
	<circle class="st2" cx="137.6" cy="70.8" r="1.3"/>
	<circle class="st2" cx="113.7" cy="74" r="1.3"/>
	<circle class="st2" cx="164.2" cy="128.1" r="1.3"/>
	<circle class="st5" cx="102.7" cy="88.6" r="2.2"/>
	<circle class="st2" cx="152.6" cy="84.5" r="0.7"/>
	<circle class="st2" cx="75" cy="140.3" r="1.9"/>
	<circle class="st2" cx="72.8" cy="171.3" r="2.2"/>
	<circle class="st2" cx="49.4" cy="137" r="1.3"/>
	<circle class="st2" cx="49.4" cy="163.8" r="1.3"/>
	<circle class="st2" cx="57.2" cy="148.6" r="1.3"/>
	<circle class="st2" cx="72.2" cy="162.3" r="0.7"/>
	<circle class="st2" cx="73" cy="115.4" r="0.7"/>
	<circle class="st2" cx="141.1" cy="105.7" r="2.2"/>
	<circle class="st2" cx="255.6" cy="53.4" r="1.8"/>
	<circle class="st2" cx="276.4" cy="56.4" r="1.1"/>
	<circle class="st2" cx="234.7" cy="72.3" r="1.1"/>
	<circle class="st2" cx="210.3" cy="64.1" r="1.1"/>
	<circle class="st2" cx="258.1" cy="81.5" r="0.7"/>
	<circle class="st2" cx="272.8" cy="113.4" r="0.7"/>
	<circle class="st2" cx="316.9" cy="43.4" r="1.2"/>
	<circle class="st2" cx="368.6" cy="45.1" r="1.2"/>
	<circle class="st2" cx="208.9" cy="206.6" r="1.5"/>
	<circle class="st2" cx="413.5" cy="85.5" r="0.8"/>
	<circle class="st2" cx="371.7" cy="80.8" r="0.9"/>
	<circle class="st2" cx="399.5" cy="109.9" r="0.9"/>
	<circle class="st2" cx="420.7" cy="123.3" r="0.4"/>
	<circle class="st2" cx="364.9" cy="152.4" r="0.4"/>
	<circle class="st2" cx="211.6" cy="73.6" r="0.4"/>
	<circle class="st2" cx="275.6" cy="30.6" r="0.4"/>
	<circle class="st2" cx="181.5" cy="102.5" r="0.4"/>
	<circle class="st2" cx="184.7" cy="46.2" r="0.4"/>
	<circle class="st2" cx="53.6" cy="198.1" r="1.2"/>
	<circle class="st2" cx="43.7" cy="230.8" r="1.2"/>
	<circle class="st2" cx="71.1" cy="197.1" r="1.2"/>
	<circle class="st2" cx="58.6" cy="229.3" r="1.1"/>
	<circle class="st2" cx="59.9" cy="238.8" r="0.4"/>
	<circle class="st2" cx="53" cy="191.4" r="0.4"/>
	<circle class="st2" cx="326.3" cy="83.8" r="0.9"/>
	<circle class="st2" cx="337.1" cy="65.2" r="1.1"/>
	<circle class="st6" cx="172.8" cy="40.4" r="4.6"/>
	<circle class="st3" cx="394.7" cy="97.8" r="4.8"/>
	<circle class="st2" cx="357.1" cy="103.7" r="1.2"/>
	<circle class="st2" cx="367.2" cy="116.4" r="1.2"/>
	<circle class="st2" cx="374.6" cy="102.6" r="1.2"/>
	<circle class="st2" cx="382.1" cy="114.9" r="1.1"/>
	<circle class="st2" cx="383.4" cy="124.4" r="0.4"/>
	<circle class="st2" cx="356.5" cy="97" r="0.4"/>
	<circle class="st6" cx="344.6" cy="91.2" r="4.6"/>
	<circle class="st2" cx="358.8" cy="213.8" r="1.6"/>
	<circle class="st2" cx="360.3" cy="201.7" r="0.9"/>
	<circle class="st2" cx="345.6" cy="224.6" r="1.2"/>
	<circle class="st2" cx="412.5" cy="213.2" r="1.2"/>
	<circle class="st2" cx="363.1" cy="223.5" r="1.2"/>
	<circle class="st2" cx="427.4" cy="211.7" r="1.1"/>
	<circle class="st2" cx="428.8" cy="221.2" r="0.4"/>
	<circle class="st2" cx="130.5" cy="206.1" r="1.2"/>
	<circle class="st2" cx="140.6" cy="218.8" r="1.2"/>
	<circle class="st2" cx="148" cy="205" r="1.2"/>
	<circle class="st2" cx="155.5" cy="217.3" r="1.1"/>
	<circle class="st2" cx="156.8" cy="226.7" r="0.4"/>
	<circle class="st2" cx="345.1" cy="217.9" r="0.4"/>
	<circle class="st2" cx="88" cy="223.6" r="1.1"/>
	<circle class="st2" cx="97.1" cy="257.5" r="0.3"/>
	<circle class="st2" cx="20.3" cy="268.7" r="0.6"/>
	<circle class="st2" cx="98.2" cy="230.1" r="0.7"/>
	<circle class="st2" cx="68.6" cy="209.5" r="0.5"/>
	<circle class="st2" cx="20.3" cy="214.6" r="0.6"/>
	<circle class="st2" cx="473" cy="257.3" r="1.3"/>
	<circle class="st2" cx="488.2" cy="216.7" r="1.2"/>
	<circle class="st2" cx="464" cy="166.2" r="1"/>
	<circle class="st2" cx="398.5" cy="154.8" r="2"/>
	<circle class="st2" cx="245.9" cy="235.3" r="0.6"/>
	<circle class="st2" cx="266.7" cy="285.7" r="0.7"/>
	<circle class="st2" cx="269.3" cy="208.7" r="0.6"/>
	<circle class="st2" cx="202.3" cy="37.3" r="0.8"/>
	<circle class="st2" cx="149.6" cy="41.3" r="0.9"/>
	<circle class="st2" cx="188.9" cy="83.8" r="0.9"/>
	<circle class="st2" cx="246.8" cy="14" r="0.9"/>
	<circle class="st2" cx="338.9" cy="35.8" r="0.7"/>
	<circle class="st2" cx="353.6" cy="34.6" r="0.5"/>
	<circle class="st2" cx="361.8" cy="66.7" r="1.1"/>
	<circle class="st2" cx="320.4" cy="99.2" r="0.7"/>
	<circle class="st2" cx="282.1" cy="76.4" r="1.1"/>
	<circle class="st2" cx="382.8" cy="76" r="0.7"/>
	<circle class="st2" cx="421" cy="93.6" r="0.8"/>
	<circle class="st2" cx="433.6" cy="110" r="0.8"/>
	<circle class="st2" cx="404.2" cy="69.5" r="1.1"/>
	<circle class="st2" cx="271.6" cy="95.1" r="0.5"/>
	<circle class="st2" cx="222.2" cy="84.7" r="0.9"/>
	<circle class="st2" cx="196.4" cy="92.4" r="1.1"/>
	<circle class="st2" cx="221.8" cy="126.3" r="0.5"/>
	<circle class="st2" cx="194.7" cy="160.6" r="0.6"/>
	<circle class="st2" cx="232.8" cy="25.2" r="0.8"/>
</g>
<g id="txt">
	<path class="st7" d="M171.3,397.2v0.9c-0.7,0-1.4,0.1-2,0.5c-0.6,0.4-1.1,1-1.5,1.7c-0.6,1.3-1.1,2.6-1.5,3.9l-8.9,25.6h-0.9
		l-7.2-20.3l-7.2,20.3h-0.8l-9.4-26.4c-0.4-1.2-0.8-2.4-1.3-3.5c-0.3-0.6-0.7-1-1.3-1.3c-0.7-0.3-1.4-0.5-2.2-0.4v-0.9h11.8v0.9
		h-0.6c-0.7,0-1.4,0.2-1.9,0.6c-0.4,0.3-0.7,0.8-0.7,1.4c0.2,1.3,0.5,2.6,1,3.8l6.3,17.8l5.3-15.2l-0.9-2.7l-0.8-2.1
		c-0.3-0.7-0.7-1.4-1.1-2.1c-0.2-0.3-0.5-0.6-0.8-0.8c-0.4-0.3-0.8-0.5-1.2-0.6c-0.5-0.1-0.9-0.2-1.4-0.1v-0.9h12.4v0.9h-0.8
		c-0.7-0.1-1.4,0.1-1.9,0.6c-0.4,0.4-0.6,0.9-0.6,1.5c0.1,1.4,0.5,2.9,1,4.2l6.1,17.3l6-17.5c0.5-1.3,0.9-2.6,1-4
		c0-0.4-0.1-0.7-0.3-1c-0.2-0.3-0.5-0.6-0.9-0.7c-0.7-0.3-1.5-0.4-2.3-0.3v-0.9L171.3,397.2z"/>
	<path class="st7" d="M178.6,406.9v17.2c-0.1,0.9,0,1.8,0.3,2.7c0.2,0.4,0.5,0.8,0.9,1c0.7,0.3,1.4,0.4,2.1,0.3v0.8h-10.4v-0.8
		c0.7,0.1,1.4,0,2.1-0.3c0.4-0.2,0.7-0.6,0.9-1c0.3-0.9,0.4-1.8,0.3-2.7v-8.3c0-1.5,0-3-0.2-4.5c-0.1-0.4-0.2-0.7-0.5-1
		c-0.3-0.2-0.6-0.3-1-0.3c-0.6,0-1.1,0.1-1.6,0.4l-0.3-0.8l6.5-2.6L178.6,406.9z M176.7,395.7c1.3,0,2.4,1,2.4,2.3c0,0,0,0,0,0l0,0
		c0,0.6-0.2,1.3-0.7,1.7c-0.4,0.5-1.1,0.7-1.7,0.7c-1.3,0-2.4-1.1-2.4-2.4C174.3,396.7,175.4,395.7,176.7,395.7
		C176.7,395.7,176.7,395.7,176.7,395.7L176.7,395.7z"/>
	<path class="st7" d="M190.9,395.7V417l5.5-5c0.7-0.6,1.4-1.3,2-2c0.1-0.2,0.2-0.4,0.2-0.6c0-0.3-0.1-0.6-0.4-0.8
		c-0.4-0.3-0.8-0.4-1.3-0.4v-0.8h9.3v0.8c-1.1,0-2.2,0.2-3.2,0.6c-1,0.5-2,1.1-2.8,1.9l-5.5,5.1l5.5,7c1.5,1.9,2.6,3.1,3.1,3.7
		c0.6,0.6,1.2,1.1,2,1.4c0.6,0.2,1.3,0.3,2,0.2v0.8h-10.4v-0.8c0.4,0,0.8-0.1,1.2-0.3c0.2-0.2,0.3-0.4,0.3-0.7
		c-0.1-0.6-0.4-1.2-0.9-1.7l-6.6-8.5v7.1c-0.1,0.9,0,1.8,0.3,2.7c0.2,0.4,0.5,0.7,0.8,0.9c0.8,0.2,1.5,0.3,2.3,0.3v0.9h-10.9V428
		c0.9,0,1.7-0.1,2.5-0.4c0.3-0.2,0.6-0.5,0.8-0.8c0.3-0.9,0.4-1.8,0.4-2.7v-19.6c0-1.5,0-3.1-0.2-4.6c-0.1-0.4-0.2-0.8-0.5-1.1
		c-0.3-0.2-0.6-0.3-1-0.3c-0.5,0-1,0.2-1.5,0.4l-0.4-0.8l6.4-2.6L190.9,395.7z"/>
	<path class="st7" d="M216,406.9v17.2c-0.1,0.9,0,1.8,0.3,2.7c0.2,0.4,0.5,0.8,0.9,1c0.7,0.3,1.4,0.4,2.1,0.3v0.8h-10.5v-0.8
		c0.7,0.1,1.4,0,2.1-0.3c0.4-0.2,0.7-0.6,0.9-1c0.3-0.9,0.4-1.8,0.3-2.7v-8.3c0-1.5,0-3-0.2-4.5c-0.1-0.4-0.2-0.7-0.5-1
		c-0.3-0.2-0.6-0.3-1-0.3c-0.6,0-1.1,0.1-1.6,0.4l-0.3-0.8l6.5-2.6L216,406.9z M214,395.7c1.3,0,2.4,1,2.4,2.3c0,0,0,0,0,0l0,0
		c0,0.6-0.2,1.3-0.7,1.7c-0.4,0.5-1.1,0.7-1.7,0.7c-1.3,0-2.4-1.1-2.4-2.4c0-1.3,1-2.3,2.3-2.3C213.9,395.7,214,395.7,214,395.7
		L214,395.7z"/>
	<path class="st7" d="M220.4,409.7l6.6-2.7h0.9v5c0.8-1.5,1.9-2.9,3.3-4c1-0.7,2.3-1.1,3.5-1.1c2.1,0,4.1,0.9,5.4,2.5
		c1.8,2.3,2.8,5.2,2.6,8.1c0.1,3.4-1,6.6-3.2,9.2c-1.7,1.9-4.1,3-6.6,3c-1,0-2-0.1-3-0.5c-0.8-0.3-1.5-0.8-2.1-1.4v6.5
		c-0.1,0.9,0,1.9,0.3,2.8c0.2,0.4,0.5,0.8,0.9,1c0.8,0.3,1.6,0.4,2.4,0.4v0.9h-11.3v-0.9h0.6c0.8,0,1.5-0.1,2.2-0.5
		c0.3-0.2,0.6-0.5,0.7-0.8c0.2-1,0.3-1.9,0.2-2.9V414c0-0.9,0-1.7-0.2-2.6c-0.1-0.3-0.3-0.6-0.6-0.8c-0.3-0.2-0.7-0.3-1.1-0.3
		c-0.5,0-1,0.1-1.4,0.3L220.4,409.7z M227.9,413.4v8c0,1.1,0,2.3,0.2,3.4c0.3,1,0.8,1.8,1.6,2.4c0.9,0.7,2.1,1,3.2,1
		c1.5,0,2.9-0.6,3.8-1.8c1.4-2,2-4.3,1.9-6.7c0-3.3-0.7-5.8-2.2-7.6c-0.9-1.1-2.2-1.8-3.6-1.8c-0.8,0-1.5,0.2-2.2,0.6
		C229.6,411.6,228.6,412.4,227.9,413.4L227.9,413.4z"/>
	<path class="st7" d="M249.5,415.6c-0.2,2.7,0.7,5.4,2.3,7.5c1.3,1.7,3.3,2.7,5.5,2.7c1.3,0,2.6-0.4,3.7-1.2c1.2-1.1,2.1-2.5,2.6-4
		l0.7,0.5c-0.4,2.2-1.4,4.3-2.9,5.9c-1.5,1.7-3.6,2.7-5.9,2.6c-2.5,0-4.9-1.1-6.6-3c-1.9-2.3-2.9-5.1-2.8-8.1c0-3.7,0.9-6.5,2.8-8.6
		c1.8-2,4.4-3.1,7.1-3.1c2.2-0.1,4.4,0.8,5.9,2.4c1.6,1.7,2.4,4,2.3,6.4L249.5,415.6z M249.5,414.3h9.9c0-1-0.2-2-0.5-2.9
		c-0.4-0.8-1-1.6-1.8-2.1c-0.7-0.5-1.5-0.7-2.4-0.8c-1.3,0-2.6,0.6-3.5,1.5C250.2,411.2,249.6,412.7,249.5,414.3L249.5,414.3z"/>
	<path class="st7" d="M282.4,426.6c-0.9,1-1.9,1.8-3.1,2.4c-1,0.5-2.1,0.7-3.2,0.7c-2.4,0-4.6-1.1-6.1-2.9c-1.8-2.1-2.7-4.8-2.6-7.6
		c0-3.1,1-6.1,2.9-8.5c1.7-2.4,4.5-3.9,7.5-3.8c1.7-0.1,3.4,0.6,4.7,1.8v-4c0-1.5,0-3-0.2-4.5c-0.1-0.4-0.2-0.8-0.5-1.1
		c-0.3-0.2-0.6-0.3-0.9-0.3c-0.6,0-1.1,0.2-1.6,0.4l-0.3-0.8l6.4-2.6h1v24.8c0,1.5,0,3.1,0.2,4.6c0.1,0.4,0.3,0.8,0.6,1.2
		c0.3,0.2,0.6,0.3,0.9,0.3c0.6,0,1.2-0.2,1.7-0.4l0.3,0.8l-6.4,2.6h-1.1L282.4,426.6z M282.4,424.9v-11.1c-0.1-1-0.4-2-0.8-2.9
		c-0.4-0.8-1.1-1.5-1.9-2c-0.7-0.4-1.5-0.7-2.3-0.7c-1.5,0-2.8,0.7-3.7,1.9c-1.4,1.6-2.1,4-2.1,7.1s0.7,5.5,2.1,7.2
		c1.1,1.5,2.8,2.4,4.6,2.5C279.9,427,281.5,426.2,282.4,424.9L282.4,424.9z"/>
	<path class="st7" d="M298.6,406.9v17.2c-0.1,0.9,0,1.8,0.3,2.7c0.2,0.4,0.5,0.8,0.9,1c0.7,0.3,1.4,0.4,2.1,0.3v0.8h-10.4v-0.8
		c0.7,0.1,1.4,0,2.1-0.3c0.4-0.2,0.7-0.6,0.9-1c0.3-0.9,0.4-1.8,0.3-2.7v-8.3c0-1.5,0-3-0.2-4.5c-0.1-0.4-0.2-0.7-0.5-1
		c-0.3-0.2-0.6-0.3-1-0.3c-0.6,0-1.1,0.1-1.6,0.4l-0.3-0.8l6.5-2.6L298.6,406.9z M296.7,395.7c1.2,0,2.3,1,2.3,2.2c0,0,0,0,0,0.1
		c0,0.6-0.2,1.3-0.7,1.7c-0.4,0.5-1.1,0.7-1.7,0.7c-1.3,0-2.4-1.1-2.4-2.4c0-1.3,1-2.3,2.3-2.3C296.6,395.7,296.6,395.7,296.7,395.7
		L296.7,395.7z"/>
	<path class="st7" d="M316.7,425.9c-1.3,1.1-2.7,2.1-4.1,3c-0.8,0.4-1.8,0.6-2.7,0.6c-1.4,0-2.7-0.5-3.7-1.5c-1-1.1-1.5-2.5-1.4-4
		c0-0.9,0.2-1.9,0.7-2.7c0.8-1.2,2-2.3,3.3-3c2.5-1.4,5.2-2.5,7.9-3.4V414c0-2.1-0.3-3.6-1-4.4c-0.8-0.8-1.9-1.3-3-1.2
		c-0.8-0.1-1.7,0.2-2.3,0.8c-0.6,0.4-0.9,1.1-0.9,1.8v1.4c0.1,0.6-0.1,1.2-0.5,1.6c-0.4,0.4-0.9,0.6-1.4,0.6c-0.5,0-1-0.2-1.4-0.6
		c-0.4-0.5-0.6-1.1-0.5-1.7c0.1-1.5,0.8-2.9,2.1-3.7c1.7-1.2,3.7-1.8,5.8-1.7c1.6-0.1,3.2,0.3,4.7,1c0.9,0.5,1.6,1.3,2,2.3
		c0.4,1.3,0.5,2.7,0.4,4.1v7.3c0,1.3,0,2.5,0.1,3.8c0,0.3,0.2,0.7,0.4,0.9c0.2,0.2,0.4,0.2,0.6,0.2c0.3,0,0.5,0,0.7-0.2
		c0.7-0.5,1.3-1.1,1.9-1.7v1.3c-1.7,2.3-3.4,3.5-5,3.5c-0.7,0-1.3-0.3-1.8-0.8C316.9,427.9,316.6,426.9,316.7,425.9z M316.7,424.4
		v-8.2c-1.6,0.6-3.1,1.3-4.6,2c-1,0.5-1.9,1.3-2.6,2.2c-0.5,0.7-0.8,1.6-0.8,2.5c0,1,0.3,2,1,2.8c0.6,0.7,1.4,1.1,2.3,1.1
		C313.8,426.4,315.4,425.6,316.7,424.4z"/>
	<path class="st7" d="M326.3,416.5h12.1v3.5h-12.1V416.5z"/>
	<path class="st7" d="M360.5,422.4l-0.3,6.6h-18.9v-0.8l14.2-19h-7c-1-0.1-2,0-3,0.3c-0.5,0.2-0.9,0.6-1.1,1.1
		c-0.5,0.9-0.7,1.9-0.7,2.9h-0.9l0.1-6h18v0.9l-14.4,19h7.8c1.1,0.1,2.2-0.1,3.3-0.4c0.6-0.3,1.1-0.8,1.4-1.4c0.4-1,0.6-2.1,0.6-3.2
		H360.5z"/>
	<path class="st7" d="M369.5,395.7v15.7c1.2-1.4,2.6-2.7,4.1-3.7c0.9-0.5,1.9-0.8,3-0.8c1.1,0,2.2,0.3,3.1,1c1,0.8,1.7,1.9,2,3.2
		c0.4,1.8,0.5,3.7,0.5,5.5v7.6c0,0.9,0.1,1.9,0.3,2.8c0.2,0.4,0.4,0.7,0.8,0.9c0.7,0.3,1.4,0.4,2.1,0.3v0.9h-10.5v-0.8h0.5
		c0.7,0.1,1.5-0.1,2.1-0.5c0.4-0.3,0.7-0.8,0.8-1.4c0.1-0.7,0.1-1.5,0.1-2.2v-7.6c0.1-1.5,0-3.1-0.4-4.6c-0.2-0.7-0.6-1.2-1.2-1.6
		c-0.5-0.4-1.2-0.6-1.9-0.5c-0.8,0-1.7,0.2-2.4,0.6c-1.1,0.7-2.1,1.5-3,2.5v11.3c-0.1,0.9,0,1.8,0.2,2.7c0.2,0.4,0.5,0.7,0.9,0.9
		c0.7,0.3,1.5,0.4,2.3,0.4v0.9h-10.6v-0.8c0.8,0,1.5-0.1,2.2-0.5c0.3-0.2,0.6-0.5,0.8-0.9c0.2-0.9,0.3-1.8,0.3-2.7v-19.4
		c0-1.5,0-3-0.2-4.5c-0.1-0.4-0.2-0.8-0.5-1.1c-0.3-0.2-0.6-0.3-1-0.3c-0.6,0-1.1,0.2-1.6,0.4l-0.3-0.8l6.4-2.6L369.5,395.7z"/>
	<rect x="120.3" y="373" class="st7" width="271.3" height="2"/>
</g>
<linearGradient id="SVGID_1_" gradientUnits="userSpaceOnUse" x1="200.0351" y1="162.396" x2="108.0383" y2="196.8446">
	<stop  offset="0" style="stop-color:#000000;stop-opacity:0"/>
	<stop  offset="1" style="stop-color:#000000"/>
</linearGradient>
<path class="st8" d="M227.9,289.2L227.9,289.2c-8.2-14.3-26.3-19.3-40.6-11.2c-14.3,8.1-19.4,26.3-11.2,40.6L56.2,114
	c36.3-50.9,91.5-87.4,155.4-99L227.9,289.2z"/>
<linearGradient id="SVGID_2_" gradientUnits="userSpaceOnUse" x1="354.5153" y1="164.8081" x2="417.8583" y2="198.4564">
	<stop  offset="0" style="stop-color:#000000;stop-opacity:0"/>
	<stop  offset="1" style="stop-color:#000000"/>
</linearGradient>
<path class="st9" d="M327.6,282.6c3-2.8,4.8-6.7,4.8-10.9c0-2.9-0.8-5.7-2.4-8.1c-4.5-6.8-13.6-8.7-20.4-4.2l86.3-204.7
	c33.8,23.5,61.4,55.3,79.8,92.5L327.6,282.6z"/>
<path class="st2" d="M332.3,271.7c0,4.1-1.7,8.1-4.8,10.9l0,0c-0.6,0.5-1.2,1-1.8,1.4l0,0c-6.8,4.5-15.9,2.6-20.4-4.2
	c-4.5-6.8-2.6-15.9,4.2-20.4c6.8-4.5,15.9-2.6,20.4,4.2C331.5,266,332.3,268.8,332.3,271.7z"/>
<path class="st10" d="M327.7,271.7c0,5.6-4.5,10.1-10.1,10.1c-3.6,0-7-2-8.8-5.1c-0.1-0.1-0.1-0.2-0.2-0.4c-0.7-1.4-1.1-3-1.1-4.6
	c0-5.6,4.5-10.1,10.1-10.1c4,0,7.6,2.4,9.2,6c0.1,0.3,0.2,0.6,0.4,0.9C327.6,269.5,327.7,270.6,327.7,271.7z"/>
<path class="st11" d="M323.2,271.7c0,3.1-2.5,5.6-5.6,5.6c-2,0-3.9-1.1-4.9-2.8c0-0.1-0.1-0.1-0.1-0.2c-0.4-0.8-0.6-1.7-0.6-2.6
	c0-3.1,2.5-5.6,5.6-5.6c2.2,0,4.2,1.3,5.1,3.3c0.1,0.2,0.1,0.3,0.2,0.5C323.1,270.5,323.2,271.1,323.2,271.7z"/>
<path class="st12" d="M326.9,267.6c-2.3-5.1-8.2-7.4-13.3-5.1c-3.7,1.6-6,5.2-6,9.2c0,1.6,0.4,3.2,1.1,4.6
	c-27-49.5-72-170.8-41.3-265.1c21.2,0.9,42.3,4.7,62.6,11.1C309,94,308.7,220.4,326.9,267.6z"/>
<path class="st2" d="M231.8,303.9c0,16.5-13.3,29.8-29.8,29.8c-10.7,0-20.6-5.8-25.9-15.1l0,0c-8.1-14.3-3.1-32.5,11.2-40.6
	c14.3-8.1,32.5-3.1,40.6,11.2l0,0C230.5,293.7,231.8,298.7,231.8,303.9z"/>
<ellipse transform="matrix(0.2298 -0.9732 0.9732 0.2298 -140.1881 430.6648)" class="st13" cx="202" cy="303.9" rx="20.5" ry="20.5"/>
<ellipse transform="matrix(0.2298 -0.9732 0.9732 0.2298 -140.1881 430.6648)" class="st14" cx="202" cy="303.9" rx="14.4" ry="14.4"/>
<path class="st15" d="M432,85.4c-108.5,38.3-209.5,126.7-209.5,218.5c0-11.3-9.2-20.5-20.5-20.5s-20.5,9.2-20.5,20.5
	c0-148.3,84.9-291.1,85.9-292.7C329.7,14,388.6,40.5,432,85.4z"/>
</svg>
