<?xml version="1.0" encoding="UTF-8"?>
<svg width="512px" height="512px" viewBox="0 0 512 512" version="1.1" xmlns="http://www.w3.org/2000/svg" xmlns:xlink="http://www.w3.org/1999/xlink">
    <!-- Generator: Sketch 53.2 (72643) - https://sketchapp.com -->
    <title>Wikipedia_zh_random 11</title>
    <desc>Created with Sketch.</desc>
    <defs>
        <circle id="path-1" cx="245.1" cy="245.1" r="245.1"></circle>
        <path d="M21.8865809,0.991000877 C18.5364167,5.56873196 4.27077015,12.0466447 0.940611685,24.2689728 C-2.38954678,36.4913009 3.54555874,48.2689728 12.0948233,48.2689728 C20.6440878,48.2689728 26,39.8581955 26,30.5812511 C26,21.3043066 23.2963219,24.2727407 18.9500736,19.5949168 C14.6038253,14.9170929 25.2367452,-3.58673021 21.8865809,0.991000877 Z" id="path-3"></path>
    </defs>
    <g id="Wikipedia_zh_random-11" stroke="none" stroke-width="1" fill="none" fill-rule="evenodd">
        <g id="Wikipedia_zh_logo">
            <circle id="Oval" fill="#CCCCCC" fill-rule="nonzero" cx="256" cy="256" r="256"></circle>
            <g id="Group-3" transform="translate(10.900000, 10.900000)">
                <mask id="mask-2" fill="white">
                    <use xlink:href="#path-1"></use>
                </mask>
                <use id="Oval" fill="#3A5B50" fill-rule="nonzero" xlink:href="#path-1"></use>
                <polygon id="Path-76" fill="#000000" opacity="0.15" mask="url(#mask-2)" points="145.6 265.493179 386.146545 506.039724 551.482459 320.1 376.76 145.514898 258.1 195.1"></polygon>
                <path d="M226.906914,288.302226 C223.035298,264.42633 229.034133,249.911682 244.90342,244.758284 C260.772707,239.604885 274.14755,245.440796 285.027949,262.266017 C320.892655,236.645498 335.353679,206.530465 328.411021,171.920917 C317.997033,120.006595 239.094343,90.1527492 184.76449,117.372259 C130.434637,144.591769 113.448966,195.028281 124.123204,227.355782 C140.272817,276.265749 174.534054,296.58123 226.906914,288.302226 Z" id="Path-73" fill="#EDE0B7" mask="url(#mask-2)"></path>
                <circle id="Oval" fill="#D14A4A" mask="url(#mask-2)" cx="230.1" cy="147.1" r="21"></circle>
                <circle id="Oval-Copy" fill="#4A65D1" mask="url(#mask-2)" cx="175.1" cy="174.1" r="21"></circle>
                <circle id="Oval-Copy-2" fill="#D1984A" mask="url(#mask-2)" cx="165.1" cy="232.1" r="21"></circle>
                <g id="Group" mask="url(#mask-2)">
                    <g transform="translate(273.418278, 192.941379) rotate(14.000000) translate(-273.418278, -192.941379) translate(259.918278, 88.941379)">
                        <path d="M11.3253875,45.7062036 L16.0754261,45.7062036 C18.8368498,45.7062036 21.0754261,47.9447798 21.0754261,50.7062036 C21.0754261,50.747348 21.0749182,50.7884908 21.0739026,50.8296227 L17.2868002,204.20727 C17.2387453,206.153493 15.6472231,207.706204 13.7004068,207.706204 L13.7004068,207.706204 C11.7535905,207.706204 10.1620683,206.153493 10.1140134,204.20727 L6.32691098,50.8296227 C6.25874845,48.0690404 8.44138598,45.7758895 11.2019683,45.707727 C11.2431002,45.7067114 11.2842431,45.7062036 11.3253875,45.7062036 Z" id="Rectangle" fill="#23222F"></path>
                        <g id="Group-2" stroke-width="1" fill="none" transform="translate(0.307286, 0.000000)">
                            <mask id="mask-4" fill="white">
                                <use xlink:href="#path-3"></use>
                            </mask>
                            <use id="Path-74" fill="#A8A891" xlink:href="#path-3"></use>
                            <circle id="Oval" fill="#A9E042" mask="url(#mask-4)" cx="20.6927137" cy="7" r="12"></circle>
                        </g>
                    </g>
                </g>
                <g id="Group-4" mask="url(#mask-2)">
                    <g transform="translate(290.565596, 227.408240) rotate(-54.000000) translate(-290.565596, -227.408240) translate(172.565596, 205.908240)">
                        <rect id="Rectangle" fill="#93B4B8" x="0.00894329275" y="0.988445214" width="235" height="42"></rect>
                        <rect id="Rectangle" fill="#000000" opacity="0.331682478" x="16.7184801" y="1.05364535" width="2" height="13"></rect>
                        <rect id="Rectangle" fill="#000000" opacity="0.331682478" x="117.955223" y="1.40269801" width="2" height="13"></rect>
                        <rect id="Rectangle" fill="#000000" opacity="0.331682478" x="93.3514245" y="0.989036023" width="2" height="7"></rect>
                        <rect id="Rectangle" fill="#000000" opacity="0.331682478" x="42.3614805" y="1.149075" width="2" height="7"></rect>
                        <rect id="Rectangle" fill="#000000" opacity="0.331682478" x="67.8564525" y="1.06905551" width="2" height="7"></rect>
                        <rect id="Rectangle" fill="#000000" opacity="0.331682478" x="193.919037" y="0.594943853" width="2" height="7"></rect>
                        <rect id="Rectangle" fill="#000000" opacity="0.331682478" x="142.929093" y="0.754982829" width="2" height="7"></rect>
                        <rect id="Rectangle" fill="#000000" opacity="0.331682478" x="169.093196" y="1.41810817" width="2" height="7"></rect>
                        <rect id="Rectangle-Copy" fill="#000000" opacity="0.331682478" x="218.522836" y="1.00860584" width="2" height="13"></rect>
                    </g>
                </g>
                <path d="M157.28486,276.130482 C168.078704,284.685102 201.09414,295.429962 226.906914,288.302226 C223.035298,264.42633 229.034133,249.911682 244.90342,244.758284 L157.28486,276.130482 Z" id="Path" fill="#EDE0B7" mask="url(#mask-2)"></path>
            </g>
            <path d="M171.29,396.22 L171.29,397.09 C170.595562,397.06372 169.906258,397.218813 169.29,397.54 C168.662065,397.956786 168.152299,398.52855 167.81,399.2 C167.216903,400.463356 166.722103,401.770564 166.33,403.11 L157.47,428.73 L156.53,428.73 L149.29,408.41 L142.09,428.73 L141.25,428.73 L131.8,402.34 C131.1,400.34 130.653333,399.176667 130.46,398.85 C130.177684,398.289937 129.731113,397.829411 129.18,397.53 C128.495606,397.211392 127.744054,397.063827 126.99,397.1 L126.99,396.23 L138.76,396.23 L138.76,397.1 L138.2,397.1 C137.519984,397.052595 136.845603,397.25136 136.3,397.66 C135.883097,397.988146 135.63982,398.489446 135.64,399.02 C135.820189,400.312374 136.155958,401.578224 136.64,402.79 L142.9,420.63 L148.17,405.47 L147.23,402.8 L146.48,400.67 C146.183562,399.948079 145.815028,399.257916 145.38,398.61 C145.179132,398.315272 144.924728,398.060868 144.63,397.86 C144.274486,397.596435 143.879638,397.390574 143.46,397.25 C142.998848,397.137694 142.524232,397.090569 142.05,397.11 L142.05,396.24 L154.43,396.24 L154.43,397.11 L153.59,397.11 C152.902593,397.051043 152.217926,397.250738 151.67,397.67 C151.259019,398.066365 151.037041,398.619488 151.06,399.19 C151.207909,400.623215 151.561542,402.027643 152.11,403.36 L158.2,420.63 L164.2,403.12 C164.719342,401.840185 165.055977,400.493645 165.2,399.12 C165.197123,398.758782 165.077895,398.408112 164.86,398.12 C164.647967,397.816852 164.347678,397.586398 164,397.46 C163.251453,397.217167 162.46657,397.105524 161.68,397.13 L161.68,396.26 L171.29,396.22 Z" id="Path" fill="#FFFFFF" fill-rule="nonzero"></path>
            <path d="M178.64,405.9 L178.64,423.15 C178.582415,424.05335 178.68051,424.959878 178.93,425.83 C179.101913,426.250077 179.407751,426.601616 179.8,426.83 C180.465031,427.101027 181.183895,427.213992 181.9,427.16 L181.9,428 L171.47,428 L171.47,427.16 C172.186877,427.21768 172.907609,427.115206 173.58,426.86 C173.967088,426.628229 174.268783,426.27742 174.44,425.86 C174.708526,424.986643 174.816937,424.071931 174.76,423.16 L174.76,414.89 C174.806778,413.380171 174.736568,411.868987 174.55,410.37 C174.485542,409.990478 174.303674,409.64073 174.03,409.37 C173.743635,409.153721 173.387646,409.050484 173.03,409.08 C172.483649,409.10308 171.945543,409.221531 171.44,409.43 L171.11,408.59 L177.58,405.97 L178.64,405.9 Z M176.69,394.67 C177.319379,394.667327 177.923751,394.916165 178.368793,395.361207 C178.813835,395.806249 179.062673,396.410621 179.06,397.04 C179.070596,397.673952 178.82127,398.28462 178.37,398.73 C177.932854,399.188473 177.323356,399.442431 176.69,399.43 C175.375562,399.43 174.31,398.364438 174.31,397.05 C174.31,395.735562 175.375562,394.67 176.69,394.67 L176.69,394.67 Z" id="Shape" fill="#FFFFFF" fill-rule="nonzero"></path>
            <path d="M190.93,394.67 L190.93,416 L196.39,411 C197.107292,410.385958 197.775958,409.717292 198.39,409 C198.50834,408.836756 198.57457,408.641553 198.58,408.44 C198.585534,408.12349 198.440878,407.823052 198.19,407.63 C197.817272,407.363908 197.367778,407.226952 196.91,407.24 L196.91,406.49 L206.24,406.49 L206.24,407.24 C205.145994,407.236733 204.060907,407.436796 203.04,407.83 C202.007163,408.311196 201.061055,408.959956 200.24,409.75 L194.73,414.84 L200.24,421.84 C201.773333,423.76 202.803333,424.98 203.33,425.5 C203.897309,426.102215 204.576668,426.587957 205.33,426.93 C205.979436,427.116362 206.655214,427.194077 207.33,427.16 L207.33,428 L196.93,428 L196.93,427.16 C197.350964,427.189001 197.771297,427.095207 198.14,426.89 C198.351974,426.725283 198.471194,426.468215 198.46,426.2 C198.313013,425.547376 197.987575,424.948432 197.52,424.47 L190.93,416 L190.93,423.13 C190.869477,424.053193 190.967563,424.979931 191.22,425.87 C191.379519,426.269962 191.672867,426.602187 192.05,426.81 C192.804045,427.056925 193.598052,427.158721 194.39,427.11 L194.39,428 L183.47,428 L183.47,427.16 C184.309196,427.204603 185.148168,427.068185 185.93,426.76 C186.261971,426.584109 186.52587,426.302617 186.68,425.96 C186.96568,425.10042 187.084477,424.194169 187.03,423.29 L187.03,403.74 C187.075907,402.218138 187.02246,400.694902 186.87,399.18 C186.819774,398.748164 186.630205,398.344454 186.33,398.03 C186.047424,397.803869 185.69136,397.689929 185.33,397.71 C184.817169,397.756307 184.316337,397.891667 183.85,398.11 L183.45,397.29 L189.83,394.67 L190.93,394.67 Z" id="Path" fill="#FFFFFF" fill-rule="nonzero"></path>
            <path d="M216,405.9 L216,423.15 C215.942415,424.05335 216.04051,424.959878 216.29,425.83 C216.461913,426.250077 216.767751,426.601616 217.16,426.83 C217.825031,427.101027 218.543895,427.213992 219.26,427.16 L219.26,428 L208.81,428 L208.81,427.16 C209.526877,427.21768 210.247609,427.115206 210.92,426.86 C211.307088,426.628229 211.608783,426.27742 211.78,425.86 C212.048526,424.986643 212.156937,424.071931 212.1,423.16 L212.1,414.89 C212.146778,413.380171 212.076568,411.868987 211.89,410.37 C211.825542,409.990478 211.643674,409.64073 211.37,409.37 C211.083635,409.153721 210.727646,409.050484 210.37,409.08 C209.823649,409.10308 209.285543,409.221531 208.78,409.43 L208.45,408.59 L214.92,405.97 L216,405.9 Z M214,394.67 C214.627644,394.659311 215.233686,394.899116 215.684082,395.336375 C216.134478,395.773634 216.392111,396.372314 216.4,397 C216.410596,397.633952 216.16127,398.24462 215.71,398.69 C215.272854,399.148473 214.663356,399.402431 214.03,399.39 C212.715562,399.39 211.65,398.324438 211.65,397.01 C211.65,395.695562 212.715562,394.63 214.03,394.63 L214,394.67 Z" id="Shape" fill="#FFFFFF" fill-rule="nonzero"></path>
            <path d="M220.36,408.66 L227,406 L227.89,406 L227.89,411 C228.701464,409.44115 229.840916,408.076537 231.23,407 C232.262168,406.267489 233.494358,405.869558 234.76,405.86 C236.850345,405.828597 238.83862,406.761869 240.15,408.39 C241.985339,410.664336 242.927615,413.530276 242.8,416.45 C242.923439,419.804484 241.785262,423.083433 239.61,425.64 C237.971197,427.584822 235.542794,428.686971 233,428.64 C231.978314,428.66343 230.961135,428.497291 230,428.15 C229.216633,427.812482 228.501551,427.334631 227.89,426.74 L227.89,433.28 C227.827695,434.221798 227.918884,435.167461 228.16,436.08 C228.355132,436.495084 228.687004,436.830487 229.1,437.03 C229.875436,437.319939 230.70426,437.439317 231.53,437.38 L231.53,438.25 L220.25,438.25 L220.25,437.38 L220.84,437.38 C221.604026,437.417146 222.363959,437.247888 223.04,436.89 C223.354541,436.696192 223.596907,436.404651 223.73,436.06 C223.956282,435.104226 224.040519,434.120329 223.98,433.14 L223.98,412.84 C224.023966,411.952235 223.960167,411.062413 223.79,410.19 C223.688988,409.851063 223.477856,409.555477 223.19,409.35 C222.856587,409.14714 222.469741,409.049557 222.08,409.07 C221.587775,409.096043 221.103861,409.207715 220.65,409.4 L220.36,408.66 Z M227.86,412.39 L227.86,420.39 C227.815925,421.534149 227.886274,422.679839 228.07,423.81 C228.32173,424.765458 228.889121,425.607734 229.68,426.2 C230.60518,426.896091 231.74326,427.249532 232.9,427.2 C234.38745,427.237506 235.801922,426.556326 236.7,425.37 C238.078573,423.407217 238.748594,421.03393 238.6,418.64 C238.6,415.36 237.88,412.836667 236.44,411.07 C235.605928,409.93553 234.287968,409.258039 232.88,409.24 C232.102526,409.245225 231.337702,409.437289 230.65,409.8 C229.59858,410.522541 228.658612,411.395128 227.86,412.39 L227.86,412.39 Z" id="Shape" fill="#FFFFFF" fill-rule="nonzero"></path>
            <path d="M249.52,414.62 C249.344526,417.320257 250.170506,419.990453 251.84,422.12 C253.166994,423.817983 255.195093,424.819149 257.35,424.84 C258.667526,424.866852 259.957248,424.459202 261.02,423.68 C262.251891,422.621304 263.157134,421.23396 263.63,419.68 L264.36,420.15 C264.008245,422.340584 263.012675,424.376977 261.5,426 C260.014018,427.717706 257.840818,428.685202 255.57,428.64 C253.030168,428.659181 250.609957,427.562409 248.95,425.64 C247.029535,423.391982 246.045174,420.492592 246.2,417.54 C246.2,413.866667 247.14,411.003333 249.02,408.95 C250.817266,406.933229 253.409336,405.807196 256.11,405.87 C258.332966,405.796616 260.484568,406.66016 262.04,408.25 C263.638309,409.971038 264.47476,412.264069 264.36,414.61 L249.52,414.62 Z M249.52,413.26 L259.46,413.26 C259.454486,412.269938 259.28902,411.287272 258.97,410.35 C258.603513,409.5052 257.994442,408.788237 257.22,408.29 C256.501479,407.806265 255.656165,407.545366 254.79,407.54 C253.472613,407.547675 252.215526,408.093135 251.31,409.05 C250.227491,410.193082 249.592165,411.687341 249.52,413.26 L249.52,413.26 Z" id="Shape" fill="#FFFFFF" fill-rule="nonzero"></path>
            <path d="M282.38,425.59 C281.506607,426.55455 280.466685,427.353969 279.31,427.95 C278.300457,428.426645 277.19637,428.669339 276.08,428.66 C273.697666,428.643131 271.446804,427.565356 269.94,425.72 C268.142542,423.62172 267.206429,420.920568 267.32,418.16 C267.315097,415.096723 268.339975,412.120704 270.23,409.71 C271.937664,407.276202 274.737105,405.842798 277.71,405.88 C279.452541,405.820378 281.14479,406.469855 282.4,407.68 L282.4,403.68 C282.44538,402.17098 282.385233,400.660633 282.22,399.16 C282.167008,398.726938 281.97386,398.323082 281.67,398.01 C281.401774,397.80242 281.068886,397.696179 280.73,397.71 C280.172398,397.744155 279.624629,397.872645 279.11,398.09 L278.81,397.27 L285.21,394.65 L286.26,394.65 L286.26,419.47 C286.213062,421.008981 286.273207,422.549364 286.44,424.08 C286.493635,424.517842 286.690518,424.92567 287,425.24 C287.24953,425.456393 287.569732,425.5738 287.9,425.57 C288.482059,425.534268 289.053678,425.398974 289.59,425.17 L289.85,425.99 L283.48,428.64 L282.4,428.64 L282.38,425.59 Z M282.38,423.95 L282.38,412.88 C282.301371,411.862867 282.015512,410.872569 281.54,409.97 C281.123461,409.139565 280.478077,408.445604 279.68,407.97 C278.999187,407.550705 278.219333,407.319509 277.42,407.3 C275.977644,407.332288 274.626308,408.011628 273.74,409.15 C272.32,410.776667 271.61,413.153333 271.61,416.28 C271.61,419.406667 272.296667,421.823333 273.67,423.53 C274.724095,425.03894 276.421056,425.970605 278.26,426.05 C279.868022,425.962309 281.364249,425.199669 282.38,423.95 L282.38,423.95 Z" id="Shape" fill="#FFFFFF" fill-rule="nonzero"></path>
            <path d="M298.62,405.9 L298.62,423.15 C298.562415,424.05335 298.66051,424.959878 298.91,425.83 C299.081913,426.250077 299.387751,426.601616 299.78,426.83 C300.445031,427.101027 301.163895,427.213992 301.88,427.16 L301.88,428 L291.45,428 L291.45,427.16 C292.166877,427.21768 292.887609,427.115206 293.56,426.86 C293.947088,426.628229 294.248783,426.27742 294.42,425.86 C294.688526,424.986643 294.796937,424.071931 294.74,423.16 L294.74,414.89 C294.786778,413.380171 294.716568,411.868987 294.53,410.37 C294.465542,409.990478 294.283674,409.64073 294.01,409.37 C293.723635,409.153721 293.367646,409.050484 293.01,409.08 C292.463649,409.10308 291.925543,409.221531 291.42,409.43 L291.09,408.59 L297.56,405.97 L298.62,405.9 Z M296.67,394.67 C297.950065,394.686171 298.983829,395.719935 299,397 C299.010596,397.633952 298.76127,398.24462 298.31,398.69 C297.872854,399.148473 297.263356,399.402431 296.63,399.39 C295.315562,399.39 294.25,398.324438 294.25,397.01 C294.25,395.695562 295.315562,394.63 296.63,394.63 L296.67,394.67 Z" id="Shape" fill="#FFFFFF" fill-rule="nonzero"></path>
            <path d="M316.71,424.91 C315.400946,426.008928 314.013981,427.011554 312.56,427.91 C311.714337,428.302823 310.792436,428.504275 309.86,428.5 C308.475289,428.543111 307.138731,427.98955 306.19,426.98 C305.201933,425.888349 304.684468,424.450947 304.75,422.98 C304.724158,422.025687 304.966689,421.08328 305.45,420.26 C306.301943,419.002515 307.448614,417.972571 308.79,417.26 C311.327499,415.903107 313.973249,414.75918 316.7,413.84 L316.7,413 C316.7,410.86 316.366667,409.39 315.7,408.59 C314.938466,407.748906 313.831521,407.306128 312.7,407.39 C311.846228,407.346416 311.008395,407.632855 310.36,408.19 C309.806609,408.637816 309.480578,409.308194 309.47,410.02 L309.47,411.38 C309.520181,411.959652 309.352618,412.537209 309,413 C308.626991,413.394321 308.102452,413.609236 307.56,413.59 C307.019551,413.607711 306.499212,413.384185 306.14,412.98 C305.753546,412.516015 305.557047,411.922945 305.59,411.32 C305.666092,409.834049 306.426986,408.467395 307.65,407.62 C309.324838,406.400678 311.372219,405.803083 313.44,405.93 C315.061301,405.878009 316.670913,406.22121 318.13,406.93 C319.042933,407.427848 319.75111,408.231629 320.13,409.2 C320.493619,410.544674 320.635481,411.939654 320.55,413.33 L320.55,420.62 C320.519287,421.874593 320.559351,423.129919 320.67,424.38 C320.694922,424.724279 320.831902,425.050924 321.06,425.31 C321.231018,425.460859 321.45197,425.542825 321.68,425.54 C321.910393,425.547066 322.138419,425.491787 322.34,425.38 C323.021979,424.866487 323.657735,424.294306 324.24,423.67 L324.24,424.98 C322.493333,427.326667 320.826667,428.5 319.24,428.5 C318.53944,428.528904 317.86454,428.233866 317.41,427.7 C316.863301,426.877934 316.616131,425.892782 316.71,424.91 Z M316.71,423.39 L316.71,415.2 C315.151819,415.784023 313.62627,416.451659 312.14,417.2 C311.109418,417.71767 310.204852,418.454976 309.49,419.36 C308.969306,420.074465 308.689155,420.935929 308.69,421.82 C308.651193,422.847151 309.009289,423.84982 309.69,424.62 C310.261898,425.313902 311.110851,425.720082 312.01,425.73 C313.21,425.73 314.776667,424.946667 316.71,423.38 L316.71,423.39 Z" id="Shape" fill="#FFFFFF" fill-rule="nonzero"></path>
            <polygon id="Path" fill="#FFFFFF" fill-rule="nonzero" points="326.3 415.46 338.42 415.46 338.42 419 326.3 419"></polygon>
            <path d="M360.5,421.41 L360.24,428 L341.3,428 L341.3,427.16 L355.55,408.16 L348.55,408.16 C347.540925,408.095547 346.528045,408.193459 345.55,408.45 C345.048751,408.674273 344.64187,409.067002 344.4,409.56 C343.944938,410.464257 343.695644,411.45802 343.67,412.47 L342.73,412.47 L342.87,406.47 L360.87,406.47 L360.87,407.34 L346.48,426.34 L354.31,426.34 C355.439209,426.414536 356.572345,426.275438 357.65,425.93 C358.271458,425.62287 358.771591,425.115692 359.07,424.49 C359.432168,423.472802 359.644391,422.408316 359.7,421.33 L360.5,421.41 Z" id="Path" fill="#FFFFFF" fill-rule="nonzero"></path>
            <path d="M369.45,394.67 L369.45,410.37 C370.630286,408.942082 372.02325,407.704267 373.58,406.7 C374.499046,406.189549 375.528932,405.91148 376.58,405.89 C377.709597,405.858929 378.816408,406.211416 379.72,406.89 C380.687787,407.710641 381.370491,408.816972 381.67,410.05 C382.044373,411.85127 382.195511,413.691787 382.12,415.53 L382.12,423.12 C382.063284,424.062222 382.175033,425.007009 382.45,425.91 C382.609389,426.287939 382.891127,426.601372 383.25,426.8 C383.901232,427.070216 384.606948,427.183267 385.31,427.13 L385.31,428 L374.79,428 L374.79,427.16 L375.28,427.16 C376.007565,427.227959 376.7382,427.067149 377.37,426.7 C377.78663,426.354378 378.07535,425.879047 378.19,425.35 C378.256765,424.618693 378.28014,423.884072 378.26,423.15 L378.26,415.56 C378.336908,414.010958 378.215932,412.458431 377.9,410.94 C377.70737,410.276407 377.29923,409.695862 376.74,409.29 C376.172174,408.912748 375.501447,408.720613 374.82,408.74 C373.987039,408.756942 373.169195,408.96568 372.43,409.35 C371.29679,409.992567 370.282099,410.824614 369.43,411.81 L369.43,423.15 C369.369652,424.070786 369.45401,424.99534 369.68,425.89 C369.876562,426.281579 370.196273,426.597777 370.59,426.79 C371.322879,427.083104 372.112685,427.206191 372.9,427.15 L372.9,428 L362.28,428 L362.28,427.16 C363.055505,427.196125 363.828044,427.041617 364.53,426.71 C364.878634,426.512866 365.144811,426.197003 365.28,425.82 C365.521384,424.951806 365.616021,424.049383 365.56,423.15 L365.56,403.72 C365.60538,402.21098 365.545233,400.700633 365.38,399.2 C365.329774,398.768164 365.140205,398.364454 364.84,398.05 C364.555037,397.830163 364.198916,397.723326 363.84,397.75 C363.29454,397.799886 362.759072,397.927859 362.25,398.13 L361.92,397.31 L368.34,394.69 L369.45,394.67 Z" id="Path" fill="#FFFFFF" fill-rule="nonzero"></path>
            <rect id="Rectangle" fill="#FFFFFF" fill-rule="nonzero" x="120.33" y="372" width="271.33" height="2"></rect>
        </g>
    </g>
</svg>