<?xml version="1.0" encoding="UTF-8"?>
<svg width="512px" height="512px" viewBox="0 0 512 512" version="1.1" xmlns="http://www.w3.org/2000/svg" xmlns:xlink="http://www.w3.org/1999/xlink">
    <!-- Generator: Sketch 53.2 (72643) - https://sketchapp.com -->
    <title>Wikipedia_zh_random 09</title>
    <desc>Created with Sketch.</desc>
    <defs>
        <circle id="path-1" cx="245.1" cy="245.1" r="245.1"></circle>
    </defs>
    <g id="Wikipedia_zh_random-09" stroke="none" stroke-width="1" fill="none" fill-rule="evenodd">
        <g id="Wikipedia_zh_logo">
            <circle id="Oval" fill="#CCCCCC" fill-rule="nonzero" cx="256" cy="256" r="256"></circle>
            <g id="Group-3" transform="translate(10.900000, 10.900000)">
                <mask id="mask-2" fill="white">
                    <use xlink:href="#path-1"></use>
                </mask>
                <use id="Oval" fill="#8D3D77" fill-rule="nonzero" xlink:href="#path-1"></use>
                <polygon id="Path-59" fill="#000000" opacity="0.15" mask="url(#mask-2)" points="365.6 154.1 528.493179 316.993179 459.046736 520.2 349.6 543.374713 121.325287 315.1 258.62 251.1 310.1 109.1 351.691492 154.1"></polygon>
                <g id="books" mask="url(#mask-2)">
                    <g transform="translate(121.600000, 152.100000)">
                        <path d="M20.5,4.5 L240.5,4.5 C238.754289,13.041555 237.881433,21.3748883 237.881433,29.5 C237.881433,37.6251117 238.754289,45.958445 240.5,54.5 L20.5,54.5 L20.5,4.5 Z" id="Rectangle" fill="#FFF4E0" fill-rule="evenodd"></path>
                        <path d="M4.5,107.5 L240.5,107.5 C238.627328,116.89571 237.690992,126.062377 237.690992,135 C237.690992,143.937623 238.627328,153.10429 240.5,162.5 L4.5,162.5 L4.5,107.5 Z" id="Rectangle" fill="#FFFCD9" fill-rule="evenodd" transform="translate(122.500000, 135.000000) scale(-1, 1) translate(-122.500000, -135.000000) "></path>
                        <path d="M240.5,50 C242.985281,50 245,52.0147186 245,54.5 C245,56.9852814 242.985281,59 240.5,59 L28.5,59 C21.5964406,59 16,53.4035594 16,46.5 L16,12.5 C16,5.59644063 21.5964406,0 28.5,0 L240.5,0 C242.985281,0 245,2.01471863 245,4.5 C245,6.98528137 242.985281,9 240.5,9 L28.5,9 C26.5670034,9 25,10.5670034 25,12.5 L25,46.5 C25,48.4329966 26.5670034,50 28.5,50 L240.5,50 Z" id="Path" fill="#89B772" fill-rule="nonzero"></path>
                        <path d="M39.5,63.5 L225.5,63.5 C224.024081,69.4790885 223.286121,75.3124218 223.286121,81 C223.286121,86.6875782 224.024081,92.5209115 225.5,98.5 L39.5,98.5 L39.5,63.5 Z" id="Rectangle" fill="#E0E8EC" fill-rule="evenodd"></path>
                        <path d="M225.5,94.3931789 C227.985281,94.3931789 230,96.4078975 230,98.8931789 C230,101.37846 227.985281,103.393179 225.5,103.393179 L46.2636364,103.393179 C39.8598123,103.393179 35,97.6450137 35,90.8931789 L35,71.5 C35,64.7481651 39.8598123,59 46.2636364,59 L225.5,59 C227.985281,59 230,61.0147186 230,63.5 C230,65.9852814 227.985281,68 225.5,68 L46.2636364,68 C45.196554,68 44,69.4152789 44,71.5 L44,90.8931789 C44,92.9779 45.196554,94.3931789 46.2636364,94.3931789 L225.5,94.3931789 Z" id="Path-Copy" fill="#2C2C2C" fill-rule="nonzero"></path>
                        <path d="M240.5,158.393179 C242.985281,158.393179 245,160.407897 245,162.893179 C245,165.37846 242.985281,167.393179 240.5,167.393179 L11.2636364,167.393179 C4.85981232,167.393179 5.68434189e-14,161.645014 5.68434189e-14,154.893179 L7.10542736e-13,115.5 C7.10542736e-13,108.748165 4.85981232,103 11.2636364,103 L240.5,103 C242.985281,103 245,105.014719 245,107.5 C245,109.985281 242.985281,112 240.5,112 L11.2636364,112 C10.196554,112 9,113.415279 9,115.5 L9,154.893179 C9,156.9779 10.196554,158.393179 11.2636364,158.393179 L240.5,158.393179 Z" id="Path-Copy" fill="#997131" fill-rule="nonzero" transform="translate(122.500000, 135.196589) scale(-1, 1) translate(-122.500000, -135.196589) "></path>
                        <polygon id="Path-57" fill="#A83131" fill-rule="evenodd" points="45.5 18.5 75.3553816 18.5 75.3553816 67.0304336 60.4276908 52.1027428 45.5 67.0304336"></polygon>
                        <polygon id="Rectangle" fill="#3B4192" fill-rule="evenodd" points="84.5 82.5 97.5 82.5 97.5 114.5 91 108.232104 84.5 114.5"></polygon>
                    </g>
                </g>
                <g id="Group" mask="url(#mask-2)">
                    <g transform="translate(256.100000, 130.600000) scale(-1, 1) translate(-256.100000, -130.600000) translate(195.100000, 109.100000)">
                        <polygon id="Path-61" fill="#767676" points="7.28207726 0 0 43 37 43"></polygon>
                        <polygon id="Path-60" fill="#FFFFFF" points="7 0 113.678499 0 122 43 13.9330062 43"></polygon>
                    </g>
                </g>
                <path d="M211.230127,133.17373 C211.627915,133.304916 211.879703,133.519676 211.985498,133.818018 C212.091293,134.116359 212.070134,134.616761 211.922021,135.319238 L211.718896,136.258691 C211.625797,136.698798 211.609928,136.992903 211.671289,137.141016 C211.73265,137.289128 211.879703,137.392806 212.112451,137.452051 C212.167464,137.464746 212.243636,137.477441 212.340967,137.490137 C212.700669,137.540918 212.850895,137.714419 212.79165,138.010645 C212.757796,138.154525 212.683741,138.266666 212.569482,138.34707 C212.455224,138.427474 212.309229,138.467676 212.131494,138.467676 C211.416321,138.467676 210.950831,138.289943 210.73501,137.934473 C210.519188,137.579002 210.514957,136.910389 210.722314,135.928613 L210.881006,135.192285 C210.986801,134.697165 210.991032,134.34699 210.893701,134.141748 C210.79637,133.936506 210.485338,133.787338 209.960596,133.694238 C209.799788,133.668848 209.691879,133.617009 209.636865,133.538721 C209.581852,133.460433 209.571273,133.33877 209.605127,133.17373 C209.634749,133.038313 209.687646,132.93252 209.763818,132.856348 C209.839991,132.780175 209.9479,132.725163 210.087549,132.691309 C210.151026,132.678613 210.24624,132.657455 210.373193,132.627832 C211.105293,132.479719 211.558088,131.995186 211.731592,131.174219 L211.896631,130.418848 C212.103989,129.441304 212.393862,128.772691 212.76626,128.412988 C213.138657,128.053286 213.682435,127.873438 214.397607,127.873438 C214.571111,127.873438 214.697005,127.914697 214.775293,127.997217 C214.853581,128.079737 214.875798,128.192935 214.841943,128.336816 C214.782698,128.62881 214.560533,128.798079 214.175439,128.844629 C214.103499,128.857324 214.046371,128.865788 214.004053,128.87002 C213.724754,128.920801 213.516342,129.025536 213.378809,129.184229 C213.241275,129.342921 213.123845,129.650779 213.026514,130.107813 L212.829736,131.040918 C212.677392,131.747627 212.485906,132.249087 212.255273,132.545313 C212.024641,132.841538 211.682929,133.051009 211.230127,133.17373 Z M219.031396,133.17373 C219.429185,133.304916 219.680973,133.519676 219.786768,133.818018 C219.892562,134.116359 219.871404,134.616761 219.723291,135.319238 L219.520166,136.258691 C219.427067,136.698798 219.411198,136.992903 219.472559,137.141016 C219.53392,137.289128 219.680972,137.392806 219.913721,137.452051 C219.968734,137.464746 220.044905,137.477441 220.142236,137.490137 C220.501939,137.540918 220.652165,137.714419 220.59292,138.010645 C220.559066,138.154525 220.48501,138.266666 220.370752,138.34707 C220.256494,138.427474 220.110499,138.467676 219.932764,138.467676 C219.217591,138.467676 218.752101,138.289943 218.536279,137.934473 C218.320458,137.579002 218.316226,136.910389 218.523584,135.928613 L218.682275,135.192285 C218.78807,134.697165 218.792302,134.34699 218.694971,134.141748 C218.597639,133.936506 218.286607,133.787338 217.761865,133.694238 C217.601057,133.668848 217.493148,133.617009 217.438135,133.538721 C217.383121,133.460433 217.372542,133.33877 217.406396,133.17373 C217.436019,133.038313 217.488916,132.93252 217.565088,132.856348 C217.64126,132.780175 217.749169,132.725163 217.888818,132.691309 C217.952295,132.678613 218.047509,132.657455 218.174463,132.627832 C218.906563,132.479719 219.359358,131.995186 219.532861,131.174219 L219.6979,130.418848 C219.905258,129.441304 220.195132,128.772691 220.567529,128.412988 C220.939927,128.053286 221.483704,127.873438 222.198877,127.873438 C222.37238,127.873438 222.498274,127.914697 222.576562,127.997217 C222.654851,128.079737 222.677067,128.192935 222.643213,128.336816 C222.583968,128.62881 222.361802,128.798079 221.976709,128.844629 C221.904769,128.857324 221.84764,128.865788 221.805322,128.87002 C221.526024,128.920801 221.317611,129.025536 221.180078,129.184229 C221.042545,129.342921 220.925114,129.650779 220.827783,130.107813 L220.631006,131.040918 C220.478661,131.747627 220.287176,132.249087 220.056543,132.545313 C219.82591,132.841538 219.484198,133.051009 219.031396,133.17373 Z M226.255029,135.20498 L228.362451,135.20498 C228.527491,135.20498 228.641748,135.239892 228.705225,135.309717 C228.768701,135.379541 228.785628,135.490624 228.756006,135.642969 C228.71792,135.816472 228.655502,135.936019 228.56875,136.001611 C228.481998,136.067204 228.339177,136.1 228.140283,136.1 L223.988916,136.1 C223.823876,136.1 223.706446,136.061914 223.636621,135.985742 C223.566797,135.90957 223.548812,135.795313 223.582666,135.642969 C223.612289,135.494856 223.67788,135.384831 223.779443,135.312891 C223.881006,135.24095 224.022769,135.20498 224.204736,135.20498 L225.309229,135.20498 L226.178857,131.136133 L225.747217,131.136133 C225.336733,131.136133 225.087061,131.103337 224.998193,131.037744 C224.909326,130.972151 224.883935,130.852605 224.922021,130.679102 C224.951644,130.530989 225.016178,130.419906 225.115625,130.34585 C225.215072,130.271793 225.349429,130.234766 225.518701,130.234766 L226.965967,130.234766 C227.080225,130.234766 227.161686,130.256982 227.210352,130.301416 C227.259017,130.34585 227.274886,130.410384 227.257959,130.49502 L227.029443,131.574121 C227.537258,131.070538 228.035544,130.69603 228.524316,130.450586 C229.013088,130.205142 229.509259,130.082422 230.012842,130.082422 C230.389471,130.082422 230.678287,130.158593 230.879297,130.310938 C231.080307,130.463282 231.15542,130.660057 231.104639,130.90127 C231.070784,131.057846 230.982976,131.196435 230.841211,131.317041 C230.699446,131.437647 230.558741,131.497949 230.419092,131.497949 C230.321761,131.497949 230.171534,131.433415 229.968408,131.304346 C229.765282,131.175276 229.572739,131.110742 229.390771,131.110742 C229.060692,131.110742 228.687242,131.228173 228.27041,131.463037 C227.853579,131.697902 227.367988,132.069236 226.813623,132.577051 L226.255029,135.20498 Z M232.907373,133.44668 C232.814274,134.056058 232.921125,134.526838 233.22793,134.859033 C233.534735,135.191229 234.016094,135.357324 234.672021,135.357324 C235.167141,135.357324 235.735251,135.225083 236.376367,134.960596 C237.017484,134.696109 237.399397,134.563867 237.522119,134.563867 C237.649073,134.563867 237.746403,134.604069 237.814111,134.684473 C237.88182,134.764877 237.902979,134.864322 237.877588,134.982813 C237.852197,135.105534 237.784489,135.217675 237.674463,135.319238 C237.564436,135.420801 237.401515,135.520247 237.185693,135.617578 C236.715964,135.824936 236.244127,135.983626 235.770166,136.093652 C235.296205,136.203679 234.837063,136.258691 234.392725,136.258691 C233.427876,136.258691 232.71483,135.980455 232.253564,135.423975 C231.792299,134.867494 231.659,134.130115 231.853662,133.211816 C232.052556,132.27659 232.520162,131.519111 233.256494,130.939355 C233.992826,130.3596 234.853983,130.069727 235.83999,130.069727 C236.732898,130.069727 237.416323,130.340557 237.890283,130.882227 C238.364244,131.423896 238.518702,132.079814 238.353662,132.85 C238.302881,133.08698 238.219304,133.24567 238.10293,133.326074 C237.986555,133.406478 237.708319,133.44668 237.268213,133.44668 L232.907373,133.44668 Z M233.116846,132.615137 L237.24917,132.615137 C237.291488,132.111553 237.166652,131.706365 236.874658,131.399561 C236.582665,131.092756 236.176419,130.939355 235.655908,130.939355 C235.09308,130.939355 234.588446,131.087466 234.141992,131.383691 C233.695538,131.679917 233.353826,132.090395 233.116846,132.615137 Z M244.441064,135.192285 C244.614568,135.192285 244.738346,135.230371 244.812402,135.306543 C244.886459,135.382715 244.908675,135.494856 244.879053,135.642969 C244.845198,135.795313 244.777491,135.90957 244.675928,135.985742 C244.574365,136.061914 244.441065,136.1 244.276025,136.1 L240.124658,136.1 C239.951155,136.1 239.826319,136.061914 239.750146,135.985742 C239.673974,135.90957 239.652816,135.795313 239.68667,135.642969 C239.716292,135.494856 239.782942,135.382715 239.886621,135.306543 C239.9903,135.230371 240.124657,135.192285 240.289697,135.192285 L241.368799,135.192285 L242.193994,131.313867 L241.152979,131.313867 C240.979475,131.313867 240.853581,131.273666 240.775293,131.193262 C240.697005,131.112858 240.672672,130.998601 240.702295,130.850488 C240.736149,130.698144 240.805973,130.583887 240.911768,130.507715 C241.017562,130.431543 241.155094,130.393457 241.324365,130.393457 L242.327295,130.393457 L242.416162,129.961816 C242.581202,129.195862 242.917624,128.640448 243.425439,128.295557 C243.933254,127.950666 244.673807,127.778223 245.647119,127.778223 C246.12108,127.778223 246.460676,127.831119 246.665918,127.936914 C246.87116,128.042709 246.948389,128.207746 246.897607,128.432031 C246.872217,128.563217 246.801335,128.671126 246.684961,128.755762 C246.568587,128.840398 246.434229,128.882715 246.281885,128.882715 C246.205713,128.882715 246.02798,128.857324 245.748682,128.806543 C245.469383,128.755761 245.226059,128.730371 245.018701,128.730371 C244.540509,128.730371 244.17658,128.830875 243.926904,129.031885 C243.677229,129.232895 243.503728,129.566144 243.406396,130.031641 L243.330225,130.393457 L245.577295,130.393457 C245.750798,130.393457 245.874576,130.431543 245.948633,130.507715 C246.022689,130.583887 246.04279,130.698144 246.008936,130.850488 C245.979313,130.994369 245.909489,131.107568 245.799463,131.190088 C245.689436,131.272608 245.554021,131.313867 245.393213,131.313867 L243.196924,131.313867 L242.371729,135.192285 L244.441064,135.192285 Z M251.239404,128.70498 L250.160303,128.70498 C249.749819,128.70498 249.500147,128.672185 249.411279,128.606592 C249.322412,128.540999 249.294905,128.421453 249.32876,128.247949 C249.362614,128.095605 249.43138,127.981348 249.535059,127.905176 C249.638737,127.829004 249.773095,127.790918 249.938135,127.790918 L252.032861,127.790918 C252.14712,127.790918 252.230696,127.814192 252.283594,127.860742 C252.336491,127.907292 252.354476,127.970768 252.337549,128.051172 L250.814111,135.20498 L252.807275,135.20498 C252.968083,135.20498 253.078108,135.239892 253.137354,135.309717 C253.196599,135.379541 253.21141,135.490624 253.181787,135.642969 C253.143701,135.816472 253.082341,135.936019 252.997705,136.001611 C252.913069,136.067204 252.771306,136.1 252.572412,136.1 L247.887842,136.1 C247.722802,136.1 247.604314,136.061914 247.532373,135.985742 C247.460433,135.90957 247.44139,135.795313 247.475244,135.642969 C247.504867,135.494856 247.571516,135.384831 247.675195,135.312891 C247.778874,135.24095 247.919579,135.20498 248.097314,135.20498 L249.855615,135.20498 L251.239404,128.70498 Z M258.945459,128.406641 C259.04279,127.949607 259.14541,127.66185 259.25332,127.543359 C259.361231,127.424869 259.550601,127.365625 259.821436,127.365625 C260.083807,127.365625 260.246728,127.415348 260.310205,127.514795 C260.373682,127.614242 260.365219,127.850161 260.284814,128.222559 C260.208642,128.586493 260.121892,128.811832 260.024561,128.898584 C259.927229,128.985336 259.741033,129.028711 259.465967,129.028711 C259.195132,129.028711 259.026921,128.98851 258.961328,128.908105 C258.895735,128.827701 258.890446,128.660548 258.945459,128.406641 Z M258.67251,135.20498 L260.710107,135.20498 C260.875147,135.20498 260.989404,135.239892 261.052881,135.309717 C261.116358,135.379541 261.133285,135.490624 261.103662,135.642969 C261.065576,135.816472 261.003158,135.936019 260.916406,136.001611 C260.829655,136.067204 260.686834,136.1 260.487939,136.1 L255.562158,136.1 C255.392887,136.1 255.27334,136.061914 255.203516,135.985742 C255.133691,135.90957 255.115706,135.795313 255.149561,135.642969 C255.179183,135.494856 255.245833,135.384831 255.349512,135.312891 C255.453191,135.24095 255.593896,135.20498 255.771631,135.20498 L257.707666,135.20498 L258.577295,131.136133 L257.339502,131.136133 C257.165998,131.136133 257.04222,131.096989 256.968164,131.018701 C256.894108,130.940413 256.871891,130.827214 256.901514,130.679102 C256.931136,130.530989 256.996728,130.419906 257.098291,130.34585 C257.199854,130.271793 257.335269,130.234766 257.504541,130.234766 L259.364404,130.234766 C259.478663,130.234766 259.563297,130.25804 259.618311,130.30459 C259.673324,130.35114 259.692367,130.414615 259.675439,130.49502 L258.67251,135.20498 Z M263.027002,135.642969 L263.268213,134.513086 C263.306299,134.326887 263.368717,134.193588 263.455469,134.113184 C263.54222,134.03278 263.663883,133.992578 263.820459,133.992578 C263.993962,133.992578 264.106103,134.111067 264.156885,134.348047 C264.194971,134.491928 264.233056,134.599837 264.271143,134.671777 C264.402328,134.900294 264.62661,135.083316 264.943994,135.22085 C265.261379,135.358383 265.629539,135.427148 266.048486,135.427148 C266.497056,135.427148 266.875796,135.336166 267.184717,135.154199 C267.493638,134.972232 267.679834,134.73314 267.743311,134.436914 C267.806787,134.136457 267.743311,133.922755 267.552881,133.795801 C267.36245,133.668847 267.002753,133.605371 266.473779,133.605371 L266.124658,133.605371 C265.261373,133.605371 264.635077,133.455145 264.245752,133.154688 C263.856427,132.85423 263.723128,132.418362 263.84585,131.84707 C263.96434,131.288474 264.277488,130.854722 264.785303,130.545801 C265.293118,130.23688 265.94692,130.082422 266.746729,130.082422 C267.072576,130.082422 267.395246,130.127913 267.714746,130.218896 C268.034246,130.30988 268.202458,130.355371 268.219385,130.355371 C268.265934,130.355371 268.363264,130.314112 268.511377,130.231592 C268.65949,130.149072 268.797021,130.107813 268.923975,130.107813 C269.067856,130.107813 269.164127,130.160709 269.212793,130.266504 C269.261459,130.372299 269.262517,130.530989 269.215967,130.742578 L269.057275,131.485254 C269.010726,131.709539 268.943018,131.871402 268.85415,131.97085 C268.765283,132.070297 268.646794,132.12002 268.498682,132.12002 C268.371728,132.12002 268.238428,132.01211 268.098779,131.796289 C267.997216,131.648176 267.912582,131.536036 267.844873,131.459863 C267.662906,131.252505 267.454493,131.103337 267.219629,131.012354 C266.984764,130.92137 266.695949,130.875879 266.353174,130.875879 C265.955385,130.875879 265.616847,130.963687 265.337549,131.139307 C265.058251,131.314926 264.888981,131.53815 264.829736,131.808984 C264.774723,132.075587 264.859358,132.266015 265.083643,132.380273 C265.307928,132.494532 265.830546,132.560124 266.651514,132.577051 C267.527495,132.59821 268.138979,132.75161 268.485986,133.037256 C268.832993,133.322902 268.943018,133.76406 268.816064,134.360742 C268.693342,134.932034 268.371731,135.389061 267.851221,135.731836 C267.33071,136.074611 266.689603,136.245996 265.927881,136.245996 C265.686669,136.245996 265.422186,136.22378 265.134424,136.179346 C264.846662,136.134912 264.489081,136.059799 264.06167,135.954004 C263.89663,136.051335 263.755925,136.124332 263.639551,136.172998 C263.523177,136.221664 263.429021,136.245996 263.35708,136.245996 C263.208967,136.245996 263.106348,136.194157 263.049219,136.090479 C262.99209,135.9868 262.984684,135.837631 263.027002,135.642969 Z M276.401514,130.590234 C276.608871,130.590234 276.75275,130.626204 276.833154,130.698145 C276.913558,130.770085 276.936833,130.884342 276.902979,131.040918 C276.869124,131.189031 276.800359,131.300114 276.69668,131.37417 C276.593001,131.448226 276.452296,131.485254 276.274561,131.485254 L273.70376,131.485254 L273.253076,133.605371 C273.104963,134.299385 273.097558,134.756412 273.230859,134.976465 C273.364161,135.196518 273.648745,135.306543 274.084619,135.306543 C274.469712,135.306543 274.955303,135.194402 275.541406,134.970117 C276.127509,134.745832 276.484033,134.633691 276.610986,134.633691 C276.729477,134.633691 276.820459,134.676009 276.883936,134.760645 C276.947412,134.84528 276.966455,134.948958 276.941064,135.07168 C276.911442,135.211329 276.834213,135.332991 276.709375,135.43667 C276.584537,135.540349 276.386704,135.640852 276.115869,135.738184 C275.663067,135.903223 275.263169,136.023828 274.916162,136.1 C274.569155,136.176172 274.24966,136.214258 273.957666,136.214258 C273.462546,136.214258 273.063706,136.134913 272.761133,135.976221 C272.45856,135.817529 272.256495,135.58161 272.154932,135.268457 C272.10415,135.120344 272.081934,134.944728 272.088281,134.741602 C272.094629,134.538476 272.142236,134.225328 272.231104,133.802148 L272.275537,133.605371 L272.726221,131.485254 L271.647119,131.485254 C271.469384,131.485254 271.347722,131.450342 271.282129,131.380518 C271.216536,131.310693 271.200667,131.197494 271.234521,131.040918 C271.272608,130.867414 271.35301,130.748926 271.475732,130.685449 C271.598454,130.621972 271.839663,130.590234 272.199365,130.590234 L272.91665,130.590234 L273.195947,129.288965 L273.265771,128.952539 C273.303858,128.770572 273.371565,128.636215 273.468896,128.549463 C273.566228,128.462711 273.697411,128.419336 273.862451,128.419336 C274.04865,128.419336 274.16608,128.472233 274.214746,128.578027 C274.263412,128.683822 274.247543,128.925031 274.167139,129.30166 L273.894189,130.590234 L276.401514,130.590234 Z M282.400049,133.17373 C282.00226,133.051009 281.749415,132.84048 281.641504,132.542139 C281.533593,132.243797 281.553694,131.743395 281.701807,131.040918 L281.898584,130.107813 C281.995915,129.659243 282.0139,129.357732 281.952539,129.203271 C281.891178,129.048811 281.748357,128.94196 281.524072,128.882715 C281.473291,128.870019 281.392888,128.857324 281.282861,128.844629 C280.931623,128.793847 280.785628,128.633042 280.844873,128.362207 C280.878727,128.201399 280.948551,128.079737 281.054346,127.997217 C281.160141,127.914697 281.301903,127.873438 281.479639,127.873438 C282.194812,127.873438 282.662418,128.053286 282.882471,128.412988 C283.102524,128.772691 283.108871,129.441304 282.901514,130.418848 L282.736475,131.174219 C282.562971,131.999418 282.80418,132.483951 283.460107,132.627832 C283.582829,132.653223 283.678043,132.674381 283.745752,132.691309 C283.872706,132.729395 283.958398,132.785465 284.002832,132.859521 C284.047266,132.933578 284.054671,133.038313 284.025049,133.17373 C283.995426,133.317611 283.939356,133.431868 283.856836,133.516504 C283.774316,133.60114 283.661117,133.656152 283.517236,133.681543 C283.470687,133.690007 283.402979,133.702702 283.314111,133.719629 C282.539693,133.86351 282.063624,134.35439 281.885889,135.192285 L281.727197,135.928613 C281.519839,136.910389 281.232082,137.579002 280.863916,137.934473 C280.49575,138.289943 279.954089,138.467676 279.238916,138.467676 C279.056949,138.467676 278.929997,138.426416 278.858057,138.343896 C278.786116,138.261377 278.767073,138.137598 278.800928,137.972559 C278.855941,137.701724 279.071759,137.540918 279.448389,137.490137 C279.524561,137.481673 279.581689,137.47321 279.619775,137.464746 C279.903305,137.418196 280.111718,137.320867 280.24502,137.172754 C280.378321,137.024641 280.493636,136.719957 280.590967,136.258691 L280.794092,135.319238 C280.942205,134.625224 281.13369,134.126938 281.368555,133.824365 C281.603419,133.521792 281.947247,133.304916 282.400049,133.17373 Z M290.201318,133.17373 C289.80353,133.051009 289.550684,132.84048 289.442773,132.542139 C289.334863,132.243797 289.354963,131.743395 289.503076,131.040918 L289.699854,130.107813 C289.797185,129.659243 289.81517,129.357732 289.753809,129.203271 C289.692448,129.048811 289.549627,128.94196 289.325342,128.882715 C289.27456,128.870019 289.194157,128.857324 289.084131,128.844629 C288.732892,128.793847 288.586897,128.633042 288.646143,128.362207 C288.679997,128.201399 288.74982,128.079737 288.855615,127.997217 C288.96141,127.914697 289.103173,127.873438 289.280908,127.873438 C289.996081,127.873438 290.463687,128.053286 290.68374,128.412988 C290.903793,128.772691 290.910141,129.441304 290.702783,130.418848 L290.537744,131.174219 C290.364241,131.999418 290.605449,132.483951 291.261377,132.627832 C291.384099,132.653223 291.479313,132.674381 291.547021,132.691309 C291.673975,132.729395 291.759668,132.785465 291.804102,132.859521 C291.848535,132.933578 291.855941,133.038313 291.826318,133.17373 C291.796696,133.317611 291.740625,133.431868 291.658105,133.516504 C291.575586,133.60114 291.462387,133.656152 291.318506,133.681543 C291.271956,133.690007 291.204248,133.702702 291.115381,133.719629 C290.340963,133.86351 289.864893,134.35439 289.687158,135.192285 L289.528467,135.928613 C289.321109,136.910389 289.033351,137.579002 288.665186,137.934473 C288.29702,138.289943 287.755358,138.467676 287.040186,138.467676 C286.858218,138.467676 286.731267,138.426416 286.659326,138.343896 C286.587386,138.261377 286.568343,138.137598 286.602197,137.972559 C286.657211,137.701724 286.873029,137.540918 287.249658,137.490137 C287.32583,137.481673 287.382959,137.47321 287.421045,137.464746 C287.704575,137.418196 287.912988,137.320867 288.046289,137.172754 C288.179591,137.024641 288.294905,136.719957 288.392236,136.258691 L288.595361,135.319238 C288.743474,134.625224 288.93496,134.126938 289.169824,133.824365 C289.404689,133.521792 289.748517,133.304916 290.201318,133.17373 Z" id="{{reflist}}" fill="#3C3C3C" fill-rule="nonzero" mask="url(#mask-2)"></path>
            </g>
            <path d="M171.29,396.22 L171.29,397.09 C170.595562,397.06372 169.906258,397.218813 169.29,397.54 C168.662065,397.956786 168.152299,398.52855 167.81,399.2 C167.216903,400.463356 166.722103,401.770564 166.33,403.11 L157.47,428.73 L156.53,428.73 L149.29,408.41 L142.09,428.73 L141.25,428.73 L131.8,402.34 C131.1,400.34 130.653333,399.176667 130.46,398.85 C130.177684,398.289937 129.731113,397.829411 129.18,397.53 C128.495606,397.211392 127.744054,397.063827 126.99,397.1 L126.99,396.23 L138.76,396.23 L138.76,397.1 L138.2,397.1 C137.519984,397.052595 136.845603,397.25136 136.3,397.66 C135.883097,397.988146 135.63982,398.489446 135.64,399.02 C135.820189,400.312374 136.155958,401.578224 136.64,402.79 L142.9,420.63 L148.17,405.47 L147.23,402.8 L146.48,400.67 C146.183562,399.948079 145.815028,399.257916 145.38,398.61 C145.179132,398.315272 144.924728,398.060868 144.63,397.86 C144.274486,397.596435 143.879638,397.390574 143.46,397.25 C142.998848,397.137694 142.524232,397.090569 142.05,397.11 L142.05,396.24 L154.43,396.24 L154.43,397.11 L153.59,397.11 C152.902593,397.051043 152.217926,397.250738 151.67,397.67 C151.259019,398.066365 151.037041,398.619488 151.06,399.19 C151.207909,400.623215 151.561542,402.027643 152.11,403.36 L158.2,420.63 L164.2,403.12 C164.719342,401.840185 165.055977,400.493645 165.2,399.12 C165.197123,398.758782 165.077895,398.408112 164.86,398.12 C164.647967,397.816852 164.347678,397.586398 164,397.46 C163.251453,397.217167 162.46657,397.105524 161.68,397.13 L161.68,396.26 L171.29,396.22 Z" id="Path" fill="#FFFFFF" fill-rule="nonzero"></path>
            <path d="M178.64,405.9 L178.64,423.15 C178.582415,424.05335 178.68051,424.959878 178.93,425.83 C179.101913,426.250077 179.407751,426.601616 179.8,426.83 C180.465031,427.101027 181.183895,427.213992 181.9,427.16 L181.9,428 L171.47,428 L171.47,427.16 C172.186877,427.21768 172.907609,427.115206 173.58,426.86 C173.967088,426.628229 174.268783,426.27742 174.44,425.86 C174.708526,424.986643 174.816937,424.071931 174.76,423.16 L174.76,414.89 C174.806778,413.380171 174.736568,411.868987 174.55,410.37 C174.485542,409.990478 174.303674,409.64073 174.03,409.37 C173.743635,409.153721 173.387646,409.050484 173.03,409.08 C172.483649,409.10308 171.945543,409.221531 171.44,409.43 L171.11,408.59 L177.58,405.97 L178.64,405.9 Z M176.69,394.67 C177.319379,394.667327 177.923751,394.916165 178.368793,395.361207 C178.813835,395.806249 179.062673,396.410621 179.06,397.04 C179.070596,397.673952 178.82127,398.28462 178.37,398.73 C177.932854,399.188473 177.323356,399.442431 176.69,399.43 C175.375562,399.43 174.31,398.364438 174.31,397.05 C174.31,395.735562 175.375562,394.67 176.69,394.67 L176.69,394.67 Z" id="Shape" fill="#FFFFFF" fill-rule="nonzero"></path>
            <path d="M190.93,394.67 L190.93,416 L196.39,411 C197.107292,410.385958 197.775958,409.717292 198.39,409 C198.50834,408.836756 198.57457,408.641553 198.58,408.44 C198.585534,408.12349 198.440878,407.823052 198.19,407.63 C197.817272,407.363908 197.367778,407.226952 196.91,407.24 L196.91,406.49 L206.24,406.49 L206.24,407.24 C205.145994,407.236733 204.060907,407.436796 203.04,407.83 C202.007163,408.311196 201.061055,408.959956 200.24,409.75 L194.73,414.84 L200.24,421.84 C201.773333,423.76 202.803333,424.98 203.33,425.5 C203.897309,426.102215 204.576668,426.587957 205.33,426.93 C205.979436,427.116362 206.655214,427.194077 207.33,427.16 L207.33,428 L196.93,428 L196.93,427.16 C197.350964,427.189001 197.771297,427.095207 198.14,426.89 C198.351974,426.725283 198.471194,426.468215 198.46,426.2 C198.313013,425.547376 197.987575,424.948432 197.52,424.47 L190.93,416 L190.93,423.13 C190.869477,424.053193 190.967563,424.979931 191.22,425.87 C191.379519,426.269962 191.672867,426.602187 192.05,426.81 C192.804045,427.056925 193.598052,427.158721 194.39,427.11 L194.39,428 L183.47,428 L183.47,427.16 C184.309196,427.204603 185.148168,427.068185 185.93,426.76 C186.261971,426.584109 186.52587,426.302617 186.68,425.96 C186.96568,425.10042 187.084477,424.194169 187.03,423.29 L187.03,403.74 C187.075907,402.218138 187.02246,400.694902 186.87,399.18 C186.819774,398.748164 186.630205,398.344454 186.33,398.03 C186.047424,397.803869 185.69136,397.689929 185.33,397.71 C184.817169,397.756307 184.316337,397.891667 183.85,398.11 L183.45,397.29 L189.83,394.67 L190.93,394.67 Z" id="Path" fill="#FFFFFF" fill-rule="nonzero"></path>
            <path d="M216,405.9 L216,423.15 C215.942415,424.05335 216.04051,424.959878 216.29,425.83 C216.461913,426.250077 216.767751,426.601616 217.16,426.83 C217.825031,427.101027 218.543895,427.213992 219.26,427.16 L219.26,428 L208.81,428 L208.81,427.16 C209.526877,427.21768 210.247609,427.115206 210.92,426.86 C211.307088,426.628229 211.608783,426.27742 211.78,425.86 C212.048526,424.986643 212.156937,424.071931 212.1,423.16 L212.1,414.89 C212.146778,413.380171 212.076568,411.868987 211.89,410.37 C211.825542,409.990478 211.643674,409.64073 211.37,409.37 C211.083635,409.153721 210.727646,409.050484 210.37,409.08 C209.823649,409.10308 209.285543,409.221531 208.78,409.43 L208.45,408.59 L214.92,405.97 L216,405.9 Z M214,394.67 C214.627644,394.659311 215.233686,394.899116 215.684082,395.336375 C216.134478,395.773634 216.392111,396.372314 216.4,397 C216.410596,397.633952 216.16127,398.24462 215.71,398.69 C215.272854,399.148473 214.663356,399.402431 214.03,399.39 C212.715562,399.39 211.65,398.324438 211.65,397.01 C211.65,395.695562 212.715562,394.63 214.03,394.63 L214,394.67 Z" id="Shape" fill="#FFFFFF" fill-rule="nonzero"></path>
            <path d="M220.36,408.66 L227,406 L227.89,406 L227.89,411 C228.701464,409.44115 229.840916,408.076537 231.23,407 C232.262168,406.267489 233.494358,405.869558 234.76,405.86 C236.850345,405.828597 238.83862,406.761869 240.15,408.39 C241.985339,410.664336 242.927615,413.530276 242.8,416.45 C242.923439,419.804484 241.785262,423.083433 239.61,425.64 C237.971197,427.584822 235.542794,428.686971 233,428.64 C231.978314,428.66343 230.961135,428.497291 230,428.15 C229.216633,427.812482 228.501551,427.334631 227.89,426.74 L227.89,433.28 C227.827695,434.221798 227.918884,435.167461 228.16,436.08 C228.355132,436.495084 228.687004,436.830487 229.1,437.03 C229.875436,437.319939 230.70426,437.439317 231.53,437.38 L231.53,438.25 L220.25,438.25 L220.25,437.38 L220.84,437.38 C221.604026,437.417146 222.363959,437.247888 223.04,436.89 C223.354541,436.696192 223.596907,436.404651 223.73,436.06 C223.956282,435.104226 224.040519,434.120329 223.98,433.14 L223.98,412.84 C224.023966,411.952235 223.960167,411.062413 223.79,410.19 C223.688988,409.851063 223.477856,409.555477 223.19,409.35 C222.856587,409.14714 222.469741,409.049557 222.08,409.07 C221.587775,409.096043 221.103861,409.207715 220.65,409.4 L220.36,408.66 Z M227.86,412.39 L227.86,420.39 C227.815925,421.534149 227.886274,422.679839 228.07,423.81 C228.32173,424.765458 228.889121,425.607734 229.68,426.2 C230.60518,426.896091 231.74326,427.249532 232.9,427.2 C234.38745,427.237506 235.801922,426.556326 236.7,425.37 C238.078573,423.407217 238.748594,421.03393 238.6,418.64 C238.6,415.36 237.88,412.836667 236.44,411.07 C235.605928,409.93553 234.287968,409.258039 232.88,409.24 C232.102526,409.245225 231.337702,409.437289 230.65,409.8 C229.59858,410.522541 228.658612,411.395128 227.86,412.39 L227.86,412.39 Z" id="Shape" fill="#FFFFFF" fill-rule="nonzero"></path>
            <path d="M249.52,414.62 C249.344526,417.320257 250.170506,419.990453 251.84,422.12 C253.166994,423.817983 255.195093,424.819149 257.35,424.84 C258.667526,424.866852 259.957248,424.459202 261.02,423.68 C262.251891,422.621304 263.157134,421.23396 263.63,419.68 L264.36,420.15 C264.008245,422.340584 263.012675,424.376977 261.5,426 C260.014018,427.717706 257.840818,428.685202 255.57,428.64 C253.030168,428.659181 250.609957,427.562409 248.95,425.64 C247.029535,423.391982 246.045174,420.492592 246.2,417.54 C246.2,413.866667 247.14,411.003333 249.02,408.95 C250.817266,406.933229 253.409336,405.807196 256.11,405.87 C258.332966,405.796616 260.484568,406.66016 262.04,408.25 C263.638309,409.971038 264.47476,412.264069 264.36,414.61 L249.52,414.62 Z M249.52,413.26 L259.46,413.26 C259.454486,412.269938 259.28902,411.287272 258.97,410.35 C258.603513,409.5052 257.994442,408.788237 257.22,408.29 C256.501479,407.806265 255.656165,407.545366 254.79,407.54 C253.472613,407.547675 252.215526,408.093135 251.31,409.05 C250.227491,410.193082 249.592165,411.687341 249.52,413.26 L249.52,413.26 Z" id="Shape" fill="#FFFFFF" fill-rule="nonzero"></path>
            <path d="M282.38,425.59 C281.506607,426.55455 280.466685,427.353969 279.31,427.95 C278.300457,428.426645 277.19637,428.669339 276.08,428.66 C273.697666,428.643131 271.446804,427.565356 269.94,425.72 C268.142542,423.62172 267.206429,420.920568 267.32,418.16 C267.315097,415.096723 268.339975,412.120704 270.23,409.71 C271.937664,407.276202 274.737105,405.842798 277.71,405.88 C279.452541,405.820378 281.14479,406.469855 282.4,407.68 L282.4,403.68 C282.44538,402.17098 282.385233,400.660633 282.22,399.16 C282.167008,398.726938 281.97386,398.323082 281.67,398.01 C281.401774,397.80242 281.068886,397.696179 280.73,397.71 C280.172398,397.744155 279.624629,397.872645 279.11,398.09 L278.81,397.27 L285.21,394.65 L286.26,394.65 L286.26,419.47 C286.213062,421.008981 286.273207,422.549364 286.44,424.08 C286.493635,424.517842 286.690518,424.92567 287,425.24 C287.24953,425.456393 287.569732,425.5738 287.9,425.57 C288.482059,425.534268 289.053678,425.398974 289.59,425.17 L289.85,425.99 L283.48,428.64 L282.4,428.64 L282.38,425.59 Z M282.38,423.95 L282.38,412.88 C282.301371,411.862867 282.015512,410.872569 281.54,409.97 C281.123461,409.139565 280.478077,408.445604 279.68,407.97 C278.999187,407.550705 278.219333,407.319509 277.42,407.3 C275.977644,407.332288 274.626308,408.011628 273.74,409.15 C272.32,410.776667 271.61,413.153333 271.61,416.28 C271.61,419.406667 272.296667,421.823333 273.67,423.53 C274.724095,425.03894 276.421056,425.970605 278.26,426.05 C279.868022,425.962309 281.364249,425.199669 282.38,423.95 L282.38,423.95 Z" id="Shape" fill="#FFFFFF" fill-rule="nonzero"></path>
            <path d="M298.62,405.9 L298.62,423.15 C298.562415,424.05335 298.66051,424.959878 298.91,425.83 C299.081913,426.250077 299.387751,426.601616 299.78,426.83 C300.445031,427.101027 301.163895,427.213992 301.88,427.16 L301.88,428 L291.45,428 L291.45,427.16 C292.166877,427.21768 292.887609,427.115206 293.56,426.86 C293.947088,426.628229 294.248783,426.27742 294.42,425.86 C294.688526,424.986643 294.796937,424.071931 294.74,423.16 L294.74,414.89 C294.786778,413.380171 294.716568,411.868987 294.53,410.37 C294.465542,409.990478 294.283674,409.64073 294.01,409.37 C293.723635,409.153721 293.367646,409.050484 293.01,409.08 C292.463649,409.10308 291.925543,409.221531 291.42,409.43 L291.09,408.59 L297.56,405.97 L298.62,405.9 Z M296.67,394.67 C297.950065,394.686171 298.983829,395.719935 299,397 C299.010596,397.633952 298.76127,398.24462 298.31,398.69 C297.872854,399.148473 297.263356,399.402431 296.63,399.39 C295.315562,399.39 294.25,398.324438 294.25,397.01 C294.25,395.695562 295.315562,394.63 296.63,394.63 L296.67,394.67 Z" id="Shape" fill="#FFFFFF" fill-rule="nonzero"></path>
            <path d="M316.71,424.91 C315.400946,426.008928 314.013981,427.011554 312.56,427.91 C311.714337,428.302823 310.792436,428.504275 309.86,428.5 C308.475289,428.543111 307.138731,427.98955 306.19,426.98 C305.201933,425.888349 304.684468,424.450947 304.75,422.98 C304.724158,422.025687 304.966689,421.08328 305.45,420.26 C306.301943,419.002515 307.448614,417.972571 308.79,417.26 C311.327499,415.903107 313.973249,414.75918 316.7,413.84 L316.7,413 C316.7,410.86 316.366667,409.39 315.7,408.59 C314.938466,407.748906 313.831521,407.306128 312.7,407.39 C311.846228,407.346416 311.008395,407.632855 310.36,408.19 C309.806609,408.637816 309.480578,409.308194 309.47,410.02 L309.47,411.38 C309.520181,411.959652 309.352618,412.537209 309,413 C308.626991,413.394321 308.102452,413.609236 307.56,413.59 C307.019551,413.607711 306.499212,413.384185 306.14,412.98 C305.753546,412.516015 305.557047,411.922945 305.59,411.32 C305.666092,409.834049 306.426986,408.467395 307.65,407.62 C309.324838,406.400678 311.372219,405.803083 313.44,405.93 C315.061301,405.878009 316.670913,406.22121 318.13,406.93 C319.042933,407.427848 319.75111,408.231629 320.13,409.2 C320.493619,410.544674 320.635481,411.939654 320.55,413.33 L320.55,420.62 C320.519287,421.874593 320.559351,423.129919 320.67,424.38 C320.694922,424.724279 320.831902,425.050924 321.06,425.31 C321.231018,425.460859 321.45197,425.542825 321.68,425.54 C321.910393,425.547066 322.138419,425.491787 322.34,425.38 C323.021979,424.866487 323.657735,424.294306 324.24,423.67 L324.24,424.98 C322.493333,427.326667 320.826667,428.5 319.24,428.5 C318.53944,428.528904 317.86454,428.233866 317.41,427.7 C316.863301,426.877934 316.616131,425.892782 316.71,424.91 Z M316.71,423.39 L316.71,415.2 C315.151819,415.784023 313.62627,416.451659 312.14,417.2 C311.109418,417.71767 310.204852,418.454976 309.49,419.36 C308.969306,420.074465 308.689155,420.935929 308.69,421.82 C308.651193,422.847151 309.009289,423.84982 309.69,424.62 C310.261898,425.313902 311.110851,425.720082 312.01,425.73 C313.21,425.73 314.776667,424.946667 316.71,423.38 L316.71,423.39 Z" id="Shape" fill="#FFFFFF" fill-rule="nonzero"></path>
            <polygon id="Path" fill="#FFFFFF" fill-rule="nonzero" points="326.3 415.46 338.42 415.46 338.42 419 326.3 419"></polygon>
            <path d="M360.5,421.41 L360.24,428 L341.3,428 L341.3,427.16 L355.55,408.16 L348.55,408.16 C347.540925,408.095547 346.528045,408.193459 345.55,408.45 C345.048751,408.674273 344.64187,409.067002 344.4,409.56 C343.944938,410.464257 343.695644,411.45802 343.67,412.47 L342.73,412.47 L342.87,406.47 L360.87,406.47 L360.87,407.34 L346.48,426.34 L354.31,426.34 C355.439209,426.414536 356.572345,426.275438 357.65,425.93 C358.271458,425.62287 358.771591,425.115692 359.07,424.49 C359.432168,423.472802 359.644391,422.408316 359.7,421.33 L360.5,421.41 Z" id="Path" fill="#FFFFFF" fill-rule="nonzero"></path>
            <path d="M369.45,394.67 L369.45,410.37 C370.630286,408.942082 372.02325,407.704267 373.58,406.7 C374.499046,406.189549 375.528932,405.91148 376.58,405.89 C377.709597,405.858929 378.816408,406.211416 379.72,406.89 C380.687787,407.710641 381.370491,408.816972 381.67,410.05 C382.044373,411.85127 382.195511,413.691787 382.12,415.53 L382.12,423.12 C382.063284,424.062222 382.175033,425.007009 382.45,425.91 C382.609389,426.287939 382.891127,426.601372 383.25,426.8 C383.901232,427.070216 384.606948,427.183267 385.31,427.13 L385.31,428 L374.79,428 L374.79,427.16 L375.28,427.16 C376.007565,427.227959 376.7382,427.067149 377.37,426.7 C377.78663,426.354378 378.07535,425.879047 378.19,425.35 C378.256765,424.618693 378.28014,423.884072 378.26,423.15 L378.26,415.56 C378.336908,414.010958 378.215932,412.458431 377.9,410.94 C377.70737,410.276407 377.29923,409.695862 376.74,409.29 C376.172174,408.912748 375.501447,408.720613 374.82,408.74 C373.987039,408.756942 373.169195,408.96568 372.43,409.35 C371.29679,409.992567 370.282099,410.824614 369.43,411.81 L369.43,423.15 C369.369652,424.070786 369.45401,424.99534 369.68,425.89 C369.876562,426.281579 370.196273,426.597777 370.59,426.79 C371.322879,427.083104 372.112685,427.206191 372.9,427.15 L372.9,428 L362.28,428 L362.28,427.16 C363.055505,427.196125 363.828044,427.041617 364.53,426.71 C364.878634,426.512866 365.144811,426.197003 365.28,425.82 C365.521384,424.951806 365.616021,424.049383 365.56,423.15 L365.56,403.72 C365.60538,402.21098 365.545233,400.700633 365.38,399.2 C365.329774,398.768164 365.140205,398.364454 364.84,398.05 C364.555037,397.830163 364.198916,397.723326 363.84,397.75 C363.29454,397.799886 362.759072,397.927859 362.25,398.13 L361.92,397.31 L368.34,394.69 L369.45,394.67 Z" id="Path" fill="#FFFFFF" fill-rule="nonzero"></path>
            <rect id="Rectangle" fill="#FFFFFF" fill-rule="nonzero" x="120.33" y="372" width="271.33" height="2"></rect>
        </g>
    </g>
</svg>