<?xml version="1.0" encoding="UTF-8"?>
<svg width="512px" height="512px" viewBox="0 0 512 512" version="1.1" xmlns="http://www.w3.org/2000/svg" xmlns:xlink="http://www.w3.org/1999/xlink">
    <!-- Generator: Sketch 53.2 (72643) - https://sketchapp.com -->
    <title>Wikipedia_zh_random 10</title>
    <desc>Created with Sketch.</desc>
    <defs>
        <linearGradient x1="26.4934005%" y1="15.4062407%" x2="80.488649%" y2="62.6588541%" id="linearGradient-1">
            <stop stop-color="#5D8CBA" offset="0%"></stop>
            <stop stop-color="#395974" offset="100%"></stop>
        </linearGradient>
        <circle id="path-2" cx="245.1" cy="245.1" r="245.1"></circle>
        <linearGradient x1="50%" y1="45.3412773%" x2="50%" y2="99.9868032%" id="linearGradient-4">
            <stop stop-color="#453321" offset="0.0131967905%"></stop>
            <stop stop-color="#0D0906" offset="100%"></stop>
        </linearGradient>
        <linearGradient x1="57.860769%" y1="60.9043324%" x2="0%" y2="26.4188274%" id="linearGradient-5">
            <stop stop-color="#000000" stop-opacity="0" offset="0%"></stop>
            <stop stop-color="#000000" offset="100%"></stop>
        </linearGradient>
        <linearGradient x1="55.2575219%" y1="62.5673246%" x2="12.5108263%" y2="17.5378344%" id="linearGradient-6">
            <stop stop-color="#FFFFFF" stop-opacity="0" offset="0%"></stop>
            <stop stop-color="#FFFFFF" offset="100%"></stop>
        </linearGradient>
        <linearGradient x1="55.7303624%" y1="62.5673246%" x2="9.1392%" y2="17.5378344%" id="linearGradient-7">
            <stop stop-color="#FFFFFF" stop-opacity="0" offset="0%"></stop>
            <stop stop-color="#FFFFFF" offset="100%"></stop>
        </linearGradient>
        <linearGradient x1="73.6476702%" y1="89.4701305%" x2="0%" y2="29.1445394%" id="linearGradient-8">
            <stop stop-color="#FFFFFF" stop-opacity="0" offset="0%"></stop>
            <stop stop-color="#FFFFFF" offset="100%"></stop>
        </linearGradient>
        <linearGradient x1="20.7877622%" y1="12.615124%" x2="69.2825558%" y2="65.2672209%" id="linearGradient-9">
            <stop stop-color="#FFFFFF" offset="0%"></stop>
            <stop stop-color="#FFFFFF" stop-opacity="0" offset="100%"></stop>
        </linearGradient>
    </defs>
    <g id="Wikipedia_zh_random-10" stroke="none" stroke-width="1" fill="none" fill-rule="evenodd">
        <g id="Wikipedia_zh_logo">
            <circle id="Oval" fill="#CCCCCC" fill-rule="nonzero" cx="256" cy="256" r="256"></circle>
            <g id="Group-3" transform="translate(10.900000, 10.900000)">
                <mask id="mask-3" fill="white">
                    <use xlink:href="#path-2"></use>
                </mask>
                <use id="Oval" fill="url(#linearGradient-1)" fill-rule="nonzero" xlink:href="#path-2"></use>
                <polygon id="Path-68" fill="#334131" mask="url(#mask-3)" points="169.069318 285.5 247.680377 266.576599 310.304714 280 453.087041 339.033679 507.16434 339.033679 459.456456 457.83 131.189263 339.033679"></polygon>
                <path d="M472.089253,320.521472 L472.089253,313.767933 L468.881297,310.82402 L468.881297,316.534517 L462.101605,314.48954 L462.101605,308.808079 L452.213749,306.224643 L452.213749,312.157631 L439.594311,309.722897 L439.594311,303.971382 L428.004882,301.755461 L428.004882,307.276535 L416.717083,303.971382 L416.717083,299.008439 L408.416555,296.654716 L408.416555,301.755461 L401.91794,299.008439 L401.91794,293.381841 L396.327373,290.327248 L396.327373,295.35505 L391.759887,292.466672 L391.759887,287.677257 L387.628362,284.850059 L387.628362,290.327248 L383.733182,287.120928 L383.733182,282.056835 L380.259316,278.941243 L380.259316,284.326933 L377.070757,281.257282 L377.070757,276.537106 L374.474575,273.35441 L374.474575,278.316194 L371.937027,275.312562 L371.937027,270.425675 L370.046257,266.576599 L370.046257,271.100527 L369.103798,268.309234 L369.103798,286.710829 C368.77077,295.067659 374.156537,302.127482 385.261098,307.890296 C396.365659,313.65311 425.308378,323.881878 472.089253,338.576599 L472.089253,320.521472 Z" id="Path" fill="#453321" mask="url(#mask-3)"></path>
                <polygon id="Path-71" fill="#485847" mask="url(#mask-3)" points="258.95 339.033679 327 308.222918 428.042754 290 507.16434 322.331479 486.847219 434.959232 285.81 418.019166"></polygon>
                <polygon id="Path-72" fill="#000000" opacity="0.152390253" mask="url(#mask-3)" points="369.1 238.1 493.479616 362.479616 438.149356 467.35 375.4 317.698104 360.76 280"></polygon>
                <g id="wall" mask="url(#mask-3)">
                    <g transform="translate(-97.900000, 75.100000)">
                        <rect id="Rectangle" fill="#A27141" x="424.9" y="170.9" width="42" height="44"></rect>
                        <polygon id="Path-63" fill="#000000" opacity="0.15" points="425 193 447 215 425 214.90991"></polygon>
                        <rect id="Rectangle" fill="#423222" x="437.9" y="187.9" width="16" height="34"></rect>
                        <polygon id="Path-69" fill="#B37F4C" points="467 214.90991 425 214.90991 469.007248 279.553049 543.09309 270.180114"></polygon>
                        <path d="M543.09309,253.882304 L543.09309,246.069525 L540.72282,242.663883 L540.72282,249.270026 L535.713494,246.904311 L535.713494,240.331757 L528.407632,237.343129 L528.407632,244.206659 L519.08348,241.390056 L519.08348,234.736461 L510.520374,232.172991 L510.520374,238.560002 L502.180132,234.736461 L502.180132,228.99512 L496.047103,226.272234 L496.047103,232.172991 L491.245457,228.99512 L491.245457,222.486034 L487.114743,218.952351 L487.114743,224.768725 L483.739954,221.427327 L483.739954,215.88673 L480.687285,212.616108 L480.687285,218.952351 L477.809245,215.243146 L477.809245,209.38479 L475.242502,205.78054 L475.242502,212.010934 L472.886564,208.459833 L472.886564,202.999334 L470.968318,199.317456 L470.968318,205.057458 L469.093394,201.582729 L469.093394,195.929373 L467.696356,191.476599 L467.696356,196.71007 L467,193.480985 L467,214.768725 C466.753935,224.436259 470.733328,232.60336 478.93818,239.270026 C487.143031,245.936693 508.528001,257.769763 543.09309,274.769236 L543.09309,253.882304 Z" id="Path" fill="#D59E67"></path>
                        <path d="M467,245.974642 L467,239.151849 L465.691717,236.177749 L465.691717,241.946803 L462.926792,239.880856 L462.926792,234.141135 L458.894281,231.531208 L458.894281,237.525035 L453.747764,235.065334 L453.747764,229.254841 L449.02131,227.016198 L449.02131,232.593887 L444.417868,229.254841 L444.417868,224.241007 L441.032708,221.863147 L441.032708,227.016198 L438.382414,224.241007 L438.382414,218.556712 L436.102443,215.470795 L436.102443,220.550154 L434.23971,217.632158 L434.23971,212.79363 L432.554772,209.937441 L432.554772,215.470795 L430.966222,212.231597 L430.966222,207.115575 L429.549494,203.968034 L429.549494,209.408951 L428.249122,206.307823 L428.249122,201.539244 L427.190335,198.323912 L427.190335,203.336576 L426.15546,200.302143 L426.15546,195.365145 L425.384358,191.476599 L425.384358,196.046917 L425,193.227001 L425,235.078738 C426.384163,238.476105 428.580611,242.697367 431.589344,247.742525 C434.598077,252.787682 446.401629,265.032374 467,284.476599 L467,245.974642 Z" id="Path" fill="#D59E67"></path>
                        <path d="M42.9147164,74.6024244 L42.9147164,0 L87.8955136,68.2310848 L87.8955136,118.080917 L124.564568,146.557327 L124.564568,115.167531 L154.445489,146.557327 L154.445489,166.773945 L179.946216,180.978676 L179.946216,161.98366 L203.370123,175.360311 L203.370123,193.502078 L221.661541,202.712508 L221.661541,184.547068 L238.049367,192.501411 L238.049367,209.719628 L251.502915,215.774311 L251.502915,199.502078 L266.789723,206.186716 L266.789723,221.675069 L280.675666,226.845207 L280.675666,210.929405 L296.08474,217.076442 L296.08474,232.16596 L309.023065,236.406388 L309.023065,221.675069 L322.855752,226.845207 L322.855752,240.768876 L334.765582,244.048887 L334.765582,230.892134 L346.556583,234.637899 L346.556583,247.123323 L357.44107,249.893528 L357.44107,237.971139 L368.390371,241.475079 L368.390371,252.274151 L379.129923,254.320716 L379.129923,244.048887 L390.299327,246.153728 L390.299327,256.255776 L399.116022,257.525931 L399.116022,248.092 L412.090806,249.893528 L412.090806,258.158714 L426.275026,258.945465 L426.275026,251.057091 L439.980621,250.493202 L439.980621,258.158714 L449.44908,256.255776 L449.44908,248.88008 L455.707676,246.153728 L455.707676,253.276192 L460.51487,250.493202 L460.51487,243.384382 L464.675001,240.114653 L464.675001,247.123323 L467,243.384382 L467,331.238689 C439.850017,390.387615 398.976514,431.625147 344.379489,454.951286 C289.782464,478.277425 174.989301,495.161022 0,505.602078 L0,60.3105991 L42.9147164,74.6024244 Z" id="Path" fill="#281D12"></path>
                        <path d="M110.750321,85.1003468 L110.750321,10.4979224 L156.606952,78.7290072 L156.606952,128.578839 L193.99,157.055249 L193.99,125.665453 L224.452741,155.055249 L224.452741,177.271867 L250.45,191.476599 L250.45,172.481583 L274.33,185.858234 L274.33,204 L292.977576,213.21043 L292.977576,195.04499 L309.684494,202.999334 L309.684494,220.21755 L323.4,226.272234 L323.4,210 L338.984461,216.684638 L338.984461,232.172991 L353.140781,237.343129 L353.140781,221.427327 L368.84989,227.574365 L368.84989,242.663883 L382.040141,246.904311 L382.040141,232.172991 L396.142168,237.343129 L396.142168,251.266798 L408.283897,254.546809 L408.283897,241.390056 L420.304485,245.135821 L420.304485,257.621245 L431.400906,260.39145 L431.400906,248.469061 L442.563405,251.973001 L442.563405,262.772074 L453.51207,264.818639 L453.51207,254.546809 L464.898957,256.651651 L464.898957,266.753698 L473.887324,268.023854 L473.887324,258.589922 L487.114743,260.39145 L487.114743,268.656637 L501.575148,269.443388 L501.575148,261.555013 L515.547609,260.991124 L515.547609,268.656637 L525.200431,266.753698 L525.200431,259.378002 L531.58089,256.651651 L531.58089,263.774114 L536.481686,260.991124 L536.481686,253.882304 L540.72282,250.612576 L540.72282,257.621245 L543.09309,253.882304 L543.09309,341.736611 C515.414462,400.885537 473.745099,442.123069 418.085,465.449208 C362.424901,488.775347 245.396568,505.658945 67,516.1 L67,70.8085215 L110.750321,85.1003468 Z" id="Path" fill="url(#linearGradient-4)"></path>
                        <rect id="Rectangle" fill="#A27141" x="425" y="163" width="8" height="8"></rect>
                        <rect id="Rectangle-Copy" fill="#A27141" x="436" y="163" width="8" height="8"></rect>
                        <rect id="Rectangle-Copy-2" fill="#A27141" x="448" y="163" width="8" height="8"></rect>
                        <rect id="Rectangle-Copy-3" fill="#A27141" x="459" y="163" width="8" height="8"></rect>
                    </g>
                </g>
                <g id="plane" mask="url(#mask-3)">
                    <g transform="translate(170.149356, 46.597922)">
                        <polygon id="Path-70" fill="url(#linearGradient-5)" opacity="0.202171689" points="45.1096465 12 355.250644 331.227177 304.562157 345.399985 0 38.3081847"></polygon>
                        <polygon id="Path-67" fill="#FFFFFF" points="53.7005088 40.6273198 59.2798516 40.6273198 52.239002 54.3413143"></polygon>
                        <polygon id="Path-64" fill="#CCCCCC" points="0 38.3081847 45.1096465 12 55.0297041 34.4146735 52.239002 54.3413143 59.2798516 40.6273198 69 56.4667726 53.5764671 54.3413143 51.1117996 59.3105991"></polygon>
                        <polygon id="Path-66" fill="#F8F8F8" points="53.5764671 34.5903293 0 38.3081847 49.0481173 56.1604951"></polygon>
                        <path d="M282.95063,0.555409268 C140.23794,6.87070791 68.9046127,10.8338802 68.95065,12.4449261 C68.9966873,14.055972 140.330014,10.0927997 282.95063,0.555409268 Z" id="Path-65" fill="#FFFFFF" opacity="0.466913132"></path>
                        <path d="M344.95063,44.5020776 C179.617297,49.5555902 96.9506304,52.834562 96.9506304,54.3389929 C96.9506304,55.8434237 179.617297,52.564452 344.95063,44.5020776 Z" id="Path-65-Copy" fill="#FFFFFF" opacity="0.466913132"></path>
                    </g>
                </g>
                <g id="light" mask="url(#mask-3)">
                    <g transform="translate(15.100000, -39.900000)">
                        <polygon id="Path-17" fill="url(#linearGradient-6)" opacity="0.394312686" points="108.924887 39.7198934 215.579133 146.192864 279 300.719893 53 75.1040156"></polygon>
                        <polygon id="Path-17-Copy" fill="url(#linearGradient-7)" opacity="0.159054129" points="29.9248871 112.719893 136.579133 219.192864 230 362.719893 4 137.104016"></polygon>
                        <polygon id="Path-18" fill="url(#linearGradient-8)" opacity="0.2" points="20.2463787 87.7198934 104.267095 171.74061 70.4319678 171.74061 -2.27373675e-13 99.4373312"></polygon>
                        <polygon id="Path-20" fill="url(#linearGradient-9)" opacity="0.613211496" points="133.544263 37.5654113 285.746823 189 255.782234 140.323787 114.746823 -5.24580379e-15"></polygon>
                    </g>
                </g>
            </g>
            <g id="Group" transform="translate(126.990000, 394.630000)" fill="#FFFFFF" fill-rule="nonzero">
                <path d="M44.3,1.59 L44.3,2.46 C43.605562,2.4337195 42.9162578,2.58881295 42.3,2.91 C41.6720648,3.32678604 41.162299,3.8985504 40.82,4.57 C40.226903,5.8333563 39.7321031,7.14056418 39.34,8.48 L30.48,34.1 L29.54,34.1 L22.3,13.78 L15.1,34.1 L14.26,34.1 L4.81,7.71 C4.11,5.71 3.66333333,4.54666667 3.47,4.22 C3.18768421,3.65993698 2.74111338,3.19941081 2.19,2.9 C1.50560649,2.58139243 0.75405357,2.43382724 5.89750471e-13,2.47 L5.89750471e-13,1.6 L11.77,1.6 L11.77,2.47 L11.21,2.47 C10.5299841,2.42259535 9.85560282,2.62136037 9.31,3.03 C8.89309741,3.35814616 8.64981959,3.85944591 8.65,4.39 C8.83018893,5.68237361 9.16595825,6.94822395 9.65,8.16 L15.91,26 L21.18,10.84 L20.24,8.17 L19.49,6.04 C19.1935622,5.31807922 18.8250285,4.62791607 18.39,3.98 C18.1891324,3.68527241 17.9347276,3.43086756 17.64,3.23 C17.2844859,2.96643509 16.8896376,2.760574 16.47,2.62 C16.008848,2.50769351 15.5342324,2.46056855 15.06,2.48 L15.06,1.61 L27.44,1.61 L27.44,2.48 L26.6,2.48 C25.9125931,2.42104326 25.2279264,2.62073771 24.68,3.04 C24.2690186,3.43636491 24.0470415,3.98948813 24.07,4.56 C24.2179086,5.9932149 24.5715416,7.39764298 25.12,8.73 L31.21,26 L37.21,8.49 C37.7293422,7.2101846 38.065977,5.86364521 38.21,4.49 C38.2071227,4.1287823 38.0878947,3.7781118 37.87,3.49 C37.657967,3.18685231 37.3576781,2.956398 37.01,2.83 C36.2614528,2.58716659 35.4765697,2.47552374 34.69,2.5 L34.69,1.63 L44.3,1.59 Z" id="Path"></path>
                <path d="M51.65,11.27 L51.65,28.52 C51.5924153,29.4233503 51.6905097,30.3298779 51.94,31.2 C52.1119125,31.6200768 52.4177513,31.9716157 52.81,32.2 C53.4750308,32.4710275 54.1938947,32.5839918 54.91,32.53 L54.91,33.37 L44.48,33.37 L44.48,32.53 C45.196877,32.5876801 45.9176092,32.4852063 46.59,32.23 C46.9770879,31.9982288 47.2787832,31.6474204 47.45,31.23 C47.7185262,30.3566426 47.8269365,29.4419307 47.77,28.53 L47.77,20.26 C47.8167779,18.7501714 47.746568,17.2389873 47.56,15.74 C47.4955423,15.3604777 47.3136736,15.0107301 47.04,14.74 C46.753635,14.5237206 46.3976458,14.4204837 46.04,14.45 C45.4936485,14.4730801 44.9555426,14.5915311 44.45,14.8 L44.12,13.96 L50.59,11.34 L51.65,11.27 Z M49.7,0.04 C50.3293786,0.0373274433 50.9337514,0.286164845 51.3787933,0.73120672 C51.8238352,1.17624859 52.0726726,1.78062142 52.07,2.41 C52.080596,3.04395241 51.8312701,3.65462012 51.38,4.1 C50.942854,4.55847328 50.3333561,4.81243074 49.7,4.8 C48.3855623,4.8 47.32,3.7344377 47.32,2.42 C47.32,1.1055623 48.3855623,0.04 49.7,0.04 L49.7,0.04 Z" id="Shape"></path>
                <path d="M63.94,0.04 L63.94,21.37 L69.4,16.37 C70.1172923,15.7559578 70.7859578,15.0872923 71.4,14.37 C71.5183403,14.2067563 71.5845701,14.0115526 71.59,13.81 C71.5955337,13.4934904 71.4508782,13.193052 71.2,13 C70.8272725,12.7339077 70.377778,12.5969524 69.92,12.61 L69.92,11.86 L79.25,11.86 L79.25,12.61 C78.155994,12.6067333 77.0709068,12.8067962 76.05,13.2 C75.0171633,13.6811958 74.0710549,14.3299558 73.25,15.12 L67.74,20.21 L73.25,27.21 C74.7833333,29.13 75.8133333,30.35 76.34,30.87 C76.9073093,31.4722154 77.5866677,31.9579567 78.34,32.3 C78.9894358,32.4863624 79.6652137,32.5640768 80.34,32.53 L80.34,33.37 L69.94,33.37 L69.94,32.53 C70.360964,32.5590008 70.7812973,32.4652074 71.15,32.26 C71.3619744,32.0952829 71.4811941,31.8382155 71.47,31.57 C71.3230128,30.9173764 70.9975746,30.3184316 70.53,29.84 L63.94,21.37 L63.94,28.5 C63.8794772,29.4231927 63.9775626,30.3499308 64.23,31.24 C64.3895187,31.6399619 64.6828667,31.9721873 65.06,32.18 C65.8140445,32.4269255 66.6080521,32.5287213 67.4,32.48 L67.4,33.37 L56.48,33.37 L56.48,32.53 C57.3191957,32.5746029 58.1581681,32.4381847 58.94,32.13 C59.2719712,31.954109 59.5358699,31.672617 59.69,31.33 C59.9756796,30.4704203 60.0944765,29.5641694 60.04,28.66 L60.04,9.11 C60.085907,7.58813787 60.0324601,6.06490189 59.88,4.55 C59.8297738,4.1181644 59.6402055,3.714454 59.34,3.4 C59.0574244,3.17386915 58.7013603,3.05992862 58.34,3.08 C57.827169,3.12630675 57.3263374,3.26166665 56.86,3.48 L56.46,2.66 L62.84,0.04 L63.94,0.04 Z" id="Path"></path>
                <path d="M89.01,11.27 L89.01,28.52 C88.9524153,29.4233503 89.0505097,30.3298779 89.3,31.2 C89.4719125,31.6200768 89.7777513,31.9716157 90.17,32.2 C90.8350308,32.4710275 91.5538947,32.5839918 92.27,32.53 L92.27,33.37 L81.82,33.37 L81.82,32.53 C82.536877,32.5876801 83.2576092,32.4852063 83.93,32.23 C84.3170879,31.9982288 84.6187832,31.6474204 84.79,31.23 C85.0585262,30.3566426 85.1669365,29.4419307 85.11,28.53 L85.11,20.26 C85.1567779,18.7501714 85.086568,17.2389873 84.9,15.74 C84.8355423,15.3604777 84.6536736,15.0107301 84.38,14.74 C84.093635,14.5237206 83.7376458,14.4204837 83.38,14.45 C82.8336485,14.4730801 82.2955426,14.5915311 81.79,14.8 L81.46,13.96 L87.93,11.34 L89.01,11.27 Z M87.01,0.04 C87.6376445,0.0293108452 88.2436862,0.269115664 88.6940819,0.706374825 C89.1444776,1.14363399 89.4021113,1.74231407 89.41,2.37 C89.420596,3.00395241 89.1712701,3.61462012 88.72,4.06 C88.282854,4.51847328 87.6733561,4.77243074 87.04,4.76 C85.7255623,4.76 84.66,3.6944377 84.66,2.38 C84.66,1.0655623 85.7255623,3.55271368e-15 87.04,3.55271368e-15 L87.01,0.04 Z" id="Shape"></path>
                <path d="M93.37,14.03 L100.01,11.37 L100.9,11.37 L100.9,16.37 C101.711464,14.8111499 102.850916,13.4465373 104.24,12.37 C105.272168,11.6374894 106.504358,11.2395584 107.77,11.23 C109.860345,11.1985975 111.84862,12.1318694 113.16,13.76 C114.995339,16.0343359 115.937615,18.9002761 115.81,21.82 C115.933439,25.1744839 114.795262,28.4534331 112.62,31.01 C110.981197,32.9548215 108.552794,34.0569715 106.01,34.01 C104.988314,34.0334302 103.971135,33.8672909 103.01,33.52 C102.226633,33.1824824 101.511551,32.7046312 100.9,32.11 L100.9,38.65 C100.837695,39.5917975 100.928884,40.5374609 101.17,41.45 C101.365132,41.8650842 101.697004,42.2004871 102.11,42.4 C102.885436,42.6899394 103.71426,42.8093174 104.54,42.75 L104.54,43.62 L93.26,43.62 L93.26,42.75 L93.85,42.75 C94.6140259,42.7871456 95.3739589,42.6178878 96.05,42.26 C96.3645413,42.0661924 96.6069074,41.7746506 96.74,41.43 C96.9662816,40.4742259 97.0505194,39.490329 96.99,38.51 L96.99,18.21 C97.0339657,17.3222345 96.9701672,16.4324126 96.8,15.56 C96.6989882,15.2210625 96.487856,14.9254774 96.2,14.72 C95.8665873,14.51714 95.4797413,14.4195572 95.09,14.44 C94.5977752,14.4660428 94.1138612,14.5777152 93.66,14.77 L93.37,14.03 Z M100.87,17.76 L100.87,25.76 C100.825925,26.9041489 100.896274,28.0498389 101.08,29.18 C101.33173,30.1354582 101.899121,30.9777339 102.69,31.57 C103.61518,32.2660913 104.75326,32.6195321 105.91,32.57 C107.39745,32.6075063 108.811922,31.9263261 109.71,30.74 C111.088573,28.7772169 111.758594,26.4039297 111.61,24.01 C111.61,20.73 110.89,18.2066667 109.45,16.44 C108.615928,15.30553 107.297968,14.6280389 105.89,14.61 C105.112526,14.6152254 104.347702,14.8072887 103.66,15.17 C102.60858,15.8925414 101.668612,16.7651284 100.87,17.76 L100.87,17.76 Z" id="Shape"></path>
                <path d="M122.53,19.99 C122.354526,22.6902574 123.180506,25.3604527 124.85,27.49 C126.176994,29.1879827 128.205093,30.1891492 130.36,30.21 C131.677526,30.2368524 132.967248,29.8292019 134.03,29.05 C135.261891,27.9913041 136.167134,26.6039596 136.64,25.05 L137.37,25.52 C137.018245,27.7105837 136.022675,29.7469768 134.51,31.37 C133.024018,33.0877064 130.850818,34.0552018 128.58,34.01 C126.040168,34.0291809 123.619957,32.9324086 121.96,31.01 C120.039535,28.7619821 119.055174,25.8625918 119.21,22.91 C119.21,19.2366667 120.15,16.3733333 122.03,14.32 C123.827266,12.3032289 126.419336,11.177196 129.12,11.24 C131.342966,11.1666162 133.494568,12.0301597 135.05,13.62 C136.648309,15.3410379 137.48476,17.6340689 137.37,19.98 L122.53,19.99 Z M122.53,18.63 L132.47,18.63 C132.464486,17.639938 132.29902,16.6572722 131.98,15.72 C131.613513,14.8751996 131.004442,14.1582366 130.23,13.66 C129.511479,13.1762654 128.666165,12.915366 127.8,12.91 C126.482613,12.9176753 125.225526,13.4631351 124.32,14.42 C123.237491,15.5630822 122.602165,17.0573415 122.53,18.63 L122.53,18.63 Z" id="Shape"></path>
                <path d="M155.39,30.96 C154.516607,31.92455 153.476685,32.7239689 152.32,33.32 C151.310457,33.7966449 150.20637,34.0393389 149.09,34.03 C146.707666,34.0131307 144.456804,32.9353562 142.95,31.09 C141.152542,28.9917201 140.216429,26.2905677 140.33,23.53 C140.325097,20.4667233 141.349975,17.4907037 143.24,15.08 C144.947664,12.6462023 147.747105,11.2127984 150.72,11.25 C152.462541,11.190378 154.15479,11.8398553 155.41,13.05 L155.41,9.05 C155.45538,7.54097978 155.395233,6.03063299 155.23,4.53 C155.177008,4.09693756 154.98386,3.69308199 154.68,3.38 C154.411774,3.17242004 154.078886,3.06617902 153.74,3.08 C153.182398,3.11415547 152.634629,3.2426445 152.12,3.46 L151.82,2.64 L158.22,0.02 L159.27,0.02 L159.27,24.84 C159.223062,26.3789813 159.283207,27.9193639 159.45,29.45 C159.503635,29.8878424 159.700518,30.2956699 160.01,30.61 C160.25953,30.8263928 160.579732,30.9438002 160.91,30.94 C161.492059,30.904268 162.063678,30.7689735 162.6,30.54 L162.86,31.36 L156.49,34.01 L155.41,34.01 L155.39,30.96 Z M155.39,29.32 L155.39,18.25 C155.311371,17.2328671 155.025512,16.2425686 154.55,15.34 C154.133461,14.5095653 153.488077,13.815604 152.69,13.34 C152.009187,12.9207049 151.229333,12.6895094 150.43,12.67 C148.987644,12.7022885 147.636308,13.3816285 146.75,14.52 C145.33,16.1466667 144.62,18.5233333 144.62,21.65 C144.62,24.7766667 145.306667,27.1933333 146.68,28.9 C147.734095,30.4089405 149.431056,31.3406053 151.27,31.42 C152.878022,31.3323089 154.374249,30.5696689 155.39,29.32 L155.39,29.32 Z" id="Shape"></path>
                <path d="M171.63,11.27 L171.63,28.52 C171.572415,29.4233503 171.67051,30.3298779 171.92,31.2 C172.091913,31.6200768 172.397751,31.9716157 172.79,32.2 C173.455031,32.4710275 174.173895,32.5839918 174.89,32.53 L174.89,33.37 L164.46,33.37 L164.46,32.53 C165.176877,32.5876801 165.897609,32.4852063 166.57,32.23 C166.957088,31.9982288 167.258783,31.6474204 167.43,31.23 C167.698526,30.3566426 167.806937,29.4419307 167.75,28.53 L167.75,20.26 C167.796778,18.7501714 167.726568,17.2389873 167.54,15.74 C167.475542,15.3604777 167.293674,15.0107301 167.02,14.74 C166.733635,14.5237206 166.377646,14.4204837 166.02,14.45 C165.473649,14.4730801 164.935543,14.5915311 164.43,14.8 L164.1,13.96 L170.57,11.34 L171.63,11.27 Z M169.68,0.04 C170.960065,0.0561711733 171.993829,1.08993469 172.01,2.37 C172.020596,3.00395241 171.77127,3.61462012 171.32,4.06 C170.882854,4.51847328 170.273356,4.77243074 169.64,4.76 C168.325562,4.76 167.26,3.6944377 167.26,2.38 C167.26,1.0655623 168.325562,3.55271368e-15 169.64,3.55271368e-15 L169.68,0.04 Z" id="Shape"></path>
                <path d="M189.72,30.28 C188.410946,31.3789284 187.023981,32.3815538 185.57,33.28 C184.724337,33.672823 183.802436,33.8742754 182.87,33.87 C181.485289,33.9131107 180.148731,33.3595498 179.2,32.35 C178.211933,31.2583493 177.694468,29.8209466 177.76,28.35 C177.734158,27.3956875 177.976689,26.4532804 178.46,25.63 C179.311943,24.3725154 180.458614,23.3425711 181.8,22.63 C184.337499,21.2731069 186.983249,20.1291797 189.71,19.21 L189.71,18.37 C189.71,16.23 189.376667,14.76 188.71,13.96 C187.948466,13.1189061 186.841521,12.6761281 185.71,12.76 C184.856228,12.716416 184.018395,13.0028545 183.37,13.56 C182.816609,14.0078156 182.490578,14.6781937 182.48,15.39 L182.48,16.75 C182.530181,17.3296521 182.362618,17.9072092 182.01,18.37 C181.636991,18.7643208 181.112452,18.979236 180.57,18.96 C180.029551,18.9777106 179.509212,18.7541846 179.15,18.35 C178.763546,17.8860152 178.567047,17.2929449 178.6,16.69 C178.676092,15.2040488 179.436986,13.8373949 180.66,12.99 C182.334838,11.7706781 184.382219,11.1730834 186.45,11.3 C188.071301,11.2480091 189.680913,11.5912099 191.14,12.3 C192.052933,12.7978479 192.76111,13.6016294 193.14,14.57 C193.503619,15.9146744 193.645481,17.3096544 193.56,18.7 L193.56,25.99 C193.529287,27.2445926 193.569351,28.499919 193.68,29.75 C193.704922,30.0942786 193.841902,30.4209239 194.07,30.68 C194.241018,30.830859 194.46197,30.9128251 194.69,30.91 C194.920393,30.9170657 195.148419,30.8617867 195.35,30.75 C196.031979,30.2364869 196.667735,29.6643065 197.25,29.04 L197.25,30.35 C195.503333,32.6966667 193.836667,33.87 192.25,33.87 C191.54944,33.898904 190.87454,33.603866 190.42,33.07 C189.873301,32.2479337 189.626131,31.2627822 189.72,30.28 Z M189.72,28.76 L189.72,20.57 C188.161819,21.1540228 186.63627,21.8216591 185.15,22.57 C184.119418,23.0876698 183.214852,23.8249763 182.5,24.73 C181.979306,25.4444651 181.699155,26.3059289 181.7,27.19 C181.661193,28.2171509 182.019289,29.21982 182.7,29.99 C183.271898,30.6839021 184.120851,31.0900823 185.02,31.1 C186.22,31.1 187.786667,30.3166667 189.72,28.75 L189.72,28.76 Z" id="Shape"></path>
                <polygon id="Path" points="199.31 20.83 211.43 20.83 211.43 24.37 199.31 24.37"></polygon>
                <path d="M233.51,26.78 L233.25,33.37 L214.31,33.37 L214.31,32.53 L228.56,13.53 L221.56,13.53 C220.550925,13.4655471 219.538045,13.5634588 218.56,13.82 C218.058751,14.044273 217.65187,14.4370017 217.41,14.93 C216.954938,15.8342568 216.705644,16.8280197 216.68,17.84 L215.74,17.84 L215.88,11.84 L233.88,11.84 L233.88,12.71 L219.49,31.71 L227.32,31.71 C228.449209,31.7845357 229.582345,31.6454381 230.66,31.3 C231.281458,30.9928697 231.781591,30.4856925 232.08,29.86 C232.442168,28.8428019 232.654391,27.778316 232.71,26.7 L233.51,26.78 Z" id="Path"></path>
                <path d="M242.46,0.04 L242.46,15.74 C243.640286,14.3120822 245.03325,13.0742675 246.59,12.07 C247.509046,11.5595493 248.538932,11.2814799 249.59,11.26 C250.719597,11.2289286 251.826408,11.5814163 252.73,12.26 C253.697787,13.080641 254.380491,14.1869722 254.68,15.42 C255.054373,17.2212701 255.205511,19.0617868 255.13,20.9 L255.13,28.49 C255.073284,29.4322223 255.185033,30.377009 255.46,31.28 C255.619389,31.6579387 255.901127,31.9713723 256.26,32.17 C256.911232,32.4402158 257.616948,32.5532673 258.32,32.5 L258.32,33.37 L247.8,33.37 L247.8,32.53 L248.29,32.53 C249.017565,32.597959 249.7482,32.4371493 250.38,32.07 C250.79663,31.724378 251.08535,31.2490469 251.2,30.72 C251.266765,29.9886929 251.29014,29.2540722 251.27,28.52 L251.27,20.93 C251.346908,19.3809577 251.225932,17.8284315 250.91,16.31 C250.71737,15.6464066 250.30923,15.0658621 249.75,14.66 C249.182174,14.2827484 248.511447,14.0906131 247.83,14.11 C246.997039,14.1269418 246.179195,14.3356801 245.44,14.72 C244.30679,15.3625674 243.292099,16.1946137 242.44,17.18 L242.44,28.52 C242.379652,29.4407856 242.46401,30.3653401 242.69,31.26 C242.886562,31.6515792 243.206273,31.9677767 243.6,32.16 C244.332879,32.4531044 245.122685,32.5761911 245.91,32.52 L245.91,33.37 L235.29,33.37 L235.29,32.53 C236.065505,32.5661253 236.838044,32.4116174 237.54,32.08 C237.888634,31.8828661 238.154811,31.5670033 238.29,31.19 C238.531384,30.3218056 238.626021,29.4193829 238.57,28.52 L238.57,9.09 C238.61538,7.58097978 238.555233,6.07063299 238.39,4.57 C238.339774,4.1381644 238.150205,3.734454 237.85,3.42 C237.565037,3.20016276 237.208916,3.0933264 236.85,3.12 C236.30454,3.16988558 235.769072,3.29785892 235.26,3.5 L234.93,2.68 L241.35,0.06 L242.46,0.04 Z" id="Path"></path>
            </g>
            <rect id="Rectangle" fill="#FFFFFF" fill-rule="nonzero" x="120.33" y="372" width="271.33" height="2"></rect>
        </g>
    </g>
</svg>