<?xml version="1.0" encoding="UTF-8"?>
<svg width="512px" height="512px" viewBox="0 0 512 512" version="1.1" xmlns="http://www.w3.org/2000/svg" xmlns:xlink="http://www.w3.org/1999/xlink">
    <!-- Generator: Sketch 53.2 (72643) - https://sketchapp.com -->
    <title>Wikipedia_zh_random 15</title>
    <desc>Created with Sketch.</desc>
    <defs>
        <circle id="path-1" cx="245.1" cy="245.1" r="245.1"></circle>
        <circle id="path-3" cx="129.856766" cy="129.886999" r="129"></circle>
        <path d="M98.8175025,104.475713 L98.2947566,106.097622 C97.9315834,107.224429 98.0199844,108.444805 98.5682933,109.520922 L99.0222838,110.411928 C100.150578,112.62633 102.860368,113.506795 105.07477,112.378501 L109.701183,110.021226 L114.327596,112.378501 C116.541998,113.506795 119.251789,112.62633 120.380083,110.411928 L120.834073,109.520922 C121.382382,108.444805 121.470783,107.224429 121.10761,106.097622 L120.584864,104.475713 L204.867501,61.5315646 C207.081903,60.4032705 207.962367,57.6934799 206.834073,55.479078 L206.380083,54.5880715 C205.251789,52.3736696 202.541998,51.4932053 200.327596,52.6214994 L109.701183,98.7979631 L19.0747704,52.6214994 C16.8603685,51.4932053 14.1505779,52.3736696 13.0222838,54.5880715 L12.5682933,55.479078 C11.4399992,57.6934799 12.3204635,60.4032705 14.5348654,61.5315646 L98.8175025,104.475713 Z M12.7189034,65.0955907 C8.53614422,62.9643685 6.87304494,57.8458752 9.00426719,53.663116 L9.45825769,52.7721095 C11.5894799,48.5893503 16.7079732,46.926251 20.8907324,49.0574733 L109.701183,94.3086582 L198.511634,49.0574733 C202.694393,46.926251 207.812887,48.5893503 209.944109,52.7721095 L210.398099,53.663116 C212.529322,57.8458752 210.866222,62.9643685 206.683463,65.0955907 L125.277367,106.574068 C125.451416,108.189774 125.160147,109.84128 124.398099,111.336884 L123.944109,112.22789 C121.812887,116.41065 116.694393,118.073749 112.511634,115.942527 L109.701183,114.51053 L106.890732,115.942527 C102.707973,118.073749 97.5894799,116.41065 95.4582577,112.22789 L95.0042672,111.336884 C94.242219,109.84128 93.9509508,108.189774 94.1249991,106.574068 L12.7189034,65.0955907 Z M116.087295,141.450737 L158.043233,245.295329 C158.974236,247.599642 161.596977,248.712929 163.90129,247.781926 L164.828474,247.40732 C167.132787,246.476317 168.246075,243.853576 167.315072,241.549263 L125.359133,137.704671 C124.428131,135.400358 121.805389,134.287071 119.501076,135.218074 L118.573892,135.59268 C116.26958,136.523683 115.156292,139.146424 116.087295,141.450737 Z M117.075466,131.883945 L118.00265,131.509338 C122.355241,129.750777 127.309308,131.853654 129.067869,136.206245 L171.023807,240.050837 C172.782368,244.403427 170.679491,249.357494 166.3269,251.116055 L165.399717,251.490662 C161.047126,253.249223 156.093059,251.146346 154.334498,246.793755 L112.378559,142.949163 C110.619999,138.596573 112.722875,133.642506 117.075466,131.883945 Z M100.90129,135.218074 C98.5969775,134.287071 95.974236,135.400358 95.0432332,137.704671 L53.0872948,241.549263 C52.156292,243.853576 53.2695797,246.476317 55.5738924,247.40732 L56.5010763,247.781926 C58.805389,248.712929 61.4281305,247.599642 62.3591333,245.295329 L104.315072,141.450737 C105.246075,139.146424 104.132787,136.523683 101.828474,135.59268 L100.90129,135.218074 Z M103.3269,131.883945 C107.679491,133.642506 109.782368,138.596573 108.023807,142.949163 L66.0678687,246.793755 C64.3093079,251.146346 59.3552407,253.249223 55.0026499,251.490662 L54.0754661,251.116055 C49.7228753,249.357494 47.6199985,244.403427 49.3785593,240.050837 L91.3344978,136.206245 C93.0930586,131.853654 98.0471258,129.750777 102.399717,131.509338 L103.3269,131.883945 Z" id="path-5"></path>
    </defs>
    <g id="Wikipedia_zh_random-15" stroke="none" stroke-width="1" fill="none" fill-rule="evenodd">
        <g id="Wikipedia_zh_logo">
            <circle id="Oval" fill="#CCCCCC" fill-rule="nonzero" cx="256" cy="256" r="256"></circle>
            <g id="Group-3" transform="translate(10.900000, 10.900000)">
                <mask id="mask-2" fill="white">
                    <use xlink:href="#path-1"></use>
                </mask>
                <use id="Oval" fill="#5C5737" fill-rule="nonzero" xlink:href="#path-1"></use>
                <g id="Group" mask="url(#mask-2)">
                    <g transform="translate(115.243234, 79.213001)">
                        <mask id="mask-4" fill="white">
                            <use xlink:href="#path-3"></use>
                        </mask>
                        <use id="Oval" stroke="#FFFFFF" stroke-width="2" fill="none" xlink:href="#path-3"></use>
                        <path d="M50.0153543,31.7381537 C40.8850484,46.3778552 24.6081127,52.3853474 20.6729192,70.3540847 C19.3015969,76.6157668 19.6082715,84.8651887 30.6263534,81.5559714 C36.9196216,79.6658246 41.3262941,73.8573021 47.1271997,70.7706576 C50.5612527,68.9434083 55.0726308,64.5250744 58.1416919,66.9151422 C62.1041941,70.0009877 59.2499921,77.0271544 61.1374717,81.6813231 C62.2336539,84.3843015 66.2827962,85.4643384 66.8264145,88.3300297 C68.1530889,95.3236117 65.4561736,102.632895 66.4490932,109.681608 C66.7859643,112.073049 69.7698631,113.331055 70.6642035,115.574406 C75.5056815,127.718703 79.0197918,154.758337 98.4720294,152.283471 C101.158477,151.94168 104.35693,151.634725 106.138744,149.595373 C113.194051,141.520314 118.019623,126.548259 123.081487,117.065965 C134.238883,96.1650231 112.191975,131.026267 121.488634,106.661771 C130.765124,82.3501305 127.250472,115.17849 132.254955,91.9348417 C134.135204,83.2018985 124.362354,78.2259589 130.796316,69.352537 C137.306395,60.3741389 151.092196,55.4668979 152.954451,44.5341599 L154.516916,40.3013231 C154.680167,39.3429239 155.134706,37.5153237 154.168717,37.4055715 C148.528794,36.7647834 142.553613,40.1143473 137.165197,38.3298822 C133.472768,37.1070716 115.246805,23.1371012 114.761424,16.4376452 C113.86096,4.00901959 128.726291,31.5987731 137.531123,35.4164041 C140.156513,36.5547302 143.290951,35.2677426 146.079098,34.6237759 C152.412868,33.160892 158.685235,31.3594783 164.788161,29.1209615 C166.053674,28.6567788 167.19986,27.720489 167.951077,26.601265 C168.590501,25.6485989 168.926519,24.3787894 168.729777,23.2484227 C168.450096,21.6415348 141.885108,16.5034106 134.755658,12.0528669 C133.835567,11.4785021 133.17813,8.57297741 134.228928,8.84183659 C143.717833,11.2696853 152.869841,14.9743951 161.810108,18.9750681 C162.636118,19.3446987 161.755742,21.3945458 162.645786,21.5580735 C178.430989,24.4582893 161.947733,16.557138 174.708675,21.6935547 C179.547527,23.6412452 184.512556,25.4416834 188.941794,28.1966507 C192.340342,30.3105331 194.509649,34.0855745 197.941795,36.1444571 C203.891956,39.7138508 210.421602,42.2299971 216.817994,44.9190784 C217.575143,45.2373885 218.570985,45.5368678 219.274381,45.1128038 C219.885443,44.7444067 220.148134,43.7311632 219.894809,43.064126 L216.301393,37.7537707 C215.919752,36.7488628 220.129281,22.1160166 219.274381,21.4643763 C202.774156,8.88722344 159.139694,-1.68045893 157.601328,-2.19671302 C154.138841,-3.35867523 150.535433,-4.21731024 146.89705,-4.53534587 C141.775189,-4.98305419 104.942483,-0.983261828 101.155063,1.14599987 C98.0830416,2.87306958 90.6924706,6.29271474 93.4934131,8.43159455 L93.7707063,12.0655286 C95.2915586,13.226895 97.5283485,13.0705159 99.4393903,12.9721129 C105.476867,12.6612322 111.408915,10.6375405 117.450788,10.8461981 C118.605736,10.8860846 116.378137,13.3102042 115.241306,13.5178361 C105.26506,15.3399067 94.8985168,14.603732 84.9922864,16.7744488 C82.5086215,17.3186854 81.440862,20.8378461 78.9766694,21.4643763 C74.5964539,22.5780624 69.7580542,20.4792496 65.4209557,21.7505328 C62.5435055,22.5939662 60.7934931,25.5651084 58.4797617,27.4723962 L50.0153543,31.7381537 Z" id="Path-94" stroke="#FFFFFF" stroke-width="1" fill="none" opacity="0.166968936" mask="url(#mask-4)"></path>
                        <path d="M86.6572689,252.107605 C84.2175732,250.913655 76.8929222,249.708268 79.3381816,248.525754 L75.8141028,242.583229 C101.251669,231.853615 98.557949,244.218768 104.026654,244.218768 C108.558679,244.218768 101.251669,234.362409 102.323383,233.967265 C108.056051,231.853615 117.185704,230.728711 125.856766,226.733605 C130.2289,224.719187 144.292513,221.000723 148.238408,219.664079 C157.206071,216.626346 154.43223,222.806976 164.824484,224.821394 C170.380425,225.898349 177.493947,223.19079 183.502699,224.821394 C186.748561,225.702228 187.375438,231.791337 190.738117,231.853615 C200.839189,232.040689 206.699877,217.489413 218.524353,224.343283 C224.243857,227.658503 216.942971,239.45248 214.562005,241.047297 C202.922261,248.843819 189.856921,254.296527 177.896844,261.592138 C150.76354,278.143373 171.444517,261.443154 149.941277,264.787515 C128.237247,268.163106 116.637686,275.355374 95.4485407,262.504534 C92.4682996,260.697071 90.6634433,257.435226 88.2708946,254.900572 L86.6572689,252.107605 Z" id="Path-96" stroke="#FFFFFF" stroke-width="1" fill="none" opacity="0.168015253" mask="url(#mask-4)"></path>
                    </g>
                </g>
                <g id="Group-2" mask="url(#mask-2)">
                    <g transform="translate(135.100000, 74.430000)">
                        <mask id="mask-6" fill="white">
                            <use xlink:href="#path-5"></use>
                        </mask>
                        <use id="Combined-Shape" stroke="none" fill="#E8E5D4" fill-rule="nonzero" xlink:href="#path-5"></use>
                    </g>
                </g>
                <rect id="Rectangle" stroke="#F2C984" stroke-width="2" mask="url(#mask-2)" x="140.1" y="129.1" width="211" height="208"></rect>
                <polygon id="shadow" fill="#000000" opacity="0.195591518" mask="url(#mask-2)" points="143.240265 175.114003 228.1 259.973738 228.129091 336.276582 388.819585 496.967076 472.525036 414.83 486.177857 299.397088 348.676382 162.158071 288.87304 164.1 260.667025 135.647369 235.174443 166.1"></polygon>
                <path d="M264.1,180.1 L264.1,331.6 C264.1,335.189851 261.189851,338.1 257.6,338.1 L256.6,338.1 C253.010149,338.1 250.1,335.189851 250.1,331.6 L250.1,245.1 L240.1,245.1 L240.1,331.6 C240.1,335.189851 237.189851,338.1 233.6,338.1 L232.6,338.1 C229.010149,338.1 226.1,335.189851 226.1,331.6 L226.1,180.1 C226.1,177.890861 224.309139,176.1 222.1,176.1 L146.1,176.1 C142.234007,176.1 139.1,172.965993 139.1,169.1 C139.1,165.234007 142.234007,162.1 146.1,162.1 L233.436678,162.1 C228.971868,158.623379 226.1,153.19707 226.1,147.1 C226.1,136.60659 234.60659,128.1 245.1,128.1 C255.59341,128.1 264.1,136.60659 264.1,147.1 C264.1,153.19707 261.228132,158.623379 256.763322,162.1 L344.1,162.1 C347.965993,162.1 351.1,165.234007 351.1,169.1 C351.1,172.965993 347.965993,176.1 344.1,176.1 L268.1,176.1 C265.890861,176.1 264.1,177.890861 264.1,180.1 Z" id="Path" fill="#F2C984" mask="url(#mask-2)"></path>
                <path d="M256.327469,180.598286 C255.582612,179.336243 250.913049,175.110155 245.499928,181.228702 C239.815242,175.110155 235.415944,179.336243 234.672387,180.598286 C233.318457,182.931915 234.130555,186.464908 236.026317,188.168121 L245.501227,197 L254.976138,188.168121 C256.869333,186.464908 257.681431,182.933126 256.327534,180.598286 L256.327469,180.598286 Z" id="Path" fill="#D33D3D" fill-rule="nonzero" mask="url(#mask-2)"></path>
                <path d="M245.12916,188.121325 C245.114175,188.155657 245.098983,188.190671 245.083585,188.226369 C245.078398,188.238561 245.073211,188.250395 245.0677,188.262229 C245.057759,188.28494 245.047709,188.30789 245.037551,188.33108 L244.8693,188.712989 C244.857954,188.738808 244.846607,188.764627 244.834937,188.790446 C244.802518,188.867904 244.76621,188.946079 244.731522,189.024253 C244.692296,189.113545 244.652421,189.203553 244.612871,189.291769 L244.593096,189.335877 L244.531177,189.475013 C244.354173,189.869473 244.185921,190.2417 244.053655,190.523201 L244.025451,190.583087 C243.996274,190.644408 243.969043,190.701066 243.944405,190.751988 C243.797874,191.033847 243.666255,191.133896 243.548901,191.090147 C243.481471,191.065762 243.419227,190.994042 243.360874,190.882159 C243.341104,190.844192 243.323247,190.805045 243.307384,190.764897 C243.274966,190.677399 243.238333,190.585597 243.200728,190.491285 C243.191651,190.467618 243.181925,190.443592 243.172524,190.419566 L243.127787,190.307324 C243.08132,190.196636 243.034314,190.081525 242.986767,189.961992 C242.976069,189.935814 242.965371,189.909278 242.954348,189.882742 C242.921498,189.802893 242.888107,189.72173 242.854176,189.639252 C242.801982,189.513025 242.748168,189.383571 242.692084,189.252323 C242.679117,189.221483 242.665825,189.190285 242.652858,189.158728 L242.603258,189.04039 L242.535503,188.879379 C242.435331,188.641986 242.332889,188.399572 242.229798,188.156083 L242.162692,187.997582 L242.077108,187.795332 C242.051389,187.735087 242.025995,187.67532 242.000925,187.616032 C241.778535,187.089966 241.560035,186.57143 241.366174,186.09772 C241.353855,186.068315 241.342184,186.03891 241.330189,186.009863 C241.293557,185.919854 241.257572,185.830563 241.222885,185.745216 L241.162262,185.593887 C241.161642,185.592028 241.160883,185.590229 241.159993,185.588508 L241.104233,185.445068 C241.050095,185.308083 240.999522,185.177553 240.953488,185.054912 C240.849101,184.778431 240.770325,184.600924 240.694141,184.530639 C240.617958,184.460353 240.463971,184.419473 240.227966,184.405487 C240.211108,184.403336 240.195547,184.401184 240.182256,184.397957 L240.165722,184.394012 L240.146596,184.387557 C240.135723,184.383521 240.125453,184.37772 240.116122,184.370344 C240.114038,184.368613 240.112086,184.366694 240.110287,184.364607 C240.10702,184.361314 240.10428,184.357434 240.102182,184.353132 L240.100237,184.34847 L240.100237,184.34596 C240.100085,184.344171 240.100085,184.34237 240.100237,184.340581 C240.099921,184.338323 240.099921,184.336025 240.100237,184.333767 L240.100237,184.124704 L240.121309,184.104263 C240.505791,184.101753 242.367576,184.104263 242.367576,184.104263 L242.388648,184.124704 L242.388648,184.323726 C242.388648,184.378951 242.35623,184.405487 242.294959,184.405487 L242.060575,184.416245 C241.859581,184.425569 241.759084,184.49191 241.759084,184.615268 C241.759084,184.672644 241.780156,184.766239 241.826838,184.89139 C242.276805,186.104533 243.831265,189.729619 243.831265,189.729619 L243.887997,189.746115 L244.888867,187.537595 C244.874789,187.502252 244.861034,187.46968 244.848228,187.437808 L244.835909,187.408044 L244.81192,187.344213 L244.798628,187.311581 C244.783716,187.275721 244.7701,187.242371 244.758105,187.212607 L244.745786,187.182126 L244.735412,187.157383 L244.726335,187.135149 C244.724864,187.130725 244.723131,187.126413 244.721148,187.12224 L244.716285,187.110406 L244.707857,187.089607 C244.707857,187.08638 244.705587,187.083511 244.704291,187.080642 L244.698455,187.06594 C244.697354,187.063862 244.696379,187.061706 244.695538,187.059485 L244.693593,187.054823 C244.69377,187.053515 244.69377,187.052186 244.693593,187.050878 L244.693593,187.045858 L244.342178,186.28204 L244.001137,185.551214 C244.001137,185.551214 243.868222,185.251783 243.822836,185.152451 L243.817973,185.141693 L243.790742,185.082165 L243.765455,185.026224 L243.750219,184.993232 C243.743411,184.977813 243.736603,184.96311 243.730119,184.948766 C243.726553,184.940518 243.722663,184.932629 243.719097,184.92474 L243.708399,184.901072 L243.698025,184.87848 C243.694783,184.87095 243.691542,184.863778 243.687976,184.856606 L243.67825,184.835448 C243.668525,184.81465 243.659447,184.794927 243.65037,184.776279 C243.645508,184.765521 243.640321,184.755122 243.635458,184.744723 C243.634583,184.743369 243.633823,184.741928 243.633189,184.74042 L243.62476,184.723565 C243.611144,184.695595 243.598177,184.670493 243.585534,184.647901 C243.581319,184.639653 243.576781,184.632122 243.572566,184.624592 C243.559923,184.602717 243.547604,184.583353 243.535609,184.56614 L243.528477,184.556458 C243.523277,184.548897 243.517647,184.54171 243.51162,184.534942 C243.509062,184.531457 243.506242,184.528218 243.503191,184.52526 C243.500273,184.522032 243.49768,184.518805 243.494762,184.515936 L243.488279,184.509123 L243.485361,184.506254 L243.480498,184.501592 C243.475311,184.49693 243.470124,184.492268 243.464937,184.488324 L243.454239,184.480076 L243.446135,184.474697 C243.440259,184.470759 243.434199,184.467168 243.42798,184.463939 L243.424739,184.462146 C243.419597,184.459154 243.414292,184.456519 243.408854,184.454257 L243.405612,184.454257 C243.398804,184.451388 243.391672,184.448519 243.384216,184.446009 L243.368655,184.44063 L243.354715,184.436685 L243.344017,184.433817 L243.322621,184.428796 L243.299604,184.424134 L243.285664,184.424134 L243.269779,184.421266 L243.253246,184.418755 L243.220827,184.413735 L243.197486,184.410149 L243.176738,184.406563 L243.174469,184.406563 L243.157936,184.402618 L243.142051,184.398315 C243.135719,184.396357 243.129539,184.393839 243.123572,184.390785 C243.121327,184.389928 243.119157,184.388848 243.117089,184.387557 L243.111577,184.383613 L243.107039,184.379668 C243.10607,184.379282 243.105263,184.378516 243.10477,184.377516 C243.103423,184.376388 243.102224,184.375061 243.101204,184.373572 L243.098286,184.369269 C243.097012,184.366991 243.095927,184.36459 243.095044,184.362097 C243.09486,184.36007 243.09486,184.358027 243.095044,184.356 C243.094709,184.354348 243.094709,184.352633 243.095044,184.35098 C243.09487,184.348234 243.09487,184.345478 243.095044,184.342732 L243.095044,184.132951 L243.120655,184.112511 L244.903664,184.112511 L244.95067,184.130083 L244.95067,184.331974 C244.95067,184.379668 244.918252,184.403694 244.856981,184.403694 L244.727308,184.424134 C244.400531,184.452464 244.454021,184.600207 244.6709,185.078221 L245.327371,186.573223 L245.940078,185.221661 L246.058405,184.9606 C246.068779,184.935856 246.077856,184.912547 246.085961,184.891031 C246.090283,184.880034 246.094173,184.869276 246.097631,184.858757 C246.101521,184.848717 246.105087,184.839034 246.108005,184.829711 C246.110923,184.820387 246.112868,184.815367 246.115137,184.808553 C246.117406,184.80174 246.121621,184.787396 246.124538,184.777355 C246.127456,184.767314 246.12778,184.765521 246.129077,184.759784 C246.130374,184.754046 246.134264,184.740778 246.136209,184.731813 C246.138154,184.722848 246.138478,184.720338 246.139451,184.714959 C246.140423,184.70958 246.139451,184.706353 246.14172,184.702408 C246.14172,184.69165 246.144638,184.681609 246.14561,184.671927 L246.14561,184.644315 C246.145951,184.637746 246.145951,184.631161 246.14561,184.624592 L246.14561,184.612758 C246.145765,184.609533 246.145765,184.606301 246.14561,184.603076 C246.143843,184.593452 246.141125,184.584072 246.137506,184.575105 C246.135561,184.570085 246.133616,184.565781 246.131346,184.56112 C246.130079,184.558101 246.12856,184.555219 246.126808,184.552513 L246.124214,184.547851 L246.124214,184.544983 C246.122347,184.54173 246.120289,184.538615 246.118055,184.535659 C246.115461,184.531356 246.112544,184.527411 246.109626,184.523467 C246.080449,184.485455 245.983194,184.423417 245.771827,184.415887 L245.683973,184.403694 C245.66229,184.403205 245.641344,184.394894 245.624323,184.380027 C245.606286,184.367173 245.595505,184.344949 245.595795,184.321216 L245.595795,184.122193 L245.62173,184.101753 C246.140423,184.097809 247.301324,184.101753 247.301324,184.101753 L247.32272,184.123269 L247.32272,184.322292 C247.32272,184.377516 247.294841,184.40477 247.239729,184.40477 C246.969036,184.418755 246.913601,184.448519 246.814401,184.606303 C246.760262,184.692009 246.652309,184.877046 246.543059,185.085034 L245.592878,187.05052 L245.592878,187.052671 C245.591894,187.054639 245.591028,187.056675 245.590284,187.058768 C245.590284,187.061278 245.587691,187.064505 245.58607,187.06845 C245.584449,187.072394 245.58607,187.072394 245.583476,187.074546 C245.583476,187.076698 245.581207,187.079208 245.580234,187.081718 C245.578853,187.08436 245.577661,187.087118 245.576668,187.089966 C245.574075,187.095703 245.571157,187.1018 245.56824,187.108972 L245.56824,187.11184 C245.567865,187.112698 245.567489,187.113563 245.56711,187.114436 L246.726871,189.739302 L246.797219,189.760459 L248.463522,185.385541 L248.600327,185.026941 L248.626262,184.959165 C248.691099,184.765521 248.680076,184.628536 248.598382,184.547851 C248.516688,184.467166 248.458659,184.422341 248.246643,184.412659 L248.07515,184.403694 C248.053096,184.403249 248.031833,184.394524 248.014852,184.378951 C247.99701,184.366234 247.986257,184.344336 247.986324,184.320858 L247.986324,184.121118 L248.012259,184.100677 L250.078604,184.100677 L250.1,184.122193 L250.1,184.321933 C250.1,184.376082 250.07212,184.403336 250.017009,184.403336 C249.746316,184.416604 249.545646,184.481869 249.415649,184.597697 C249.276805,184.727235 249.171628,184.895313 249.110916,185.084675 C249.110916,185.084675 247.428728,189.343049 246.853303,190.758801 C246.632858,191.222829 246.416303,191.180156 246.225684,190.745533 C246.116758,190.497023 245.954018,190.111887 245.774744,189.682284 C245.765343,189.659334 245.755618,189.636383 245.745892,189.613433 L245.530634,189.094539 L245.465798,188.938548 C245.348996,188.655876 245.233801,188.37569 245.12916,188.121325 L245.12916,188.121325 Z" id="Path" fill="#F2F2F2" fill-rule="nonzero" mask="url(#mask-2)"></path>
            </g>
            <path d="M171.29,396.22 L171.29,397.09 C170.595562,397.06372 169.906258,397.218813 169.29,397.54 C168.662065,397.956786 168.152299,398.52855 167.81,399.2 C167.216903,400.463356 166.722103,401.770564 166.33,403.11 L157.47,428.73 L156.53,428.73 L149.29,408.41 L142.09,428.73 L141.25,428.73 L131.8,402.34 C131.1,400.34 130.653333,399.176667 130.46,398.85 C130.177684,398.289937 129.731113,397.829411 129.18,397.53 C128.495606,397.211392 127.744054,397.063827 126.99,397.1 L126.99,396.23 L138.76,396.23 L138.76,397.1 L138.2,397.1 C137.519984,397.052595 136.845603,397.25136 136.3,397.66 C135.883097,397.988146 135.63982,398.489446 135.64,399.02 C135.820189,400.312374 136.155958,401.578224 136.64,402.79 L142.9,420.63 L148.17,405.47 L147.23,402.8 L146.48,400.67 C146.183562,399.948079 145.815028,399.257916 145.38,398.61 C145.179132,398.315272 144.924728,398.060868 144.63,397.86 C144.274486,397.596435 143.879638,397.390574 143.46,397.25 C142.998848,397.137694 142.524232,397.090569 142.05,397.11 L142.05,396.24 L154.43,396.24 L154.43,397.11 L153.59,397.11 C152.902593,397.051043 152.217926,397.250738 151.67,397.67 C151.259019,398.066365 151.037041,398.619488 151.06,399.19 C151.207909,400.623215 151.561542,402.027643 152.11,403.36 L158.2,420.63 L164.2,403.12 C164.719342,401.840185 165.055977,400.493645 165.2,399.12 C165.197123,398.758782 165.077895,398.408112 164.86,398.12 C164.647967,397.816852 164.347678,397.586398 164,397.46 C163.251453,397.217167 162.46657,397.105524 161.68,397.13 L161.68,396.26 L171.29,396.22 Z" id="Path" fill="#FFFFFF" fill-rule="nonzero"></path>
            <path d="M178.64,405.9 L178.64,423.15 C178.582415,424.05335 178.68051,424.959878 178.93,425.83 C179.101913,426.250077 179.407751,426.601616 179.8,426.83 C180.465031,427.101027 181.183895,427.213992 181.9,427.16 L181.9,428 L171.47,428 L171.47,427.16 C172.186877,427.21768 172.907609,427.115206 173.58,426.86 C173.967088,426.628229 174.268783,426.27742 174.44,425.86 C174.708526,424.986643 174.816937,424.071931 174.76,423.16 L174.76,414.89 C174.806778,413.380171 174.736568,411.868987 174.55,410.37 C174.485542,409.990478 174.303674,409.64073 174.03,409.37 C173.743635,409.153721 173.387646,409.050484 173.03,409.08 C172.483649,409.10308 171.945543,409.221531 171.44,409.43 L171.11,408.59 L177.58,405.97 L178.64,405.9 Z M176.69,394.67 C177.319379,394.667327 177.923751,394.916165 178.368793,395.361207 C178.813835,395.806249 179.062673,396.410621 179.06,397.04 C179.070596,397.673952 178.82127,398.28462 178.37,398.73 C177.932854,399.188473 177.323356,399.442431 176.69,399.43 C175.375562,399.43 174.31,398.364438 174.31,397.05 C174.31,395.735562 175.375562,394.67 176.69,394.67 L176.69,394.67 Z" id="Shape" fill="#FFFFFF" fill-rule="nonzero"></path>
            <path d="M190.93,394.67 L190.93,416 L196.39,411 C197.107292,410.385958 197.775958,409.717292 198.39,409 C198.50834,408.836756 198.57457,408.641553 198.58,408.44 C198.585534,408.12349 198.440878,407.823052 198.19,407.63 C197.817272,407.363908 197.367778,407.226952 196.91,407.24 L196.91,406.49 L206.24,406.49 L206.24,407.24 C205.145994,407.236733 204.060907,407.436796 203.04,407.83 C202.007163,408.311196 201.061055,408.959956 200.24,409.75 L194.73,414.84 L200.24,421.84 C201.773333,423.76 202.803333,424.98 203.33,425.5 C203.897309,426.102215 204.576668,426.587957 205.33,426.93 C205.979436,427.116362 206.655214,427.194077 207.33,427.16 L207.33,428 L196.93,428 L196.93,427.16 C197.350964,427.189001 197.771297,427.095207 198.14,426.89 C198.351974,426.725283 198.471194,426.468215 198.46,426.2 C198.313013,425.547376 197.987575,424.948432 197.52,424.47 L190.93,416 L190.93,423.13 C190.869477,424.053193 190.967563,424.979931 191.22,425.87 C191.379519,426.269962 191.672867,426.602187 192.05,426.81 C192.804045,427.056925 193.598052,427.158721 194.39,427.11 L194.39,428 L183.47,428 L183.47,427.16 C184.309196,427.204603 185.148168,427.068185 185.93,426.76 C186.261971,426.584109 186.52587,426.302617 186.68,425.96 C186.96568,425.10042 187.084477,424.194169 187.03,423.29 L187.03,403.74 C187.075907,402.218138 187.02246,400.694902 186.87,399.18 C186.819774,398.748164 186.630205,398.344454 186.33,398.03 C186.047424,397.803869 185.69136,397.689929 185.33,397.71 C184.817169,397.756307 184.316337,397.891667 183.85,398.11 L183.45,397.29 L189.83,394.67 L190.93,394.67 Z" id="Path" fill="#FFFFFF" fill-rule="nonzero"></path>
            <path d="M216,405.9 L216,423.15 C215.942415,424.05335 216.04051,424.959878 216.29,425.83 C216.461913,426.250077 216.767751,426.601616 217.16,426.83 C217.825031,427.101027 218.543895,427.213992 219.26,427.16 L219.26,428 L208.81,428 L208.81,427.16 C209.526877,427.21768 210.247609,427.115206 210.92,426.86 C211.307088,426.628229 211.608783,426.27742 211.78,425.86 C212.048526,424.986643 212.156937,424.071931 212.1,423.16 L212.1,414.89 C212.146778,413.380171 212.076568,411.868987 211.89,410.37 C211.825542,409.990478 211.643674,409.64073 211.37,409.37 C211.083635,409.153721 210.727646,409.050484 210.37,409.08 C209.823649,409.10308 209.285543,409.221531 208.78,409.43 L208.45,408.59 L214.92,405.97 L216,405.9 Z M214,394.67 C214.627644,394.659311 215.233686,394.899116 215.684082,395.336375 C216.134478,395.773634 216.392111,396.372314 216.4,397 C216.410596,397.633952 216.16127,398.24462 215.71,398.69 C215.272854,399.148473 214.663356,399.402431 214.03,399.39 C212.715562,399.39 211.65,398.324438 211.65,397.01 C211.65,395.695562 212.715562,394.63 214.03,394.63 L214,394.67 Z" id="Shape" fill="#FFFFFF" fill-rule="nonzero"></path>
            <path d="M220.36,408.66 L227,406 L227.89,406 L227.89,411 C228.701464,409.44115 229.840916,408.076537 231.23,407 C232.262168,406.267489 233.494358,405.869558 234.76,405.86 C236.850345,405.828597 238.83862,406.761869 240.15,408.39 C241.985339,410.664336 242.927615,413.530276 242.8,416.45 C242.923439,419.804484 241.785262,423.083433 239.61,425.64 C237.971197,427.584822 235.542794,428.686971 233,428.64 C231.978314,428.66343 230.961135,428.497291 230,428.15 C229.216633,427.812482 228.501551,427.334631 227.89,426.74 L227.89,433.28 C227.827695,434.221798 227.918884,435.167461 228.16,436.08 C228.355132,436.495084 228.687004,436.830487 229.1,437.03 C229.875436,437.319939 230.70426,437.439317 231.53,437.38 L231.53,438.25 L220.25,438.25 L220.25,437.38 L220.84,437.38 C221.604026,437.417146 222.363959,437.247888 223.04,436.89 C223.354541,436.696192 223.596907,436.404651 223.73,436.06 C223.956282,435.104226 224.040519,434.120329 223.98,433.14 L223.98,412.84 C224.023966,411.952235 223.960167,411.062413 223.79,410.19 C223.688988,409.851063 223.477856,409.555477 223.19,409.35 C222.856587,409.14714 222.469741,409.049557 222.08,409.07 C221.587775,409.096043 221.103861,409.207715 220.65,409.4 L220.36,408.66 Z M227.86,412.39 L227.86,420.39 C227.815925,421.534149 227.886274,422.679839 228.07,423.81 C228.32173,424.765458 228.889121,425.607734 229.68,426.2 C230.60518,426.896091 231.74326,427.249532 232.9,427.2 C234.38745,427.237506 235.801922,426.556326 236.7,425.37 C238.078573,423.407217 238.748594,421.03393 238.6,418.64 C238.6,415.36 237.88,412.836667 236.44,411.07 C235.605928,409.93553 234.287968,409.258039 232.88,409.24 C232.102526,409.245225 231.337702,409.437289 230.65,409.8 C229.59858,410.522541 228.658612,411.395128 227.86,412.39 L227.86,412.39 Z" id="Shape" fill="#FFFFFF" fill-rule="nonzero"></path>
            <path d="M249.52,414.62 C249.344526,417.320257 250.170506,419.990453 251.84,422.12 C253.166994,423.817983 255.195093,424.819149 257.35,424.84 C258.667526,424.866852 259.957248,424.459202 261.02,423.68 C262.251891,422.621304 263.157134,421.23396 263.63,419.68 L264.36,420.15 C264.008245,422.340584 263.012675,424.376977 261.5,426 C260.014018,427.717706 257.840818,428.685202 255.57,428.64 C253.030168,428.659181 250.609957,427.562409 248.95,425.64 C247.029535,423.391982 246.045174,420.492592 246.2,417.54 C246.2,413.866667 247.14,411.003333 249.02,408.95 C250.817266,406.933229 253.409336,405.807196 256.11,405.87 C258.332966,405.796616 260.484568,406.66016 262.04,408.25 C263.638309,409.971038 264.47476,412.264069 264.36,414.61 L249.52,414.62 Z M249.52,413.26 L259.46,413.26 C259.454486,412.269938 259.28902,411.287272 258.97,410.35 C258.603513,409.5052 257.994442,408.788237 257.22,408.29 C256.501479,407.806265 255.656165,407.545366 254.79,407.54 C253.472613,407.547675 252.215526,408.093135 251.31,409.05 C250.227491,410.193082 249.592165,411.687341 249.52,413.26 L249.52,413.26 Z" id="Shape" fill="#FFFFFF" fill-rule="nonzero"></path>
            <path d="M282.38,425.59 C281.506607,426.55455 280.466685,427.353969 279.31,427.95 C278.300457,428.426645 277.19637,428.669339 276.08,428.66 C273.697666,428.643131 271.446804,427.565356 269.94,425.72 C268.142542,423.62172 267.206429,420.920568 267.32,418.16 C267.315097,415.096723 268.339975,412.120704 270.23,409.71 C271.937664,407.276202 274.737105,405.842798 277.71,405.88 C279.452541,405.820378 281.14479,406.469855 282.4,407.68 L282.4,403.68 C282.44538,402.17098 282.385233,400.660633 282.22,399.16 C282.167008,398.726938 281.97386,398.323082 281.67,398.01 C281.401774,397.80242 281.068886,397.696179 280.73,397.71 C280.172398,397.744155 279.624629,397.872645 279.11,398.09 L278.81,397.27 L285.21,394.65 L286.26,394.65 L286.26,419.47 C286.213062,421.008981 286.273207,422.549364 286.44,424.08 C286.493635,424.517842 286.690518,424.92567 287,425.24 C287.24953,425.456393 287.569732,425.5738 287.9,425.57 C288.482059,425.534268 289.053678,425.398974 289.59,425.17 L289.85,425.99 L283.48,428.64 L282.4,428.64 L282.38,425.59 Z M282.38,423.95 L282.38,412.88 C282.301371,411.862867 282.015512,410.872569 281.54,409.97 C281.123461,409.139565 280.478077,408.445604 279.68,407.97 C278.999187,407.550705 278.219333,407.319509 277.42,407.3 C275.977644,407.332288 274.626308,408.011628 273.74,409.15 C272.32,410.776667 271.61,413.153333 271.61,416.28 C271.61,419.406667 272.296667,421.823333 273.67,423.53 C274.724095,425.03894 276.421056,425.970605 278.26,426.05 C279.868022,425.962309 281.364249,425.199669 282.38,423.95 L282.38,423.95 Z" id="Shape" fill="#FFFFFF" fill-rule="nonzero"></path>
            <path d="M298.62,405.9 L298.62,423.15 C298.562415,424.05335 298.66051,424.959878 298.91,425.83 C299.081913,426.250077 299.387751,426.601616 299.78,426.83 C300.445031,427.101027 301.163895,427.213992 301.88,427.16 L301.88,428 L291.45,428 L291.45,427.16 C292.166877,427.21768 292.887609,427.115206 293.56,426.86 C293.947088,426.628229 294.248783,426.27742 294.42,425.86 C294.688526,424.986643 294.796937,424.071931 294.74,423.16 L294.74,414.89 C294.786778,413.380171 294.716568,411.868987 294.53,410.37 C294.465542,409.990478 294.283674,409.64073 294.01,409.37 C293.723635,409.153721 293.367646,409.050484 293.01,409.08 C292.463649,409.10308 291.925543,409.221531 291.42,409.43 L291.09,408.59 L297.56,405.97 L298.62,405.9 Z M296.67,394.67 C297.950065,394.686171 298.983829,395.719935 299,397 C299.010596,397.633952 298.76127,398.24462 298.31,398.69 C297.872854,399.148473 297.263356,399.402431 296.63,399.39 C295.315562,399.39 294.25,398.324438 294.25,397.01 C294.25,395.695562 295.315562,394.63 296.63,394.63 L296.67,394.67 Z" id="Shape" fill="#FFFFFF" fill-rule="nonzero"></path>
            <path d="M316.71,424.91 C315.400946,426.008928 314.013981,427.011554 312.56,427.91 C311.714337,428.302823 310.792436,428.504275 309.86,428.5 C308.475289,428.543111 307.138731,427.98955 306.19,426.98 C305.201933,425.888349 304.684468,424.450947 304.75,422.98 C304.724158,422.025687 304.966689,421.08328 305.45,420.26 C306.301943,419.002515 307.448614,417.972571 308.79,417.26 C311.327499,415.903107 313.973249,414.75918 316.7,413.84 L316.7,413 C316.7,410.86 316.366667,409.39 315.7,408.59 C314.938466,407.748906 313.831521,407.306128 312.7,407.39 C311.846228,407.346416 311.008395,407.632855 310.36,408.19 C309.806609,408.637816 309.480578,409.308194 309.47,410.02 L309.47,411.38 C309.520181,411.959652 309.352618,412.537209 309,413 C308.626991,413.394321 308.102452,413.609236 307.56,413.59 C307.019551,413.607711 306.499212,413.384185 306.14,412.98 C305.753546,412.516015 305.557047,411.922945 305.59,411.32 C305.666092,409.834049 306.426986,408.467395 307.65,407.62 C309.324838,406.400678 311.372219,405.803083 313.44,405.93 C315.061301,405.878009 316.670913,406.22121 318.13,406.93 C319.042933,407.427848 319.75111,408.231629 320.13,409.2 C320.493619,410.544674 320.635481,411.939654 320.55,413.33 L320.55,420.62 C320.519287,421.874593 320.559351,423.129919 320.67,424.38 C320.694922,424.724279 320.831902,425.050924 321.06,425.31 C321.231018,425.460859 321.45197,425.542825 321.68,425.54 C321.910393,425.547066 322.138419,425.491787 322.34,425.38 C323.021979,424.866487 323.657735,424.294306 324.24,423.67 L324.24,424.98 C322.493333,427.326667 320.826667,428.5 319.24,428.5 C318.53944,428.528904 317.86454,428.233866 317.41,427.7 C316.863301,426.877934 316.616131,425.892782 316.71,424.91 Z M316.71,423.39 L316.71,415.2 C315.151819,415.784023 313.62627,416.451659 312.14,417.2 C311.109418,417.71767 310.204852,418.454976 309.49,419.36 C308.969306,420.074465 308.689155,420.935929 308.69,421.82 C308.651193,422.847151 309.009289,423.84982 309.69,424.62 C310.261898,425.313902 311.110851,425.720082 312.01,425.73 C313.21,425.73 314.776667,424.946667 316.71,423.38 L316.71,423.39 Z" id="Shape" fill="#FFFFFF" fill-rule="nonzero"></path>
            <polygon id="Path" fill="#FFFFFF" fill-rule="nonzero" points="326.3 415.46 338.42 415.46 338.42 419 326.3 419"></polygon>
            <path d="M360.5,421.41 L360.24,428 L341.3,428 L341.3,427.16 L355.55,408.16 L348.55,408.16 C347.540925,408.095547 346.528045,408.193459 345.55,408.45 C345.048751,408.674273 344.64187,409.067002 344.4,409.56 C343.944938,410.464257 343.695644,411.45802 343.67,412.47 L342.73,412.47 L342.87,406.47 L360.87,406.47 L360.87,407.34 L346.48,426.34 L354.31,426.34 C355.439209,426.414536 356.572345,426.275438 357.65,425.93 C358.271458,425.62287 358.771591,425.115692 359.07,424.49 C359.432168,423.472802 359.644391,422.408316 359.7,421.33 L360.5,421.41 Z" id="Path" fill="#FFFFFF" fill-rule="nonzero"></path>
            <path d="M369.45,394.67 L369.45,410.37 C370.630286,408.942082 372.02325,407.704267 373.58,406.7 C374.499046,406.189549 375.528932,405.91148 376.58,405.89 C377.709597,405.858929 378.816408,406.211416 379.72,406.89 C380.687787,407.710641 381.370491,408.816972 381.67,410.05 C382.044373,411.85127 382.195511,413.691787 382.12,415.53 L382.12,423.12 C382.063284,424.062222 382.175033,425.007009 382.45,425.91 C382.609389,426.287939 382.891127,426.601372 383.25,426.8 C383.901232,427.070216 384.606948,427.183267 385.31,427.13 L385.31,428 L374.79,428 L374.79,427.16 L375.28,427.16 C376.007565,427.227959 376.7382,427.067149 377.37,426.7 C377.78663,426.354378 378.07535,425.879047 378.19,425.35 C378.256765,424.618693 378.28014,423.884072 378.26,423.15 L378.26,415.56 C378.336908,414.010958 378.215932,412.458431 377.9,410.94 C377.70737,410.276407 377.29923,409.695862 376.74,409.29 C376.172174,408.912748 375.501447,408.720613 374.82,408.74 C373.987039,408.756942 373.169195,408.96568 372.43,409.35 C371.29679,409.992567 370.282099,410.824614 369.43,411.81 L369.43,423.15 C369.369652,424.070786 369.45401,424.99534 369.68,425.89 C369.876562,426.281579 370.196273,426.597777 370.59,426.79 C371.322879,427.083104 372.112685,427.206191 372.9,427.15 L372.9,428 L362.28,428 L362.28,427.16 C363.055505,427.196125 363.828044,427.041617 364.53,426.71 C364.878634,426.512866 365.144811,426.197003 365.28,425.82 C365.521384,424.951806 365.616021,424.049383 365.56,423.15 L365.56,403.72 C365.60538,402.21098 365.545233,400.700633 365.38,399.2 C365.329774,398.768164 365.140205,398.364454 364.84,398.05 C364.555037,397.830163 364.198916,397.723326 363.84,397.75 C363.29454,397.799886 362.759072,397.927859 362.25,398.13 L361.92,397.31 L368.34,394.69 L369.45,394.67 Z" id="Path" fill="#FFFFFF" fill-rule="nonzero"></path>
            <rect id="Rectangle" fill="#FFFFFF" fill-rule="nonzero" x="120.33" y="372" width="271.33" height="2"></rect>
        </g>
    </g>
</svg>