<?xml version="1.0" encoding="UTF-8"?>
<svg width="512px" height="512px" viewBox="0 0 512 512" version="1.1" xmlns="http://www.w3.org/2000/svg" xmlns:xlink="http://www.w3.org/1999/xlink">
    <!-- Generator: Sketch 53.2 (72643) - https://sketchapp.com -->
    <title>Wikipedia_zh_random 15</title>
    <desc>Created with Sketch.</desc>
    <defs>
        <circle id="path-1" cx="245.1" cy="245.1" r="245.1"></circle>
        <circle id="path-3" cx="129.856766" cy="129.886999" r="129"></circle>
    </defs>
    <g id="Wikipedia_zh_random-15" stroke="none" stroke-width="1" fill="none" fill-rule="evenodd">
        <g id="Wikipedia_zh_logo">
            <circle id="Oval" fill="#CCCCCC" fill-rule="nonzero" cx="256" cy="256" r="256"></circle>
            <g id="Group-3" transform="translate(10.900000, 10.900000)">
                <mask id="mask-2" fill="white">
                    <use xlink:href="#path-1"></use>
                </mask>
                <use id="Oval" fill="#5C5737" fill-rule="nonzero" xlink:href="#path-1"></use>
                <g id="Group" mask="url(#mask-2)">
                    <g transform="translate(115.243234, 79.213001)">
                        <mask id="mask-4" fill="white">
                            <use xlink:href="#path-3"></use>
                        </mask>
                        <use id="Oval" stroke="#FFFFFF" stroke-width="2" fill="none" xlink:href="#path-3"></use>
                        <path d="M50.0153543,31.7381537 C40.8850484,46.3778552 24.6081127,52.3853474 20.6729192,70.3540847 C19.3015969,76.6157668 19.6082715,84.8651887 30.6263534,81.5559714 C36.9196216,79.6658246 41.3262941,73.8573021 47.1271997,70.7706576 C50.5612527,68.9434083 55.0726308,64.5250744 58.1416919,66.9151422 C62.1041941,70.0009877 59.2499921,77.0271544 61.1374717,81.6813231 C62.2336539,84.3843015 66.2827962,85.4643384 66.8264145,88.3300297 C68.1530889,95.3236117 65.4561736,102.632895 66.4490932,109.681608 C66.7859643,112.073049 69.7698631,113.331055 70.6642035,115.574406 C75.5056815,127.718703 79.0197918,154.758337 98.4720294,152.283471 C101.158477,151.94168 104.35693,151.634725 106.138744,149.595373 C113.194051,141.520314 118.019623,126.548259 123.081487,117.065965 C134.238883,96.1650231 112.191975,131.026267 121.488634,106.661771 C130.765124,82.3501305 127.250472,115.17849 132.254955,91.9348417 C134.135204,83.2018985 124.362354,78.2259589 130.796316,69.352537 C137.306395,60.3741389 151.092196,55.4668979 152.954451,44.5341599 L154.516916,40.3013231 C154.680167,39.3429239 155.134706,37.5153237 154.168717,37.4055715 C148.528794,36.7647834 142.553613,40.1143473 137.165197,38.3298822 C133.472768,37.1070716 115.246805,23.1371012 114.761424,16.4376452 C113.86096,4.00901959 128.726291,31.5987731 137.531123,35.4164041 C140.156513,36.5547302 143.290951,35.2677426 146.079098,34.6237759 C152.412868,33.160892 158.685235,31.3594783 164.788161,29.1209615 C166.053674,28.6567788 167.19986,27.720489 167.951077,26.601265 C168.590501,25.6485989 168.926519,24.3787894 168.729777,23.2484227 C168.450096,21.6415348 141.885108,16.5034106 134.755658,12.0528669 C133.835567,11.4785021 133.17813,8.57297741 134.228928,8.84183659 C143.717833,11.2696853 152.869841,14.9743951 161.810108,18.9750681 C162.636118,19.3446987 161.755742,21.3945458 162.645786,21.5580735 C178.430989,24.4582893 161.947733,16.557138 174.708675,21.6935547 C179.547527,23.6412452 184.512556,25.4416834 188.941794,28.1966507 C192.340342,30.3105331 194.509649,34.0855745 197.941795,36.1444571 C203.891956,39.7138508 210.421602,42.2299971 216.817994,44.9190784 C217.575143,45.2373885 218.570985,45.5368678 219.274381,45.1128038 C219.885443,44.7444067 220.148134,43.7311632 219.894809,43.064126 L216.301393,37.7537707 C215.919752,36.7488628 220.129281,22.1160166 219.274381,21.4643763 C202.774156,8.88722344 159.139694,-1.68045893 157.601328,-2.19671302 C154.138841,-3.35867523 150.535433,-4.21731024 146.89705,-4.53534587 C141.775189,-4.98305419 104.942483,-0.983261828 101.155063,1.14599987 C98.0830416,2.87306958 90.6924706,6.29271474 93.4934131,8.43159455 L93.7707063,12.0655286 C95.2915586,13.226895 97.5283485,13.0705159 99.4393903,12.9721129 C105.476867,12.6612322 111.408915,10.6375405 117.450788,10.8461981 C118.605736,10.8860846 116.378137,13.3102042 115.241306,13.5178361 C105.26506,15.3399067 94.8985168,14.603732 84.9922864,16.7744488 C82.5086215,17.3186854 81.440862,20.8378461 78.9766694,21.4643763 C74.5964539,22.5780624 69.7580542,20.4792496 65.4209557,21.7505328 C62.5435055,22.5939662 60.7934931,25.5651084 58.4797617,27.4723962 L50.0153543,31.7381537 Z" id="Path-94" stroke="#FFFFFF" stroke-width="1" fill="none" opacity="0.166968936" mask="url(#mask-4)"></path>
                        <path d="M86.6572689,252.107605 C84.2175732,250.913655 76.8929222,249.708268 79.3381816,248.525754 L75.8141028,242.583229 C101.251669,231.853615 98.557949,244.218768 104.026654,244.218768 C108.558679,244.218768 101.251669,234.362409 102.323383,233.967265 C108.056051,231.853615 117.185704,230.728711 125.856766,226.733605 C130.2289,224.719187 144.292513,221.000723 148.238408,219.664079 C157.206071,216.626346 154.43223,222.806976 164.824484,224.821394 C170.380425,225.898349 177.493947,223.19079 183.502699,224.821394 C186.748561,225.702228 187.375438,231.791337 190.738117,231.853615 C200.839189,232.040689 206.699877,217.489413 218.524353,224.343283 C224.243857,227.658503 216.942971,239.45248 214.562005,241.047297 C202.922261,248.843819 189.856921,254.296527 177.896844,261.592138 C150.76354,278.143373 171.444517,261.443154 149.941277,264.787515 C128.237247,268.163106 116.637686,275.355374 95.4485407,262.504534 C92.4682996,260.697071 90.6634433,257.435226 88.2708946,254.900572 L86.6572689,252.107605 Z" id="Path-96" stroke="#FFFFFF" stroke-width="1" fill="none" opacity="0.168015253" mask="url(#mask-4)"></path>
                    </g>
                </g>
                <path d="M236.244981,167 L252.207493,167 L334.091659,125.277933 C337.536284,123.522809 341.751514,124.89242 343.506638,128.337046 C345.261762,131.781671 343.892151,135.996901 340.447526,137.752025 L256.692913,180.427132 C255.658544,180.954169 254.554689,181.199446 253.468826,181.191385 C250.351101,186.591127 248.194825,192.447685 247,198.761058 C244.666667,211.090228 245,223.503209 248,236 L246.642117,236 L300.204623,315.40968 C302.366459,318.614733 301.520763,322.965457 298.31571,325.127293 C295.110656,327.289129 290.759932,326.443434 288.598097,323.23838 L229.755066,236 L220.686798,236 L216.173632,322.116342 C215.971301,325.977037 212.677568,328.942727 208.816873,328.740397 C204.956178,328.538067 201.990488,325.244334 202.192818,321.383639 L206.953136,230.551362 C205.345744,220.338799 205.694699,209.956272 208,199.403781 C210.032387,190.100551 213.902712,181.711664 219.610976,174.237118 L147.791036,137.643031 C144.346411,135.887907 142.9768,131.672677 144.731924,128.228052 C146.487048,124.783427 150.702278,123.413816 154.146903,125.16894 L236.244981,167 Z" id="Combined-Shape" stroke="#E8E5D4" stroke-width="4" mask="url(#mask-2)"></path>
                <g id="cocktail" mask="url(#mask-2)" fill="#5596C3" fill-rule="nonzero">
                    <g transform="translate(152.151659, 124.022883) rotate(13.000000) translate(-152.151659, -124.022883) translate(136.651659, 102.022883)">
                        <path d="M24.2689708,43.5030754 L7.4539309,43.5030754 C6.85118631,43.5030754 6.36145085,42.8306575 6.36145085,42.0030754 C6.36145085,41.1754934 6.85118631,40.5030754 7.4539309,40.5030754 L24.2689708,40.5030754 C24.8717154,40.5030754 25.3614508,41.1754934 25.3614508,42.0030754 C25.3614508,42.8306575 24.8717154,43.5030754 24.2689708,43.5030754 Z" id="Path"></path>
                        <path d="M16.0105306,43.2582128 C15.1829772,43.2582128 14.5105825,42.8049625 14.5105825,42.2471222 L14.5105825,25.2693034 C14.5105825,24.7114631 15.1829772,24.2582128 16.0105306,24.2582128 C16.838084,24.2582128 17.5104787,24.7114631 17.5104787,25.2693034 L17.5104787,42.2325169 C17.515181,42.5035137 17.3600144,42.7650009 17.077894,42.9567762 C16.7957735,43.1501176 16.412541,43.2578842 16.0105607,43.2578842 L16.0105306,43.2582128 Z" id="Path"></path>
                        <path d="M15.7076584,25.8936383 C15.399318,25.8969854 15.10447,25.7664398 14.8972103,25.5388296 L0.982985637,9.67458185 C0.699917564,9.3582652 0.629151624,8.90804053 0.80438424,8.52312033 C0.979616857,8.13651203 1.36715592,7.89046988 1.79345105,7.89381179 L29.6249197,7.89381179 C30.0512062,7.89046431 30.4387323,8.13649061 30.6139865,8.52312033 C30.7892191,8.90805767 30.7184532,9.35825663 30.4353851,9.67458185 L16.5211605,25.5388296 C16.3139137,25.7681194 16.0173532,25.8986598 15.7073479,25.8936383 L15.7076584,25.8936383 Z M4.15416761,10.0409587 L15.7076584,23.2106794 L27.2611492,10.0409587 L4.15416761,10.0409587 Z" id="Shape"></path>
                        <path d="M21.884804,18.8809631 L9.75851782,18.8809631 C9.24016776,18.8809631 8.8216609,18.4342493 8.8216609,17.8809631 C8.8216609,17.3292417 9.24016776,16.8809631 9.75851782,16.8809631 L21.884804,16.8809631 C22.403154,16.8809631 22.8216609,17.3292417 22.8216609,17.8809631 C22.8216609,18.4342493 22.403154,18.8809631 21.884804,18.8809631 Z" id="Path"></path>
                        <path d="M15.0720387,16.9484323 C14.4840911,16.9484323 13.2569593,17.6990401 13.2569593,17.1432773 L14.0063783,4.18140391 C14.0080485,3.73583437 14.3220655,3.34382991 14.7763972,3.22102119 L22.5916103,1.0042573 C22.8655383,0.914514634 23.1678844,0.933409524 23.4250848,1.0577861 C23.6839827,1.18216268 23.8777403,1.40100564 23.9612502,1.66235807 C24.0447644,1.92528239 24.0113604,2.20711772 23.869385,2.4464073 C23.7274096,2.68414113 23.4868855,2.85731472 23.2062656,2.92502678 L16.1410599,4.93397913 L15.3916409,17.1510198 C15.3883001,17.7036389 14.9089252,18.1507803 14.3226453,18.1476366 L15.0720387,16.9484323 Z" id="Path"></path>
                    </g>
                </g>
                <rect id="Rectangle" stroke="#F2C984" stroke-width="2" mask="url(#mask-2)" x="140.1" y="129.1" width="211" height="208"></rect>
                <polygon id="shadow" fill="#000000" opacity="0.195591518" mask="url(#mask-2)" points="143.240265 175.114003 228.1 259.973738 228.129091 336.276582 388.819585 496.967076 472.525036 414.83 486.177857 299.397088 348.676382 162.158071 288.87304 164.1 260.667025 135.647369 235.174443 166.1"></polygon>
                <path d="M238.09653,229.346439 C221.905302,229.346439 206.580084,228.174773 195.129139,226.075433 C181.697882,223.613036 175.09653,220.393274 175.09653,215.346439 C175.09653,210.299603 181.697882,207.079842 195.129139,204.617444 C206.580084,202.518105 221.905302,201.346439 238.09653,201.346439 C254.287758,201.346439 269.612976,202.518105 281.06392,204.617444 C294.495178,207.079842 301.09653,210.299603 301.09653,215.346439 C301.09653,220.393274 294.495178,223.613036 281.06392,226.075433 C269.612976,228.174773 254.287758,229.346439 238.09653,229.346439 Z M294.998372,215.346439 C294.879425,215.228555 294.701661,215.088454 294.468821,214.935045 C293.817311,214.50579 292.819451,214.025476 291.537398,213.534134 C288.68841,212.442268 284.680374,211.380461 279.981953,210.519084 C268.906695,208.48862 253.930457,207.346439 238.09653,207.346439 C222.262603,207.346439 207.286365,208.48862 196.211107,210.519084 C191.512686,211.380461 187.50465,212.442268 184.655662,213.534134 C183.373608,214.025476 182.375749,214.50579 181.724239,214.935045 C181.491399,215.088454 181.313635,215.228555 181.194688,215.346439 C181.313635,215.464322 181.491399,215.604423 181.724239,215.757833 C182.375749,216.187087 183.373608,216.667401 184.655662,217.158744 C187.50465,218.250609 191.512686,219.312417 196.211107,220.173794 C207.286365,222.204258 222.262603,223.346439 238.09653,223.346439 C253.930457,223.346439 268.906695,222.204258 279.981953,220.173794 C284.680374,219.312417 288.68841,218.250609 291.537398,217.158744 C292.819451,216.667401 293.817311,216.187087 294.468821,215.757833 C294.701661,215.604423 294.879425,215.464322 294.998372,215.346439 Z" id="Oval" stroke="#5C5737" stroke-width="2" fill="#55C391" fill-rule="nonzero" mask="url(#mask-2)" transform="translate(238.096530, 215.346439) rotate(-11.000000) translate(-238.096530, -215.346439) "></path>
                <path d="M266.624433,181.705788 C272.941478,196.117807 276.1,206.581855 276.1,213.097931 C276.1,239.431724 272.1,278.932414 264.1,331.6 C264.1,335.189851 261.189851,338.1 257.6,338.1 L256.6,338.1 C253.010149,338.1 250.1,335.189851 250.1,331.6 L262.1,245.1 L252.1,245.1 L240.1,331.6 C240.1,335.189851 237.189851,338.1 233.6,338.1 L232.6,338.1 C229.010149,338.1 226.1,335.189851 226.1,331.6 C234.1,279.405973 238.1,240.260453 238.1,214.16344 C238.1,206.936616 234.454115,195.044737 227.162346,178.487803 L227.162347,178.487802 C226.523249,177.036645 225.087289,176.1 223.501634,176.1 L146.1,176.1 C142.234007,176.1 139.1,172.965993 139.1,169.1 C139.1,165.234007 142.234007,162.1 146.1,162.1 L233.436678,162.1 C228.971868,158.623379 226.1,153.19707 226.1,147.1 C226.1,136.60659 234.60659,128.1 245.1,128.1 C255.59341,128.1 264.1,136.60659 264.1,147.1 C264.1,153.19707 261.228132,158.623379 256.763322,162.1 L344.1,162.1 C347.965993,162.1 351.1,165.234007 351.1,169.1 C351.1,172.965993 347.965993,176.1 344.1,176.1 L270.287959,176.100003 C268.078821,176.100003 266.287962,177.890863 266.287962,180.1 C266.287962,180.652762 266.402529,181.199524 266.624433,181.705788 Z" id="Path" fill="#F2C984" mask="url(#mask-2)"></path>
                <path d="M261.327469,180.598286 C260.582612,179.336243 255.913049,175.110155 250.499928,181.228702 C244.815242,175.110155 240.415944,179.336243 239.672387,180.598286 C238.318457,182.931915 239.130555,186.464908 241.026317,188.168121 L250.501227,197 L259.976138,188.168121 C261.869333,186.464908 262.681431,182.933126 261.327534,180.598286 L261.327469,180.598286 Z" id="Path" fill="#D33D3D" fill-rule="nonzero" mask="url(#mask-2)" transform="translate(250.500000, 187.500000) rotate(-6.000000) translate(-250.500000, -187.500000) "></path>
                <path d="M250.12916,188.121325 C250.114175,188.155657 250.098983,188.190671 250.083585,188.226369 C250.078398,188.238561 250.073211,188.250395 250.0677,188.262229 C250.057759,188.28494 250.047709,188.30789 250.037551,188.33108 L249.8693,188.712989 C249.857954,188.738808 249.846607,188.764627 249.834937,188.790446 C249.802518,188.867904 249.76621,188.946079 249.731522,189.024253 C249.692296,189.113545 249.652421,189.203553 249.612871,189.291769 L249.593096,189.335877 L249.531177,189.475013 C249.354173,189.869473 249.185921,190.2417 249.053655,190.523201 L249.025451,190.583087 C248.996274,190.644408 248.969043,190.701066 248.944405,190.751988 C248.797874,191.033847 248.666255,191.133896 248.548901,191.090147 C248.481471,191.065762 248.419227,190.994042 248.360874,190.882159 C248.341104,190.844192 248.323247,190.805045 248.307384,190.764897 C248.274966,190.677399 248.238333,190.585597 248.200728,190.491285 C248.191651,190.467618 248.181925,190.443592 248.172524,190.419566 L248.127787,190.307324 C248.08132,190.196636 248.034314,190.081525 247.986767,189.961992 C247.976069,189.935814 247.965371,189.909278 247.954348,189.882742 C247.921498,189.802893 247.888107,189.72173 247.854176,189.639252 C247.801982,189.513025 247.748168,189.383571 247.692084,189.252323 C247.679117,189.221483 247.665825,189.190285 247.652858,189.158728 L247.603258,189.04039 L247.535503,188.879379 C247.435331,188.641986 247.332889,188.399572 247.229798,188.156083 L247.162692,187.997582 L247.077108,187.795332 C247.051389,187.735087 247.025995,187.67532 247.000925,187.616032 C246.778535,187.089966 246.560035,186.57143 246.366174,186.09772 C246.353855,186.068315 246.342184,186.03891 246.330189,186.009863 C246.293557,185.919854 246.257572,185.830563 246.222885,185.745216 L246.162262,185.593887 C246.161642,185.592028 246.160883,185.590229 246.159993,185.588508 L246.104233,185.445068 C246.050095,185.308083 245.999522,185.177553 245.953488,185.054912 C245.849101,184.778431 245.770325,184.600924 245.694141,184.530639 C245.617958,184.460353 245.463971,184.419473 245.227966,184.405487 C245.211108,184.403336 245.195547,184.401184 245.182256,184.397957 L245.165722,184.394012 L245.146596,184.387557 C245.135723,184.383521 245.125453,184.37772 245.116122,184.370344 C245.114038,184.368613 245.112086,184.366694 245.110287,184.364607 C245.10702,184.361314 245.10428,184.357434 245.102182,184.353132 L245.100237,184.34847 L245.100237,184.34596 C245.100085,184.344171 245.100085,184.34237 245.100237,184.340581 C245.099921,184.338323 245.099921,184.336025 245.100237,184.333767 L245.100237,184.124704 L245.121309,184.104263 C245.505791,184.101753 247.367576,184.104263 247.367576,184.104263 L247.388648,184.124704 L247.388648,184.323726 C247.388648,184.378951 247.35623,184.405487 247.294959,184.405487 L247.060575,184.416245 C246.859581,184.425569 246.759084,184.49191 246.759084,184.615268 C246.759084,184.672644 246.780156,184.766239 246.826838,184.89139 C247.276805,186.104533 248.831265,189.729619 248.831265,189.729619 L248.887997,189.746115 L249.888867,187.537595 C249.874789,187.502252 249.861034,187.46968 249.848228,187.437808 L249.835909,187.408044 L249.81192,187.344213 L249.798628,187.311581 C249.783716,187.275721 249.7701,187.242371 249.758105,187.212607 L249.745786,187.182126 L249.735412,187.157383 L249.726335,187.135149 C249.724864,187.130725 249.723131,187.126413 249.721148,187.12224 L249.716285,187.110406 L249.707857,187.089607 C249.707857,187.08638 249.705587,187.083511 249.704291,187.080642 L249.698455,187.06594 C249.697354,187.063862 249.696379,187.061706 249.695538,187.059485 L249.693593,187.054823 C249.69377,187.053515 249.69377,187.052186 249.693593,187.050878 L249.693593,187.045858 L249.342178,186.28204 L249.001137,185.551214 C249.001137,185.551214 248.868222,185.251783 248.822836,185.152451 L248.817973,185.141693 L248.790742,185.082165 L248.765455,185.026224 L248.750219,184.993232 C248.743411,184.977813 248.736603,184.96311 248.730119,184.948766 C248.726553,184.940518 248.722663,184.932629 248.719097,184.92474 L248.708399,184.901072 L248.698025,184.87848 C248.694783,184.87095 248.691542,184.863778 248.687976,184.856606 L248.67825,184.835448 C248.668525,184.81465 248.659447,184.794927 248.65037,184.776279 C248.645508,184.765521 248.640321,184.755122 248.635458,184.744723 C248.634583,184.743369 248.633823,184.741928 248.633189,184.74042 L248.62476,184.723565 C248.611144,184.695595 248.598177,184.670493 248.585534,184.647901 C248.581319,184.639653 248.576781,184.632122 248.572566,184.624592 C248.559923,184.602717 248.547604,184.583353 248.535609,184.56614 L248.528477,184.556458 C248.523277,184.548897 248.517647,184.54171 248.51162,184.534942 C248.509062,184.531457 248.506242,184.528218 248.503191,184.52526 C248.500273,184.522032 248.49768,184.518805 248.494762,184.515936 L248.488279,184.509123 L248.485361,184.506254 L248.480498,184.501592 C248.475311,184.49693 248.470124,184.492268 248.464937,184.488324 L248.454239,184.480076 L248.446135,184.474697 C248.440259,184.470759 248.434199,184.467168 248.42798,184.463939 L248.424739,184.462146 C248.419597,184.459154 248.414292,184.456519 248.408854,184.454257 L248.405612,184.454257 C248.398804,184.451388 248.391672,184.448519 248.384216,184.446009 L248.368655,184.44063 L248.354715,184.436685 L248.344017,184.433817 L248.322621,184.428796 L248.299604,184.424134 L248.285664,184.424134 L248.269779,184.421266 L248.253246,184.418755 L248.220827,184.413735 L248.197486,184.410149 L248.176738,184.406563 L248.174469,184.406563 L248.157936,184.402618 L248.142051,184.398315 C248.135719,184.396357 248.129539,184.393839 248.123572,184.390785 C248.121327,184.389928 248.119157,184.388848 248.117089,184.387557 L248.111577,184.383613 L248.107039,184.379668 C248.10607,184.379282 248.105263,184.378516 248.10477,184.377516 C248.103423,184.376388 248.102224,184.375061 248.101204,184.373572 L248.098286,184.369269 C248.097012,184.366991 248.095927,184.36459 248.095044,184.362097 C248.09486,184.36007 248.09486,184.358027 248.095044,184.356 C248.094709,184.354348 248.094709,184.352633 248.095044,184.35098 C248.09487,184.348234 248.09487,184.345478 248.095044,184.342732 L248.095044,184.132951 L248.120655,184.112511 L249.903664,184.112511 L249.95067,184.130083 L249.95067,184.331974 C249.95067,184.379668 249.918252,184.403694 249.856981,184.403694 L249.727308,184.424134 C249.400531,184.452464 249.454021,184.600207 249.6709,185.078221 L250.327371,186.573223 L250.940078,185.221661 L251.058405,184.9606 C251.068779,184.935856 251.077856,184.912547 251.085961,184.891031 C251.090283,184.880034 251.094173,184.869276 251.097631,184.858757 C251.101521,184.848717 251.105087,184.839034 251.108005,184.829711 C251.110923,184.820387 251.112868,184.815367 251.115137,184.808553 C251.117406,184.80174 251.121621,184.787396 251.124538,184.777355 C251.127456,184.767314 251.12778,184.765521 251.129077,184.759784 C251.130374,184.754046 251.134264,184.740778 251.136209,184.731813 C251.138154,184.722848 251.138478,184.720338 251.139451,184.714959 C251.140423,184.70958 251.139451,184.706353 251.14172,184.702408 C251.14172,184.69165 251.144638,184.681609 251.14561,184.671927 L251.14561,184.644315 C251.145951,184.637746 251.145951,184.631161 251.14561,184.624592 L251.14561,184.612758 C251.145765,184.609533 251.145765,184.606301 251.14561,184.603076 C251.143843,184.593452 251.141125,184.584072 251.137506,184.575105 C251.135561,184.570085 251.133616,184.565781 251.131346,184.56112 C251.130079,184.558101 251.12856,184.555219 251.126808,184.552513 L251.124214,184.547851 L251.124214,184.544983 C251.122347,184.54173 251.120289,184.538615 251.118055,184.535659 C251.115461,184.531356 251.112544,184.527411 251.109626,184.523467 C251.080449,184.485455 250.983194,184.423417 250.771827,184.415887 L250.683973,184.403694 C250.66229,184.403205 250.641344,184.394894 250.624323,184.380027 C250.606286,184.367173 250.595505,184.344949 250.595795,184.321216 L250.595795,184.122193 L250.62173,184.101753 C251.140423,184.097809 252.301324,184.101753 252.301324,184.101753 L252.32272,184.123269 L252.32272,184.322292 C252.32272,184.377516 252.294841,184.40477 252.239729,184.40477 C251.969036,184.418755 251.913601,184.448519 251.814401,184.606303 C251.760262,184.692009 251.652309,184.877046 251.543059,185.085034 L250.592878,187.05052 L250.592878,187.052671 C250.591894,187.054639 250.591028,187.056675 250.590284,187.058768 C250.590284,187.061278 250.587691,187.064505 250.58607,187.06845 C250.584449,187.072394 250.58607,187.072394 250.583476,187.074546 C250.583476,187.076698 250.581207,187.079208 250.580234,187.081718 C250.578853,187.08436 250.577661,187.087118 250.576668,187.089966 C250.574075,187.095703 250.571157,187.1018 250.56824,187.108972 L250.56824,187.11184 C250.567865,187.112698 250.567489,187.113563 250.56711,187.114436 L251.726871,189.739302 L251.797219,189.760459 L253.463522,185.385541 L253.600327,185.026941 L253.626262,184.959165 C253.691099,184.765521 253.680076,184.628536 253.598382,184.547851 C253.516688,184.467166 253.458659,184.422341 253.246643,184.412659 L253.07515,184.403694 C253.053096,184.403249 253.031833,184.394524 253.014852,184.378951 C252.99701,184.366234 252.986257,184.344336 252.986324,184.320858 L252.986324,184.121118 L253.012259,184.100677 L255.078604,184.100677 L255.1,184.122193 L255.1,184.321933 C255.1,184.376082 255.07212,184.403336 255.017009,184.403336 C254.746316,184.416604 254.545646,184.481869 254.415649,184.597697 C254.276805,184.727235 254.171628,184.895313 254.110916,185.084675 C254.110916,185.084675 252.428728,189.343049 251.853303,190.758801 C251.632858,191.222829 251.416303,191.180156 251.225684,190.745533 C251.116758,190.497023 250.954018,190.111887 250.774744,189.682284 C250.765343,189.659334 250.755618,189.636383 250.745892,189.613433 L250.530634,189.094539 L250.465798,188.938548 C250.348996,188.655876 250.233801,188.37569 250.12916,188.121325 L250.12916,188.121325 Z" id="Path" fill="#F2F2F2" fill-rule="nonzero" mask="url(#mask-2)" transform="translate(250.100000, 187.600000) rotate(-6.000000) translate(-250.100000, -187.600000) "></path>
                <path d="M235.49674,202.608492 L236.234946,206.539877 C220.568729,209.592308 206.123974,213.58398 195.694861,217.668765 C186.188374,221.392184 180.891965,225.023364 181.162153,226.41336 C181.432341,227.803357 187.703349,229.186059 197.912429,229.07716 C209.1467,228.957326 224.092009,227.237092 239.813811,224.181083 C255.535613,221.125075 270.037073,217.121437 280.498198,213.024113 C290.004686,209.300693 295.301095,205.669514 295.030907,204.279517 C294.760719,202.88952 288.48971,201.506819 278.280631,201.615717 C277.244424,201.62677 276.176645,201.651439 275.079597,201.689515 L273.802504,197.735755 C275.333812,197.671242 276.814149,197.631132 278.237966,197.615945 C290.759373,197.482381 298.099119,199.10073 298.957415,203.516281 C299.815712,207.931832 293.616661,212.181857 281.956981,216.74862 C271.251939,220.941478 256.521869,225.008233 240.577047,228.107592 C224.632225,231.206952 209.451308,232.954304 197.955094,233.076933 C185.433687,233.210497 178.093941,231.592148 177.235645,227.176596 C176.377348,222.761045 182.576399,218.511021 194.236079,213.944258 C204.914423,209.761856 219.597744,205.70493 235.49674,202.608492 L235.49674,202.608492 Z" id="Path" fill="#55C391" fill-rule="nonzero" mask="url(#mask-2)"></path>
                <path d="M163.6,230.627777 L167.6,242.1" id="Line-3" stroke="#B4EED4" stroke-width="3" stroke-linecap="round" mask="url(#mask-2)"></path>
                <path d="M154.6,226.577329 L158.6,239.93775" id="Line-4" stroke="#B4EED4" stroke-width="3" stroke-linecap="round" mask="url(#mask-2)"></path>
                <path d="M314.709061,195.444872 L311.6,209.1" id="Line-5" stroke="#B4EED4" stroke-width="3" stroke-linecap="round" mask="url(#mask-2)"></path>
                <path d="M321.6,197.608365 L318.6,208.713001" id="Line-6" stroke="#B4EED4" stroke-width="3" stroke-linecap="round" mask="url(#mask-2)"></path>
            </g>
            <path d="M171.29,396.22 L171.29,397.09 C170.595562,397.06372 169.906258,397.218813 169.29,397.54 C168.662065,397.956786 168.152299,398.52855 167.81,399.2 C167.216903,400.463356 166.722103,401.770564 166.33,403.11 L157.47,428.73 L156.53,428.73 L149.29,408.41 L142.09,428.73 L141.25,428.73 L131.8,402.34 C131.1,400.34 130.653333,399.176667 130.46,398.85 C130.177684,398.289937 129.731113,397.829411 129.18,397.53 C128.495606,397.211392 127.744054,397.063827 126.99,397.1 L126.99,396.23 L138.76,396.23 L138.76,397.1 L138.2,397.1 C137.519984,397.052595 136.845603,397.25136 136.3,397.66 C135.883097,397.988146 135.63982,398.489446 135.64,399.02 C135.820189,400.312374 136.155958,401.578224 136.64,402.79 L142.9,420.63 L148.17,405.47 L147.23,402.8 L146.48,400.67 C146.183562,399.948079 145.815028,399.257916 145.38,398.61 C145.179132,398.315272 144.924728,398.060868 144.63,397.86 C144.274486,397.596435 143.879638,397.390574 143.46,397.25 C142.998848,397.137694 142.524232,397.090569 142.05,397.11 L142.05,396.24 L154.43,396.24 L154.43,397.11 L153.59,397.11 C152.902593,397.051043 152.217926,397.250738 151.67,397.67 C151.259019,398.066365 151.037041,398.619488 151.06,399.19 C151.207909,400.623215 151.561542,402.027643 152.11,403.36 L158.2,420.63 L164.2,403.12 C164.719342,401.840185 165.055977,400.493645 165.2,399.12 C165.197123,398.758782 165.077895,398.408112 164.86,398.12 C164.647967,397.816852 164.347678,397.586398 164,397.46 C163.251453,397.217167 162.46657,397.105524 161.68,397.13 L161.68,396.26 L171.29,396.22 Z" id="Path" fill="#FFFFFF" fill-rule="nonzero"></path>
            <path d="M178.64,405.9 L178.64,423.15 C178.582415,424.05335 178.68051,424.959878 178.93,425.83 C179.101913,426.250077 179.407751,426.601616 179.8,426.83 C180.465031,427.101027 181.183895,427.213992 181.9,427.16 L181.9,428 L171.47,428 L171.47,427.16 C172.186877,427.21768 172.907609,427.115206 173.58,426.86 C173.967088,426.628229 174.268783,426.27742 174.44,425.86 C174.708526,424.986643 174.816937,424.071931 174.76,423.16 L174.76,414.89 C174.806778,413.380171 174.736568,411.868987 174.55,410.37 C174.485542,409.990478 174.303674,409.64073 174.03,409.37 C173.743635,409.153721 173.387646,409.050484 173.03,409.08 C172.483649,409.10308 171.945543,409.221531 171.44,409.43 L171.11,408.59 L177.58,405.97 L178.64,405.9 Z M176.69,394.67 C177.319379,394.667327 177.923751,394.916165 178.368793,395.361207 C178.813835,395.806249 179.062673,396.410621 179.06,397.04 C179.070596,397.673952 178.82127,398.28462 178.37,398.73 C177.932854,399.188473 177.323356,399.442431 176.69,399.43 C175.375562,399.43 174.31,398.364438 174.31,397.05 C174.31,395.735562 175.375562,394.67 176.69,394.67 L176.69,394.67 Z" id="Shape" fill="#FFFFFF" fill-rule="nonzero"></path>
            <path d="M190.93,394.67 L190.93,416 L196.39,411 C197.107292,410.385958 197.775958,409.717292 198.39,409 C198.50834,408.836756 198.57457,408.641553 198.58,408.44 C198.585534,408.12349 198.440878,407.823052 198.19,407.63 C197.817272,407.363908 197.367778,407.226952 196.91,407.24 L196.91,406.49 L206.24,406.49 L206.24,407.24 C205.145994,407.236733 204.060907,407.436796 203.04,407.83 C202.007163,408.311196 201.061055,408.959956 200.24,409.75 L194.73,414.84 L200.24,421.84 C201.773333,423.76 202.803333,424.98 203.33,425.5 C203.897309,426.102215 204.576668,426.587957 205.33,426.93 C205.979436,427.116362 206.655214,427.194077 207.33,427.16 L207.33,428 L196.93,428 L196.93,427.16 C197.350964,427.189001 197.771297,427.095207 198.14,426.89 C198.351974,426.725283 198.471194,426.468215 198.46,426.2 C198.313013,425.547376 197.987575,424.948432 197.52,424.47 L190.93,416 L190.93,423.13 C190.869477,424.053193 190.967563,424.979931 191.22,425.87 C191.379519,426.269962 191.672867,426.602187 192.05,426.81 C192.804045,427.056925 193.598052,427.158721 194.39,427.11 L194.39,428 L183.47,428 L183.47,427.16 C184.309196,427.204603 185.148168,427.068185 185.93,426.76 C186.261971,426.584109 186.52587,426.302617 186.68,425.96 C186.96568,425.10042 187.084477,424.194169 187.03,423.29 L187.03,403.74 C187.075907,402.218138 187.02246,400.694902 186.87,399.18 C186.819774,398.748164 186.630205,398.344454 186.33,398.03 C186.047424,397.803869 185.69136,397.689929 185.33,397.71 C184.817169,397.756307 184.316337,397.891667 183.85,398.11 L183.45,397.29 L189.83,394.67 L190.93,394.67 Z" id="Path" fill="#FFFFFF" fill-rule="nonzero"></path>
            <path d="M216,405.9 L216,423.15 C215.942415,424.05335 216.04051,424.959878 216.29,425.83 C216.461913,426.250077 216.767751,426.601616 217.16,426.83 C217.825031,427.101027 218.543895,427.213992 219.26,427.16 L219.26,428 L208.81,428 L208.81,427.16 C209.526877,427.21768 210.247609,427.115206 210.92,426.86 C211.307088,426.628229 211.608783,426.27742 211.78,425.86 C212.048526,424.986643 212.156937,424.071931 212.1,423.16 L212.1,414.89 C212.146778,413.380171 212.076568,411.868987 211.89,410.37 C211.825542,409.990478 211.643674,409.64073 211.37,409.37 C211.083635,409.153721 210.727646,409.050484 210.37,409.08 C209.823649,409.10308 209.285543,409.221531 208.78,409.43 L208.45,408.59 L214.92,405.97 L216,405.9 Z M214,394.67 C214.627644,394.659311 215.233686,394.899116 215.684082,395.336375 C216.134478,395.773634 216.392111,396.372314 216.4,397 C216.410596,397.633952 216.16127,398.24462 215.71,398.69 C215.272854,399.148473 214.663356,399.402431 214.03,399.39 C212.715562,399.39 211.65,398.324438 211.65,397.01 C211.65,395.695562 212.715562,394.63 214.03,394.63 L214,394.67 Z" id="Shape" fill="#FFFFFF" fill-rule="nonzero"></path>
            <path d="M220.36,408.66 L227,406 L227.89,406 L227.89,411 C228.701464,409.44115 229.840916,408.076537 231.23,407 C232.262168,406.267489 233.494358,405.869558 234.76,405.86 C236.850345,405.828597 238.83862,406.761869 240.15,408.39 C241.985339,410.664336 242.927615,413.530276 242.8,416.45 C242.923439,419.804484 241.785262,423.083433 239.61,425.64 C237.971197,427.584822 235.542794,428.686971 233,428.64 C231.978314,428.66343 230.961135,428.497291 230,428.15 C229.216633,427.812482 228.501551,427.334631 227.89,426.74 L227.89,433.28 C227.827695,434.221798 227.918884,435.167461 228.16,436.08 C228.355132,436.495084 228.687004,436.830487 229.1,437.03 C229.875436,437.319939 230.70426,437.439317 231.53,437.38 L231.53,438.25 L220.25,438.25 L220.25,437.38 L220.84,437.38 C221.604026,437.417146 222.363959,437.247888 223.04,436.89 C223.354541,436.696192 223.596907,436.404651 223.73,436.06 C223.956282,435.104226 224.040519,434.120329 223.98,433.14 L223.98,412.84 C224.023966,411.952235 223.960167,411.062413 223.79,410.19 C223.688988,409.851063 223.477856,409.555477 223.19,409.35 C222.856587,409.14714 222.469741,409.049557 222.08,409.07 C221.587775,409.096043 221.103861,409.207715 220.65,409.4 L220.36,408.66 Z M227.86,412.39 L227.86,420.39 C227.815925,421.534149 227.886274,422.679839 228.07,423.81 C228.32173,424.765458 228.889121,425.607734 229.68,426.2 C230.60518,426.896091 231.74326,427.249532 232.9,427.2 C234.38745,427.237506 235.801922,426.556326 236.7,425.37 C238.078573,423.407217 238.748594,421.03393 238.6,418.64 C238.6,415.36 237.88,412.836667 236.44,411.07 C235.605928,409.93553 234.287968,409.258039 232.88,409.24 C232.102526,409.245225 231.337702,409.437289 230.65,409.8 C229.59858,410.522541 228.658612,411.395128 227.86,412.39 L227.86,412.39 Z" id="Shape" fill="#FFFFFF" fill-rule="nonzero"></path>
            <path d="M249.52,414.62 C249.344526,417.320257 250.170506,419.990453 251.84,422.12 C253.166994,423.817983 255.195093,424.819149 257.35,424.84 C258.667526,424.866852 259.957248,424.459202 261.02,423.68 C262.251891,422.621304 263.157134,421.23396 263.63,419.68 L264.36,420.15 C264.008245,422.340584 263.012675,424.376977 261.5,426 C260.014018,427.717706 257.840818,428.685202 255.57,428.64 C253.030168,428.659181 250.609957,427.562409 248.95,425.64 C247.029535,423.391982 246.045174,420.492592 246.2,417.54 C246.2,413.866667 247.14,411.003333 249.02,408.95 C250.817266,406.933229 253.409336,405.807196 256.11,405.87 C258.332966,405.796616 260.484568,406.66016 262.04,408.25 C263.638309,409.971038 264.47476,412.264069 264.36,414.61 L249.52,414.62 Z M249.52,413.26 L259.46,413.26 C259.454486,412.269938 259.28902,411.287272 258.97,410.35 C258.603513,409.5052 257.994442,408.788237 257.22,408.29 C256.501479,407.806265 255.656165,407.545366 254.79,407.54 C253.472613,407.547675 252.215526,408.093135 251.31,409.05 C250.227491,410.193082 249.592165,411.687341 249.52,413.26 L249.52,413.26 Z" id="Shape" fill="#FFFFFF" fill-rule="nonzero"></path>
            <path d="M282.38,425.59 C281.506607,426.55455 280.466685,427.353969 279.31,427.95 C278.300457,428.426645 277.19637,428.669339 276.08,428.66 C273.697666,428.643131 271.446804,427.565356 269.94,425.72 C268.142542,423.62172 267.206429,420.920568 267.32,418.16 C267.315097,415.096723 268.339975,412.120704 270.23,409.71 C271.937664,407.276202 274.737105,405.842798 277.71,405.88 C279.452541,405.820378 281.14479,406.469855 282.4,407.68 L282.4,403.68 C282.44538,402.17098 282.385233,400.660633 282.22,399.16 C282.167008,398.726938 281.97386,398.323082 281.67,398.01 C281.401774,397.80242 281.068886,397.696179 280.73,397.71 C280.172398,397.744155 279.624629,397.872645 279.11,398.09 L278.81,397.27 L285.21,394.65 L286.26,394.65 L286.26,419.47 C286.213062,421.008981 286.273207,422.549364 286.44,424.08 C286.493635,424.517842 286.690518,424.92567 287,425.24 C287.24953,425.456393 287.569732,425.5738 287.9,425.57 C288.482059,425.534268 289.053678,425.398974 289.59,425.17 L289.85,425.99 L283.48,428.64 L282.4,428.64 L282.38,425.59 Z M282.38,423.95 L282.38,412.88 C282.301371,411.862867 282.015512,410.872569 281.54,409.97 C281.123461,409.139565 280.478077,408.445604 279.68,407.97 C278.999187,407.550705 278.219333,407.319509 277.42,407.3 C275.977644,407.332288 274.626308,408.011628 273.74,409.15 C272.32,410.776667 271.61,413.153333 271.61,416.28 C271.61,419.406667 272.296667,421.823333 273.67,423.53 C274.724095,425.03894 276.421056,425.970605 278.26,426.05 C279.868022,425.962309 281.364249,425.199669 282.38,423.95 L282.38,423.95 Z" id="Shape" fill="#FFFFFF" fill-rule="nonzero"></path>
            <path d="M298.62,405.9 L298.62,423.15 C298.562415,424.05335 298.66051,424.959878 298.91,425.83 C299.081913,426.250077 299.387751,426.601616 299.78,426.83 C300.445031,427.101027 301.163895,427.213992 301.88,427.16 L301.88,428 L291.45,428 L291.45,427.16 C292.166877,427.21768 292.887609,427.115206 293.56,426.86 C293.947088,426.628229 294.248783,426.27742 294.42,425.86 C294.688526,424.986643 294.796937,424.071931 294.74,423.16 L294.74,414.89 C294.786778,413.380171 294.716568,411.868987 294.53,410.37 C294.465542,409.990478 294.283674,409.64073 294.01,409.37 C293.723635,409.153721 293.367646,409.050484 293.01,409.08 C292.463649,409.10308 291.925543,409.221531 291.42,409.43 L291.09,408.59 L297.56,405.97 L298.62,405.9 Z M296.67,394.67 C297.950065,394.686171 298.983829,395.719935 299,397 C299.010596,397.633952 298.76127,398.24462 298.31,398.69 C297.872854,399.148473 297.263356,399.402431 296.63,399.39 C295.315562,399.39 294.25,398.324438 294.25,397.01 C294.25,395.695562 295.315562,394.63 296.63,394.63 L296.67,394.67 Z" id="Shape" fill="#FFFFFF" fill-rule="nonzero"></path>
            <path d="M316.71,424.91 C315.400946,426.008928 314.013981,427.011554 312.56,427.91 C311.714337,428.302823 310.792436,428.504275 309.86,428.5 C308.475289,428.543111 307.138731,427.98955 306.19,426.98 C305.201933,425.888349 304.684468,424.450947 304.75,422.98 C304.724158,422.025687 304.966689,421.08328 305.45,420.26 C306.301943,419.002515 307.448614,417.972571 308.79,417.26 C311.327499,415.903107 313.973249,414.75918 316.7,413.84 L316.7,413 C316.7,410.86 316.366667,409.39 315.7,408.59 C314.938466,407.748906 313.831521,407.306128 312.7,407.39 C311.846228,407.346416 311.008395,407.632855 310.36,408.19 C309.806609,408.637816 309.480578,409.308194 309.47,410.02 L309.47,411.38 C309.520181,411.959652 309.352618,412.537209 309,413 C308.626991,413.394321 308.102452,413.609236 307.56,413.59 C307.019551,413.607711 306.499212,413.384185 306.14,412.98 C305.753546,412.516015 305.557047,411.922945 305.59,411.32 C305.666092,409.834049 306.426986,408.467395 307.65,407.62 C309.324838,406.400678 311.372219,405.803083 313.44,405.93 C315.061301,405.878009 316.670913,406.22121 318.13,406.93 C319.042933,407.427848 319.75111,408.231629 320.13,409.2 C320.493619,410.544674 320.635481,411.939654 320.55,413.33 L320.55,420.62 C320.519287,421.874593 320.559351,423.129919 320.67,424.38 C320.694922,424.724279 320.831902,425.050924 321.06,425.31 C321.231018,425.460859 321.45197,425.542825 321.68,425.54 C321.910393,425.547066 322.138419,425.491787 322.34,425.38 C323.021979,424.866487 323.657735,424.294306 324.24,423.67 L324.24,424.98 C322.493333,427.326667 320.826667,428.5 319.24,428.5 C318.53944,428.528904 317.86454,428.233866 317.41,427.7 C316.863301,426.877934 316.616131,425.892782 316.71,424.91 Z M316.71,423.39 L316.71,415.2 C315.151819,415.784023 313.62627,416.451659 312.14,417.2 C311.109418,417.71767 310.204852,418.454976 309.49,419.36 C308.969306,420.074465 308.689155,420.935929 308.69,421.82 C308.651193,422.847151 309.009289,423.84982 309.69,424.62 C310.261898,425.313902 311.110851,425.720082 312.01,425.73 C313.21,425.73 314.776667,424.946667 316.71,423.38 L316.71,423.39 Z" id="Shape" fill="#FFFFFF" fill-rule="nonzero"></path>
            <polygon id="Path" fill="#FFFFFF" fill-rule="nonzero" points="326.3 415.46 338.42 415.46 338.42 419 326.3 419"></polygon>
            <path d="M360.5,421.41 L360.24,428 L341.3,428 L341.3,427.16 L355.55,408.16 L348.55,408.16 C347.540925,408.095547 346.528045,408.193459 345.55,408.45 C345.048751,408.674273 344.64187,409.067002 344.4,409.56 C343.944938,410.464257 343.695644,411.45802 343.67,412.47 L342.73,412.47 L342.87,406.47 L360.87,406.47 L360.87,407.34 L346.48,426.34 L354.31,426.34 C355.439209,426.414536 356.572345,426.275438 357.65,425.93 C358.271458,425.62287 358.771591,425.115692 359.07,424.49 C359.432168,423.472802 359.644391,422.408316 359.7,421.33 L360.5,421.41 Z" id="Path" fill="#FFFFFF" fill-rule="nonzero"></path>
            <path d="M369.45,394.67 L369.45,410.37 C370.630286,408.942082 372.02325,407.704267 373.58,406.7 C374.499046,406.189549 375.528932,405.91148 376.58,405.89 C377.709597,405.858929 378.816408,406.211416 379.72,406.89 C380.687787,407.710641 381.370491,408.816972 381.67,410.05 C382.044373,411.85127 382.195511,413.691787 382.12,415.53 L382.12,423.12 C382.063284,424.062222 382.175033,425.007009 382.45,425.91 C382.609389,426.287939 382.891127,426.601372 383.25,426.8 C383.901232,427.070216 384.606948,427.183267 385.31,427.13 L385.31,428 L374.79,428 L374.79,427.16 L375.28,427.16 C376.007565,427.227959 376.7382,427.067149 377.37,426.7 C377.78663,426.354378 378.07535,425.879047 378.19,425.35 C378.256765,424.618693 378.28014,423.884072 378.26,423.15 L378.26,415.56 C378.336908,414.010958 378.215932,412.458431 377.9,410.94 C377.70737,410.276407 377.29923,409.695862 376.74,409.29 C376.172174,408.912748 375.501447,408.720613 374.82,408.74 C373.987039,408.756942 373.169195,408.96568 372.43,409.35 C371.29679,409.992567 370.282099,410.824614 369.43,411.81 L369.43,423.15 C369.369652,424.070786 369.45401,424.99534 369.68,425.89 C369.876562,426.281579 370.196273,426.597777 370.59,426.79 C371.322879,427.083104 372.112685,427.206191 372.9,427.15 L372.9,428 L362.28,428 L362.28,427.16 C363.055505,427.196125 363.828044,427.041617 364.53,426.71 C364.878634,426.512866 365.144811,426.197003 365.28,425.82 C365.521384,424.951806 365.616021,424.049383 365.56,423.15 L365.56,403.72 C365.60538,402.21098 365.545233,400.700633 365.38,399.2 C365.329774,398.768164 365.140205,398.364454 364.84,398.05 C364.555037,397.830163 364.198916,397.723326 363.84,397.75 C363.29454,397.799886 362.759072,397.927859 362.25,398.13 L361.92,397.31 L368.34,394.69 L369.45,394.67 Z" id="Path" fill="#FFFFFF" fill-rule="nonzero"></path>
            <rect id="Rectangle" fill="#FFFFFF" fill-rule="nonzero" x="120.33" y="372" width="271.33" height="2"></rect>
        </g>
    </g>
</svg>