<?xml version="1.0" encoding="UTF-8"?>
<svg width="512px" height="512px" viewBox="0 0 512 512" version="1.1" xmlns="http://www.w3.org/2000/svg" xmlns:xlink="http://www.w3.org/1999/xlink">
    <!-- Generator: Sketch 55.2 (78181) - https://sketchapp.com -->
    <title>Wikipedia_zh_random 24</title>
    <desc>Created with Sketch.</desc>
    <defs>
        <circle id="path-1" cx="245.1" cy="245.1" r="245.1"></circle>
        <path d="M62.0002666,0.0114593421 C31.8248621,0.0114593421 7.78107387,22.2748255 1.61250617,54.8981255 L1.61250617,54.907212 C-7.64334768,103.287224 22.4336739,165.734357 105.159455,199.000413 C106.720142,199.62742 108.43427,200 110.175372,200 C111.916497,200 113.630555,199.62742 115.191288,199.000413 C115.245417,198.982238 115.263458,198.973151 115.281502,198.964062 L115.236396,198.982238 C197.76264,164.988051 227.642434,102.750284 218.37688,54.7052591 C218.358837,54.6507354 218.358837,54.6416489 218.358837,54.6325623 L218.36786,54.6779973 C211.998831,22.4285333 188.12779,0.363600319 157.980099,0.363600319 C142.28293,0.363600319 125.973293,6.56108982 110.20199,17.3746517 C94.2704115,6.23377974 77.8787881,7.10542736e-14 62.0104883,7.10542736e-14 L62.0002666,0.0114593421 Z" id="path-3"></path>
    </defs>
    <g id="Wikipedia_zh_random-24" stroke="none" stroke-width="1" fill="none" fill-rule="evenodd">
        <g id="Wikipedia_zh_logo">
            <circle id="Oval" fill="#CCCCCC" fill-rule="nonzero" cx="256" cy="256" r="256"></circle>
            <g id="Group-3" transform="translate(10.900000, 10.900000)">
                <mask id="mask-2" fill="white">
                    <use xlink:href="#path-1"></use>
                </mask>
                <use id="Oval" fill="#5B3A3A" fill-rule="nonzero" xlink:href="#path-1"></use>
                <path d="M297.787145,93.1 L297.787145,-8.9" id="Path-133" stroke="#FFFFFF" stroke-width="2" mask="url(#mask-2)"></path>
                <path d="M227.720313,100.882237 L227.720313,-27.4542834" id="Path-134" stroke="#FFFFFF" stroke-width="2" mask="url(#mask-2)"></path>
                <rect id="Rectangle" fill="#000000" opacity="0.247907366" mask="url(#mask-2)" x="134.1" y="161.1" width="221" height="352"></rect>
                <g id="Group-2" mask="url(#mask-2)">
                    <g transform="translate(135.100000, 91.100000)">
                        <mask id="mask-4" fill="white">
                            <use xlink:href="#path-3"></use>
                        </mask>
                        <use id="heart" stroke="none" fill="#FFFFFF" fill-rule="nonzero" xlink:href="#path-3"></use>
                        <path d="M62.0002666,14.0114593 C31.8248621,14.0114593 7.78107387,36.2748255 1.61250617,68.8981255 L1.61250617,68.907212 C-7.64334768,117.287224 22.4336739,179.734357 105.159455,213.000413 C106.720142,213.62742 108.43427,214 110.175372,214 C111.916497,214 113.630555,213.62742 115.191288,213.000413 C115.245417,212.982238 115.263458,212.973151 115.281502,212.964062 L115.236396,212.982238 C197.76264,178.988051 227.642434,116.750284 218.37688,68.7052591 C218.358837,68.6507354 218.358837,68.6416489 218.358837,68.6325623 L218.36786,68.6779973 C211.998831,36.4285333 188.12779,14.3636003 157.980099,14.3636003 C142.28293,14.3636003 125.973293,20.5610898 110.20199,31.3746517 C94.2704115,20.2337797 77.8787881,14 62.0104883,14 L62.0002666,14.0114593 Z" id="heart" stroke="none" fill="#000000" fill-rule="nonzero" opacity="0.29796782" mask="url(#mask-4)"></path>
                    </g>
                </g>
                <g id="zip" mask="url(#mask-2)" stroke="#000000" stroke-width="3">
                    <g transform="translate(300.100000, 77.100000)">
                        <path d="M128.335596,20.5071232 C131.409904,20.5075804 133.902009,22.9996854 133.902466,26.0739935 L133.90449,39.6907836 C133.904947,42.7639101 131.414056,45.2555416 128.340929,45.2559984 C128.340378,45.2559985 128.339826,45.2559985 128.339275,45.2559984 C125.264967,45.2555412 122.772862,42.7634362 122.772405,39.6891281 L122.770381,26.072338 C122.769924,22.9992115 125.260815,20.50758 128.333941,20.5071232 C128.334493,20.5071231 128.335044,20.5071231 128.335596,20.5071232 Z" id="Rectangle" transform="translate(128.337435, 32.881561) rotate(17.000000) translate(-128.337435, -32.881561) "></path>
                        <path d="M110.142018,58.6937319 C113.216938,58.6945096 115.70946,61.1870312 115.710237,64.261952 L115.713679,77.8737815 C115.714456,80.9466925 113.224,83.438409 110.151089,83.439186 C110.150151,83.4391862 110.149213,83.4391862 110.148275,83.439186 C107.073354,83.4384084 104.580832,80.9458867 104.580055,77.8709659 L104.576613,64.2591364 C104.575836,61.1862254 107.066293,58.6945089 110.139204,58.6937319 C110.140142,58.6937317 110.14108,58.6937317 110.142018,58.6937319 Z" id="Rectangle-Copy" transform="translate(110.145146, 71.066459) rotate(36.000000) translate(-110.145146, -71.066459) "></path>
                        <path d="M76.6943945,78.4359705 C79.7700305,78.4361959 82.2632699,80.9294352 82.2634954,84.0050712 L82.2644923,97.6047829 C82.2647177,100.679836 79.7720773,103.172842 76.697024,103.173068 C76.696752,103.173068 76.6964799,103.173068 76.6962079,103.173068 C73.6205718,103.172842 71.1273325,100.679603 71.127107,97.6039668 L71.12611,84.0042552 C71.1258846,80.9292019 73.6185251,78.436196 76.6935784,78.4359705 C76.6938504,78.4359705 76.6941224,78.4359705 76.6943945,78.4359705 Z" id="Rectangle-Copy" transform="translate(76.695301, 90.804519) rotate(82.000000) translate(-76.695301, -90.804519) "></path>
                        <path d="M36.3501559,77.689262 C39.4247009,77.6888289 41.9174631,80.1808889 41.9178962,83.2554339 C41.9178963,83.2559568 41.9178963,83.2564797 41.9178962,83.2570026 L41.9159795,96.8577943 C41.915546,99.9334596 39.4223349,102.426671 36.3466696,102.427104 C33.2721247,102.427537 30.7793624,99.9354768 30.7789293,96.8609319 C30.7789292,96.8604089 30.7789292,96.859886 30.7789293,96.8593631 L30.7808461,83.2585715 C30.7812795,80.1829062 33.2744906,77.6896952 36.3501559,77.689262 Z" id="Rectangle-Copy-2" transform="translate(36.348413, 90.058183) rotate(106.000000) translate(-36.348413, -90.058183) "></path>
                        <path d="M3.70937787,78.066409 L3.71127259,70.8301212 C3.7120777,67.755261 6.20516684,65.2619417 9.27974306,65.2611364 L9.27974306,65.2611364 L9.27974306,65.2611364 C12.3543193,65.2603315 14.8461031,67.7523455 14.8452982,70.8272056 L14.8433912,78.1097211" id="Path" transform="translate(9.277338, 71.685429) rotate(140.000000) translate(-9.277338, -71.685429) "></path>
                        <path d="M120.347815,40.7696406 C122.055904,40.7699885 123.440496,42.154581 123.440844,43.8626696 L123.444624,62.4255214 C123.444972,64.1327107 122.061304,65.5169428 120.354114,65.5172905 C120.353695,65.5172906 120.353275,65.5172906 120.352855,65.5172905 C118.644767,65.5169425 117.260174,64.13235 117.259826,62.4242615 L117.256046,43.8614096 C117.255698,42.1542204 118.639367,40.7699882 120.346556,40.7696406 C120.346976,40.7696405 120.347396,40.7696405 120.347815,40.7696406 Z" id="Rectangle" transform="translate(120.350335, 53.143466) rotate(25.000000) translate(-120.350335, -53.143466) "></path>
                        <path d="M134.047467,1.23788504 C135.755368,1.23809828 137.139841,2.62257204 137.140054,4.33047264 L137.142371,22.8952995 C137.142584,24.602649 135.758677,25.9869019 134.051327,25.987115 C134.05107,25.987115 134.050813,25.987115 134.050556,25.987115 C132.342655,25.9869017 130.958181,24.602428 130.957968,22.8945274 L130.955651,4.32970049 C130.955438,2.62235104 132.339346,1.23809811 134.046695,1.23788504 C134.046952,1.23788501 134.04721,1.23788501 134.047467,1.23788504 Z" id="Rectangle-Copy-3" transform="translate(134.049011, 13.612500) rotate(14.000000) translate(-134.049011, -13.612500) "></path>
                        <path d="M95.7848177,71.6033448 C97.493452,71.6037382 98.8784754,72.9887616 98.8788689,74.6973958 L98.8831417,93.2508498 C98.883535,94.958467 97.4995565,96.3430831 95.7919392,96.3434764 C95.7914646,96.3434765 95.7909899,96.3434765 95.7905153,96.3434764 C94.081881,96.343083 92.6968576,94.9580596 92.6964641,93.2494254 L92.6921913,74.6959715 C92.691798,72.9883542 94.0757766,71.6037381 95.7833938,71.6033448 C95.7838685,71.6033447 95.7843431,71.6033447 95.7848177,71.6033448 Z" id="Rectangle" transform="translate(95.787667, 83.973411) rotate(60.000000) translate(-95.787667, -83.973411) "></path>
                        <path d="M56.6689558,80.3088606 C58.3775421,80.3088606 59.7626249,81.6939435 59.7626249,83.4025297 C59.7626249,83.4025465 59.7626249,83.4025632 59.7626249,83.4025799 L59.7623238,101.951999 C59.7622961,103.660622 58.3771764,105.045719 56.6685543,105.045719 C54.959968,105.045719 53.5748852,103.660636 53.5748852,101.95205 C53.5748852,101.952033 53.5748852,101.952016 53.5748852,101.951999 L53.5751863,83.4025799 C53.575214,81.6939578 54.9603337,80.3088606 56.6689558,80.3088606 Z" id="Rectangle" transform="translate(56.668755, 92.677290) rotate(92.000000) translate(-56.668755, -92.677290) "></path>
                        <path d="M18.8320555,67.2710134 C20.5395604,67.2705925 21.9241077,68.6544575 21.9245286,70.3619623 C21.9245287,70.3624704 21.9245287,70.3629785 21.9245286,70.3634866 L21.919954,88.9179718 C21.9195327,90.6265653 20.5345492,92.0115488 18.8259557,92.01197 C17.1184508,92.0123909 15.7339035,90.6285259 15.7334826,88.9210211 C15.7334825,88.920513 15.7334825,88.9200049 15.7334826,88.9194968 L15.7380572,70.3650116 C15.7384785,68.6564181 17.123462,67.2714346 18.8320555,67.2710134 Z" id="Rectangle" transform="translate(18.829006, 79.641492) rotate(124.000000) translate(-18.829006, -79.641492) "></path>
                    </g>
                </g>
                <g id="zip" mask="url(#mask-2)" stroke="#000000" stroke-width="3">
                    <g transform="translate(125.600000, 86.600000) scale(-1, 1) translate(-125.600000, -86.600000) translate(66.100000, 37.100000)">
                        <path d="M106.792552,20.5596116 C109.751442,20.6030953 112.139055,22.9921737 112.180723,25.9510898 L112.378117,39.9682012 C112.418269,42.8194553 110.13942,45.1634033 107.288166,45.2035555 C107.238645,45.2042529 107.189116,45.2042377 107.139595,45.20351 C104.180705,45.1600263 101.793092,42.7709479 101.751423,39.8120318 L101.55403,25.7949205 C101.513878,22.9436663 103.792726,20.5997183 106.64398,20.5595661 C106.693502,20.5588687 106.743031,20.5588839 106.792552,20.5596116 Z" id="Rectangle" transform="translate(106.966073, 32.881561) rotate(17.000000) translate(-106.966073, -32.881561) "></path>
                        <path d="M89.3818278,58.9058758 C92.3980872,58.9802489 94.8252988,61.408404 94.8984997,64.4246921 L95.2273175,77.9738334 C95.2960594,80.8063855 93.0555485,83.158349 90.2229964,83.2270908 C90.1393653,83.2291204 90.0556971,83.2291042 89.9720668,83.2270421 C86.9558074,83.152669 84.5285958,80.7245139 84.4553949,77.7082258 L84.1265772,64.1590845 C84.0578353,61.3265324 86.2983461,58.974569 89.1308982,58.9058271 C89.2145293,58.9037975 89.2981975,58.9038137 89.3818278,58.9058758 Z" id="Rectangle-Copy" transform="translate(89.676947, 71.066459) rotate(36.000000) translate(-89.676947, -71.066459) "></path>
                        <path d="M57.8022008,79.0381123 C60.8874341,79.0594572 63.3835553,81.554703 63.4059823,84.6399286 L63.496165,97.0460884 C63.5181853,100.075344 61.0803393,102.548892 58.0510837,102.570912 C58.0251445,102.571101 57.9992044,102.571105 57.9732652,102.570926 C54.888032,102.549581 52.3919108,100.054335 52.3694837,96.9691095 L52.279301,84.5629496 C52.2572808,81.533694 54.6951268,79.0601462 57.7243824,79.0381259 C57.7503215,79.0379374 57.7762617,79.0379328 57.8022008,79.0381123 Z" id="Rectangle-Copy" transform="translate(57.887733, 90.804519) rotate(82.000000) translate(-57.887733, -90.804519) "></path>
                        <path d="M19.7083193,78.2566452 C22.6897032,78.2168773 25.1388306,80.6015283 25.1785985,83.5829122 C25.179253,83.6319844 25.1792384,83.6810632 25.1785547,83.7301349 L25.004272,96.2382369 C24.9612457,99.3261977 22.4674298,101.818531 19.379444,101.859721 C16.3980601,101.899488 13.9489327,99.5148374 13.9091648,96.5334535 C13.9085103,96.4843813 13.9085249,96.4353026 13.9092086,96.3862308 L14.0834912,83.8781288 C14.1265176,80.790168 16.6203334,78.2978349 19.7083193,78.2566452 Z" id="Rectangle-Copy-2" transform="translate(19.543882, 90.058183) rotate(106.000000) translate(-19.543882, -90.058183) "></path>
                        <path d="M2.21991889,93.7294013 L2.39865368,86.6414999 C2.47460208,83.6296925 4.95601043,81.1265718 7.94103435,81.0506234 L7.94103435,81.0506234 L7.94103435,81.0506234 C10.9260583,80.974675 13.2843299,83.354659 13.2083815,86.3664664 L13.0285049,93.4996476" id="Path" transform="translate(7.715042, 87.389128) rotate(106.000000) translate(-7.715042, -87.389128) "></path>
                        <path d="M99.1377869,40.879311 C100.794607,40.9125039 102.129476,42.2482432 102.16159,43.9050842 L102.522018,62.5007013 C102.552544,64.0756422 101.300548,65.3771305 99.7256074,65.4076566 C99.6881433,65.4083828 99.6506685,65.4083706 99.6132048,65.40762 C97.9563851,65.3744272 96.6215156,64.0386879 96.589402,62.3818468 L96.228974,43.7862297 C96.1984478,42.2112888 97.4504434,40.9098006 99.0253843,40.8792744 C99.0628484,40.8785483 99.1003232,40.8785605 99.1377869,40.879311 Z" id="Rectangle" transform="translate(99.375496, 53.143466) rotate(25.000000) translate(-99.375496, -53.143466) "></path>
                        <path d="M112.248415,1.27382218 C113.887766,1.29407722 115.21154,2.61857697 115.230895,4.25793884 L115.45265,23.0399013 C115.471412,24.6290033 114.198401,25.9324347 112.609299,25.9511969 C112.586125,25.9514705 112.562949,25.9514641 112.539776,25.9511778 C110.900425,25.9309228 109.576652,24.606423 109.557296,22.9670612 L109.335541,4.18509868 C109.316779,2.59599675 110.589791,1.29256532 112.178893,1.27380311 C112.202066,1.27352951 112.225242,1.27353587 112.248415,1.27382218 Z" id="Rectangle-Copy-3" transform="translate(112.394096, 13.612500) rotate(14.000000) translate(-112.394096, -13.612500) "></path>
                        <path d="M75.7635167,72.0638711 C77.4722964,72.1014499 78.8488539,73.4772193 78.8874113,75.1859772 L79.2870128,92.8952109 C79.3234241,94.5088617 78.0448189,95.8465015 76.431168,95.8829128 C76.3877791,95.8838919 76.3443737,95.8839043 76.3009842,95.8829501 C74.5922045,95.8453713 73.2156469,94.4696019 73.1770895,92.760844 L72.7774881,75.0516103 C72.7410767,73.4379595 74.019682,72.1003198 75.6333328,72.0639084 C75.6767218,72.0629294 75.7201272,72.0629169 75.7635167,72.0638711 Z" id="Rectangle" transform="translate(76.032250, 83.973411) rotate(60.000000) translate(-76.032250, -83.973411) "></path>
                        <path d="M38.8770585,80.9221479 C40.5794613,80.9191699 41.9619456,82.2968259 41.9649236,83.9992287 C41.96493,84.0029181 41.9649299,84.0066075 41.9649231,84.0102969 L41.9330242,101.33346 C41.9298748,103.04378 40.5440871,104.42944 38.8337667,104.432432 C37.1313639,104.43541 35.7488796,103.057753 35.7459016,101.355351 C35.7458952,101.351661 35.7458953,101.347972 35.7459021,101.344283 L35.777801,84.0211198 C35.7809504,82.3107997 37.1667381,80.9251397 38.8770585,80.9221479 Z" id="Rectangle" transform="translate(38.855413, 92.677290) rotate(92.000000) translate(-38.855413, -92.677290) "></path>
                    </g>
                </g>
                <g id="Group" mask="url(#mask-2)">
                    <g transform="translate(-21.574099, 216.739990)">
                        <path d="M238.826419,-6.39488462e-13 L240.15052,-6.39488462e-13 C239.994354,1.47201019 240.323479,8.44402697 240.15052,9.87952789 C234.587368,56.0519084 220.33479,83.3352352 197.173197,91.5074811 C173.694287,99.7916884 108.099953,99.7916884 3.26849658e-13,91.5886487 L0.226998891,88.5972491 C107.819293,96.7617657 173.265359,96.7617657 196.175001,88.6784168 C217.965801,80.9898361 231.697015,54.7381178 237.150183,9.70237487 C237.329379,8.2224567 238.665109,1.52049361 238.826419,-6.39488462e-13 Z" id="Path-132" stroke="none" fill="#000000" fill-rule="nonzero"></path>
                        <rect id="Rectangle" stroke="#000000" stroke-width="2" fill="none" transform="translate(233.699729, 34.635058) rotate(13.000000) translate(-233.699729, -34.635058) " x="223.699729" y="29.1350585" width="20" height="11"></rect>
                        <rect id="Rectangle-Copy-4" stroke="#000000" stroke-width="2" fill="#B3B3B3" fill-rule="evenodd" transform="translate(237.784070, 16.139678) rotate(7.000000) translate(-237.784070, -16.139678) " x="231.28407" y="8.63967806" width="13" height="15"></rect>
                    </g>
                </g>
            </g>
            <path d="M171.29,396.22 L171.29,397.09 C170.595562,397.06372 169.906258,397.218813 169.29,397.54 C168.662065,397.956786 168.152299,398.52855 167.81,399.2 C167.216903,400.463356 166.722103,401.770564 166.33,403.11 L157.47,428.73 L156.53,428.73 L149.29,408.41 L142.09,428.73 L141.25,428.73 L131.8,402.34 C131.1,400.34 130.653333,399.176667 130.46,398.85 C130.177684,398.289937 129.731113,397.829411 129.18,397.53 C128.495606,397.211392 127.744054,397.063827 126.99,397.1 L126.99,396.23 L138.76,396.23 L138.76,397.1 L138.2,397.1 C137.519984,397.052595 136.845603,397.25136 136.3,397.66 C135.883097,397.988146 135.63982,398.489446 135.64,399.02 C135.820189,400.312374 136.155958,401.578224 136.64,402.79 L142.9,420.63 L148.17,405.47 L147.23,402.8 L146.48,400.67 C146.183562,399.948079 145.815028,399.257916 145.38,398.61 C145.179132,398.315272 144.924728,398.060868 144.63,397.86 C144.274486,397.596435 143.879638,397.390574 143.46,397.25 C142.998848,397.137694 142.524232,397.090569 142.05,397.11 L142.05,396.24 L154.43,396.24 L154.43,397.11 L153.59,397.11 C152.902593,397.051043 152.217926,397.250738 151.67,397.67 C151.259019,398.066365 151.037041,398.619488 151.06,399.19 C151.207909,400.623215 151.561542,402.027643 152.11,403.36 L158.2,420.63 L164.2,403.12 C164.719342,401.840185 165.055977,400.493645 165.2,399.12 C165.197123,398.758782 165.077895,398.408112 164.86,398.12 C164.647967,397.816852 164.347678,397.586398 164,397.46 C163.251453,397.217167 162.46657,397.105524 161.68,397.13 L161.68,396.26 L171.29,396.22 Z" id="Path" fill="#FFFFFF" fill-rule="nonzero"></path>
            <path d="M178.64,405.9 L178.64,423.15 C178.582415,424.05335 178.68051,424.959878 178.93,425.83 C179.101913,426.250077 179.407751,426.601616 179.8,426.83 C180.465031,427.101027 181.183895,427.213992 181.9,427.16 L181.9,428 L171.47,428 L171.47,427.16 C172.186877,427.21768 172.907609,427.115206 173.58,426.86 C173.967088,426.628229 174.268783,426.27742 174.44,425.86 C174.708526,424.986643 174.816937,424.071931 174.76,423.16 L174.76,414.89 C174.806778,413.380171 174.736568,411.868987 174.55,410.37 C174.485542,409.990478 174.303674,409.64073 174.03,409.37 C173.743635,409.153721 173.387646,409.050484 173.03,409.08 C172.483649,409.10308 171.945543,409.221531 171.44,409.43 L171.11,408.59 L177.58,405.97 L178.64,405.9 Z M176.69,394.669979 C177.319379,394.667327 177.923751,394.916165 178.368793,395.361207 C178.813835,395.806249 179.062673,396.410621 179.06,397.04 C179.070596,397.673952 178.82127,398.28462 178.37,398.73 C177.932854,399.188473 177.323356,399.442431 176.69,399.43 C175.375562,399.43 174.31,398.364438 174.31,397.05 C174.31,395.735562 175.375562,394.669979 176.69,394.669979 L176.69,394.669979 Z" id="Shape" fill="#FFFFFF" fill-rule="nonzero"></path>
            <path d="M190.93,394.67 L190.93,416 L196.39,411 C197.107292,410.385958 197.775958,409.717292 198.39,409 C198.50834,408.836756 198.57457,408.641553 198.58,408.44 C198.585534,408.12349 198.440878,407.823052 198.19,407.63 C197.817272,407.363908 197.367778,407.226952 196.91,407.24 L196.91,406.49 L206.24,406.49 L206.24,407.24 C205.145994,407.236733 204.060907,407.436796 203.04,407.83 C202.007163,408.311196 201.061055,408.959956 200.24,409.75 L194.73,414.84 L200.24,421.84 C201.773333,423.76 202.803333,424.98 203.33,425.5 C203.897309,426.102215 204.576668,426.587957 205.33,426.93 C205.979436,427.116362 206.655214,427.194077 207.33,427.16 L207.33,428 L196.93,428 L196.93,427.16 C197.350964,427.189001 197.771297,427.095207 198.14,426.89 C198.351974,426.725283 198.471194,426.468215 198.46,426.2 C198.313013,425.547376 197.987575,424.948432 197.52,424.47 L190.93,416 L190.93,423.13 C190.869477,424.053193 190.967563,424.979931 191.22,425.87 C191.379519,426.269962 191.672867,426.602187 192.05,426.81 C192.804045,427.056925 193.598052,427.158721 194.39,427.11 L194.39,428 L183.47,428 L183.47,427.16 C184.309196,427.204603 185.148168,427.068185 185.93,426.76 C186.261971,426.584109 186.52587,426.302617 186.68,425.96 C186.96568,425.10042 187.084477,424.194169 187.03,423.29 L187.03,403.74 C187.075907,402.218138 187.02246,400.694902 186.87,399.18 C186.819774,398.748164 186.630205,398.344454 186.33,398.03 C186.047424,397.803869 185.69136,397.689929 185.33,397.71 C184.817169,397.756307 184.316337,397.891667 183.85,398.11 L183.45,397.29 L189.83,394.67 L190.93,394.67 Z" id="Path" fill="#FFFFFF" fill-rule="nonzero"></path>
            <path d="M216,405.9 L216,423.15 C215.942415,424.05335 216.04051,424.959878 216.29,425.83 C216.461913,426.250077 216.767751,426.601616 217.16,426.83 C217.825031,427.101027 218.543895,427.213992 219.26,427.16 L219.26,428 L208.81,428 L208.81,427.16 C209.526877,427.21768 210.247609,427.115206 210.92,426.86 C211.307088,426.628229 211.608783,426.27742 211.78,425.86 C212.048526,424.986643 212.156937,424.071931 212.1,423.16 L212.1,414.89 C212.146778,413.380171 212.076568,411.868987 211.89,410.37 C211.825542,409.990478 211.643674,409.64073 211.37,409.37 C211.083635,409.153721 210.727646,409.050484 210.37,409.08 C209.823649,409.10308 209.285543,409.221531 208.78,409.43 L208.45,408.59 L214.92,405.97 L216,405.9 Z M214,394.67 C214.627644,394.659311 215.233686,394.899116 215.684082,395.336375 C216.134478,395.773634 216.392111,396.372314 216.4,397 C216.410596,397.633952 216.16127,398.24462 215.71,398.69 C215.272854,399.148473 214.663356,399.402431 214.03,399.39 C212.715562,399.39 211.65,398.324438 211.65,397.01 C211.65,395.695562 212.715562,394.63 214.03,394.63 L214,394.67 Z" id="Shape" fill="#FFFFFF" fill-rule="nonzero"></path>
            <path d="M220.36,408.66 L227,406 L227.89,406 L227.89,411 C228.701464,409.44115 229.840916,408.076537 231.23,407 C232.262168,406.267489 233.494358,405.869558 234.76,405.86 C236.850345,405.828597 238.83862,406.761869 240.15,408.39 C241.985339,410.664336 242.927615,413.530276 242.8,416.45 C242.923439,419.804484 241.785262,423.083433 239.61,425.64 C237.971197,427.584822 235.542794,428.686971 233,428.64 C231.978314,428.66343 230.961135,428.497291 230,428.15 C229.216633,427.812482 228.501551,427.334631 227.89,426.74 L227.89,433.28 C227.827695,434.221798 227.918884,435.167461 228.16,436.08 C228.355132,436.495084 228.687004,436.830487 229.1,437.03 C229.875436,437.319939 230.70426,437.439317 231.53,437.38 L231.53,438.25 L220.25,438.25 L220.25,437.38 L220.84,437.38 C221.604026,437.417146 222.363959,437.247888 223.04,436.89 C223.354541,436.696192 223.596907,436.404651 223.73,436.06 C223.956282,435.104226 224.040519,434.120329 223.98,433.14 L223.98,412.84 C224.023966,411.952235 223.960167,411.062413 223.79,410.19 C223.688988,409.851063 223.477856,409.555477 223.19,409.35 C222.856587,409.14714 222.469741,409.049557 222.08,409.07 C221.587775,409.096043 221.103861,409.207715 220.65,409.4 L220.36,408.66 Z M227.86,412.39 L227.86,420.39 C227.815925,421.534149 227.886274,422.679839 228.07,423.81 C228.32173,424.765458 228.889121,425.607734 229.68,426.2 C230.60518,426.896091 231.74326,427.249532 232.9,427.2 C234.38745,427.237506 235.801922,426.556326 236.7,425.37 C238.078573,423.407217 238.748594,421.03393 238.6,418.64 C238.6,415.36 237.88,412.836667 236.44,411.07 C235.605928,409.93553 234.287968,409.258039 232.88,409.24 C232.102526,409.245225 231.337702,409.437289 230.65,409.8 C229.59858,410.522541 228.658612,411.395128 227.86,412.39 L227.86,412.39 Z" id="Shape" fill="#FFFFFF" fill-rule="nonzero"></path>
            <path d="M249.52,414.62 C249.344526,417.320257 250.170506,419.990453 251.84,422.12 C253.166994,423.817983 255.195093,424.819149 257.35,424.84 C258.667526,424.866852 259.957248,424.459202 261.02,423.68 C262.251891,422.621304 263.157134,421.23396 263.63,419.68 L264.36,420.15 C264.008245,422.340584 263.012675,424.376977 261.5,426 C260.014018,427.717706 257.840818,428.685202 255.57,428.64 C253.030168,428.659181 250.609957,427.562409 248.95,425.64 C247.029535,423.391982 246.045174,420.492592 246.2,417.54 C246.2,413.866667 247.14,411.003333 249.02,408.95 C250.817266,406.933229 253.409336,405.807196 256.11,405.87 C258.332966,405.796616 260.484568,406.66016 262.04,408.25 C263.638309,409.971038 264.47476,412.264069 264.36,414.61 L249.52,414.62 Z M249.52,413.26 L259.46,413.26 C259.454486,412.269938 259.28902,411.287272 258.97,410.35 C258.603513,409.5052 257.994442,408.788237 257.22,408.29 C256.501479,407.806265 255.656165,407.545366 254.79,407.54 C253.472613,407.547675 252.215526,408.093135 251.31,409.05 C250.227491,410.193082 249.592165,411.687341 249.52,413.26 L249.52,413.26 Z" id="Shape" fill="#FFFFFF" fill-rule="nonzero"></path>
            <path d="M282.38,425.59 C281.506607,426.55455 280.466685,427.353969 279.31,427.95 C278.300457,428.426645 277.19637,428.669339 276.08,428.66026 C273.697666,428.643131 271.446804,427.565356 269.94,425.72 C268.142542,423.62172 267.206429,420.920568 267.32,418.16 C267.315097,415.096723 268.339975,412.120704 270.23,409.71 C271.937664,407.276202 274.737105,405.842798 277.71,405.88 C279.452541,405.820378 281.14479,406.469855 282.4,407.68 L282.4,403.68 C282.44538,402.17098 282.385233,400.660633 282.22,399.16 C282.167008,398.726938 281.97386,398.323082 281.67,398.01 C281.401774,397.80242 281.068886,397.696179 280.73,397.71 C280.172398,397.744155 279.624629,397.872645 279.11,398.09 L278.81,397.27 L285.21,394.65 L286.26,394.65 L286.26,419.47 C286.213062,421.008981 286.273207,422.549364 286.44,424.08 C286.493635,424.517842 286.690518,424.92567 287,425.24 C287.24953,425.456393 287.569732,425.5738 287.9,425.57 C288.482059,425.534268 289.053678,425.398974 289.59,425.17 L289.85,425.99 L283.48,428.64 L282.4,428.64 L282.38,425.59 Z M282.38,423.95 L282.38,412.88 C282.301371,411.862867 282.015512,410.872569 281.54,409.97 C281.123461,409.139565 280.478077,408.445604 279.68,407.97 C278.999187,407.550705 278.219333,407.319509 277.42,407.3 C275.977644,407.332288 274.626308,408.011628 273.74,409.15 C272.32,410.776667 271.61,413.153333 271.61,416.28 C271.61,419.406667 272.296667,421.823333 273.67,423.53 C274.724095,425.03894 276.421056,425.970605 278.26,426.05 C279.868022,425.962309 281.364249,425.199669 282.38,423.95 L282.38,423.95 Z" id="Shape" fill="#FFFFFF" fill-rule="nonzero"></path>
            <path d="M298.62,405.9 L298.62,423.15 C298.562415,424.05335 298.66051,424.959878 298.91,425.83 C299.081913,426.250077 299.387751,426.601616 299.78,426.83 C300.445031,427.101027 301.163895,427.213992 301.88,427.16 L301.88,428 L291.45,428 L291.45,427.16 C292.166877,427.21768 292.887609,427.115206 293.56,426.86 C293.947088,426.628229 294.248783,426.27742 294.42,425.86 C294.688526,424.986643 294.796937,424.071931 294.74,423.16 L294.74,414.89 C294.786778,413.380171 294.716568,411.868987 294.53,410.37 C294.465542,409.990478 294.283674,409.64073 294.01,409.37 C293.723635,409.153721 293.367646,409.050484 293.01,409.08 C292.463649,409.10308 291.925543,409.221531 291.42,409.43 L291.09,408.59 L297.56,405.97 L298.62,405.9 Z M296.67,394.67 C297.950065,394.686171 298.983829,395.719935 299,397 C299.010596,397.633952 298.76127,398.24462 298.31,398.69 C297.872854,399.148473 297.263356,399.402431 296.63,399.39 C295.315562,399.39 294.25,398.324438 294.25,397.01 C294.25,395.695562 295.315562,394.63 296.63,394.63 L296.67,394.67 Z" id="Shape" fill="#FFFFFF" fill-rule="nonzero"></path>
            <path d="M316.71,424.91 C315.400946,426.008928 314.013981,427.011554 312.56,427.91 C311.714337,428.302823 310.792436,428.504275 309.86,428.5 C308.475289,428.543111 307.138731,427.98955 306.19,426.98 C305.201933,425.888349 304.684468,424.450947 304.75,422.98 C304.724158,422.025687 304.966689,421.08328 305.45,420.26 C306.301943,419.002515 307.448614,417.972571 308.79,417.26 C311.327499,415.903107 313.973249,414.75918 316.7,413.84 L316.7,413 C316.7,410.86 316.366667,409.39 315.7,408.59 C314.938466,407.748906 313.831521,407.306128 312.7,407.39 C311.846228,407.346416 311.008395,407.632855 310.36,408.19 C309.806609,408.637816 309.480578,409.308194 309.47,410.02 L309.47,411.38 C309.520181,411.959652 309.352618,412.537209 309,413 C308.626991,413.394321 308.102452,413.609236 307.56,413.59 C307.019551,413.607711 306.499212,413.384185 306.14,412.98 C305.753546,412.516015 305.557047,411.922945 305.59,411.32 C305.666092,409.834049 306.426986,408.467395 307.65,407.62 C309.324838,406.400678 311.372219,405.803083 313.44,405.93 C315.061301,405.878009 316.670913,406.22121 318.13,406.93 C319.042933,407.427848 319.75111,408.231629 320.13,409.2 C320.493619,410.544674 320.635481,411.939654 320.55,413.33 L320.55,420.62 C320.519287,421.874593 320.559351,423.129919 320.67,424.38 C320.694922,424.724279 320.831902,425.050924 321.06,425.31 C321.231018,425.460859 321.45197,425.542825 321.68,425.54 C321.910393,425.547066 322.138419,425.491787 322.34,425.38 C323.021979,424.866487 323.657735,424.294306 324.24,423.67 L324.24,424.98 C322.493333,427.326667 320.826667,428.5 319.24,428.5 C318.53944,428.528904 317.86454,428.233866 317.41,427.7 C316.863301,426.877934 316.616131,425.892782 316.71,424.91 Z M316.71,423.39 L316.71,415.2 C315.151819,415.784023 313.62627,416.451659 312.14,417.2 C311.109418,417.71767 310.204852,418.454976 309.49,419.36 C308.969306,420.074465 308.689155,420.935929 308.69,421.82 C308.651193,422.847151 309.009289,423.84982 309.69,424.62 C310.261898,425.313902 311.110851,425.720082 312.01,425.73 C313.21,425.73 314.776667,424.946667 316.71,423.38 L316.71,423.39 Z" id="Shape" fill="#FFFFFF" fill-rule="nonzero"></path>
            <polygon id="Path" fill="#FFFFFF" fill-rule="nonzero" points="326.3 415.46 338.42 415.46 338.42 419 326.3 419"></polygon>
            <path d="M360.5,421.41 L360.24,428 L341.3,428 L341.3,427.16 L355.55,408.16 L348.55,408.16 C347.540925,408.095547 346.528045,408.193459 345.55,408.45 C345.048751,408.674273 344.64187,409.067002 344.4,409.56 C343.944938,410.464257 343.695644,411.45802 343.67,412.47 L342.73,412.47 L342.87,406.47 L360.87,406.47 L360.87,407.34 L346.48,426.34 L354.31,426.34 C355.439209,426.414536 356.572345,426.275438 357.65,425.93 C358.271458,425.62287 358.771591,425.115692 359.07,424.49 C359.432168,423.472802 359.644391,422.408316 359.7,421.33 L360.5,421.41 Z" id="Path" fill="#FFFFFF" fill-rule="nonzero"></path>
            <path d="M369.45,394.67 L369.45,410.37 C370.630286,408.942082 372.02325,407.704267 373.58,406.7 C374.499046,406.189549 375.528932,405.91148 376.58,405.89 C377.709597,405.858929 378.816408,406.211416 379.72,406.89 C380.687787,407.710641 381.370491,408.816972 381.67,410.05 C382.044373,411.85127 382.195511,413.691787 382.12,415.53 L382.12,423.12 C382.063284,424.062222 382.175033,425.007009 382.45,425.91 C382.609389,426.287939 382.891127,426.601372 383.25,426.8 C383.901232,427.070216 384.606948,427.183267 385.31,427.13 L385.31,428 L374.79,428 L374.79,427.16 L375.28,427.16 C376.007565,427.227959 376.7382,427.067149 377.37,426.7 C377.78663,426.354378 378.07535,425.879047 378.19,425.35 C378.256765,424.618693 378.28014,423.884072 378.26,423.15 L378.26,415.56 C378.336908,414.010958 378.215932,412.458431 377.9,410.94 C377.70737,410.276407 377.29923,409.695862 376.74,409.29 C376.172174,408.912748 375.501447,408.720613 374.82,408.74 C373.987039,408.756942 373.169195,408.96568 372.43,409.35 C371.29679,409.992567 370.282099,410.824614 369.43,411.81 L369.43,423.15 C369.369652,424.070786 369.45401,424.99534 369.68,425.89 C369.876562,426.281579 370.196273,426.597777 370.59,426.79 C371.322879,427.083104 372.112685,427.206191 372.9,427.15 L372.9,428 L362.28,428 L362.28,427.16 C363.055505,427.196125 363.828044,427.041617 364.53,426.71 C364.878634,426.512866 365.144811,426.197003 365.28,425.82 C365.521384,424.951806 365.616021,424.049383 365.56,423.15 L365.56,403.72 C365.60538,402.21098 365.545233,400.700633 365.38,399.2 C365.329774,398.768164 365.140205,398.364454 364.84,398.05 C364.555037,397.830163 364.198916,397.723326 363.84,397.75 C363.29454,397.799886 362.759072,397.927859 362.25,398.13 L361.92,397.31 L368.34,394.69 L369.45,394.67 Z" id="Path" fill="#FFFFFF" fill-rule="nonzero"></path>
            <rect id="Rectangle" fill="#FFFFFF" fill-rule="nonzero" x="120.33" y="372" width="271.33" height="2"></rect>
        </g>
    </g>
</svg>