<svg width="512" height="512" viewBox="0 0 512 512" fill="none" xmlns="http://www.w3.org/2000/svg">
<path d="M256 512C397.385 512 512 397.385 512 256C512 114.615 397.385 0 256 0C114.615 0 0 114.615 0 256C0 397.385 114.615 512 256 512Z" fill="#CCCCCC"/>
<mask id="mask0" mask-type="alpha" maskUnits="userSpaceOnUse" x="10" y="10" width="492" height="492">
<path d="M256 501.1C391.365 501.1 501.1 391.365 501.1 256C501.1 120.635 391.365 10.9 256 10.9C120.635 10.9 10.9 120.635 10.9 256C10.9 391.365 120.635 501.1 256 501.1Z" fill="white"/>
</mask>
<g mask="url(#mask0)">
<path d="M256 501.1C391.365 501.1 501.1 391.365 501.1 256C501.1 120.635 391.365 10.9 256 10.9C120.635 10.9 10.9 120.635 10.9 256C10.9 391.365 120.635 501.1 256 501.1Z" fill="#898274"/>
<path fill-rule="evenodd" clip-rule="evenodd" d="M512 63H0V62H512V63Z" fill="#918A7D"/>
<path fill-rule="evenodd" clip-rule="evenodd" d="M512 131H0V130H512V131Z" fill="#918A7D"/>
<path fill-rule="evenodd" clip-rule="evenodd" d="M512 172H0V171H512V172Z" fill="#918A7D"/>
<path fill-rule="evenodd" clip-rule="evenodd" d="M512 204H0V203H512V204Z" fill="#918A7D"/>
<path fill-rule="evenodd" clip-rule="evenodd" d="M512 231H0V230H512V231Z" fill="#918A7D"/>
<path fill-rule="evenodd" clip-rule="evenodd" d="M512 256H0V255H512V256Z" fill="#918A7D"/>
<path fill-rule="evenodd" clip-rule="evenodd" d="M512 282H0V281H512V282Z" fill="#918A7D"/>
<path fill-rule="evenodd" clip-rule="evenodd" d="M512 310H0V309H512V310Z" fill="#918A7D"/>
<path fill-rule="evenodd" clip-rule="evenodd" d="M512 341H0V340H512V341Z" fill="#918A7D"/>
<path fill-rule="evenodd" clip-rule="evenodd" d="M512 383H0V382H512V383Z" fill="#918A7D"/>
<path fill-rule="evenodd" clip-rule="evenodd" d="M512 450H0V449H512V450Z" fill="#918A7D"/>
<path fill-rule="evenodd" clip-rule="evenodd" d="M277 512L277 -5.34978e-08L278 0L278 512L277 512Z" fill="#918A7D"/>
<path fill-rule="evenodd" clip-rule="evenodd" d="M299 512L299 -5.34978e-08L300 0L300 512L299 512Z" fill="#918A7D"/>
<path fill-rule="evenodd" clip-rule="evenodd" d="M341 512L341 -5.34978e-08L342 0L342 512L341 512Z" fill="#918A7D"/>
<path fill-rule="evenodd" clip-rule="evenodd" d="M22 512L22 -5.34978e-08L23 0L23 512L22 512Z" fill="#918A7D"/>
<path fill-rule="evenodd" clip-rule="evenodd" d="M43 512L43 -5.34978e-08L44 0L44 512L43 512Z" fill="#918A7D"/>
<path fill-rule="evenodd" clip-rule="evenodd" d="M64 512L64 -5.34978e-08L65 0L65 512L64 512Z" fill="#918A7D"/>
<path fill-rule="evenodd" clip-rule="evenodd" d="M85 512L85 -5.34978e-08L86 0L86 512L85 512Z" fill="#918A7D"/>
<path fill-rule="evenodd" clip-rule="evenodd" d="M106 512L106 -5.34978e-08L107 0L107 512L106 512Z" fill="#918A7D"/>
<path fill-rule="evenodd" clip-rule="evenodd" d="M128 512L128 -5.34978e-08L129 0L129 512L128 512Z" fill="#918A7D"/>
<path fill-rule="evenodd" clip-rule="evenodd" d="M149 512L149 -5.34978e-08L150 0L150 512L149 512Z" fill="#918A7D"/>
<path fill-rule="evenodd" clip-rule="evenodd" d="M171 512L171 -5.34978e-08L172 0L172 512L171 512Z" fill="#918A7D"/>
<path fill-rule="evenodd" clip-rule="evenodd" d="M192 512L192 -5.34978e-08L193 0L193 512L192 512Z" fill="#918A7D"/>
<path fill-rule="evenodd" clip-rule="evenodd" d="M213 512L213 -5.34978e-08L214 0L214 512L213 512Z" fill="#918A7D"/>
<path fill-rule="evenodd" clip-rule="evenodd" d="M234 512L234 -5.34978e-08L235 0L235 512L234 512Z" fill="#918A7D"/>
<path fill-rule="evenodd" clip-rule="evenodd" d="M256 512L256 -5.34978e-08L257 0L257 512L256 512Z" fill="#918A7D"/>
<path fill-rule="evenodd" clip-rule="evenodd" d="M320 512L320 -5.34978e-08L321 0L321 512L320 512Z" fill="#918A7D"/>
<path fill-rule="evenodd" clip-rule="evenodd" d="M362 512L362 -5.34978e-08L363 0L363 512L362 512Z" fill="#918A7D"/>
<path fill-rule="evenodd" clip-rule="evenodd" d="M384 512L384 -5.34978e-08L385 0L385 512L384 512Z" fill="#918A7D"/>
<path fill-rule="evenodd" clip-rule="evenodd" d="M405 512L405 -5.34978e-08L406 0L406 512L405 512Z" fill="#918A7D"/>
<path fill-rule="evenodd" clip-rule="evenodd" d="M427 512L427 -5.34978e-08L428 0L428 512L427 512Z" fill="#918A7D"/>
<path fill-rule="evenodd" clip-rule="evenodd" d="M448 512L448 -5.34978e-08L449 0L449 512L448 512Z" fill="#918A7D"/>
<path fill-rule="evenodd" clip-rule="evenodd" d="M469 512L469 -5.34978e-08L470 0L470 512L469 512Z" fill="#918A7D"/>
<path fill-rule="evenodd" clip-rule="evenodd" d="M490 512L490 -5.34978e-08L491 0L491 512L490 512Z" fill="#918A7D"/>
<path d="M265.5 532.5L64 331L421 138L644 361L265.5 532.5Z" fill="#1F4E71" fill-opacity="0.25"/>
<mask id="mask1" mask-type="alpha" maskUnits="userSpaceOnUse" x="72" y="122" width="342" height="220">
<path d="M332.536 321.5L414 144L319 167.5L236 342L332.536 321.5Z" fill="#A1CDE7"/>
<path d="M319 167.5L253 122L161 301L236 342L319 167.5Z" fill="#A1CDE7"/>
<path d="M161 301L72 325L161 152L253 122L161 301Z" fill="#A1CDE7"/>
</mask>
<g mask="url(#mask1)">
<path d="M332.536 321.5L414 144L319 167.5L236 342L332.536 321.5Z" fill="#A1CDE7"/>
<path d="M319 167.5L253 122L161 301L236 342L319 167.5Z" fill="#A1CDE7"/>
<path d="M161 301L72 325L161 152L253 122L161 301Z" fill="#A1CDE7"/>
<path d="M98.7578 296.393C98.7578 291.625 96.592 288.089 94.8099 283.832C94.8099 280.1 93.0154 275.833 93.0154 272.008C93.0154 269.54 91.8194 265.724 92.8559 263.355C97.2998 253.197 103.367 243.276 110.641 234.962C114.972 230.013 118.778 224.594 123.123 219.669C127.533 214.671 130.46 209.524 132.075 202.98C134.707 192.322 132.614 180.15 137.519 170.062C139.559 165.864 143.268 162.644 146.531 159.414C151.242 154.751 155.051 149.317 160.847 145.936C166.331 142.737 172.266 140.856 178.473 139.555C186.627 137.846 195.022 136.325 203.356 136.325C209.553 136.325 215.351 135.69 220.703 139.196C224.499 141.684 227.507 143.144 232.128 143.144C235.371 143.144 237.976 141.337 241.06 140.652C241.946 140.455 243 139.5 244 139.5C244.188 139.735 246.8 139.835 247.879 140.652C249 141.5 249.78 143.442 250.053 144.061C252.321 149.218 255.892 153.87 260.62 156.962C263.033 158.54 264.924 160.479 267.08 162.365C268.664 163.751 269.657 165.709 271.367 166.991C275.153 169.831 281.436 174.987 281.436 180.091C281.436 181.549 280.785 184.233 279.462 185.115C278.204 185.954 276.558 185.728 275.155 186.032C271.52 186.823 268.983 191.745 268.596 195.184C267.924 201.144 268.516 207.457 268.516 213.448V222.76C268.516 225.348 270.152 225.341 271.267 227.485C272.717 230.271 270.864 232.237 269.234 234.304C265.778 238.685 260.86 243.229 256.154 246.227C253.931 247.643 251.525 248.785 248.996 249.537C247.979 249.839 247.015 249.955 246.982 251.172C246.878 255.011 246.646 258.512 245.905 262.298C244.822 267.835 243.392 272.638 239.645 276.953C237.231 279.732 233.085 279.008 229.934 277.89C228.182 277.268 225.599 274.792 223.833 275.577C222.607 276.122 221.465 276.952 220.224 277.531C218.14 278.504 213.877 277.856 211.631 277.711C207.92 277.471 203.978 275.892 200.505 274.66C198.375 273.904 197.002 273.783 194.763 273.783C190.578 273.783 180.178 273.629 176 273.5C174 273.438 175.083 273.442 172.5 275.5C169.5 277.89 166.5 286 166 290.5C169.5 292 166.604 299.07 165.233 303.132C164.863 304.231 163.781 307.19 162.482 307.599C159.226 308.622 156.118 310.083 152.792 311.028C150.468 311.688 148.105 311.998 145.773 312.723C143.224 313.515 140.659 314.631 137.957 314.697C132.303 314.835 127.372 313.761 123.362 309.672C118.342 304.554 112.74 300.679 105.776 298.985C103.561 298.446 98.7578 299.542 98.7578 296.393Z" fill="#CFF4E7"/>
<path d="M225.934 304.984C225.934 308.631 225.323 312.888 225.323 316.535C224.399 318.382 221.102 318.341 219.582 319.354C218.341 320.181 216.073 319.894 214.639 320.068C212.382 320.34 210.135 320.792 208.202 322.038C201.895 326.102 201.734 333.522 205.518 339.227C207.903 342.823 211.745 345.543 215.285 347.89C223.602 353.405 233.155 357.297 242.512 360.629C251.535 363.842 260.695 366.502 270.233 367.61C279.476 368.683 288.834 368.58 298.123 368.459C306.886 368.346 316.039 368.433 324.62 366.336C328.099 365.486 331.572 364.2 334.404 361.954C346.273 352.535 354.524 339.826 363.279 327.711C369.697 318.83 375.351 309.96 379.262 299.685C382.809 290.369 385.819 281.112 387.908 271.353C390.003 261.568 390.251 251.525 391.05 241.578C391.95 230.381 393.259 219.315 394.872 208.201C395.654 202.817 396.423 197.397 397.301 192.031C397.678 189.723 398.082 187.31 398.745 185.067C399.245 183.374 400.205 181.952 400.205 180.158C400.205 178.115 400.053 176.284 399.526 174.298C398.919 172.009 398.388 169.235 396.808 167.368C395.237 165.511 392.15 166.111 390.014 166.111C387.839 166.111 385.097 165.656 383.067 166.587C380.389 167.814 377.457 169.256 375.203 171.139C371.095 174.57 367.616 178.538 363.211 181.636C359.76 184.063 357.455 186.863 354.888 190.095C353.219 192.196 349.892 192.558 347.482 193.254C342.289 194.754 336.836 194.725 331.72 196.617C328.676 197.743 325.591 199.529 322.854 201.271C320.507 202.764 318.133 204.936 315.516 205.857C311.725 207.191 308.668 209.904 305.766 212.617C302.166 215.983 298.627 219.512 295.66 223.454C292.429 227.746 290.801 232.597 288.305 237.28C284.813 243.833 277.449 257.192 273.396 263.404C272.896 263.731 273.221 262.827 269.587 263.404C266.584 263.881 263.36 264.487 261.4 266.937C258.696 270.317 255.365 273.265 251.922 275.871C249.723 277.537 248.025 279.824 245.739 281.375C242.892 283.307 240.005 285.051 236.941 286.64C232.343 289.024 227.588 292.812 226.24 297.952C225.657 300.177 225.934 302.699 225.934 304.984Z" fill="#CFF4E7"/>
<path fill-rule="evenodd" clip-rule="evenodd" d="M217.284 190.774C217.156 190.845 217.023 190.92 216.886 190.997C215.924 191.54 214.704 191.199 214.162 190.237C213.619 189.275 213.959 188.055 214.922 187.513C215.625 187.116 216.285 186.756 216.798 186.503C217.045 186.381 217.31 186.258 217.549 186.169C217.659 186.129 217.845 186.064 218.061 186.025C218.166 186.006 218.364 185.977 218.608 185.994C218.815 186.009 219.348 186.075 219.834 186.51C220.298 186.925 220.527 187.462 220.633 187.735C220.768 188.079 220.876 188.465 220.969 188.851C221.155 189.627 221.325 190.614 221.491 191.702C221.657 192.794 220.907 193.814 219.815 193.98C218.723 194.147 217.703 193.396 217.536 192.304C217.449 191.728 217.365 191.217 217.284 190.774ZM216.881 189.131C216.881 189.13 216.886 189.14 216.896 189.162C216.885 189.143 216.881 189.132 216.881 189.131ZM218.939 189.92C218.949 189.916 218.948 189.917 218.937 189.921L218.939 189.92ZM213.721 190.509C214.285 191.458 213.972 192.686 213.023 193.25C212.763 193.404 212.513 193.553 212.278 193.693C211.912 193.91 211.582 194.106 211.311 194.267C211.088 194.398 210.896 194.511 210.75 194.595C210.678 194.637 210.608 194.676 210.548 194.71L210.543 194.712C210.512 194.729 210.386 194.799 210.253 194.853C210.12 194.907 209.797 195.105 209.274 195.601C208.781 196.069 208.223 196.692 207.612 197.436C206.912 198.29 205.652 198.415 204.798 197.714C203.944 197.014 203.819 195.753 204.52 194.899C205.18 194.095 205.856 193.33 206.521 192.699C207.132 192.119 207.857 191.532 208.651 191.187C208.676 191.173 208.71 191.154 208.755 191.128C208.88 191.057 209.055 190.954 209.275 190.824C209.541 190.667 209.859 190.477 210.218 190.264L210.221 190.262L210.225 190.259C210.461 190.119 210.714 189.969 210.98 189.81C211.93 189.246 213.157 189.559 213.721 190.509ZM208.601 191.215L208.604 191.213L208.617 191.206C208.606 191.212 208.601 191.215 208.601 191.215ZM220.134 196.452C221.227 196.293 222.242 197.049 222.402 198.142C222.792 200.811 223.254 203.62 223.855 206.185C224.107 207.261 223.439 208.337 222.364 208.589C221.288 208.841 220.212 208.173 219.96 207.098C219.32 204.365 218.839 201.422 218.444 198.72C218.284 197.627 219.041 196.612 220.134 196.452ZM202.85 200.416C203.729 201.085 203.9 202.34 203.232 203.219C202.619 204.025 202.009 204.798 201.433 205.453C200.876 206.086 200.262 206.713 199.637 207.145C197.364 208.716 195.077 209.2 192.879 209.195C191.775 209.193 190.881 208.296 190.884 207.191C190.886 206.086 191.784 205.193 192.888 205.195C194.433 205.199 195.884 204.877 197.363 203.855C197.573 203.71 197.926 203.384 198.429 202.812C198.911 202.263 199.454 201.579 200.047 200.798C200.716 199.919 201.971 199.748 202.85 200.416ZM183.649 208.036C182.064 208.001 180.567 208.275 179.042 209.207C177.745 209.999 176.8 211.093 175.99 212.497C175.438 213.454 174.215 213.782 173.258 213.23C172.301 212.678 171.973 211.454 172.525 210.498C173.571 208.687 174.941 207.025 176.958 205.793C179.274 204.379 181.566 203.989 183.737 204.037C184.841 204.061 185.717 204.976 185.693 206.08C185.668 207.184 184.753 208.06 183.649 208.036ZM223.056 210.997C224.049 210.514 225.246 210.929 225.728 211.923C226.342 213.188 226.93 213.888 227.407 214.209C228.384 214.587 229.466 214.699 230.637 214.612C231.738 214.529 232.698 215.356 232.78 216.457C232.862 217.559 232.036 218.518 230.934 218.6C229.261 218.725 227.469 218.571 225.731 217.846L225.608 217.795L225.492 217.728C223.979 216.845 222.914 215.287 222.129 213.669C221.647 212.675 222.062 211.479 223.056 210.997ZM238.362 216.654L238.039 216.775C237.003 217.16 235.852 216.633 235.467 215.598C235.081 214.563 235.608 213.411 236.643 213.026C236.751 212.986 236.86 212.946 236.969 212.905L236.979 212.901L236.982 212.9C237.844 212.577 238.73 212.247 239.468 212.051C239.889 211.94 240.39 211.836 240.896 211.834C241.261 211.833 241.78 211.885 242.292 212.148C245.115 207.683 248.39 206.173 252.5 208C257 210 259.5 218.5 256.5 223C256.033 223.701 255.517 224.341 254.964 224.915L270.1 270.943L327.12 235.006C327.13 234.946 327.142 234.885 327.155 234.824C328.275 229.347 332.534 223.547 337.253 222.283C341.972 221.018 345.582 224.151 344.626 228.55C343.67 232.949 337.066 240.171 334.169 240.947C332.297 241.449 329.449 241.033 327.969 239.199L270.066 275.692C269.546 276.02 268.902 276.09 268.323 275.882C267.744 275.673 267.293 275.21 267.1 274.625L251.567 227.392C249.245 228.488 246.719 228.609 244.5 227.5C241.074 225.787 239.115 220.773 240.508 215.914L240.491 215.918C239.959 216.059 239.278 216.313 238.363 216.654L238.362 216.654L238.362 216.654ZM171.661 217.569C172.682 217.991 173.168 219.16 172.746 220.181C172.042 221.885 171.202 223.676 170.063 225.43L169.867 225.733L169.578 225.947C168.831 226.502 168.106 227.095 167.381 227.717C166.543 228.436 165.28 228.34 164.561 227.501C163.842 226.663 163.938 225.401 164.776 224.681C165.455 224.099 166.158 223.519 166.894 222.961C167.758 221.579 168.437 220.134 169.049 218.653C169.471 217.633 170.64 217.147 171.661 217.569ZM164.132 227.934C164.864 228.762 164.786 230.026 163.958 230.758C163.206 231.422 162.429 232.091 161.616 232.737C161.366 232.936 161.083 233.065 160.79 233.127C156.126 241.293 151.414 248.106 142.969 249.303C134.337 250.526 134.834 242.487 139.602 234.08C144.369 225.672 152.102 219.58 158.602 218.58C163.691 217.797 165.266 221.668 163.422 227.42C163.686 227.533 163.929 227.705 164.132 227.934ZM142.549 246.332C149.486 245.35 153.568 239.758 158.376 231.304C158.334 230.672 158.593 230.03 159.127 229.605C159.215 229.536 159.303 229.465 159.39 229.394C160.918 226.244 161.326 223.859 161.114 222.522C161.006 221.84 160.788 221.691 160.739 221.658C160.649 221.598 160.216 221.367 159.058 221.545C153.771 222.358 146.704 227.636 142.211 235.56C139.911 239.616 139.001 243.016 139.238 244.935C139.34 245.759 139.604 246.001 139.77 246.11C140.024 246.275 140.78 246.583 142.549 246.332ZM253.172 220.781C250.85 224.264 247.854 224.705 246.289 223.922C245.585 223.57 244.679 222.58 244.261 220.865C243.86 219.219 244.013 217.246 245.012 215.415C246.349 212.964 247.491 211.896 248.275 211.49C248.821 211.208 249.526 211.055 250.875 211.655C251.59 211.973 252.807 213.278 253.457 215.629C254.094 217.932 253.793 219.85 253.172 220.781ZM340.718 227.7C340.464 228.867 339.149 231.135 337.107 233.482C336.159 234.573 335.19 235.522 334.353 236.209C333.674 236.767 333.273 236.992 333.148 237.063C333.103 237.088 333.093 237.094 333.117 237.088C332.937 237.133 332.598 237.17 332.187 237.119C331.77 237.067 331.447 236.945 331.253 236.825C331.089 236.724 331.061 236.658 331.053 236.638L331.052 236.637L331.052 236.636C331.043 236.615 330.927 236.343 331.074 235.626C331.5 233.54 332.562 231.282 334.004 229.439C335.48 227.554 337.051 226.478 338.288 226.146C339.604 225.794 340.264 226.158 340.467 226.332C340.616 226.46 340.914 226.798 340.718 227.7ZM149.098 237.359C150.514 235.739 151.815 233.611 153.267 231.051C153.917 229.905 154.367 228.891 154.641 228.057L154.655 228.014C153.81 228.473 152.833 229.17 151.794 230.132C150.156 231.65 148.538 233.666 147.232 235.969C146.574 237.13 146.07 238.218 145.742 239.155C145.622 239.498 145.533 239.801 145.468 240.062C146.73 239.607 147.901 238.729 149.098 237.359ZM144.342 240.328C144.342 240.328 144.344 240.328 144.348 240.328C144.351 240.328 144.356 240.329 144.361 240.329C144.348 240.329 144.342 240.329 144.342 240.328ZM156.241 227.394C156.24 227.395 156.234 227.395 156.222 227.396C156.235 227.394 156.241 227.394 156.241 227.394ZM145.604 243.154C150.153 242.008 152.973 237.652 155.876 232.531C158.78 227.411 158.714 223.623 155.284 224.532C151.854 225.441 147.526 229.368 144.622 234.489C141.719 239.61 141.054 244.3 145.604 243.154Z" fill="#C4C4C4"/>
</g>
<path fill-rule="evenodd" clip-rule="evenodd" d="M255.5 117L321 163L421 138L335.297 324.995L235.5 345L158.5 305L64 331L158.196 148.707L255.5 117ZM163.804 155.293L79.6974 318.781L162.5 297L239 338L329.703 318.005L406.9 149.877L317.5 171L251 126L163.804 155.293Z" fill="white"/>
</g>
<path d="M171.29 396.22V397.09C170.596 397.064 169.906 397.219 169.29 397.54C168.662 397.957 168.152 398.529 167.81 399.2C167.217 400.463 166.722 401.771 166.33 403.11L157.47 428.73H156.53L149.29 408.41L142.09 428.73H141.25L131.8 402.34C131.1 400.34 130.653 399.177 130.46 398.85C130.178 398.29 129.731 397.829 129.18 397.53C128.496 397.211 127.744 397.064 126.99 397.1V396.23H138.76V397.1H138.2C137.52 397.053 136.846 397.251 136.3 397.66C135.883 397.988 135.64 398.489 135.64 399.02C135.82 400.312 136.156 401.578 136.64 402.79L142.9 420.63L148.17 405.47L147.23 402.8L146.48 400.67C146.184 399.948 145.815 399.258 145.38 398.61C145.179 398.315 144.925 398.061 144.63 397.86C144.274 397.596 143.88 397.391 143.46 397.25C142.999 397.138 142.524 397.091 142.05 397.11V396.24H154.43V397.11H153.59C152.903 397.051 152.218 397.251 151.67 397.67C151.259 398.066 151.037 398.619 151.06 399.19C151.208 400.623 151.562 402.028 152.11 403.36L158.2 420.63L164.2 403.12C164.719 401.84 165.056 400.494 165.2 399.12C165.197 398.759 165.078 398.408 164.86 398.12C164.648 397.817 164.348 397.586 164 397.46C163.251 397.217 162.467 397.105 161.68 397.13V396.26L171.29 396.22Z" fill="#F3F3F3"/>
<path d="M178.64 405.9V423.15C178.582 424.053 178.68 424.96 178.93 425.83C179.102 426.25 179.408 426.602 179.8 426.83C180.465 427.101 181.184 427.214 181.9 427.16V428H171.47V427.16C172.187 427.218 172.908 427.115 173.58 426.86C173.967 426.628 174.269 426.277 174.44 425.86C174.709 424.987 174.817 424.072 174.76 423.16V414.89C174.807 413.38 174.737 411.869 174.55 410.37C174.486 409.99 174.304 409.641 174.03 409.37C173.744 409.154 173.388 409.05 173.03 409.08C172.484 409.103 171.946 409.222 171.44 409.43L171.11 408.59L177.58 405.97L178.64 405.9ZM176.69 394.67C177.319 394.667 177.924 394.916 178.369 395.361C178.814 395.806 179.063 396.411 179.06 397.04C179.071 397.674 178.821 398.285 178.37 398.73C177.933 399.188 177.323 399.442 176.69 399.43C175.376 399.43 174.31 398.364 174.31 397.05C174.31 395.736 175.376 394.67 176.69 394.67Z" fill="#F3F3F3"/>
<path d="M190.93 394.67V416L196.39 411C197.107 410.386 197.776 409.717 198.39 409C198.508 408.837 198.575 408.642 198.58 408.44C198.585 408.124 198.441 407.823 198.19 407.63C197.817 407.364 197.368 407.227 196.91 407.24V406.49H206.24V407.24C205.146 407.237 204.061 407.437 203.04 407.83C202.007 408.311 201.061 408.96 200.24 409.75L194.73 414.84L200.24 421.84C201.773 423.76 202.803 424.98 203.33 425.5C203.897 426.102 204.577 426.588 205.33 426.93C205.979 427.116 206.655 427.194 207.33 427.16V428H196.93V427.16C197.351 427.189 197.771 427.095 198.14 426.89C198.352 426.725 198.471 426.468 198.46 426.2C198.313 425.547 197.988 424.948 197.52 424.47L190.93 416V423.13C190.869 424.053 190.968 424.98 191.22 425.87C191.379 426.27 191.673 426.602 192.05 426.81C192.804 427.057 193.598 427.159 194.39 427.11V428H183.47V427.16C184.309 427.205 185.148 427.068 185.93 426.76C186.262 426.584 186.526 426.303 186.68 425.96C186.966 425.1 187.084 424.194 187.03 423.29V403.74C187.076 402.218 187.022 400.695 186.87 399.18C186.82 398.748 186.63 398.344 186.33 398.03C186.047 397.804 185.691 397.69 185.33 397.71C184.817 397.756 184.316 397.892 183.85 398.11L183.45 397.29L189.83 394.67H190.93Z" fill="#F3F3F3"/>
<path d="M216 405.9V423.15C215.942 424.053 216.04 424.96 216.29 425.83C216.462 426.25 216.768 426.602 217.16 426.83C217.825 427.101 218.544 427.214 219.26 427.16V428H208.81V427.16C209.527 427.218 210.248 427.115 210.92 426.86C211.307 426.628 211.609 426.277 211.78 425.86C212.048 424.987 212.157 424.072 212.1 423.16V414.89C212.147 413.38 212.077 411.869 211.89 410.37C211.825 409.99 211.644 409.641 211.37 409.37C211.084 409.154 210.728 409.05 210.37 409.08C209.824 409.103 209.285 409.222 208.78 409.43L208.45 408.59L214.92 405.97L216 405.9ZM214 394.67C214.628 394.659 215.234 394.899 215.684 395.336C216.134 395.774 216.392 396.372 216.4 397C216.411 397.634 216.161 398.245 215.71 398.69C215.273 399.148 214.663 399.402 214.03 399.39C212.716 399.39 211.65 398.324 211.65 397.01C211.65 395.696 212.716 394.63 214.03 394.63L214 394.67Z" fill="#F3F3F3"/>
<path d="M220.36 408.66L227 406H227.89V411C228.701 409.441 229.841 408.077 231.23 407C232.262 406.268 233.494 405.87 234.76 405.86C236.85 405.829 238.839 406.762 240.15 408.39C241.985 410.664 242.928 413.53 242.8 416.45C242.923 419.805 241.785 423.083 239.61 425.64C237.971 427.585 235.543 428.687 233 428.64C231.978 428.663 230.961 428.497 230 428.15C229.217 427.813 228.502 427.335 227.89 426.74V433.28C227.828 434.222 227.919 435.167 228.16 436.08C228.355 436.495 228.687 436.831 229.1 437.03C229.875 437.32 230.704 437.439 231.53 437.38V438.25H220.25V437.38H220.84C221.604 437.417 222.364 437.248 223.04 436.89C223.355 436.696 223.597 436.405 223.73 436.06C223.956 435.104 224.041 434.12 223.98 433.14V412.84C224.024 411.952 223.96 411.062 223.79 410.19C223.689 409.851 223.478 409.556 223.19 409.35C222.857 409.147 222.47 409.05 222.08 409.07C221.588 409.096 221.104 409.208 220.65 409.4L220.36 408.66ZM227.86 412.39V420.39C227.816 421.534 227.886 422.68 228.07 423.81C228.322 424.765 228.889 425.608 229.68 426.2C230.605 426.896 231.743 427.25 232.9 427.2C234.387 427.238 235.802 426.556 236.7 425.37C238.079 423.407 238.749 421.034 238.6 418.64C238.6 415.36 237.88 412.837 236.44 411.07C235.606 409.936 234.288 409.258 232.88 409.24C232.103 409.245 231.338 409.437 230.65 409.8C229.599 410.523 228.659 411.395 227.86 412.39Z" fill="#F3F3F3"/>
<path d="M249.52 414.62C249.345 417.32 250.171 419.99 251.84 422.12C253.167 423.818 255.195 424.819 257.35 424.84C258.668 424.867 259.957 424.459 261.02 423.68C262.252 422.621 263.157 421.234 263.63 419.68L264.36 420.15C264.008 422.341 263.013 424.377 261.5 426C260.014 427.718 257.841 428.685 255.57 428.64C253.03 428.659 250.61 427.562 248.95 425.64C247.03 423.392 246.045 420.493 246.2 417.54C246.2 413.867 247.14 411.003 249.02 408.95C250.817 406.933 253.409 405.807 256.11 405.87C258.333 405.797 260.485 406.66 262.04 408.25C263.638 409.971 264.475 412.264 264.36 414.61L249.52 414.62ZM249.52 413.26H259.46C259.455 412.27 259.289 411.287 258.97 410.35C258.604 409.505 257.994 408.788 257.22 408.29C256.502 407.806 255.656 407.545 254.79 407.54C253.473 407.548 252.216 408.093 251.31 409.05C250.228 410.193 249.592 411.687 249.52 413.26Z" fill="#F3F3F3"/>
<path d="M282.38 425.59C281.507 426.555 280.467 427.354 279.31 427.95C278.3 428.427 277.196 428.669 276.08 428.66C273.698 428.643 271.447 427.565 269.94 425.72C268.143 423.622 267.206 420.921 267.32 418.16C267.315 415.097 268.34 412.121 270.23 409.71C271.938 407.276 274.737 405.843 277.71 405.88C279.453 405.82 281.145 406.47 282.4 407.68V403.68C282.445 402.171 282.385 400.661 282.22 399.16C282.167 398.727 281.974 398.323 281.67 398.01C281.402 397.802 281.069 397.696 280.73 397.71C280.172 397.744 279.625 397.873 279.11 398.09L278.81 397.27L285.21 394.65H286.26V419.47C286.213 421.009 286.273 422.549 286.44 424.08C286.494 424.518 286.691 424.926 287 425.24C287.25 425.456 287.57 425.574 287.9 425.57C288.482 425.534 289.054 425.399 289.59 425.17L289.85 425.99L283.48 428.64H282.4L282.38 425.59ZM282.38 423.95V412.88C282.301 411.863 282.016 410.873 281.54 409.97C281.123 409.14 280.478 408.446 279.68 407.97C278.999 407.551 278.219 407.32 277.42 407.3C275.978 407.332 274.626 408.012 273.74 409.15C272.32 410.777 271.61 413.153 271.61 416.28C271.61 419.407 272.297 421.823 273.67 423.53C274.724 425.039 276.421 425.971 278.26 426.05C279.868 425.962 281.364 425.2 282.38 423.95Z" fill="#F3F3F3"/>
<path d="M298.62 405.9V423.15C298.562 424.053 298.66 424.96 298.91 425.83C299.082 426.25 299.388 426.602 299.78 426.83C300.445 427.101 301.164 427.214 301.88 427.16V428H291.45V427.16C292.167 427.218 292.888 427.115 293.56 426.86C293.947 426.628 294.249 426.277 294.42 425.86C294.689 424.987 294.797 424.072 294.74 423.16V414.89C294.787 413.38 294.717 411.869 294.53 410.37C294.466 409.99 294.284 409.641 294.01 409.37C293.724 409.154 293.368 409.05 293.01 409.08C292.464 409.103 291.926 409.222 291.42 409.43L291.09 408.59L297.56 405.97L298.62 405.9ZM296.67 394.67C297.95 394.686 298.984 395.72 299 397C299.011 397.634 298.761 398.245 298.31 398.69C297.873 399.148 297.263 399.402 296.63 399.39C295.316 399.39 294.25 398.324 294.25 397.01C294.25 395.696 295.316 394.63 296.63 394.63L296.67 394.67Z" fill="#F3F3F3"/>
<path d="M316.71 424.91C315.401 426.009 314.014 427.012 312.56 427.91C311.714 428.303 310.792 428.504 309.86 428.5C308.475 428.543 307.139 427.99 306.19 426.98C305.202 425.888 304.684 424.451 304.75 422.98C304.724 422.026 304.967 421.083 305.45 420.26C306.302 419.002 307.449 417.973 308.79 417.26C311.327 415.903 313.973 414.759 316.7 413.84V413C316.7 410.86 316.367 409.39 315.7 408.59C314.938 407.749 313.831 407.306 312.7 407.39C311.846 407.346 311.008 407.633 310.36 408.19C309.807 408.638 309.481 409.308 309.47 410.02V411.38C309.52 411.96 309.353 412.537 309 413C308.627 413.394 308.102 413.609 307.56 413.59C307.019 413.608 306.499 413.384 306.14 412.98C305.753 412.516 305.557 411.923 305.59 411.32C305.666 409.834 306.427 408.467 307.65 407.62C309.325 406.401 311.372 405.803 313.44 405.93C315.061 405.878 316.671 406.221 318.13 406.93C319.043 407.428 319.751 408.232 320.13 409.2C320.494 410.545 320.635 411.94 320.55 413.33V420.62C320.519 421.875 320.559 423.13 320.67 424.38C320.695 424.724 320.832 425.051 321.06 425.31C321.231 425.461 321.452 425.543 321.68 425.54C321.91 425.547 322.138 425.492 322.34 425.38C323.022 424.866 323.658 424.294 324.24 423.67V424.98C322.493 427.327 320.827 428.5 319.24 428.5C318.539 428.529 317.864 428.234 317.41 427.7C316.863 426.878 316.616 425.893 316.71 424.91ZM316.71 423.39V415.2C315.152 415.784 313.626 416.452 312.14 417.2C311.109 417.718 310.205 418.455 309.49 419.36C308.969 420.074 308.689 420.936 308.69 421.82C308.651 422.847 309.009 423.85 309.69 424.62C310.262 425.314 311.111 425.72 312.01 425.73C313.21 425.73 314.777 424.947 316.71 423.38V423.39Z" fill="#F3F3F3"/>
<path d="M326.3 415.46H338.42V419H326.3V415.46Z" fill="#F3F3F3"/>
<path d="M360.5 421.41L360.24 428H341.3V427.16L355.55 408.16H348.55C347.541 408.096 346.528 408.193 345.55 408.45C345.049 408.674 344.642 409.067 344.4 409.56C343.945 410.464 343.696 411.458 343.67 412.47H342.73L342.87 406.47H360.87V407.34L346.48 426.34H354.31C355.439 426.415 356.572 426.275 357.65 425.93C358.272 425.623 358.772 425.116 359.07 424.49C359.432 423.473 359.644 422.408 359.7 421.33L360.5 421.41Z" fill="#F3F3F3"/>
<path d="M369.45 394.67V410.37C370.63 408.942 372.023 407.704 373.58 406.7C374.499 406.19 375.529 405.912 376.58 405.89C377.71 405.859 378.816 406.211 379.72 406.89C380.688 407.711 381.371 408.817 381.67 410.05C382.044 411.851 382.196 413.692 382.12 415.53V423.12C382.063 424.062 382.175 425.007 382.45 425.91C382.609 426.288 382.891 426.601 383.25 426.8C383.901 427.07 384.607 427.183 385.31 427.13V428H374.79V427.16H375.28C376.008 427.228 376.738 427.067 377.37 426.7C377.787 426.354 378.075 425.879 378.19 425.35C378.257 424.619 378.28 423.884 378.26 423.15V415.56C378.337 414.011 378.216 412.458 377.9 410.94C377.707 410.276 377.299 409.696 376.74 409.29C376.172 408.913 375.501 408.721 374.82 408.74C373.987 408.757 373.169 408.966 372.43 409.35C371.297 409.993 370.282 410.825 369.43 411.81V423.15C369.37 424.071 369.454 424.995 369.68 425.89C369.877 426.282 370.196 426.598 370.59 426.79C371.323 427.083 372.113 427.206 372.9 427.15V428H362.28V427.16C363.056 427.196 363.828 427.042 364.53 426.71C364.879 426.513 365.145 426.197 365.28 425.82C365.521 424.952 365.616 424.049 365.56 423.15V403.72C365.605 402.211 365.545 400.701 365.38 399.2C365.33 398.768 365.14 398.364 364.84 398.05C364.555 397.83 364.199 397.723 363.84 397.75C363.295 397.8 362.759 397.928 362.25 398.13L361.92 397.31L368.34 394.69L369.45 394.67Z" fill="#F3F3F3"/>
<path d="M391.66 372H120.33V374H391.66V372Z" fill="#F3F3F3"/>
<g style="mix-blend-mode:multiply">
<path d="M158.5 305L255.5 117L321 163L235.5 345L158.5 305Z" fill="#54B5ED" fill-opacity="0.3"/>
</g>
<path fill-rule="evenodd" clip-rule="evenodd" d="M280 120.958C280 94.9971 300.997 74 326.958 74C352.92 74 373.917 94.9971 373.917 120.958C373.917 147.501 347.246 183.568 334.104 199.728C330.367 204.325 323.55 204.325 319.812 199.728C306.671 183.568 280 147.501 280 120.958ZM310.188 120.958C310.188 130.216 317.701 137.729 326.958 137.729C336.216 137.729 343.729 130.216 343.729 120.958C343.729 111.701 336.216 104.188 326.958 104.188C317.701 104.188 310.188 111.701 310.188 120.958Z" fill="#F37474"/>
<path fill-rule="evenodd" clip-rule="evenodd" d="M275 120.958C275 92.2357 298.236 69 326.958 69C355.681 69 378.917 92.2357 378.917 120.958C378.917 135.624 371.656 152.25 363.266 166.742C354.77 181.417 344.636 194.702 337.984 202.883C332.245 209.94 321.671 209.94 315.933 202.883C309.281 194.702 299.147 181.417 290.651 166.742C282.261 152.25 275 135.624 275 120.958ZM315.188 120.958C315.188 127.454 320.462 132.729 326.958 132.729C333.454 132.729 338.729 127.454 338.729 120.958C338.729 114.462 333.454 109.188 326.958 109.188C320.462 109.188 315.188 114.462 315.188 120.958ZM326.958 74C300.997 74 280 94.9971 280 120.958C280 147.501 306.671 183.568 319.812 199.728C323.55 204.325 330.367 204.325 334.104 199.728C347.246 183.568 373.917 147.501 373.917 120.958C373.917 94.9971 352.92 74 326.958 74ZM326.958 137.729C317.701 137.729 310.188 130.216 310.188 120.958C310.188 111.701 317.701 104.188 326.958 104.188C336.216 104.188 343.729 111.701 343.729 120.958C343.729 130.216 336.216 137.729 326.958 137.729Z" fill="#898274"/>
<path d="M344 121C344 130.389 336.389 138 327 138C317.611 138 310 130.389 310 121C310 111.611 317.611 104 327 104C336.389 104 344 111.611 344 121Z" fill="#F4D2D2"/>
</svg>
