<svg id="Layer_1" data-name="Layer 1" xmlns="http://www.w3.org/2000/svg" viewBox="0 0 512 512"><title>Untitled-1</title><circle cx="256" cy="256" r="256" style="fill:#ccc"/><circle cx="256" cy="256" r="245.1" style="fill:#e6ba94"/><path d="M198.55,393.73v.92a4.26,4.26,0,0,0-2.14.47,4.66,4.66,0,0,0-1.57,1.77,28.78,28.78,0,0,0-1.57,4.16l-9.41,27.22h-1l-7.69-21.59-7.65,21.59h-.9l-10-28q-1.12-3.14-1.42-3.71a3.28,3.28,0,0,0-1.36-1.41,5,5,0,0,0-2.33-.46v-.92H164v.92h-.6a3,3,0,0,0-2,.6,1.84,1.84,0,0,0-.7,1.44,17.16,17.16,0,0,0,1.1,4l6.65,19,5.6-16.11-1-2.84-.8-2.27a12.32,12.32,0,0,0-1.17-2.19,3,3,0,0,0-.8-.8,4.51,4.51,0,0,0-1.25-.65,5.41,5.41,0,0,0-1.49-.15v-.92h13.15v.92h-.9a2.94,2.94,0,0,0-2,.6,2.09,2.09,0,0,0-.65,1.62,16,16,0,0,0,1.12,4.43l6.47,18.35,6.42-18.6a15.64,15.64,0,0,0,1.1-4.28,1.79,1.79,0,0,0-.36-1.07,1.93,1.93,0,0,0-.91-.7,7.29,7.29,0,0,0-2.47-.35v-.92Z" style="fill:#f2f2f2"/><path d="M206.37,404v18.33a8.37,8.37,0,0,0,.31,2.85,2.18,2.18,0,0,0,.92,1.06,4.93,4.93,0,0,0,2.23.35v.9H198.75v-.9a5.14,5.14,0,0,0,2.24-.32,2.22,2.22,0,0,0,.91-1.07,8.06,8.06,0,0,0,.34-2.86v-8.79a31.1,31.1,0,0,0-.22-4.81,2,2,0,0,0-.55-1.11,1.54,1.54,0,0,0-1-.31,5,5,0,0,0-1.69.37l-.35-.9,6.87-2.79Zm-2.07-11.93a2.51,2.51,0,0,1,2.52,2.51,2.47,2.47,0,0,1-.73,1.79,2.41,2.41,0,0,1-1.78.75,2.53,2.53,0,1,1,0-5.06Z" style="fill:#f2f2f2"/><path d="M219.42,392.09V414.8l5.8-5.3a19.41,19.41,0,0,0,2.14-2.14,1.07,1.07,0,0,0,.2-.6,1.11,1.11,0,0,0-.41-.86,2.23,2.23,0,0,0-1.36-.41v-.8h9.91v.8a9.37,9.37,0,0,0-3.4.62,11,11,0,0,0-3,2l-5.85,5.4,5.85,7.4q2.44,3.06,3.29,3.88a6.75,6.75,0,0,0,2.09,1.52,6.51,6.51,0,0,0,2.17.25v.9H225.79v-.9a2.33,2.33,0,0,0,1.28-.29.88.88,0,0,0,.34-.74,3.84,3.84,0,0,0-1-1.84l-7-8.94v7.57a8.6,8.6,0,0,0,.31,2.91,2,2,0,0,0,.88,1,6.67,6.67,0,0,0,2.49.32v.9H211.5v-.9a6.21,6.21,0,0,0,2.61-.42,1.79,1.79,0,0,0,.8-.85,7.56,7.56,0,0,0,.37-2.84V401.73a37.24,37.24,0,0,0-.17-4.84,2.1,2.1,0,0,0-.57-1.22,1.57,1.57,0,0,0-1-.34,4.71,4.71,0,0,0-1.57.42l-.42-.87,6.77-2.79Z" style="fill:#f2f2f2"/><path d="M246,404v18.33a8.37,8.37,0,0,0,.31,2.85,2.18,2.18,0,0,0,.92,1.06,4.93,4.93,0,0,0,2.23.35v.9H238.42v-.9a5.14,5.14,0,0,0,2.24-.32,2.22,2.22,0,0,0,.91-1.07,8.06,8.06,0,0,0,.34-2.86v-8.79a31.1,31.1,0,0,0-.22-4.81,2,2,0,0,0-.55-1.11,1.54,1.54,0,0,0-1-.31,5,5,0,0,0-1.69.37l-.35-.9,6.87-2.79ZM244,392.09a2.51,2.51,0,0,1,2.52,2.51,2.47,2.47,0,0,1-.73,1.79,2.41,2.41,0,0,1-1.78.75,2.53,2.53,0,1,1,0-5.06Z" style="fill:#f2f2f2"/><path d="M250.7,407l7-2.84h.95v5.33a13,13,0,0,1,3.55-4.22A6.58,6.58,0,0,1,266,404a7.22,7.22,0,0,1,5.73,2.69,12.71,12.71,0,0,1,2.81,8.57,14.26,14.26,0,0,1-3.39,9.76,9,9,0,0,1-7,3.16,8.76,8.76,0,0,1-3.19-.52,7.43,7.43,0,0,1-2.24-1.49v6.95a9.23,9.23,0,0,0,.29,3,2.13,2.13,0,0,0,1,1,6.12,6.12,0,0,0,2.58.37v.92h-12v-.92h.62a4.53,4.53,0,0,0,2.34-.52,1.79,1.79,0,0,0,.73-.88,10.59,10.59,0,0,0,.26-3.1V411.41a11.73,11.73,0,0,0-.2-2.81,1.7,1.7,0,0,0-.63-.9,2.06,2.06,0,0,0-1.18-.3,4.52,4.52,0,0,0-1.52.35Zm8,4v8.52a18.25,18.25,0,0,0,.22,3.64,4.66,4.66,0,0,0,1.71,2.54,5.28,5.28,0,0,0,3.42,1.1,4.91,4.91,0,0,0,4-1.94q2-2.54,2-7.15,0-5.23-2.29-8a4.77,4.77,0,0,0-3.79-1.94,5.16,5.16,0,0,0-2.37.6A13.91,13.91,0,0,0,258.66,410.92Z" style="fill:#f2f2f2"/><path d="M281.67,413.28q0,5.08,2.47,8a7.52,7.52,0,0,0,5.85,2.89,6.34,6.34,0,0,0,3.9-1.23,9.11,9.11,0,0,0,2.78-4.22l.77.5a11.87,11.87,0,0,1-3,6.21,8.11,8.11,0,0,1-6.3,2.8,9.2,9.2,0,0,1-7-3.2,12.25,12.25,0,0,1-2.93-8.6q0-5.85,3-9.13a9.79,9.79,0,0,1,7.53-3.27,8.43,8.43,0,0,1,6.3,2.53,9.27,9.27,0,0,1,2.46,6.76Zm0-1.45h10.56a9.8,9.8,0,0,0-.52-3.09,5,5,0,0,0-1.85-2.19,4.69,4.69,0,0,0-2.58-.8,5.13,5.13,0,0,0-3.7,1.61A7,7,0,0,0,281.67,411.84Z" style="fill:#f2f2f2"/><path d="M316.59,424.94a11.54,11.54,0,0,1-3.26,2.5,7.88,7.88,0,0,1-3.44.76,8.5,8.5,0,0,1-6.52-3.12,11.61,11.61,0,0,1-2.79-8,14.52,14.52,0,0,1,3.09-9,9.54,9.54,0,0,1,7.94-4.07,6.85,6.85,0,0,1,5,1.92V401.7a34.3,34.3,0,0,0-.19-4.81,2.1,2.1,0,0,0-.58-1.22,1.53,1.53,0,0,0-1-.32,5.24,5.24,0,0,0-1.72.4l-.32-.87,6.8-2.79h1.12v26.37a35.37,35.37,0,0,0,.19,4.89,2.17,2.17,0,0,0,.6,1.23,1.43,1.43,0,0,0,1,.35,5.42,5.42,0,0,0,1.79-.42l.27.87-6.77,2.81h-1.14Zm0-1.74V411.44a8,8,0,0,0-.9-3.09,5.17,5.17,0,0,0-2-2.1,4.8,4.8,0,0,0-2.4-.71,5.1,5.1,0,0,0-3.91,2q-2.27,2.59-2.27,7.57t2.19,7.71a6.28,6.28,0,0,0,4.88,2.68A6.06,6.06,0,0,0,316.59,423.19Z" style="fill:#f2f2f2"/><path d="M333.84,404v18.33a8.37,8.37,0,0,0,.31,2.85,2.18,2.18,0,0,0,.92,1.06,4.93,4.93,0,0,0,2.23.35v.9H326.22v-.9a5.14,5.14,0,0,0,2.24-.32,2.22,2.22,0,0,0,.91-1.07,8.06,8.06,0,0,0,.34-2.86v-8.79a31,31,0,0,0-.22-4.81,2,2,0,0,0-.55-1.11,1.55,1.55,0,0,0-1-.31,5,5,0,0,0-1.69.37l-.35-.9,6.87-2.79Zm-2.07-11.93a2.51,2.51,0,0,1,2.52,2.51,2.47,2.47,0,0,1-.73,1.79,2.41,2.41,0,0,1-1.78.75,2.53,2.53,0,1,1,0-5.06Z" style="fill:#f2f2f2"/><path d="M353.07,424.21a37.61,37.61,0,0,1-4.41,3.14,6.74,6.74,0,0,1-2.86.62,5.13,5.13,0,0,1-3.9-1.62,5.94,5.94,0,0,1-1.53-4.26,5.43,5.43,0,0,1,.75-2.89,9.9,9.9,0,0,1,3.55-3.19,55.23,55.23,0,0,1,8.41-3.63v-.9q0-3.41-1.08-4.68a3.91,3.91,0,0,0-3.15-1.27,3.54,3.54,0,0,0-2.49.85,2.55,2.55,0,0,0-.95,1.94l0,1.44a2.48,2.48,0,0,1-.59,1.77,2,2,0,0,1-1.53.62,1.94,1.94,0,0,1-1.51-.65,2.54,2.54,0,0,1-.59-1.77,5.1,5.1,0,0,1,2.19-3.93,9.46,9.46,0,0,1,6.15-1.79,10.67,10.67,0,0,1,5,1,4.69,4.69,0,0,1,2.17,2.42,13.63,13.63,0,0,1,.45,4.38v7.75a35.16,35.16,0,0,0,.13,4,1.68,1.68,0,0,0,.41,1,1,1,0,0,0,.66.25,1.36,1.36,0,0,0,.7-.17,15.5,15.5,0,0,0,2-1.82v1.39q-2.79,3.74-5.33,3.74a2.42,2.42,0,0,1-1.94-.85A4.57,4.57,0,0,1,353.07,424.21Zm0-1.62V413.9a49.49,49.49,0,0,0-4.86,2.12,8.4,8.4,0,0,0-2.81,2.29,4.43,4.43,0,0,0-.85,2.62,4.27,4.27,0,0,0,1.07,3,3.24,3.24,0,0,0,2.47,1.18Q350,425.08,353.07,422.59Z" style="fill:#f2f2f2"/><line x1="383.67" y1="367.67" x2="125.67" y2="367.67" style="fill:none;stroke:#f2f2f2;stroke-miterlimit:10;stroke-width:3px"/><path d="M496.79,302A245.43,245.43,0,0,1,368.7,473.71L180.83,285.83l149.9-149.91Z" style="fill:#9e6244;opacity:0.25"/><circle cx="374.75" cy="174.86" r="25.21" style="fill:#525252"/><line x1="256" y1="211" x2="364.95" y2="177.84" style="fill:none;stroke:#b8b8b8;stroke-linecap:round;stroke-miterlimit:10;stroke-width:3px"/><circle cx="256" cy="211" r="106" style="fill:#fff"/><line x1="117.13" y1="312.33" x2="176.86" y2="268.75" style="fill:none;stroke:#a8a8a8;stroke-linecap:round;stroke-miterlimit:10;stroke-width:3px"/><line x1="296.64" y1="247.14" x2="318.07" y2="266.2" style="fill:none;stroke:#b8b8b8;stroke-linecap:round;stroke-miterlimit:10;stroke-width:3px"/><line x1="176.86" y1="118.3" x2="205.95" y2="153.94" style="fill:none;stroke:#b8b8b8;stroke-linecap:round;stroke-miterlimit:10;stroke-width:3px"/><circle cx="117.13" cy="312.33" r="17.17" style="fill:#525252"/><circle cx="176.86" cy="118.3" r="39.32" style="fill:#3b5252"/><circle cx="334.86" cy="274.55" r="30.27" style="fill:#525252"/></svg>