<svg id="Layer_1" data-name="Layer 1" xmlns="http://www.w3.org/2000/svg" xmlns:xlink="http://www.w3.org/1999/xlink" viewBox="0 0 512 512"><defs><mask id="mask" x="10.9" y="10.9" width="568.73" height="547.28" maskUnits="userSpaceOnUse"><g id="mask-2"><circle id="path-1" cx="256" cy="256" r="245.1" style="fill:#fff"/></g></mask><linearGradient id="linear-gradient" x1="-700.76" y1="795.78" x2="-701.29" y2="796.32" gradientTransform="matrix(443.36, 0, 0, -469.18, 311115.34, 373738.49)" gradientUnits="userSpaceOnUse"><stop offset="0" stop-opacity="0"/><stop offset="1"/></linearGradient><mask id="mask-2-2" x="10.9" y="10.9" width="490.2" height="490.2" maskUnits="userSpaceOnUse"><g id="mask-2-3" data-name="mask-2"><circle id="path-1-2" data-name="path-1" cx="256" cy="256" r="245.1" style="fill:#fff"/></g></mask><mask id="mask-3" x="131.46" y="169.72" width="247.71" height="178.24" maskUnits="userSpaceOnUse"><g id="mask-5"><path id="path-4" d="M157.13,169.72,378.27,204.6,357.35,336.16a14,14,0,0,1-16,11.63L147.86,317.27a14,14,0,0,1-11.65-16h0Z" style="fill:#fff;fill-rule:evenodd"/></g></mask><clipPath id="clip-path"><path d="M163.92,93H369.22a14,14,0,0,1,14,14v42.92a0,0,0,0,1,0,0H149.92a0,0,0,0,1,0,0V107a14,14,0,0,1,14-14Z" transform="translate(-17.04 48.13) rotate(-10)" style="fill:none"/></clipPath><clipPath id="clip-path-2"><polygon points="146.04 106.12 241.79 174.32 196.88 178.1 100.89 109.93 146.04 106.12" style="fill:none;clip-rule:evenodd"/></clipPath><clipPath id="clip-path-3"><polygon points="211.71 87.54 307.46 155.74 262.55 159.52 166.56 91.34 211.71 87.54" style="fill:none;clip-rule:evenodd"/></clipPath><clipPath id="clip-path-4"><polygon points="278.46 69.87 374.21 138.07 329.3 141.85 233.31 73.67 278.46 69.87" style="fill:none;clip-rule:evenodd"/></clipPath><clipPath id="clip-path-5"><polygon points="334.49 44.07 430.25 112.27 385.33 116.06 289.34 47.88 334.49 44.07" style="fill:none;clip-rule:evenodd"/></clipPath><linearGradient id="linear-gradient-2" x1="-699.26" y1="795.36" x2="-699.69" y2="795.81" gradientTransform="matrix(226, 0, 0, -261, 158260, 207758)" gradientUnits="userSpaceOnUse"><stop offset="0" stop-color="#fff" stop-opacity="0"/><stop offset="1" stop-color="#fff"/></linearGradient><linearGradient id="linear-gradient-3" x1="-699.28" y1="795.3" x2="-699.74" y2="795.75" gradientTransform="matrix(226, 0, 0, -250, 158211, 199064)" xlink:href="#linear-gradient-2"/><linearGradient id="linear-gradient-4" x1="-695.45" y1="792.83" x2="-696.19" y2="793.43" gradientTransform="matrix(104.27, 0, 0, -84.02, 72628.77, 66753.51)" xlink:href="#linear-gradient-2"/><mask id="mask-7" x="10.9" y="-15.72" width="490.2" height="516.82" maskUnits="userSpaceOnUse"><g id="mask-2-7" data-name="mask-2"><circle id="path-1-6" data-name="path-1" cx="256" cy="256" r="245.1" style="fill:#fff"/></g></mask><linearGradient id="linear-gradient-5" x1="-698.71" y1="795.35" x2="-698.23" y2="794.82" gradientTransform="matrix(171, 0, 0, -189, 119656.75, 150334.28)" gradientUnits="userSpaceOnUse"><stop offset="0" stop-color="#fff"/><stop offset="1" stop-color="#fff" stop-opacity="0"/></linearGradient><clipPath id="clip-path-6"><rect x="90.25" y="-62.85" width="512" height="512" style="fill:none"/></clipPath><clipPath id="clip-path-7"><rect x="240.25" y="22.15" width="228" height="85" style="fill:none"/></clipPath><clipPath id="clip-path-8"><path d="M253.27,57.67,445.61,23.74a14,14,0,0,1,16.22,11.35h0l5.71,32.41L247.63,106.3l-5.71-32.41A14,14,0,0,1,253.27,57.67Z" style="fill:none;clip-rule:evenodd"/></clipPath></defs><title>Artboard 1</title><g id="Wikipedia_zh_random-02" data-name="Wikipedia zh random-02"><g id="Wikipedia_zh_logo" data-name="Wikipedia zh logo"><circle id="Oval" cx="256" cy="256" r="256" style="fill:#ccc"/><g id="Group"><circle cx="256" cy="256" r="245.1" style="fill:#a76c54"/><g style="mask:url(#mask)"><polygon id="Path-19" points="136.27 310 157.13 169.72 365.56 89 579.63 303.72 383.31 558.17 136.27 310" style="fill-rule:evenodd;opacity:0.3017113208770752;isolation:isolate;fill:url(#linear-gradient)"/></g><g style="mask:url(#mask-2-2)"><g id="Group-4"><g id="Group-6"><g id="Rectangle"><path d="M157.13,169.72,378.27,204.6,357.35,336.16a14,14,0,0,1-16,11.63L147.86,317.27a14,14,0,0,1-11.65-16h0Z" style="fill:#e6faca;fill-rule:evenodd"/></g><g style="mask:url(#mask-3)"><g id="Group-5"><rect x="183" y="154" width="48" height="122" transform="translate(-37.73 385.82) rotate(-81)" style="fill:#cadfac"/><rect id="Rectangle-Copy-7" x="304.5" y="186.5" width="48" height="95" transform="translate(45.99 521.85) rotate(-81)" style="fill:#cadfac"/><rect id="Rectangle-Copy-8" x="277" y="198" width="28" height="156" transform="translate(-27.12 520.24) rotate(-81)" style="fill:#cadfac"/><rect id="Rectangle-Copy-10" x="286" y="248" width="27" height="129" transform="translate(-56 559.43) rotate(-81)" style="fill:#cadfac"/><rect id="Rectangle-Copy-9" x="158" y="224" width="28" height="66" transform="translate(-108.74 386.68) rotate(-81)" style="fill:#cadfac"/><rect id="Rectangle-Copy-11" x="166" y="247" width="27" height="93" transform="translate(-138.47 424.88) rotate(-81)" style="fill:#cadfac"/></g></g></g><g id="Group-2"><path id="Path" d="M317.29,232.9l-.31,2c-.09.54-.44.77-1,.67-3-.34-5.29,0-6.89.91a11.53,11.53,0,0,0-4.11,4.38s-25.18,40-33.73,53.24c-3.15,4.29-5.45,3.48-6.85-1.23-.8-2.69-2-6.86-3.25-11.5-.06-.25-.13-.49-.2-.74l-1.53-5.6-.47-1.69c-.83-3.07-1.65-6.1-2.39-8.86h0c-.23-.87-.46-1.72-.69-2.53l-.1-.36c-.09-.42-.21-.81-.33-1.2,0-.13-.06-.25-.1-.39l-.11-.44-.09-.31-.16-.6-.11-.41h0c-.1-.39-.2-.75-.29-1.09l-.09-.33-.16-.68-.09-.35c-.11-.39-.21-.75-.29-1.07l-.09-.33-.07-.27-.06-.24s0-.09,0-.14l0-.12-.05-.23a.32.32,0,0,0,0-.09l0-.16a.25.25,0,0,1,0-.07l0-.05a.08.08,0,0,0,0,0V253l-2.63-8.31-2.58-8s-1-3.25-1.31-4.33l0-.11-.2-.65-.19-.61-.12-.36-.15-.48a2.58,2.58,0,0,0-.08-.26l-.08-.26-.08-.24a2.17,2.17,0,0,0-.07-.24l-.07-.23c-.08-.23-.15-.44-.21-.65l-.12-.34s0,0,0,0l-.06-.18c-.11-.31-.21-.58-.31-.83a2,2,0,0,0-.11-.26,5.65,5.65,0,0,0-.31-.65l-.06-.11a1.28,1.28,0,0,0-.15-.25.44.44,0,0,0-.08-.11l-.07-.11-.06-.08,0,0-.05-.06-.15-.16-.1-.1-.08-.07-.18-.14,0,0a.91.91,0,0,0-.16-.11h0l-.22-.12-.17-.08-.14-.06-.11-.05-.23-.09-.24-.08-.08,0h-.08l-.17-.06-.17-.05-.35-.11-.25-.07-.22-.08h0l-.17-.07-.17-.07h0l-.19-.11-.06,0-.06,0,0-.05,0,0,0-.05,0-.05,0-.08a.13.13,0,0,0,0-.06.43.43,0,0,0,0-.05.24.24,0,0,1,0-.08l.33-2.11.31-.17,19.52,3.11.49.26-.33,2c-.07.48-.46.67-1.13.56l-1.46,0c-3.62-.28-3.27,1.3-1.65,6.49l4.81,16.21,1.75,5.83,8.54,28.5.73.34,25.19-41.18,2.07-3.37.39-.64c1-1.84,1.12-3.24.35-4.19s-1.33-1.51-3.64-2l-1.86-.39a1,1,0,0,1-.62-.35.71.71,0,0,1-.22-.63l.32-2,.31-.16,22.62,3.6Z" style="fill:#754836"/><path d="M287.32,228.73l-.31,2c-.09.56-.44.78-1.05.68-3-.33-3.68-.13-5,1.28-.73.77-2.22,2.44-3.76,4.34l-13.64,18.1v0l0,0a.47.47,0,0,1-.06.09s0,0,0,.06h0s0,0-.05.07l0,.07-.13.18v0l-.23.33-.15.24-.31.44-.23.33-.24.36-.27.39c-1.22,1.78-3,4.33-5,7.27h0l-.68,1-.24.33-.44.64-2.47,3.54-.5.72c-.48.73-1,1.45-1.52,2.17s-1.16,1.67-1.74,2.49l-.29.4-.9,1.29c-2.59,3.66-5,7.11-7,9.71l-.41.55-1.16,1.56c-2.07,2.57-3.69,3.35-4.92,2.7a4.27,4.27,0,0,1-1.75-2.42c-.16-.42-.29-.84-.41-1.28-.22-.93-.48-1.92-.74-2.94-.07-.25-.14-.51-.2-.77l-.32-1.2c-.34-1.2-.68-2.44-1-3.73l-.24-.85-.72-2.63c-.38-1.36-.77-2.76-1.18-4.17-.09-.34-.19-.67-.29-1l-.36-1.27-.49-1.74q-1.09-3.86-2.24-7.82l-.49-1.71-.63-2.18c-.19-.65-.37-1.3-.56-1.94-1.62-5.68-3.22-11.29-4.62-16.39-.09-.32-.17-.64-.25-.95-.27-1-.52-1.93-.77-2.85l-.43-1.63s0,0,0-.06l-.39-1.54c-.38-1.47-.74-2.87-1-4.19-.72-3-1.31-4.89-2-5.73s-2.37-1.52-5-2.08a4.22,4.22,0,0,1-.5-.16l-.17-.06-.21-.1a1.66,1.66,0,0,1-.31-.23l0-.07a.33.33,0,0,1-.07-.13l0,0v0a.13.13,0,0,1,0-.06.2.2,0,0,1,0-.07l.33-2.1.26-.17c4.26.66,24.87,4,24.87,4l.2.24-.31,2c-.09.56-.49.77-1.17.66l-2.61-.3c-2.24-.26-3.46.23-3.65,1.47a8.32,8.32,0,0,0,.31,2.89c3.06,13,14.52,52.2,14.52,52.2l.6.27L255,258.77h0l6.38-8.91,8.92-12.52,1.73-2.42.41-.65a2.38,2.38,0,0,0,.18-.3l.17-.28.11-.2.15-.29.08-.17c0-.06.09-.18.12-.27l.07-.16a.25.25,0,0,1,0-.13c0-.11.07-.2.09-.3l0-.12,0-.15,0-.2,0-.12s0-.07,0-.1a1.35,1.35,0,0,0,0-.29c0-.06,0-.11-.05-.16a.36.36,0,0,0,0-.09l0-.05v0l-.06-.11a.83.83,0,0,0-.07-.13c-.26-.44-1.24-1.23-3.57-1.68l-.95-.28a1.12,1.12,0,0,1-.63-.34.7.7,0,0,1-.22-.64l.32-2,.32-.16c5.75.87,18.59,2.95,18.59,2.95Z" style="fill:#754836"/></g><g id="Group-3"><path d="M163.92,93H369.22a14,14,0,0,1,14,14v42.92a0,0,0,0,1,0,0H149.92a0,0,0,0,1,0,0V107a14,14,0,0,1,14-14Z" transform="translate(-17.04 48.13) rotate(-10)" style="fill:#592f2f"/><g style="clip-path:url(#clip-path)"><g style="clip-path:url(#clip-path-2)"><rect x="98.84" y="99.12" width="145" height="86" transform="translate(-11.33 14.89) rotate(-4.82)" style="fill:#854444"/></g><g style="clip-path:url(#clip-path-3)"><rect x="164.51" y="80.54" width="145" height="86" transform="translate(-9.54 20.34) rotate(-4.82)" style="fill:#854444"/></g><g style="clip-path:url(#clip-path-4)"><rect x="231.26" y="62.87" width="145" height="86" transform="translate(-7.82 25.89) rotate(-4.82)" style="fill:#854444"/></g><g style="clip-path:url(#clip-path-5)"><rect x="287.29" y="37.07" width="145" height="86" transform="translate(-5.45 30.5) rotate(-4.82)" style="fill:#854444"/></g></g></g></g></g><g style="mask:url(#mask-2-2)"><polygon id="Path-17" points="140.93 24 247.58 130.47 311 285 85 59.38 140.93 24" style="fill-rule:evenodd;opacity:0.39431267976760864;isolation:isolate;fill:url(#linear-gradient-2)"/></g><g style="mask:url(#mask-2-2)"><polygon id="Path-17-Copy" points="61.92 97 168.58 203.47 262 347 36 121.38 61.92 97" style="fill-rule:evenodd;opacity:0.15905413031578064;isolation:isolate;fill:url(#linear-gradient-3)"/></g><g style="mask:url(#mask-2-2)"><polygon id="Path-18" points="52.25 72 136.27 156.02 102.43 156.02 32 83.72 52.25 72" style="fill-rule:evenodd;opacity:0.20000000298023224;isolation:isolate;fill:url(#linear-gradient-4)"/></g><g style="mask:url(#mask-7)"><polygon id="Path-20" points="165.54 21.85 317.75 173.28 287.78 124.6 146.75 -15.72 165.54 21.85" style="fill-rule:evenodd;opacity:0.6132115125656128;isolation:isolate;fill:url(#linear-gradient-5)"/></g></g><path d="M171.29,396.22v.87a4,4,0,0,0-2,.45,4.38,4.38,0,0,0-1.48,1.66,27.09,27.09,0,0,0-1.48,3.91l-8.86,25.62h-.94l-7.24-20.32-7.2,20.32h-.84l-9.45-26.39a33.42,33.42,0,0,0-1.34-3.49,3.08,3.08,0,0,0-1.28-1.32,4.6,4.6,0,0,0-2.19-.43v-.87h11.77v.87h-.56a2.83,2.83,0,0,0-1.9.56,1.72,1.72,0,0,0-.66,1.36,16.39,16.39,0,0,0,1,3.77l6.26,17.84,5.27-15.16-.94-2.67-.75-2.13a11.65,11.65,0,0,0-1.1-2.06,3,3,0,0,0-.75-.75,4.35,4.35,0,0,0-1.17-.61,5.16,5.16,0,0,0-1.41-.14v-.87h12.38v.87h-.84a2.76,2.76,0,0,0-1.92.56,2,2,0,0,0-.61,1.52,15,15,0,0,0,1.05,4.17l6.09,17.27,6-17.51a14.59,14.59,0,0,0,1-4,1.65,1.65,0,0,0-.34-1,1.82,1.82,0,0,0-.86-.66,7,7,0,0,0-2.32-.33v-.87Z" style="fill:#fff"/><path id="Shape" d="M178.64,405.9v17.25a7.84,7.84,0,0,0,.29,2.68,2.07,2.07,0,0,0,.87,1,4.71,4.71,0,0,0,2.1.33V428H171.47v-.84a4.74,4.74,0,0,0,2.11-.3,2,2,0,0,0,.86-1,7.48,7.48,0,0,0,.32-2.7v-8.27a28.46,28.46,0,0,0-.21-4.52,1.83,1.83,0,0,0-.52-1,1.44,1.44,0,0,0-1-.29,4.59,4.59,0,0,0-1.59.35l-.33-.84,6.47-2.62Zm-1.95-11.23a2.36,2.36,0,0,1,2.37,2.37,2.34,2.34,0,0,1-.69,1.69,2.27,2.27,0,0,1-1.68.7,2.38,2.38,0,0,1,0-4.76Z" style="fill:#fff"/><path d="M190.93,394.67V416l5.46-5a17.17,17.17,0,0,0,2-2,1,1,0,0,0,.19-.56,1,1,0,0,0-.39-.81,2.08,2.08,0,0,0-1.28-.39v-.75h9.33v.75a9,9,0,0,0-3.2.59,10.33,10.33,0,0,0-2.8,1.92l-5.51,5.09,5.51,7q2.3,2.88,3.09,3.66a6.43,6.43,0,0,0,2,1.43,6.16,6.16,0,0,0,2,.23V428h-10.4v-.84a2.14,2.14,0,0,0,1.21-.27.83.83,0,0,0,.32-.69,3.63,3.63,0,0,0-.94-1.73L190.93,416v7.13a8.18,8.18,0,0,0,.29,2.74,1.86,1.86,0,0,0,.83.94,6.19,6.19,0,0,0,2.34.3V428H183.47v-.84a5.9,5.9,0,0,0,2.46-.4,1.71,1.71,0,0,0,.75-.8,7.13,7.13,0,0,0,.35-2.67V403.74a34.7,34.7,0,0,0-.16-4.56,2,2,0,0,0-.54-1.15,1.45,1.45,0,0,0-1-.32,4.52,4.52,0,0,0-1.48.4l-.4-.82,6.38-2.62Z" style="fill:#fff"/><path d="M216,405.9v17.25a7.84,7.84,0,0,0,.29,2.68,2.07,2.07,0,0,0,.87,1,4.71,4.71,0,0,0,2.1.33V428H208.81v-.84a4.74,4.74,0,0,0,2.11-.3,2,2,0,0,0,.86-1,7.48,7.48,0,0,0,.32-2.7v-8.27a28.46,28.46,0,0,0-.21-4.52,1.83,1.83,0,0,0-.52-1,1.44,1.44,0,0,0-1-.29,4.59,4.59,0,0,0-1.59.35l-.33-.84,6.47-2.62Zm-2-11.23a2.35,2.35,0,0,1,1.71,4,2.27,2.27,0,0,1-1.68.7,2.38,2.38,0,1,1,0-4.76Z" style="fill:#fff"/><path d="M220.36,408.66,227,406h.89v5a12.16,12.16,0,0,1,3.34-4,6.19,6.19,0,0,1,3.53-1.14,6.79,6.79,0,0,1,5.39,2.53,12,12,0,0,1,2.65,8.06,13.43,13.43,0,0,1-3.19,9.19,8.45,8.45,0,0,1-6.61,3,8.29,8.29,0,0,1-3-.49,7.16,7.16,0,0,1-2.11-1.41v6.54a8.81,8.81,0,0,0,.27,2.8,2,2,0,0,0,.94.95,5.75,5.75,0,0,0,2.43.35v.87H220.25v-.87h.59a4.23,4.23,0,0,0,2.2-.49,1.7,1.7,0,0,0,.69-.83,9.9,9.9,0,0,0,.25-2.92v-20.3a11.2,11.2,0,0,0-.19-2.65,1.59,1.59,0,0,0-.6-.84,2,2,0,0,0-1.11-.28,4.38,4.38,0,0,0-1.43.33Zm7.5,3.73v8a17.81,17.81,0,0,0,.21,3.42,4.35,4.35,0,0,0,1.61,2.39,5,5,0,0,0,3.22,1,4.6,4.6,0,0,0,3.8-1.83,10.55,10.55,0,0,0,1.9-6.73q0-4.92-2.16-7.57a4.5,4.5,0,0,0-3.56-1.83,4.94,4.94,0,0,0-2.23.56,13.2,13.2,0,0,0-2.79,2.59Z" style="fill:#fff"/><path d="M249.52,414.62a11,11,0,0,0,2.32,7.5,7.08,7.08,0,0,0,5.51,2.72,6,6,0,0,0,3.67-1.16,8.58,8.58,0,0,0,2.61-4l.73.47A11.18,11.18,0,0,1,261.5,426a7.62,7.62,0,0,1-5.93,2.64,8.67,8.67,0,0,1-6.62-3,11.57,11.57,0,0,1-2.75-8.1c0-3.67.94-6.54,2.82-8.59a9.21,9.21,0,0,1,7.09-3.08,8,8,0,0,1,5.93,2.38,8.72,8.72,0,0,1,2.32,6.36Zm0-1.36h9.94a9.3,9.3,0,0,0-.49-2.91,4.74,4.74,0,0,0-1.75-2.06,4.46,4.46,0,0,0-2.43-.75,4.83,4.83,0,0,0-3.48,1.51,6.56,6.56,0,0,0-1.79,4.21Z" style="fill:#fff"/><path d="M282.38,425.59a10.9,10.9,0,0,1-3.07,2.36,7.35,7.35,0,0,1-3.23.71,8,8,0,0,1-6.14-2.94,10.94,10.94,0,0,1-2.62-7.56,13.7,13.7,0,0,1,2.91-8.45,9,9,0,0,1,7.48-3.83,6.45,6.45,0,0,1,4.69,1.8v-4a31,31,0,0,0-.18-4.52,2,2,0,0,0-.55-1.15,1.45,1.45,0,0,0-.94-.3,4.74,4.74,0,0,0-1.62.38l-.3-.82,6.4-2.62h1.05v24.82a32.26,32.26,0,0,0,.18,4.61,2,2,0,0,0,.56,1.16,1.35,1.35,0,0,0,.9.33,5.22,5.22,0,0,0,1.69-.4l.26.82-6.37,2.65H282.4Zm0-1.64V412.88a7.4,7.4,0,0,0-.84-2.91,4.91,4.91,0,0,0-1.86-2,4.51,4.51,0,0,0-2.26-.67,4.8,4.8,0,0,0-3.68,1.85c-1.42,1.63-2.13,4-2.13,7.13s.69,5.54,2.06,7.25a5.9,5.9,0,0,0,4.59,2.52,5.72,5.72,0,0,0,4.12-2.1Z" style="fill:#fff"/><path d="M298.62,405.9v17.25a7.84,7.84,0,0,0,.29,2.68,2.07,2.07,0,0,0,.87,1,4.71,4.71,0,0,0,2.1.33V428H291.45v-.84a4.74,4.74,0,0,0,2.11-.3,2,2,0,0,0,.86-1,7.48,7.48,0,0,0,.32-2.7v-8.27a28.46,28.46,0,0,0-.21-4.52,1.83,1.83,0,0,0-.52-1,1.44,1.44,0,0,0-1-.29,4.59,4.59,0,0,0-1.59.35l-.33-.84,6.47-2.62Zm-1.95-11.23A2.37,2.37,0,0,1,299,397a2.34,2.34,0,0,1-.69,1.69,2.27,2.27,0,0,1-1.68.7,2.38,2.38,0,0,1,0-4.76Z" style="fill:#fff"/><path d="M316.71,424.91a35.85,35.85,0,0,1-4.15,3,6.47,6.47,0,0,1-2.7.59,4.85,4.85,0,0,1-3.67-1.52,5.56,5.56,0,0,1-1.44-4,5.09,5.09,0,0,1,.7-2.72,9.26,9.26,0,0,1,3.34-3,51.74,51.74,0,0,1,7.91-3.42V413c0-2.14-.33-3.61-1-4.41a3.7,3.7,0,0,0-3-1.2,3.34,3.34,0,0,0-2.34.8,2.42,2.42,0,0,0-.89,1.83v1.36A2.35,2.35,0,0,1,309,413a1.9,1.9,0,0,1-1.44.59,1.83,1.83,0,0,1-1.42-.61,2.39,2.39,0,0,1-.55-1.66,4.82,4.82,0,0,1,2.06-3.7,8.88,8.88,0,0,1,5.79-1.69,10,10,0,0,1,4.69,1,4.44,4.44,0,0,1,2,2.27,12.77,12.77,0,0,1,.42,4.13v7.29a33.74,33.74,0,0,0,.12,3.76,1.55,1.55,0,0,0,.39.93.93.93,0,0,0,.62.23,1.27,1.27,0,0,0,.66-.16,14.68,14.68,0,0,0,1.9-1.71V425c-1.75,2.35-3.41,3.52-5,3.52a2.28,2.28,0,0,1-1.83-.8A4.3,4.3,0,0,1,316.71,424.91Zm0-1.52V415.2a45.16,45.16,0,0,0-4.57,2,7.82,7.82,0,0,0-2.65,2.16,4.18,4.18,0,0,0-.8,2.46,4,4,0,0,0,1,2.8,3.06,3.06,0,0,0,2.32,1.11q1.8,0,4.7-2.35Z" style="fill:#fff"/><polygon points="326.3 415.46 338.42 415.46 338.42 419 326.3 419 326.3 415.46" style="fill:#fff"/><path d="M360.5,421.41l-.26,6.59H341.3v-.84l14.25-19h-7a9.48,9.48,0,0,0-3,.29,2.34,2.34,0,0,0-1.15,1.11,6.84,6.84,0,0,0-.73,2.91h-.94l.14-6h18v.87l-14.39,19h7.83a9,9,0,0,0,3.34-.41,3.1,3.1,0,0,0,1.42-1.44,11.37,11.37,0,0,0,.63-3.16Z" style="fill:#fff"/><path d="M369.45,394.67v15.7a17.84,17.84,0,0,1,4.13-3.67,6.44,6.44,0,0,1,3-.81,5,5,0,0,1,3.14,1,6,6,0,0,1,1.95,3.16,22.39,22.39,0,0,1,.45,5.48v7.59a8,8,0,0,0,.33,2.79,1.82,1.82,0,0,0,.8.89,4.54,4.54,0,0,0,2.06.33V428H374.79v-.84h.49a3.47,3.47,0,0,0,2.09-.46,2.39,2.39,0,0,0,.82-1.35,18,18,0,0,0,.07-2.2v-7.59a17.92,17.92,0,0,0-.36-4.62,3.12,3.12,0,0,0-1.16-1.65,3.28,3.28,0,0,0-1.92-.55,5.53,5.53,0,0,0-2.39.61,11.28,11.28,0,0,0-3,2.46v11.34a8.71,8.71,0,0,0,.25,2.74,2,2,0,0,0,.91.9,5.2,5.2,0,0,0,2.31.36V428H362.28v-.84a4.71,4.71,0,0,0,2.25-.45,1.68,1.68,0,0,0,.75-.89,8,8,0,0,0,.28-2.67V403.72a31,31,0,0,0-.18-4.52,2,2,0,0,0-.54-1.15,1.43,1.43,0,0,0-1-.3,5.77,5.77,0,0,0-1.59.38l-.33-.82,6.42-2.62Z" style="fill:#fff"/><rect x="120.33" y="372" width="271.33" height="2" style="fill:#fff"/></g></g></svg>