<svg id="Layer_1" data-name="Layer 1" xmlns="http://www.w3.org/2000/svg" xmlns:xlink="http://www.w3.org/1999/xlink" viewBox="0 0 512 512"><defs><linearGradient id="linear-gradient" x1="494.76" y1="365.78" x2="270.94" y2="158.95" gradientUnits="userSpaceOnUse"><stop offset="0.4" stop-opacity="0"/><stop offset="1"/></linearGradient></defs><title>Artboard 1</title><circle cx="256" cy="256" r="256" style="fill:#ccc"/><path d="M501.1,256c0,107-68.58,198-164.18,231.42A244.63,244.63,0,0,1,256,501.1C120.64,501.1,10.9,391.36,10.9,256S120.64,10.9,256,10.9c126.88,0,231.25,96.42,243.82,220A245.35,245.35,0,0,1,501.1,256Z" style="fill:#e6ba94"/><path d="M411,185.33c.21,85-68.85,154.74-153.8,155.39A154.49,154.49,0,0,1,148,296.89l-.27-.26a155.07,155.07,0,0,1-25.66-189l32,18.63a117.43,117.43,0,0,0-16,60.57c.6,63.8,52.55,116,116.35,116.84A118.06,118.06,0,0,0,365.74,142.28a115.67,115.67,0,0,0-7.78-16l32-18.63A154.19,154.19,0,0,1,411,185.33Z" style="fill:#fffbf5"/><path d="M368,185.72a112,112,0,0,1-110.87,112c-61.59.61-112.54-49.3-113.12-110.89a111.29,111.29,0,0,1,14.43-56.12q.38-.69.78-1.38l32,18.64a75,75,0,1,0,129.6,0l32-18.64A111.42,111.42,0,0,1,368,185.72Z" style="fill:#e0ddd9"/><polygon points="289.09 109.74 289.09 157.41 270.58 175.92 241.42 175.92 222.91 157.41 222.91 109.74 289.09 109.74" style="fill:#575554"/><path d="M501.1,256c0,106.56-68,197.25-163,231L148,296.89A154.49,154.49,0,0,0,257.2,340.72c85-.65,154-70.44,153.8-155.39a154.19,154.19,0,0,0-21.06-77.66L497.75,215.48h0q1.27,7.62,2.07,15.41A244.73,244.73,0,0,1,501.1,256Z" style="fill:#6b534e;opacity:0.32"/><path d="M293.71,250.47A74.15,74.15,0,0,1,257.9,260.7,75,75,0,0,1,191.2,148Z" style="fill:#6b534e;opacity:0.32"/><path d="M374,185.72a118,118,0,0,1-119.64,118c-63.8-.87-115.75-53-116.35-116.84a117.43,117.43,0,0,1,16-60.57l4.4,4.4A111.29,111.29,0,0,0,144,186.82c.58,61.59,51.53,111.5,113.12,110.89a112,112,0,0,0,95.65-168.39l13,13A117.67,117.67,0,0,1,374,185.72Z" style="fill:#6b534e;opacity:0.32"/><polygon points="546.18 366.82 527.77 462.27 241.42 175.92 270.58 175.92 289.09 157.41 289.09 109.74 546.18 366.82" style="opacity:0.32;fill:url(#linear-gradient)"/><path d="M281.64,124H271l-.13.1V125a.32.32,0,0,0,.15.27.5.5,0,0,0,.31.12l.88,0a2.31,2.31,0,0,1,1.81.63c.42.38.48,1,.14,1.91l-.13.32-.7,1.67-8.58,20.37-.36-.1-6-12.22h0l0-.09,0,0s0,0,0,0,0,0,0,0,0,0,0,0v0h0l4.89-9.15c.56-1,1.12-1.83,1.4-2.23.51-.73.8-.87,2.19-.94.28,0,.43-.13.43-.38v-.93l-.11-.1s-6,0-8.65,0l-.13.1V125a.32.32,0,0,0,.15.27.51.51,0,0,0,.31.11l.45.06a2.5,2.5,0,0,1,1.74.5l0,.06,0,0h0v0l0,0,0,.07a.63.63,0,0,1,0,.13.43.43,0,0,1,0,0v.06a.82.82,0,0,1,0,.09v.13a1.21,1.21,0,0,0,0,.14s0,0,0,.06l0,.08,0,.13,0,.08,0,.15,0,.1-.05.14-.06.15-.14.32-.61,1.22-3.16,6.29-3.38-7c-1.12-2.23-1.39-2.91.29-3l.67-.1c.32,0,.48-.11.48-.33v-.94l-.24-.08h-9.18l-.13.1v1a.27.27,0,0,0,0,0,.05.05,0,0,0,0,0,.14.14,0,0,0,0,0l0,0,0,0,0,0h0l0,0,0,0,0,0,.1,0,.08,0,.09,0h0l.11,0,.12,0,.17,0h.24l.12,0,.11,0H247l.07,0,.08,0,.11,0h0l.08,0h0l.09.05,0,0,.06,0,.08.06,0,0h0l0,0,0,0,0,0,.09.1,0,0,.19.27.07.11.2.35,0,.08v0l.08.15.14.28.05.1.05.1.05.11.06.11.06.11.1.21.08.15.13.26.14.28,0,.05c.23.46.92,1.86.92,1.86l1.76,3.4,1.81,3.56h0a.06.06,0,0,1,0,0v0l0,0,0,.07a.1.1,0,0,1,0,0l0,.1,0,.06,0,.06,0,.1.05.12.06.14.21.46.07.15.12.3.06.14.21.46-5.15,10.28-.29-.08s-8-16.88-10.32-22.52a3.82,3.82,0,0,1-.35-1.29q0-.86,1.55-.93l1.21-.05c.32,0,.48-.12.48-.38v-.93l-.11-.1s-9.59,0-11.57,0l-.11.1v1a.1.1,0,0,0,0,0,.13.13,0,0,0,0,0h0v0l0,.05,0,0,.16.08.1,0,.09,0,.24,0a4.4,4.4,0,0,1,2.4.58,7.34,7.34,0,0,1,1.34,2.44c.24.57.5,1.18.78,1.82l.29.67v0l.31.7.55,1.23.19.41c1,2.21,2.12,4.62,3.27,7.07l.39.83.44.94.35.74,1.57,3.37.35.75.26.55.2.44c.29.61.57,1.21.83,1.8l.52,1.13.17.37q.37.83.73,1.61l.23.52.15.33c.19.44.38.87.55,1.27a5.53,5.53,0,0,0,.28.55,2,2,0,0,0,1,1c.6.2,1.28-.26,2-1.57l.42-.79.15-.28c.68-1.31,1.55-3,2.46-4.88l.32-.65.1-.21.61-1.25c.18-.36.37-.73.53-1.09l.18-.36.87-1.78.16-.32.08-.17.23-.49,1.73,3.8.33.73,1.11,2.42.15.32c.92,2,1.76,3.79,2.32,4.95,1,2,2.1,2.22,3.23.06,3-6.59,11.63-26.41,11.63-26.41a4.48,4.48,0,0,1,4.67-3.17c.28,0,.43-.13.43-.38v-.93Z" style="fill:#f2f2f2"/><g id="wikipedia-zh"><path d="M171.29,396.22v.87a4,4,0,0,0-2,.45,4.38,4.38,0,0,0-1.48,1.66,27.15,27.15,0,0,0-1.48,3.91l-8.86,25.62h-.94l-7.24-20.32-7.2,20.32h-.84l-9.45-26.39a32.27,32.27,0,0,0-1.34-3.49,3.08,3.08,0,0,0-1.28-1.32,4.66,4.66,0,0,0-2.19-.43v-.87h11.77v.87h-.56a2.84,2.84,0,0,0-1.9.56,1.73,1.73,0,0,0-.66,1.36,16.19,16.19,0,0,0,1,3.77l6.26,17.84,5.27-15.16-.94-2.67-.75-2.13a11.6,11.6,0,0,0-1.1-2.06,2.85,2.85,0,0,0-.75-.75,4.21,4.21,0,0,0-1.17-.61,5.08,5.08,0,0,0-1.41-.14v-.87h12.38v.87h-.84a2.77,2.77,0,0,0-1.92.56,2,2,0,0,0-.61,1.52,15,15,0,0,0,1.05,4.17l6.09,17.27,6-17.51a14.72,14.72,0,0,0,1-4,1.68,1.68,0,0,0-.34-1,1.8,1.8,0,0,0-.86-.66,6.83,6.83,0,0,0-2.32-.33v-.87Z" style="fill:#f2f2f2"/><path d="M178.64,405.9v17.25a7.9,7.9,0,0,0,.29,2.68,2.06,2.06,0,0,0,.87,1,4.64,4.64,0,0,0,2.1.33V428H171.47v-.84a4.85,4.85,0,0,0,2.11-.3,2.09,2.09,0,0,0,.86-1,7.58,7.58,0,0,0,.32-2.7v-8.27a29.26,29.26,0,0,0-.21-4.52,1.84,1.84,0,0,0-.52-1,1.46,1.46,0,0,0-1-.29,4.69,4.69,0,0,0-1.59.35l-.33-.84,6.47-2.62Zm-1.95-11.23a2.36,2.36,0,0,1,2.37,2.35h0a2.32,2.32,0,0,1-.69,1.69,2.26,2.26,0,0,1-1.68.7,2.38,2.38,0,0,1,0-4.76Z" style="fill:#f2f2f2"/><path d="M190.93,394.67V416l5.46-5a18.29,18.29,0,0,0,2-2,1,1,0,0,0-.2-1.37,2.1,2.1,0,0,0-1.28-.39v-.75h9.33v.75a8.83,8.83,0,0,0-3.2.59,10.33,10.33,0,0,0-2.8,1.92l-5.51,5.09,5.51,7q2.3,2.88,3.09,3.66a6.36,6.36,0,0,0,2,1.43,6.13,6.13,0,0,0,2,.23V428h-10.4v-.84a2.18,2.18,0,0,0,1.21-.27.83.83,0,0,0,.32-.69,3.61,3.61,0,0,0-.94-1.73L190.93,416v7.13a8.1,8.1,0,0,0,.29,2.74,1.86,1.86,0,0,0,.83.94,6.28,6.28,0,0,0,2.34.3V428H183.47v-.84a5.86,5.86,0,0,0,2.46-.4,1.69,1.69,0,0,0,.75-.8,7.11,7.11,0,0,0,.35-2.67V403.74a35,35,0,0,0-.16-4.56,2,2,0,0,0-.54-1.15,1.47,1.47,0,0,0-1-.32,4.43,4.43,0,0,0-1.48.4l-.4-.82,6.38-2.62Z" style="fill:#f2f2f2"/><path d="M216,405.9v17.25a7.9,7.9,0,0,0,.29,2.68,2.06,2.06,0,0,0,.87,1,4.64,4.64,0,0,0,2.1.33V428H208.81v-.84a4.85,4.85,0,0,0,2.11-.3,2.09,2.09,0,0,0,.86-1,7.58,7.58,0,0,0,.32-2.7v-8.27a29.26,29.26,0,0,0-.21-4.52,1.84,1.84,0,0,0-.52-1,1.46,1.46,0,0,0-1-.29,4.69,4.69,0,0,0-1.59.35l-.33-.84,6.47-2.62Zm-2-11.23a2.36,2.36,0,0,1,2.4,2.32h0a2.32,2.32,0,0,1-.69,1.69,2.26,2.26,0,0,1-1.68.7,2.38,2.38,0,1,1,0-4.76Z" style="fill:#f2f2f2"/><path d="M220.36,408.66,227,406h.89v5a12.17,12.17,0,0,1,3.34-4,6.18,6.18,0,0,1,3.53-1.14,6.79,6.79,0,0,1,5.39,2.53,12,12,0,0,1,2.65,8.06,13.42,13.42,0,0,1-3.19,9.19,8.44,8.44,0,0,1-6.61,3,8.27,8.27,0,0,1-3-.49,7,7,0,0,1-2.11-1.41v6.54a8.71,8.71,0,0,0,.27,2.8,2,2,0,0,0,.94,1,5.76,5.76,0,0,0,2.43.35v.87H220.25v-.87h.59a4.26,4.26,0,0,0,2.2-.49,1.69,1.69,0,0,0,.69-.83,10,10,0,0,0,.25-2.92v-20.3a11,11,0,0,0-.19-2.65,1.59,1.59,0,0,0-.6-.84,1.94,1.94,0,0,0-1.11-.28,4.24,4.24,0,0,0-1.43.33Zm7.5,3.73v8a17.19,17.19,0,0,0,.21,3.42,4.38,4.38,0,0,0,1.61,2.39,5,5,0,0,0,3.22,1,4.62,4.62,0,0,0,3.8-1.83,10.57,10.57,0,0,0,1.9-6.73q0-4.92-2.16-7.57a4.49,4.49,0,0,0-3.56-1.83,4.85,4.85,0,0,0-2.23.56A13.07,13.07,0,0,0,227.86,412.39Z" style="fill:#f2f2f2"/><path d="M249.52,414.62a11,11,0,0,0,2.32,7.5,7.08,7.08,0,0,0,5.51,2.72,6,6,0,0,0,3.67-1.16,8.56,8.56,0,0,0,2.61-4l.73.47A11.18,11.18,0,0,1,261.5,426a7.64,7.64,0,0,1-5.93,2.64,8.66,8.66,0,0,1-6.62-3,11.54,11.54,0,0,1-2.75-8.1q0-5.51,2.82-8.59a9.21,9.21,0,0,1,7.09-3.08,7.93,7.93,0,0,1,5.93,2.38,8.72,8.72,0,0,1,2.32,6.36Zm0-1.36h9.94a9.19,9.19,0,0,0-.49-2.91,4.65,4.65,0,0,0-1.75-2.06,4.4,4.4,0,0,0-2.43-.75,4.83,4.83,0,0,0-3.48,1.51A6.56,6.56,0,0,0,249.52,413.26Z" style="fill:#f2f2f2"/><path d="M282.38,425.59a10.84,10.84,0,0,1-3.07,2.36,7.42,7.42,0,0,1-3.23.71,8,8,0,0,1-6.14-2.94,10.93,10.93,0,0,1-2.62-7.56,13.66,13.66,0,0,1,2.91-8.45,9,9,0,0,1,7.48-3.83,6.44,6.44,0,0,1,4.69,1.8v-4a32.4,32.4,0,0,0-.18-4.52,2,2,0,0,0-.55-1.15,1.44,1.44,0,0,0-.94-.3,4.94,4.94,0,0,0-1.62.38l-.3-.82,6.4-2.62h1v24.82a33.21,33.21,0,0,0,.18,4.61,2,2,0,0,0,.56,1.16,1.35,1.35,0,0,0,.9.33,5.1,5.1,0,0,0,1.69-.4l.26.82-6.37,2.65h-1Zm0-1.64V412.88a7.48,7.48,0,0,0-.84-2.91,4.87,4.87,0,0,0-1.86-2,4.52,4.52,0,0,0-2.26-.67,4.8,4.8,0,0,0-3.68,1.85q-2.13,2.44-2.13,7.13t2.06,7.25a5.91,5.91,0,0,0,4.59,2.52A5.71,5.71,0,0,0,282.38,423.95Z" style="fill:#f2f2f2"/><path d="M298.62,405.9v17.25a7.9,7.9,0,0,0,.29,2.68,2.06,2.06,0,0,0,.87,1,4.64,4.64,0,0,0,2.1.33V428H291.45v-.84a4.85,4.85,0,0,0,2.11-.3,2.09,2.09,0,0,0,.86-1,7.58,7.58,0,0,0,.32-2.7v-8.27a29.26,29.26,0,0,0-.21-4.52,1.84,1.84,0,0,0-.52-1,1.46,1.46,0,0,0-1-.29,4.69,4.69,0,0,0-1.59.35l-.33-.84,6.47-2.62Zm-2-11.23A2.36,2.36,0,0,1,299,397a2.32,2.32,0,0,1-.69,1.69,2.26,2.26,0,0,1-1.68.7,2.38,2.38,0,1,1,0-4.76Z" style="fill:#f2f2f2"/><path d="M316.71,424.91a35.38,35.38,0,0,1-4.15,3,6.34,6.34,0,0,1-2.7.59,4.83,4.83,0,0,1-3.67-1.52,5.59,5.59,0,0,1-1.44-4,5.1,5.1,0,0,1,.7-2.72,9.31,9.31,0,0,1,3.34-3,52,52,0,0,1,7.91-3.42V413q0-3.21-1-4.41a3.68,3.68,0,0,0-3-1.2,3.33,3.33,0,0,0-2.34.8,2.4,2.4,0,0,0-.89,1.83v1.36A2.34,2.34,0,0,1,309,413a1.89,1.89,0,0,1-1.44.59,1.82,1.82,0,0,1-1.42-.61,2.39,2.39,0,0,1-.55-1.66,4.8,4.8,0,0,1,2.06-3.7,8.91,8.91,0,0,1,5.79-1.69,10,10,0,0,1,4.69,1,4.42,4.42,0,0,1,2,2.27,12.81,12.81,0,0,1,.42,4.13v7.29a33.38,33.38,0,0,0,.12,3.76,1.58,1.58,0,0,0,.39.93.92.92,0,0,0,.62.23,1.28,1.28,0,0,0,.66-.16,14.64,14.64,0,0,0,1.9-1.71V425q-2.62,3.52-5,3.52a2.28,2.28,0,0,1-1.83-.8A4.3,4.3,0,0,1,316.71,424.91Zm0-1.52V415.2a46.27,46.27,0,0,0-4.57,2,7.89,7.89,0,0,0-2.65,2.16,4.17,4.17,0,0,0-.8,2.46,4,4,0,0,0,1,2.8,3,3,0,0,0,2.32,1.11q1.8,0,4.7-2.35Z" style="fill:#f2f2f2"/><path d="M326.3,415.46h12.12V419H326.3Z" style="fill:#f2f2f2"/><path d="M360.5,421.41l-.26,6.59H341.3v-.84l14.25-19h-7a9.45,9.45,0,0,0-3,.29,2.35,2.35,0,0,0-1.15,1.11,6.86,6.86,0,0,0-.73,2.91h-.94l.14-6h18v.87l-14.39,19h7.83a9,9,0,0,0,3.34-.41,3.09,3.09,0,0,0,1.42-1.44,11.13,11.13,0,0,0,.63-3.16Z" style="fill:#f2f2f2"/><path d="M369.45,394.67v15.7a18.06,18.06,0,0,1,4.13-3.67,6.45,6.45,0,0,1,3-.81,5,5,0,0,1,3.14,1,6,6,0,0,1,2,3.16,22.41,22.41,0,0,1,.45,5.48v7.59a7.94,7.94,0,0,0,.33,2.79,1.83,1.83,0,0,0,.8.89,4.49,4.49,0,0,0,2.06.33V428H374.79v-.84h.49a3.51,3.51,0,0,0,2.09-.46,2.42,2.42,0,0,0,.82-1.35,18.59,18.59,0,0,0,.07-2.2v-7.59a18.24,18.24,0,0,0-.36-4.62,3.11,3.11,0,0,0-1.16-1.65,3.3,3.3,0,0,0-1.92-.55,5.42,5.42,0,0,0-2.39.61,11.4,11.4,0,0,0-3,2.46v11.34a8.83,8.83,0,0,0,.25,2.74,2,2,0,0,0,.91.9,5.22,5.22,0,0,0,2.31.36V428H362.28v-.84a4.75,4.75,0,0,0,2.25-.45,1.67,1.67,0,0,0,.75-.89,8.09,8.09,0,0,0,.28-2.67V403.72a32.4,32.4,0,0,0-.18-4.52,2,2,0,0,0-.54-1.15,1.46,1.46,0,0,0-1-.3,5.72,5.72,0,0,0-1.59.38l-.33-.82,6.42-2.62Z" style="fill:#f2f2f2"/></g><line x1="383.67" y1="367.67" x2="125.67" y2="367.67" style="fill:none;stroke:#f2f2f2;stroke-miterlimit:10;stroke-width:3px"/></svg>