<?xml version="1.0" encoding="UTF-8"?>
<svg width="512px" height="512px" viewBox="0 0 512 512" version="1.1" xmlns="http://www.w3.org/2000/svg" xmlns:xlink="http://www.w3.org/1999/xlink">
    <!-- Generator: Sketch 55.2 (78181) - https://sketchapp.com -->
    <title>Q&amp;A</title>
    <desc>Created with Sketch.</desc>
    <g id="Q&amp;A" stroke="none" stroke-width="1" fill="none" fill-rule="evenodd">
        <g id="Wikipedia_zh_Q&amp;A_logo">
            <circle id="Oval" fill="#CCCCCC" fill-rule="nonzero" cx="256" cy="256" r="256"></circle>
            <circle id="Oval" fill="#FFFFFF" fill-rule="nonzero" cx="256" cy="256" r="245.1"></circle>
            <path d="M500.711813,269.911813 C495.130886,369.652345 429.913635,453.466536 340.137127,486.27732 L106.062334,252.202527 L326.3,95.5 L500.711813,269.911813 Z" id="Combined-Shape" fill-opacity="0.1" fill="#000000" fill-rule="nonzero"></path>
            <path d="M123.702739,241.272164 C129.029157,240.12321 134.482956,239.384435 140.061768,239.056049 L141.234334,238.987029 L142.314981,239.447331 C145.797673,240.930786 149.491911,241.916746 153.318396,242.367697 L291.318396,258.631005 C292.872211,258.814122 294.435432,258.905918 296,258.905918 C318.09139,258.905918 336,240.997308 336,218.905918 L336,126.721375 C336,125.334342 335.927855,123.948248 335.783858,122.568711 C333.490405,100.596692 313.819354,84.6440634 291.847336,86.9375164 L153.847336,101.342043 C133.474322,103.468591 118,120.642203 118,141.125901 L118,202.64261 C118,212.058825 121.277715,221.007183 127.177239,228.137076 L128.650016,229.917005 L128.249128,232.1922 C127.776426,234.874973 126.266279,237.867479 123.702743,241.272163 L123.702739,241.272164 Z" id="Combined-Shape" stroke="#CC5656" stroke-width="10" fill="#FFFFFF" fill-rule="nonzero"></path>
            <path d="M275.594833,313.276284 C267.835042,314.211673 260.636764,316.778359 254,320.976342 C260.320307,312.815938 264.19686,306.827733 265.62966,303.011727 C264.439386,300.372162 263.780438,297.449755 263.780438,294.387792 L263.780438,239.413826 C263.780438,228.647004 271.923356,219.624437 282.633777,218.523832 L391.633777,207.322967 C403.171002,206.137399 413.484864,214.529075 414.670432,226.0663 C414.743721,226.779507 414.780438,227.495998 414.780438,228.212961 L414.780438,307.034034 C414.780438,318.632013 405.378417,328.034034 393.780438,328.034034 C392.971684,328.034034 392.163605,327.987313 391.36024,327.894106 L282.36024,315.247865 C279.949068,314.96812 277.672739,314.287131 275.594833,313.276284 Z" id="Combined-Shape" fill="#CC5656" fill-rule="nonzero" transform="translate(334.390219, 267.622678) scale(-1, 1) translate(-334.390219, -267.622678) "></path>
            <path d="M228.194604,185.248802 C228.098665,185.468742 228.001733,185.690887 227.903807,185.915239 L226.203293,189.788886 C226.088614,190.050766 225.973936,190.312647 225.855981,190.574527 C225.528329,191.360168 225.161359,192.153084 224.810771,192.945999 C224.414312,193.851669 224.0113,194.764613 223.611565,195.659371 L223.411697,196.10675 L222.785882,197.517994 C220.996901,201.518944 219.296387,205.294386 217.959567,208.149609 L217.67451,208.757026 C217.379623,209.378992 217.104395,209.953674 216.855379,210.47016 C215.374392,213.32902 214.044125,214.343807 212.858024,213.900065 C212.176508,213.652734 211.547416,212.925288 210.957642,211.790473 C210.757826,211.405378 210.577342,211.008315 210.417017,210.6011 C210.089365,209.713617 209.719118,208.782486 209.339041,207.825896 C209.247299,207.585839 209.149003,207.342144 209.053984,207.09845 L208.601824,205.959998 C208.13219,204.837307 207.657094,203.669757 207.176538,202.457348 C207.068413,202.191831 206.960287,201.922676 206.848886,201.653521 C206.516865,200.843632 206.179383,200.020406 205.836441,199.183844 C205.308921,197.90354 204.765019,196.590501 204.198181,195.259276 C204.06712,194.946474 203.932782,194.630035 203.801722,194.30996 L203.300414,193.109675 L202.615621,191.47656 C201.603176,189.068715 200.567796,186.60995 199.525862,184.140272 L198.847623,182.532618 L197.982621,180.481222 C197.722684,179.870168 197.466023,179.263963 197.212639,178.662608 C194.964946,173.326796 192.756571,168.067365 190.797212,163.262588 C190.672704,162.964336 190.554749,162.666083 190.433518,162.371468 C190.063271,161.458524 189.699577,160.552854 189.34899,159.687194 L188.73628,158.152284 C188.730006,158.133426 188.722335,158.115177 188.713345,158.097726 L188.149783,156.642835 C187.602604,155.253414 187.091467,153.929463 186.626201,152.685532 C185.571161,149.88123 184.774967,148.080802 184.004985,147.367906 C183.235002,146.655009 181.678655,146.240365 179.293348,146.098513 C179.122969,146.07669 178.965696,146.054867 178.831359,146.022132 L178.664256,145.982122 L178.470941,145.916652 C178.361052,145.875718 178.257253,145.816879 178.162948,145.742065 C178.141879,145.724503 178.122153,145.705038 178.103971,145.68387 C178.070955,145.650472 178.043261,145.611121 178.022058,145.567478 L178.002399,145.520194 C178.002399,145.520194 178.002399,145.520194 178.002399,145.494734 C178,145.476588 178,145.458321 178.002399,145.440175 C178,145.417276 178,145.393967 178.002399,145.371068 L178.002399,143.250565 L178.215373,143.043243 C182.101326,143.017782 200.918384,143.043243 200.918384,143.043243 L201.131357,143.250565 L201.131357,145.269226 C201.131357,145.829359 200.803705,146.098513 200.184443,146.098513 L197.815519,146.20763 C195.784076,146.302198 194.768354,146.975085 194.768354,148.226291 C194.768354,148.808248 194.981328,149.757564 195.453147,151.026956 C200.000958,163.331696 215.711874,200.100425 215.711874,200.100425 L216.285265,200.267738 L225.751995,179.30434 L225.701478,179.179139 L225.579907,178.884052 L225.349908,178.315736 L225.188908,177.929573 C225.044337,177.565267 224.903052,177.230107 224.771624,176.902232 L224.646767,176.599859 L224.403625,175.951396 L224.268912,175.619878 C224.117769,175.255573 223.97977,174.916769 223.858199,174.614396 L223.733342,174.304737 L223.6282,174.053366 L223.5362,173.827497 C223.521287,173.782551 223.503725,173.73874 223.483629,173.696347 L223.434343,173.576127 L223.348915,173.36483 C223.348915,173.332042 223.325915,173.302898 223.312772,173.273753 L223.25363,173.124388 C223.242468,173.103283 223.232589,173.081376 223.224058,173.058813 L223.204344,173.011454 C223.206145,172.99817 223.206145,172.984663 223.204344,172.97138 L223.204344,172.942236 L223.204344,172.920377 L219.642643,165.160679 L216.186084,157.736141 C216.186084,157.736141 214.838946,154.694194 214.378948,153.685068 L214.329662,153.575777 L214.053663,152.97103 L213.797379,152.402715 L213.642951,152.067554 C213.573951,151.910903 213.504951,151.761538 213.439237,151.615815 C213.403094,151.532025 213.363666,151.451878 213.327523,151.371731 C213.29138,151.291584 213.255238,151.211437 213.219095,151.13129 L213.113953,150.901778 C213.081096,150.825273 213.048239,150.752412 213.012096,150.679551 L212.913525,150.464611 C212.814954,150.253314 212.722954,150.052947 212.630954,149.863508 C212.581669,149.754216 212.529098,149.648568 212.479812,149.54292 C212.470942,149.529168 212.463242,149.514533 212.456812,149.499203 L212.371384,149.32798 C212.233384,149.043822 212.101956,148.788808 211.973814,148.559296 C211.9311,148.475506 211.8851,148.399002 211.842386,148.322497 C211.714243,148.100271 211.589387,147.903547 211.467816,147.72868 L211.39553,147.630318 C211.342828,147.553503 211.28576,147.480494 211.224674,147.411735 C211.19875,147.376336 211.170172,147.343431 211.139246,147.313372 C211.109674,147.280585 211.083389,147.247797 211.053817,147.218653 L210.988103,147.149435 L210.958532,147.120291 L210.909246,147.072931 C210.856675,147.025571 210.804104,146.978212 210.751533,146.938138 L210.643105,146.854348 L210.560962,146.799702 C210.501413,146.759694 210.439993,146.723213 210.376963,146.690411 L210.344106,146.672195 C210.291994,146.641794 210.238223,146.615027 210.183106,146.592048 L210.150249,146.592048 C210.081249,146.562904 210.008964,146.533759 209.933393,146.508258 L209.775679,146.453612 L209.634394,146.413539 L209.525966,146.384394 L209.309109,146.333392 L209.075825,146.286032 L209.010111,146.286032 L208.934539,146.286032 L208.77354,146.256888 L208.605969,146.231386 L208.277399,146.180383 L208.040828,146.143953 L207.830543,146.107522 L207.807543,146.107522 L207.639973,146.067449 L207.478973,146.023732 C207.414795,146.003843 207.352164,145.978259 207.291688,145.947228 C207.268934,145.938527 207.246939,145.927553 207.225974,145.914441 L207.170117,145.874367 L207.124117,145.834294 C207.1143,145.830368 207.106118,145.822592 207.101118,145.812435 C207.087475,145.800972 207.075314,145.787488 207.064975,145.772362 L207.035403,145.728645 C207.022494,145.705505 207.011497,145.681119 207.002546,145.655784 C207.00068,145.635192 207.00068,145.614444 207.002546,145.593852 C206.999151,145.57706 206.999151,145.559642 207.002546,145.54285 C207.000778,145.514954 207.000778,145.486955 207.002546,145.459059 L207.002546,143.327875 L207.262117,143.120221 C212.847811,143.120221 225.333479,143.120221 225.333479,143.120221 L225.809906,143.29873 L225.809906,145.349768 C225.809906,145.834294 225.481336,146.078378 224.860338,146.078378 L223.546057,146.286032 C220.234069,146.573833 220.77621,148.07477 222.974345,152.930957 L229.627892,168.118836 L230.215492,169.448441 L230.833016,168.085552 L237.02564,154.376842 L238.22157,151.728941 C238.326419,151.477972 238.418161,151.241553 238.500074,151.023319 C238.543761,150.911777 238.583079,150.802661 238.618029,150.695969 C238.657347,150.594126 238.693389,150.495921 238.722878,150.401353 C238.752366,150.306785 238.772025,150.255864 238.794961,150.186757 C238.817897,150.117649 238.860491,149.97216 238.88998,149.870318 C238.919469,149.768476 238.922745,149.750289 238.935851,149.692094 C238.948957,149.633898 238.988276,149.499321 239.007935,149.40839 C239.027594,149.317459 239.03087,149.291999 239.0407,149.23744 C239.05053,149.182882 239.0407,149.150147 239.063636,149.110138 C239.063636,149.001021 239.093124,148.899178 239.102954,148.800973 L239.102954,148.680945 C239.102954,148.626386 239.102954,148.571828 239.102954,148.520907 C239.106398,148.454279 239.106398,148.387487 239.102954,148.320859 C239.102954,148.28085 239.102954,148.24084 239.102954,148.200831 C239.104522,148.168119 239.104522,148.135337 239.102954,148.102626 C239.085089,148.005014 239.05762,147.909875 239.021041,147.818922 C239.001382,147.768001 238.981723,147.724354 238.958787,147.67707 C238.945979,147.64645 238.930622,147.617225 238.912916,147.589777 L238.886704,147.542493 L238.886704,147.513395 C238.867827,147.480402 238.847032,147.448813 238.82445,147.418827 C238.798238,147.37518 238.768749,147.335171 238.73926,147.295161 C238.444373,146.909615 237.461417,146.280375 235.325126,146.203993 L234.437189,146.080327 C234.218035,146.075366 234.006339,145.991072 233.834309,145.84027 C233.652004,145.709894 233.543044,145.484478 233.545975,145.243765 L233.545975,143.225104 L233.808097,143.017782 C239.05053,142.977773 250.78375,143.017782 250.78375,143.017782 L251,143.236016 L251,145.254677 C251,145.81481 250.718219,146.091239 250.161211,146.091239 C247.425316,146.233091 246.865031,146.534981 245.862416,148.135361 C245.315237,149.004658 244.224156,150.881467 243.119968,152.991059 L233.516486,172.926701 L233.516486,172.948524 C233.506546,172.96848 233.49779,172.989135 233.490274,173.010357 C233.490274,173.035818 233.464062,173.068553 233.447679,173.108562 C233.431297,173.148572 233.447679,173.148572 233.421467,173.170395 C233.421467,173.192219 233.398532,173.217679 233.388702,173.24314 C233.374739,173.269938 233.362688,173.297909 233.35266,173.326796 C233.326448,173.384992 233.29696,173.446824 233.267471,173.519569 L233.267471,173.548667 C233.2216,173.654146 233.172452,173.770538 233.113474,173.91239 C233.054497,174.054241 233.044667,174.076065 233.005349,174.166995 L232.795652,174.650747 L232.657353,174.977394 L243.812268,200.283333 L244.525266,200.498273 L261.413775,156.053052 L262.800342,152.410001 L263.063198,151.721464 C263.720338,149.754216 263.608624,148.362571 262.780627,147.542885 C261.95263,146.723198 261.36449,146.267817 259.21564,146.169454 L257.477504,146.078378 C257.253975,146.073856 257.038472,145.985216 256.866363,145.827008 C256.685532,145.697811 256.576543,145.475351 256.577222,145.236833 L256.577222,143.207654 L256.840078,143 L277.783144,143 L278,143.218583 L278,145.247762 C278,145.797863 277.71743,146.074735 277.15886,146.074735 C274.415299,146.209528 272.381449,146.872563 271.063883,148.049269 C269.65666,149.365262 268.59066,151.072784 267.975323,152.996532 C267.975323,152.996532 250.925814,196.257762 245.093692,210.640527 C242.859415,215.354635 240.664566,214.921112 238.732573,210.505734 C237.628577,207.9811 235.979154,204.068463 234.162161,199.704088 C234.066876,199.470933 233.968305,199.237778 233.869733,199.004622 L231.688027,193.733128 L231.030887,192.1484 C230.057661,189.787556 229.095433,187.443784 228.194604,185.248802 Z" id="Combined-Shape" fill="#CC5656" fill-rule="nonzero"></path>
            <g id="Group" transform="translate(120.000000, 372.000000)" fill="#777777" fill-rule="nonzero">
                <path d="M51.29,24.22 L51.29,25.09 C50.595562,25.0637195 49.9062578,25.218813 49.29,25.54 C48.6620648,25.956786 48.152299,26.5285504 47.81,27.2 C47.216903,28.4633563 46.7221031,29.7705642 46.33,31.11 L37.47,56.73 L36.53,56.73 L29.29,36.41 L22.09,56.73 L21.25,56.73 L11.8,30.34 C11.1,28.34 10.6533333,27.1766667 10.46,26.85 C10.1776842,26.289937 9.73111338,25.8294108 9.18,25.53 C8.49560649,25.2113924 7.74405357,25.0638272 6.99,25.1 L6.99,24.23 L18.76,24.23 L18.76,25.1 L18.2,25.1 C17.5199841,25.0525954 16.8456028,25.2513604 16.3,25.66 C15.8830974,25.9881462 15.6398196,26.4894459 15.64,27.02 C15.8201889,28.3123736 16.1559583,29.578224 16.64,30.79 L22.9,48.63 L28.17,33.47 L27.23,30.8 L26.48,28.67 C26.1835622,27.9480792 25.8150285,27.2579161 25.38,26.61 C25.1791324,26.3152724 24.9247276,26.0608676 24.63,25.86 C24.2744859,25.5964351 23.8796376,25.390574 23.46,25.25 C22.998848,25.1376935 22.5242324,25.0905686 22.05,25.11 L22.05,24.24 L34.43,24.24 L34.43,25.11 L33.59,25.11 C32.9025931,25.0510433 32.2179264,25.2507377 31.67,25.67 C31.2590186,26.0663649 31.0370415,26.6194881 31.06,27.19 C31.2079086,28.6232149 31.5615416,30.027643 32.11,31.36 L38.2,48.63 L44.2,31.12 C44.7193422,29.8401846 45.055977,28.4936452 45.2,27.12 C45.1971227,26.7587823 45.0778947,26.4081118 44.86,26.12 C44.647967,25.8168523 44.3476781,25.586398 44,25.46 C43.2514528,25.2171666 42.4665697,25.1055237 41.68,25.13 L41.68,24.26 L51.29,24.22 Z" id="Path"></path>
                <path d="M58.64,33.9 L58.64,51.15 C58.5824153,52.0533503 58.6805097,52.9598779 58.93,53.83 C59.1019125,54.2500768 59.4077513,54.6016157 59.8,54.83 C60.4650308,55.1010275 61.1838947,55.2139918 61.9,55.16 L61.9,56 L51.47,56 L51.47,55.16 C52.186877,55.2176801 52.9076092,55.1152063 53.58,54.86 C53.9670879,54.6282288 54.2687832,54.2774204 54.44,53.86 C54.7085262,52.9866426 54.8169365,52.0719307 54.76,51.16 L54.76,42.89 C54.8067779,41.3801714 54.736568,39.8689873 54.55,38.37 C54.4855423,37.9904777 54.3036736,37.6407301 54.03,37.37 C53.743635,37.1537206 53.3876458,37.0504837 53.03,37.08 C52.4836485,37.1030801 51.9455426,37.2215311 51.44,37.43 L51.11,36.59 L57.58,33.97 L58.64,33.9 Z M56.69,22.6699787 C57.3193786,22.6673274 57.9237514,22.9161648 58.3687933,23.3612067 C58.8138352,23.8062486 59.0626726,24.4106214 59.06,25.04 C59.070596,25.6739524 58.8212701,26.2846201 58.37,26.73 C57.932854,27.1884733 57.3233561,27.4424307 56.69,27.43 C55.3755623,27.43 54.31,26.3644377 54.31,25.05 C54.31,23.7355623 55.3755623,22.6699787 56.69,22.6699787 Z" id="Shape"></path>
                <path d="M70.93,22.67 L70.93,44 L76.39,39 C77.1072923,38.3859578 77.7759578,37.7172923 78.39,37 C78.5083403,36.8367563 78.5745701,36.6415526 78.58,36.44 C78.5855337,36.1234904 78.4408782,35.823052 78.19,35.63 C77.8172725,35.3639077 77.367778,35.2269524 76.91,35.24 L76.91,34.49 L86.24,34.49 L86.24,35.24 C85.145994,35.2367333 84.0609068,35.4367962 83.04,35.83 C82.0071633,36.3111958 81.0610549,36.9599558 80.24,37.75 L74.73,42.84 L80.24,49.84 C81.7733333,51.76 82.8033333,52.98 83.33,53.5 C83.8973093,54.1022154 84.5766677,54.5879567 85.33,54.93 C85.9794358,55.1163624 86.6552137,55.1940768 87.33,55.16 L87.33,56 L76.93,56 L76.93,55.16 C77.350964,55.1890008 77.7712973,55.0952074 78.14,54.89 C78.3519744,54.7252829 78.4711941,54.4682155 78.46,54.2 C78.3130128,53.5473764 77.9875746,52.9484316 77.52,52.47 L70.93,44 L70.93,51.13 C70.8694772,52.0531927 70.9675626,52.9799308 71.22,53.87 C71.3795187,54.2699619 71.6728667,54.6021873 72.05,54.81 C72.8040445,55.0569255 73.5980521,55.1587213 74.39,55.11 L74.39,56 L63.47,56 L63.47,55.16 C64.3091957,55.2046029 65.1481681,55.0681847 65.93,54.76 C66.2619712,54.584109 66.5258699,54.302617 66.68,53.96 C66.9656796,53.1004203 67.0844765,52.1941694 67.03,51.29 L67.03,31.74 C67.075907,30.2181379 67.0224601,28.6949019 66.87,27.18 C66.8197738,26.7481644 66.6302055,26.344454 66.33,26.03 C66.0474244,25.8038692 65.6913603,25.6899286 65.33,25.71 C64.817169,25.7563068 64.3163374,25.8916666 63.85,26.11 L63.45,25.29 L69.83,22.67 L70.93,22.67 Z" id="Path"></path>
                <path d="M96,33.9 L96,51.15 C95.9424153,52.0533503 96.0405097,52.9598779 96.29,53.83 C96.4619125,54.2500768 96.7677513,54.6016157 97.16,54.83 C97.8250308,55.1010275 98.5438947,55.2139918 99.26,55.16 L99.26,56 L88.81,56 L88.81,55.16 C89.526877,55.2176801 90.2476092,55.1152063 90.92,54.86 C91.3070879,54.6282288 91.6087832,54.2774204 91.78,53.86 C92.0485262,52.9866426 92.1569365,52.0719307 92.1,51.16 L92.1,42.89 C92.1467779,41.3801714 92.076568,39.8689873 91.89,38.37 C91.8255423,37.9904777 91.6436736,37.6407301 91.37,37.37 C91.083635,37.1537206 90.7276458,37.0504837 90.37,37.08 C89.8236485,37.1030801 89.2855426,37.2215311 88.78,37.43 L88.45,36.59 L94.92,33.97 L96,33.9 Z M94,22.67 C94.6276445,22.6593108 95.2336862,22.8991157 95.6840819,23.3363748 C96.1344776,23.773634 96.3921113,24.3723141 96.4,25 C96.410596,25.6339524 96.1612701,26.2446201 95.71,26.69 C95.272854,27.1484733 94.6633561,27.4024307 94.03,27.39 C92.7155623,27.39 91.65,26.3244377 91.65,25.01 C91.65,23.6955623 92.7155623,22.63 94.03,22.63 L94,22.67 Z" id="Shape"></path>
                <path d="M100.36,36.66 L107,34 L107.89,34 L107.89,39 C108.701464,37.4411499 109.840916,36.0765373 111.23,35 C112.262168,34.2674894 113.494358,33.8695584 114.76,33.86 C116.850345,33.8285975 118.83862,34.7618694 120.15,36.39 C121.985339,38.6643359 122.927615,41.5302761 122.8,44.45 C122.923439,47.8044839 121.785262,51.0834331 119.61,53.64 C117.971197,55.5848215 115.542794,56.6869715 113,56.64 C111.978314,56.6634302 110.961135,56.4972909 110,56.15 C109.216633,55.8124824 108.501551,55.3346312 107.89,54.74 L107.89,61.28 C107.827695,62.2217975 107.918884,63.1674609 108.16,64.08 C108.355132,64.4950842 108.687004,64.8304871 109.1,65.03 C109.875436,65.3199394 110.70426,65.4393174 111.53,65.38 L111.53,66.25 L100.25,66.25 L100.25,65.38 L100.84,65.38 C101.604026,65.4171456 102.363959,65.2478878 103.04,64.89 C103.354541,64.6961924 103.596907,64.4046506 103.73,64.06 C103.956282,63.1042259 104.040519,62.120329 103.98,61.14 L103.98,40.84 C104.023966,39.9522345 103.960167,39.0624126 103.79,38.19 C103.688988,37.8510625 103.477856,37.5554774 103.19,37.35 C102.856587,37.14714 102.469741,37.0495572 102.08,37.07 C101.587775,37.0960428 101.103861,37.2077152 100.65,37.4 L100.36,36.66 Z M107.86,40.39 L107.86,48.39 C107.815925,49.5341489 107.886274,50.6798389 108.07,51.81 C108.32173,52.7654582 108.889121,53.6077339 109.68,54.2 C110.60518,54.8960913 111.74326,55.2495321 112.9,55.2 C114.38745,55.2375063 115.801922,54.5563261 116.7,53.37 C118.078573,51.4072169 118.748594,49.0339297 118.6,46.64 C118.6,43.36 117.88,40.8366667 116.44,39.07 C115.605928,37.93553 114.287968,37.2580389 112.88,37.24 C112.102526,37.2452254 111.337702,37.4372887 110.65,37.8 C109.59858,38.5225414 108.658612,39.3951284 107.86,40.39 Z" id="Shape"></path>
                <path d="M129.52,42.62 C129.344526,45.3202574 130.170506,47.9904527 131.84,50.12 C133.166994,51.8179827 135.195093,52.8191492 137.35,52.84 C138.667526,52.8668524 139.957248,52.4592019 141.02,51.68 C142.251891,50.6213041 143.157134,49.2339596 143.63,47.68 L144.36,48.15 C144.008245,50.3405837 143.012675,52.3769768 141.5,54 C140.014018,55.7177064 137.840818,56.6852018 135.57,56.64 C133.030168,56.6591809 130.609957,55.5624086 128.95,53.64 C127.029535,51.3919821 126.045174,48.4925918 126.2,45.54 C126.2,41.8666667 127.14,39.0033333 129.02,36.95 C130.817266,34.9332289 133.409336,33.807196 136.11,33.87 C138.332966,33.7966162 140.484568,34.6601597 142.04,36.25 C143.638309,37.9710379 144.47476,40.2640689 144.36,42.61 L129.52,42.62 Z M129.52,41.26 L139.46,41.26 C139.454486,40.269938 139.28902,39.2872722 138.97,38.35 C138.603513,37.5051996 137.994442,36.7882366 137.22,36.29 C136.501479,35.8062654 135.656165,35.545366 134.79,35.54 C133.472613,35.5476753 132.215526,36.0931351 131.31,37.05 C130.227491,38.1930822 129.592165,39.6873415 129.52,41.26 Z" id="Shape"></path>
                <path d="M162.38,53.59 C161.506607,54.55455 160.466685,55.3539689 159.31,55.95 C158.300457,56.4266449 157.19637,56.6693389 156.08,56.6602596 C153.697666,56.6431307 151.446804,55.5653562 149.94,53.72 C148.142542,51.6217201 147.206429,48.9205677 147.32,46.16 C147.315097,43.0967233 148.339975,40.1207037 150.23,37.71 C151.937664,35.2762023 154.737105,33.8427984 157.71,33.88 C159.452541,33.820378 161.14479,34.4698553 162.4,35.68 L162.4,31.68 C162.44538,30.1709798 162.385233,28.660633 162.22,27.16 C162.167008,26.7269376 161.97386,26.323082 161.67,26.01 C161.401774,25.80242 161.068886,25.696179 160.73,25.71 C160.172398,25.7441555 159.624629,25.8726445 159.11,26.09 L158.81,25.27 L165.21,22.65 L166.26,22.65 L166.26,47.47 C166.213062,49.0089813 166.273207,50.5493639 166.44,52.08 C166.493635,52.5178424 166.690518,52.9256699 167,53.24 C167.24953,53.4563928 167.569732,53.5738002 167.9,53.57 C168.482059,53.534268 169.053678,53.3989735 169.59,53.17 L169.85,53.99 L163.48,56.64 L162.4,56.64 L162.38,53.59 Z M162.38,51.95 L162.38,40.88 C162.301371,39.8628671 162.015512,38.8725686 161.54,37.97 C161.123461,37.1395653 160.478077,36.445604 159.68,35.97 C158.999187,35.5507049 158.219333,35.3195094 157.42,35.3 C155.977644,35.3322885 154.626308,36.0116285 153.74,37.15 C152.32,38.7766667 151.61,41.1533333 151.61,44.28 C151.61,47.4066667 152.296667,49.8233333 153.67,51.53 C154.724095,53.0389405 156.421056,53.9706053 158.26,54.05 C159.868022,53.9623089 161.364249,53.1996689 162.38,51.95 Z" id="Shape"></path>
                <path d="M178.62,33.9 L178.62,51.15 C178.562415,52.0533503 178.66051,52.9598779 178.91,53.83 C179.081913,54.2500768 179.387751,54.6016157 179.78,54.83 C180.445031,55.1010275 181.163895,55.2139918 181.88,55.16 L181.88,56 L171.45,56 L171.45,55.16 C172.166877,55.2176801 172.887609,55.1152063 173.56,54.86 C173.947088,54.6282288 174.248783,54.2774204 174.42,53.86 C174.688526,52.9866426 174.796937,52.0719307 174.74,51.16 L174.74,42.89 C174.786778,41.3801714 174.716568,39.8689873 174.53,38.37 C174.465542,37.9904777 174.283674,37.6407301 174.01,37.37 C173.723635,37.1537206 173.367646,37.0504837 173.01,37.08 C172.463649,37.1030801 171.925543,37.2215311 171.42,37.43 L171.09,36.59 L177.56,33.97 L178.62,33.9 Z M176.67,22.67 C177.950065,22.6861712 178.983829,23.7199347 179,25 C179.010596,25.6339524 178.76127,26.2446201 178.31,26.69 C177.872854,27.1484733 177.263356,27.4024307 176.63,27.39 C175.315562,27.39 174.25,26.3244377 174.25,25.01 C174.25,23.6955623 175.315562,22.63 176.63,22.63 L176.67,22.67 Z" id="Shape"></path>
                <path d="M196.71,52.91 C195.400946,54.0089284 194.013981,55.0115538 192.56,55.91 C191.714337,56.302823 190.792436,56.5042754 189.86,56.5 C188.475289,56.5431107 187.138731,55.9895498 186.19,54.98 C185.201933,53.8883493 184.684468,52.4509466 184.75,50.98 C184.724158,50.0256875 184.966689,49.0832804 185.45,48.26 C186.301943,47.0025154 187.448614,45.9725711 188.79,45.26 C191.327499,43.9031069 193.973249,42.7591797 196.7,41.84 L196.7,41 C196.7,38.86 196.366667,37.39 195.7,36.59 C194.938466,35.7489061 193.831521,35.3061281 192.7,35.39 C191.846228,35.346416 191.008395,35.6328545 190.36,36.19 C189.806609,36.6378156 189.480578,37.3081937 189.47,38.02 L189.47,39.38 C189.520181,39.9596521 189.352618,40.5372092 189,41 C188.626991,41.3943208 188.102452,41.609236 187.56,41.59 C187.019551,41.6077106 186.499212,41.3841846 186.14,40.98 C185.753546,40.5160152 185.557047,39.9229449 185.59,39.32 C185.666092,37.8340488 186.426986,36.4673949 187.65,35.62 C189.324838,34.4006781 191.372219,33.8030834 193.44,33.93 C195.061301,33.8780091 196.670913,34.2212099 198.13,34.93 C199.042933,35.4278479 199.75111,36.2316294 200.13,37.2 C200.493619,38.5446744 200.635481,39.9396544 200.55,41.33 L200.55,48.62 C200.519287,49.8745926 200.559351,51.129919 200.67,52.38 C200.694922,52.7242787 200.831902,53.0509239 201.06,53.31 C201.231018,53.460859 201.45197,53.5428251 201.68,53.54 C201.910393,53.5470657 202.138419,53.4917867 202.34,53.38 C203.021979,52.8664869 203.657735,52.2943065 204.24,51.67 L204.24,52.98 C202.493333,55.3266667 200.826667,56.5 199.24,56.5 C198.53944,56.528904 197.86454,56.233866 197.41,55.7 C196.863301,54.8779337 196.616131,53.8927822 196.71,52.91 Z M196.71,51.39 L196.71,43.2 C195.151819,43.7840228 193.62627,44.4516591 192.14,45.2 C191.109418,45.7176698 190.204852,46.4549763 189.49,47.36 C188.969306,48.0744651 188.689155,48.9359289 188.69,49.82 C188.651193,50.8471509 189.009289,51.84982 189.69,52.62 C190.261898,53.3139021 191.110851,53.7200823 192.01,53.73 C193.21,53.73 194.776667,52.9466667 196.71,51.38 L196.71,51.39 Z" id="Shape"></path>
                <polygon id="Path" points="206.3 43.46 218.42 43.46 218.42 47 206.3 47"></polygon>
                <path d="M240.5,49.41 L240.24,56 L221.3,56 L221.3,55.16 L235.55,36.16 L228.55,36.16 C227.540925,36.0955471 226.528045,36.1934588 225.55,36.45 C225.048751,36.674273 224.64187,37.0670017 224.4,37.56 C223.944938,38.4642568 223.695644,39.4580197 223.67,40.47 L222.73,40.47 L222.87,34.47 L240.87,34.47 L240.87,35.34 L226.48,54.34 L234.31,54.34 C235.439209,54.4145357 236.572345,54.2754381 237.65,53.93 C238.271458,53.6228697 238.771591,53.1156925 239.07,52.49 C239.432168,51.4728019 239.644391,50.408316 239.7,49.33 L240.5,49.41 Z" id="Path"></path>
                <path d="M249.45,22.67 L249.45,38.37 C250.630286,36.9420822 252.02325,35.7042675 253.58,34.7 C254.499046,34.1895493 255.528932,33.9114799 256.58,33.89 C257.709597,33.8589286 258.816408,34.2114163 259.72,34.89 C260.687787,35.710641 261.370491,36.8169722 261.67,38.05 C262.044373,39.8512701 262.195511,41.6917868 262.12,43.53 L262.12,51.12 C262.063284,52.0622223 262.175033,53.007009 262.45,53.91 C262.609389,54.2879387 262.891127,54.6013723 263.25,54.8 C263.901232,55.0702158 264.606948,55.1832673 265.31,55.13 L265.31,56 L254.79,56 L254.79,55.16 L255.28,55.16 C256.007565,55.227959 256.7382,55.0671493 257.37,54.7 C257.78663,54.354378 258.07535,53.8790469 258.19,53.35 C258.256765,52.6186929 258.28014,51.8840722 258.26,51.15 L258.26,43.56 C258.336908,42.0109577 258.215932,40.4584315 257.9,38.94 C257.70737,38.2764066 257.29923,37.6958621 256.74,37.29 C256.172174,36.9127484 255.501447,36.7206131 254.82,36.74 C253.987039,36.7569418 253.169195,36.9656801 252.43,37.35 C251.29679,37.9925674 250.282099,38.8246137 249.43,39.81 L249.43,51.15 C249.369652,52.0707856 249.45401,52.9953401 249.68,53.89 C249.876562,54.2815792 250.196273,54.5977767 250.59,54.79 C251.322879,55.0831044 252.112685,55.2061911 252.9,55.15 L252.9,56 L242.28,56 L242.28,55.16 C243.055505,55.1961253 243.828044,55.0416174 244.53,54.71 C244.878634,54.5128661 245.144811,54.1970033 245.28,53.82 C245.521384,52.9518056 245.616021,52.0493829 245.56,51.15 L245.56,31.72 C245.60538,30.2109798 245.545233,28.700633 245.38,27.2 C245.329774,26.7681644 245.140205,26.364454 244.84,26.05 C244.555037,25.8301628 244.198916,25.7233264 243.84,25.75 C243.29454,25.7998856 242.759072,25.9278589 242.25,26.13 L241.92,25.31 L248.34,22.69 L249.45,22.67 Z" id="Path"></path>
                <rect id="Rectangle" x="0.33" y="0" width="271.33" height="2"></rect>
            </g>
            <text id="?" fill="#FFFFFF" font-family="HiraKakuStd-W8, Hiragino Kaku Gothic Std" font-size="48" font-weight="600">
                <tspan x="317.276" y="286">?</tspan>
            </text>
        </g>
    </g>
</svg>