<?xml version="1.0" encoding="UTF-8"?>
<svg width="512px" height="512px" viewBox="0 0 512 512" version="1.1" xmlns="http://www.w3.org/2000/svg" xmlns:xlink="http://www.w3.org/1999/xlink">
    <!-- Generator: Sketch 53 (72520) - https://sketchapp.com -->
    <title>Wikipedia_zh_random 04@2x</title>
    <desc>Created with Sketch.</desc>
    <defs>
        <circle id="path-1" cx="245.711561" cy="245.366002" r="245.1"></circle>
        <linearGradient x1="50%" y1="100%" x2="50%" y2="3.061617e-15%" id="linearGradient-3">
            <stop stop-color="#000000" stop-opacity="0" offset="0%"></stop>
            <stop stop-color="#000000" stop-opacity="0.564084353" offset="100%"></stop>
        </linearGradient>
    </defs>
    <g id="Wikipedia_zh_random-04" stroke="none" stroke-width="1" fill="none" fill-rule="evenodd">
        <g id="Wikipedia_zh_logo">
            <circle id="Oval" fill="#CCCCCC" fill-rule="nonzero" cx="256" cy="256" r="256"></circle>
            <g id="Group-2" transform="translate(10.288439, 10.633998)">
                <mask id="mask-2" fill="white">
                    <use xlink:href="#path-1"></use>
                </mask>
                <use id="Oval" fill="#000000" fill-rule="nonzero" xlink:href="#path-1"></use>
                <g id="Group-5" mask="url(#mask-2)">
                    <g transform="translate(-31.288439, -94.633998)">
                        <circle id="Oval" stroke="none" fill-opacity="0.2" fill="#FFF5AF" fill-rule="evenodd" cx="277.5" cy="277.5" r="129.5"></circle>
                        <circle id="Oval" stroke="none" fill-opacity="0.2" fill="#FFF5AF" fill-rule="evenodd" cx="277.5" cy="277.5" r="159.5"></circle>
                        <circle id="Oval" stroke="none" fill-opacity="0.1" fill="#FFF5AF" fill-rule="evenodd" cx="277.5" cy="277.5" r="217.5"></circle>
                        <circle id="Oval" stroke="none" fill-opacity="0.05" fill="#FFF5AF" fill-rule="evenodd" cx="277.5" cy="277.5" r="277.5"></circle>
                        <path d="M290,414 L265.329543,414 C260.876712,425.671678 249.21332,434 235.526038,434 L42,434 M514,434 L319.892979,434 C306.164605,434 294.466199,425.671678 290,414 L290,414 L290,414" id="Shape" stroke="#A57A50" stroke-width="4" fill="none"></path>
                        <polygon id="Path-45" stroke="none" fill="url(#linearGradient-3)" fill-rule="evenodd" points="325.744455 360 522 556.255545 249 704.828047 74.717593 516.282407 231 360"></polygon>
                    </g>
                </g>
                <g id="Group-3" mask="url(#mask-2)" stroke="#7F4527" stroke-linecap="round" stroke-width="4">
                    <g transform="translate(217.000000, 230.000000)" id="Path-40">
                        <path d="M18.7115609,35.3660019 C18.7115609,26.4908046 12.7115609,14.8241379 0.711560937,0.366001876"></path>
                        <path d="M55.7115609,35.3660019 C55.7115609,26.4908046 49.7115609,14.8241379 37.7115609,0.366001876" transform="translate(46.711561, 17.866002) scale(-1, 1) translate(-46.711561, -17.866002) "></path>
                    </g>
                </g>
                <path d="M199.711541,266.300356 C170.478615,249.973202 150.711561,218.728023 150.711561,182.866002 C150.711561,130.122808 193.468367,87.3660019 246.211561,87.3660019 C298.954755,87.3660019 341.711561,130.122808 341.711561,182.866002 C341.711561,218.728023 321.944507,249.973202 292.711581,266.300356 L292.711561,319.366002 L199.711561,319.366002 L199.711561,266.300368 Z" id="Combined-Shape" stroke="#FFF4A8" stroke-width="7" fill-opacity="0.3" fill="#FFF5AF" mask="url(#mask-2)"></path>
                <polyline id="Path" stroke="#736D43" stroke-width="7" fill="#303030" mask="url(#mask-2)" points="292.711561 265.366002 292.711561 321.366002 199.711561 321.366002 199.711561 265.366002 199.711561 265.366002"></polyline>
            </g>
            <g id="Group" transform="translate(120.330000, 372.000000)" fill="#F2F2F2" fill-rule="nonzero">
                <path d="M50.96,24.22 L50.96,25.09 C50.265562,25.0637195 49.5762578,25.218813 48.96,25.54 C48.3320648,25.956786 47.822299,26.5285504 47.48,27.2 C46.886903,28.4633563 46.3921031,29.7705642 46,31.11 L37.14,56.73 L36.2,56.73 L28.96,36.41 L21.76,56.73 L20.92,56.73 L11.47,30.34 C10.77,28.34 10.3233333,27.1766667 10.13,26.85 C9.84768421,26.289937 9.40111338,25.8294108 8.85,25.53 C8.16560649,25.2113924 7.41405357,25.0638272 6.66,25.1 L6.66,24.23 L18.43,24.23 L18.43,25.1 L17.87,25.1 C17.1899841,25.0525954 16.5156028,25.2513604 15.97,25.66 C15.5530974,25.9881462 15.3098196,26.4894459 15.31,27.02 C15.4901889,28.3123736 15.8259583,29.578224 16.31,30.79 L22.57,48.63 L27.84,33.47 L26.9,30.8 L26.15,28.67 C25.8535622,27.9480792 25.4850285,27.2579161 25.05,26.61 C24.8491324,26.3152724 24.5947276,26.0608676 24.3,25.86 C23.9444859,25.5964351 23.5496376,25.390574 23.13,25.25 C22.668848,25.1376935 22.1942324,25.0905686 21.72,25.11 L21.72,24.24 L34.1,24.24 L34.1,25.11 L33.26,25.11 C32.5725931,25.0510433 31.8879264,25.2507377 31.34,25.67 C30.9290186,26.0663649 30.7070415,26.6194881 30.73,27.19 C30.8779086,28.6232149 31.2315416,30.027643 31.78,31.36 L37.87,48.63 L43.87,31.12 C44.3893422,29.8401846 44.725977,28.4936452 44.87,27.12 C44.8671227,26.7587823 44.7478947,26.4081118 44.53,26.12 C44.317967,25.8168523 44.0176781,25.586398 43.67,25.46 C42.9214528,25.2171666 42.1365697,25.1055237 41.35,25.13 L41.35,24.26 L50.96,24.22 Z" id="Path"></path>
                <path d="M58.31,33.9 L58.31,51.15 C58.2524153,52.0533503 58.3505097,52.9598779 58.6,53.83 C58.7719125,54.2500768 59.0777513,54.6016157 59.47,54.83 C60.1350308,55.1010275 60.8538947,55.2139918 61.57,55.16 L61.57,56 L51.14,56 L51.14,55.16 C51.856877,55.2176801 52.5776092,55.1152063 53.25,54.86 C53.6370879,54.6282288 53.9387832,54.2774204 54.11,53.86 C54.3785262,52.9866426 54.4869365,52.0719307 54.43,51.16 L54.43,42.89 C54.4767779,41.3801714 54.406568,39.8689873 54.22,38.37 C54.1555423,37.9904777 53.9736736,37.6407301 53.7,37.37 C53.413635,37.1537206 53.0576458,37.0504837 52.7,37.08 C52.1536485,37.1030801 51.6155426,37.2215311 51.11,37.43 L50.78,36.59 L57.25,33.97 L58.31,33.9 Z M56.36,22.67 C56.9893786,22.6673274 57.5937514,22.9161648 58.0387933,23.3612067 C58.4838352,23.8062486 58.7326726,24.4106214 58.73,25.04 C58.740596,25.6739524 58.4912701,26.2846201 58.04,26.73 C57.602854,27.1884733 56.9933561,27.4424307 56.36,27.43 C55.0455623,27.43 53.98,26.3644377 53.98,25.05 C53.98,23.7355623 55.0455623,22.67 56.36,22.67 L56.36,22.67 Z" id="Shape"></path>
                <path d="M70.6,22.67 L70.6,44 L76.06,39 C76.7772923,38.3859578 77.4459578,37.7172923 78.06,37 C78.1783403,36.8367563 78.2445701,36.6415526 78.25,36.44 C78.2555337,36.1234904 78.1108782,35.823052 77.86,35.63 C77.4872725,35.3639077 77.037778,35.2269524 76.58,35.24 L76.58,34.49 L85.91,34.49 L85.91,35.24 C84.815994,35.2367333 83.7309068,35.4367962 82.71,35.83 C81.6771633,36.3111958 80.7310549,36.9599558 79.91,37.75 L74.4,42.84 L79.91,49.84 C81.4433333,51.76 82.4733333,52.98 83,53.5 C83.5673093,54.1022154 84.2466677,54.5879567 85,54.93 C85.6494358,55.1163624 86.3252137,55.1940768 87,55.16 L87,56 L76.6,56 L76.6,55.16 C77.020964,55.1890008 77.4412973,55.0952074 77.81,54.89 C78.0219744,54.7252829 78.1411941,54.4682155 78.13,54.2 C77.9830128,53.5473764 77.6575746,52.9484316 77.19,52.47 L70.6,44 L70.6,51.13 C70.5394772,52.0531927 70.6375626,52.9799308 70.89,53.87 C71.0495187,54.2699619 71.3428667,54.6021873 71.72,54.81 C72.4740445,55.0569255 73.2680521,55.1587213 74.06,55.11 L74.06,56 L63.14,56 L63.14,55.16 C63.9791957,55.2046029 64.8181681,55.0681847 65.6,54.76 C65.9319712,54.584109 66.1958699,54.302617 66.35,53.96 C66.6356796,53.1004203 66.7544765,52.1941694 66.7,51.29 L66.7,31.74 C66.745907,30.2181379 66.6924601,28.6949019 66.54,27.18 C66.4897738,26.7481644 66.3002055,26.344454 66,26.03 C65.7174244,25.8038692 65.3613603,25.6899286 65,25.71 C64.487169,25.7563068 63.9863374,25.8916666 63.52,26.11 L63.12,25.29 L69.5,22.67 L70.6,22.67 Z" id="Path"></path>
                <path d="M95.67,33.9 L95.67,51.15 C95.6124153,52.0533503 95.7105097,52.9598779 95.96,53.83 C96.1319125,54.2500768 96.4377513,54.6016157 96.83,54.83 C97.4950308,55.1010275 98.2138947,55.2139918 98.93,55.16 L98.93,56 L88.48,56 L88.48,55.16 C89.196877,55.2176801 89.9176092,55.1152063 90.59,54.86 C90.9770879,54.6282288 91.2787832,54.2774204 91.45,53.86 C91.7185262,52.9866426 91.8269365,52.0719307 91.77,51.16 L91.77,42.89 C91.8167779,41.3801714 91.746568,39.8689873 91.56,38.37 C91.4955423,37.9904777 91.3136736,37.6407301 91.04,37.37 C90.753635,37.1537206 90.3976458,37.0504837 90.04,37.08 C89.4936485,37.1030801 88.9555426,37.2215311 88.45,37.43 L88.12,36.59 L94.59,33.97 L95.67,33.9 Z M93.67,22.67 C94.2976445,22.6593108 94.9036862,22.8991157 95.3540819,23.3363748 C95.8044776,23.773634 96.0621113,24.3723141 96.07,25 C96.080596,25.6339524 95.8312701,26.2446201 95.38,26.69 C94.942854,27.1484733 94.3333561,27.4024307 93.7,27.39 C92.3855623,27.39 91.32,26.3244377 91.32,25.01 C91.32,23.6955623 92.3855623,22.63 93.7,22.63 L93.67,22.67 Z" id="Shape"></path>
                <path d="M100.03,36.66 L106.67,34 L107.56,34 L107.56,39 C108.371464,37.4411499 109.510916,36.0765373 110.9,35 C111.932168,34.2674894 113.164358,33.8695584 114.43,33.86 C116.520345,33.8285975 118.50862,34.7618694 119.82,36.39 C121.655339,38.6643359 122.597615,41.5302761 122.47,44.45 C122.593439,47.8044839 121.455262,51.0834331 119.28,53.64 C117.641197,55.5848215 115.212794,56.6869715 112.67,56.64 C111.648314,56.6634302 110.631135,56.4972909 109.67,56.15 C108.886633,55.8124824 108.171551,55.3346312 107.56,54.74 L107.56,61.28 C107.497695,62.2217975 107.588884,63.1674609 107.83,64.08 C108.025132,64.4950842 108.357004,64.8304871 108.77,65.03 C109.545436,65.3199394 110.37426,65.4393174 111.2,65.38 L111.2,66.25 L99.92,66.25 L99.92,65.38 L100.51,65.38 C101.274026,65.4171456 102.033959,65.2478878 102.71,64.89 C103.024541,64.6961924 103.266907,64.4046506 103.4,64.06 C103.626282,63.1042259 103.710519,62.120329 103.65,61.14 L103.65,40.84 C103.693966,39.9522345 103.630167,39.0624126 103.46,38.19 C103.358988,37.8510625 103.147856,37.5554774 102.86,37.35 C102.526587,37.14714 102.139741,37.0495572 101.75,37.07 C101.257775,37.0960428 100.773861,37.2077152 100.32,37.4 L100.03,36.66 Z M107.53,40.39 L107.53,48.39 C107.485925,49.5341489 107.556274,50.6798389 107.74,51.81 C107.99173,52.7654582 108.559121,53.6077339 109.35,54.2 C110.27518,54.8960913 111.41326,55.2495321 112.57,55.2 C114.05745,55.2375063 115.471922,54.5563261 116.37,53.37 C117.748573,51.4072169 118.418594,49.0339297 118.27,46.64 C118.27,43.36 117.55,40.8366667 116.11,39.07 C115.275928,37.93553 113.957968,37.2580389 112.55,37.24 C111.772526,37.2452254 111.007702,37.4372887 110.32,37.8 C109.26858,38.5225414 108.328612,39.3951284 107.53,40.39 L107.53,40.39 Z" id="Shape"></path>
                <path d="M129.19,42.62 C129.014526,45.3202574 129.840506,47.9904527 131.51,50.12 C132.836994,51.8179827 134.865093,52.8191492 137.02,52.84 C138.337526,52.8668524 139.627248,52.4592019 140.69,51.68 C141.921891,50.6213041 142.827134,49.2339596 143.3,47.68 L144.03,48.15 C143.678245,50.3405837 142.682675,52.3769768 141.17,54 C139.684018,55.7177064 137.510818,56.6852018 135.24,56.64 C132.700168,56.6591809 130.279957,55.5624086 128.62,53.64 C126.699535,51.3919821 125.715174,48.4925918 125.87,45.54 C125.87,41.8666667 126.81,39.0033333 128.69,36.95 C130.487266,34.9332289 133.079336,33.807196 135.78,33.87 C138.002966,33.7966162 140.154568,34.6601597 141.71,36.25 C143.308309,37.9710379 144.14476,40.2640689 144.03,42.61 L129.19,42.62 Z M129.19,41.26 L139.13,41.26 C139.124486,40.269938 138.95902,39.2872722 138.64,38.35 C138.273513,37.5051996 137.664442,36.7882366 136.89,36.29 C136.171479,35.8062654 135.326165,35.545366 134.46,35.54 C133.142613,35.5476753 131.885526,36.0931351 130.98,37.05 C129.897491,38.1930822 129.262165,39.6873415 129.19,41.26 L129.19,41.26 Z" id="Shape"></path>
                <path d="M162.05,53.59 C161.176607,54.55455 160.136685,55.3539689 158.98,55.95 C157.970457,56.4266449 156.86637,56.6693389 155.75,56.66 C153.367666,56.6431307 151.116804,55.5653562 149.61,53.72 C147.812542,51.6217201 146.876429,48.9205677 146.99,46.16 C146.985097,43.0967233 148.009975,40.1207037 149.9,37.71 C151.607664,35.2762023 154.407105,33.8427984 157.38,33.88 C159.122541,33.820378 160.81479,34.4698553 162.07,35.68 L162.07,31.68 C162.11538,30.1709798 162.055233,28.660633 161.89,27.16 C161.837008,26.7269376 161.64386,26.323082 161.34,26.01 C161.071774,25.80242 160.738886,25.696179 160.4,25.71 C159.842398,25.7441555 159.294629,25.8726445 158.78,26.09 L158.48,25.27 L164.88,22.65 L165.93,22.65 L165.93,47.47 C165.883062,49.0089813 165.943207,50.5493639 166.11,52.08 C166.163635,52.5178424 166.360518,52.9256699 166.67,53.24 C166.91953,53.4563928 167.239732,53.5738002 167.57,53.57 C168.152059,53.534268 168.723678,53.3989735 169.26,53.17 L169.52,53.99 L163.15,56.64 L162.07,56.64 L162.05,53.59 Z M162.05,51.95 L162.05,40.88 C161.971371,39.8628671 161.685512,38.8725686 161.21,37.97 C160.793461,37.1395653 160.148077,36.445604 159.35,35.97 C158.669187,35.5507049 157.889333,35.3195094 157.09,35.3 C155.647644,35.3322885 154.296308,36.0116285 153.41,37.15 C151.99,38.7766667 151.28,41.1533333 151.28,44.28 C151.28,47.4066667 151.966667,49.8233333 153.34,51.53 C154.394095,53.0389405 156.091056,53.9706053 157.93,54.05 C159.538022,53.9623089 161.034249,53.1996689 162.05,51.95 L162.05,51.95 Z" id="Shape"></path>
                <path d="M178.29,33.9 L178.29,51.15 C178.232415,52.0533503 178.33051,52.9598779 178.58,53.83 C178.751913,54.2500768 179.057751,54.6016157 179.45,54.83 C180.115031,55.1010275 180.833895,55.2139918 181.55,55.16 L181.55,56 L171.12,56 L171.12,55.16 C171.836877,55.2176801 172.557609,55.1152063 173.23,54.86 C173.617088,54.6282288 173.918783,54.2774204 174.09,53.86 C174.358526,52.9866426 174.466937,52.0719307 174.41,51.16 L174.41,42.89 C174.456778,41.3801714 174.386568,39.8689873 174.2,38.37 C174.135542,37.9904777 173.953674,37.6407301 173.68,37.37 C173.393635,37.1537206 173.037646,37.0504837 172.68,37.08 C172.133649,37.1030801 171.595543,37.2215311 171.09,37.43 L170.76,36.59 L177.23,33.97 L178.29,33.9 Z M176.34,22.67 C177.620065,22.6861712 178.653829,23.7199347 178.67,25 C178.680596,25.6339524 178.43127,26.2446201 177.98,26.69 C177.542854,27.1484733 176.933356,27.4024307 176.3,27.39 C174.985562,27.39 173.92,26.3244377 173.92,25.01 C173.92,23.6955623 174.985562,22.63 176.3,22.63 L176.34,22.67 Z" id="Shape"></path>
                <path d="M196.38,52.91 C195.070946,54.0089284 193.683981,55.0115538 192.23,55.91 C191.384337,56.302823 190.462436,56.5042754 189.53,56.5 C188.145289,56.5431107 186.808731,55.9895498 185.86,54.98 C184.871933,53.8883493 184.354468,52.4509466 184.42,50.98 C184.394158,50.0256875 184.636689,49.0832804 185.12,48.26 C185.971943,47.0025154 187.118614,45.9725711 188.46,45.26 C190.997499,43.9031069 193.643249,42.7591797 196.37,41.84 L196.37,41 C196.37,38.86 196.036667,37.39 195.37,36.59 C194.608466,35.7489061 193.501521,35.3061281 192.37,35.39 C191.516228,35.346416 190.678395,35.6328545 190.03,36.19 C189.476609,36.6378156 189.150578,37.3081937 189.14,38.02 L189.14,39.38 C189.190181,39.9596521 189.022618,40.5372092 188.67,41 C188.296991,41.3943208 187.772452,41.609236 187.23,41.59 C186.689551,41.6077106 186.169212,41.3841846 185.81,40.98 C185.423546,40.5160152 185.227047,39.9229449 185.26,39.32 C185.336092,37.8340488 186.096986,36.4673949 187.32,35.62 C188.994838,34.4006781 191.042219,33.8030834 193.11,33.93 C194.731301,33.8780091 196.340913,34.2212099 197.8,34.93 C198.712933,35.4278479 199.42111,36.2316294 199.8,37.2 C200.163619,38.5446744 200.305481,39.9396544 200.22,41.33 L200.22,48.62 C200.189287,49.8745926 200.229351,51.129919 200.34,52.38 C200.364922,52.7242786 200.501902,53.0509239 200.73,53.31 C200.901018,53.460859 201.12197,53.5428251 201.35,53.54 C201.580393,53.5470657 201.808419,53.4917867 202.01,53.38 C202.691979,52.8664869 203.327735,52.2943065 203.91,51.67 L203.91,52.98 C202.163333,55.3266667 200.496667,56.5 198.91,56.5 C198.20944,56.528904 197.53454,56.233866 197.08,55.7 C196.533301,54.8779337 196.286131,53.8927822 196.38,52.91 Z M196.38,51.39 L196.38,43.2 C194.821819,43.7840228 193.29627,44.4516591 191.81,45.2 C190.779418,45.7176698 189.874852,46.4549763 189.16,47.36 C188.639306,48.0744651 188.359155,48.9359289 188.36,49.82 C188.321193,50.8471509 188.679289,51.84982 189.36,52.62 C189.931898,53.3139021 190.780851,53.7200823 191.68,53.73 C192.88,53.73 194.446667,52.9466667 196.38,51.38 L196.38,51.39 Z" id="Shape"></path>
                <polygon id="Path" points="205.97 43.46 218.09 43.46 218.09 47 205.97 47"></polygon>
                <path d="M240.17,49.41 L239.91,56 L220.97,56 L220.97,55.16 L235.22,36.16 L228.22,36.16 C227.210925,36.0955471 226.198045,36.1934588 225.22,36.45 C224.718751,36.674273 224.31187,37.0670017 224.07,37.56 C223.614938,38.4642568 223.365644,39.4580197 223.34,40.47 L222.4,40.47 L222.54,34.47 L240.54,34.47 L240.54,35.34 L226.15,54.34 L233.98,54.34 C235.109209,54.4145357 236.242345,54.2754381 237.32,53.93 C237.941458,53.6228697 238.441591,53.1156925 238.74,52.49 C239.102168,51.4728019 239.314391,50.408316 239.37,49.33 L240.17,49.41 Z" id="Path"></path>
                <path d="M249.12,22.67 L249.12,38.37 C250.300286,36.9420822 251.69325,35.7042675 253.25,34.7 C254.169046,34.1895493 255.198932,33.9114799 256.25,33.89 C257.379597,33.8589286 258.486408,34.2114163 259.39,34.89 C260.357787,35.710641 261.040491,36.8169722 261.34,38.05 C261.714373,39.8512701 261.865511,41.6917868 261.79,43.53 L261.79,51.12 C261.733284,52.0622223 261.845033,53.007009 262.12,53.91 C262.279389,54.2879387 262.561127,54.6013723 262.92,54.8 C263.571232,55.0702158 264.276948,55.1832673 264.98,55.13 L264.98,56 L254.46,56 L254.46,55.16 L254.95,55.16 C255.677565,55.227959 256.4082,55.0671493 257.04,54.7 C257.45663,54.354378 257.74535,53.8790469 257.86,53.35 C257.926765,52.6186929 257.95014,51.8840722 257.93,51.15 L257.93,43.56 C258.006908,42.0109577 257.885932,40.4584315 257.57,38.94 C257.37737,38.2764066 256.96923,37.6958621 256.41,37.29 C255.842174,36.9127484 255.171447,36.7206131 254.49,36.74 C253.657039,36.7569418 252.839195,36.9656801 252.1,37.35 C250.96679,37.9925674 249.952099,38.8246137 249.1,39.81 L249.1,51.15 C249.039652,52.0707856 249.12401,52.9953401 249.35,53.89 C249.546562,54.2815792 249.866273,54.5977767 250.26,54.79 C250.992879,55.0831044 251.782685,55.2061911 252.57,55.15 L252.57,56 L241.95,56 L241.95,55.16 C242.725505,55.1961253 243.498044,55.0416174 244.2,54.71 C244.548634,54.5128661 244.814811,54.1970033 244.95,53.82 C245.191384,52.9518056 245.286021,52.0493829 245.23,51.15 L245.23,31.72 C245.27538,30.2109798 245.215233,28.700633 245.05,27.2 C244.999774,26.7681644 244.810205,26.364454 244.51,26.05 C244.225037,25.8301628 243.868916,25.7233264 243.51,25.75 C242.96454,25.7998856 242.429072,25.9278589 241.92,26.13 L241.59,25.31 L248.01,22.69 L249.12,22.67 Z" id="Path"></path>
                <rect id="Rectangle" x="-2.84217094e-14" y="0" width="271.33" height="2"></rect>
            </g>
        </g>
        <g id="Group-4" transform="translate(224.000000, 124.000000)">
            <path d="M29.378861,0 C25.9432044,17.1009887 21.6868868,30.3743178 16.6099082,39.8199873 C10.3319864,51.5 4.49348075,54.5903656 0.854912278,70.9394969 C-1.51372461,81.5824615 1.0395827,92.2692959 8.51483418,103 C9.07097977,86.1999425 10.2371815,74.4582014 12.0134394,67.7747768 C14.7420224,57.5080922 27.4174215,47.1605674 29.378861,39.8199873 C31.5403797,31.7306214 31.5403797,18.4572923 29.378861,0 Z" id="Path-41" fill="#FFCD00"></path>
            <path d="M26.4922328,52 C21.8935906,60.9429723 18.9032835,68.9979707 17.5213114,76.1649951 C15.4483533,86.9155317 14.3530754,100.996906 22.0067721,111.630376 C29.6604689,122.263846 52.1737504,110.890935 57.3571111,104.943669 C62.5404717,98.9964032 63.1877131,84.312261 60.2724121,80.2386281 C58.3288781,77.5228728 56.960448,74.1514984 56.1671219,70.1245051 C56.8272263,75.6878518 56.8272263,80.3130168 56.1671219,84 C55.1769653,89.5304748 42.585123,99.3221711 34.5386779,99.3221711 C26.4922328,99.3221711 24.0552507,85.1496692 24.0552507,79.2498911 C24.0552507,75.3167057 24.8675781,66.2334086 26.4922328,52 Z" id="Path-42" fill="#F2FF00"></path>
            <path d="M40.5942933,36 C39.5519539,44.0734222 39.7924108,50.5653835 41.3156642,55.4758839 C43.6005443,62.8416346 52,70.4510503 52,80.480308 C52,90.5095657 41.7094433,87.2032776 35.8655178,82.2669132 C31.9695674,78.9760036 31.018584,74.4252648 33.0125674,68.6146969 C33.529133,73.8136073 35.6979761,76.9176711 39.5190968,77.9268881 C45.2507779,79.4407136 39.0940206,63.414646 37.4797692,57.0960321 C36.4036016,52.8836229 37.4417763,45.8516121 40.5942933,36 Z" id="Path-43" fill="#FFCD00"></path>
        </g>
        <circle id="Oval" fill="#F8FF70" opacity="0.199047" cx="143" cy="238" r="18"></circle>
        <circle id="Oval-Copy-4" fill="#F8FF70" opacity="0.199047" cx="404" cy="178" r="18"></circle>
        <circle id="Oval-Copy-3" fill="#F8FF70" opacity="0.15107918" cx="422" cy="149" r="25"></circle>
        <circle id="Oval-Copy-2" fill="#F8FF70" opacity="0.596912202" cx="373.5" cy="107.5" r="4.5"></circle>
        <circle id="Oval-Copy" fill="#F8FF70" opacity="0.402520772" cx="87" cy="149" r="11"></circle>
        <circle id="Oval-Copy-5" fill="#F8FF70" opacity="0.402520772" cx="159" cy="69" r="6"></circle>
    </g>
</svg>