<svg width="512" height="512" viewBox="0 0 512 512" fill="none" xmlns="http://www.w3.org/2000/svg">
<path d="M256 512C397.385 512 512 397.385 512 256C512 114.615 397.385 0 256 0C114.615 0 0 114.615 0 256C0 397.385 114.615 512 256 512Z" fill="#CCCCCC"/>
<mask id="mask0" mask-type="alpha" maskUnits="userSpaceOnUse" x="10" y="10" width="492" height="492">
<path d="M256 501.1C391.365 501.1 501.1 391.365 501.1 256C501.1 120.635 391.365 10.9 256 10.9C120.635 10.9 10.8999 120.635 10.8999 256C10.8999 391.365 120.635 501.1 256 501.1Z" fill="white"/>
</mask>
<g mask="url(#mask0)">
<path d="M256 501.1C391.365 501.1 501.1 391.365 501.1 256C501.1 120.635 391.365 10.9 256 10.9C120.635 10.9 10.8999 120.635 10.8999 256C10.8999 391.365 120.635 501.1 256 501.1Z" fill="#CCB2AD"/>
<circle cx="197" cy="123" r="16" fill="#FFF8B9"/>
<circle cx="145.5" cy="173.5" r="28.5" fill="#FFF8B9"/>
<circle cx="306.5" cy="220.5" r="80.5" fill="#FFFACB"/>
<circle cx="306.5" cy="220.5" r="167.5" fill="url(#paint0_radial)"/>
<circle opacity="0.4" cx="197.5" cy="122.5" r="73.5" fill="url(#paint1_radial)"/>
<circle opacity="0.6" cx="145.5" cy="173.5" r="76.5" fill="url(#paint2_radial)"/>
<path opacity="0.6" d="M102.5 112.5L293 213L280 231L48 266.5L102.5 112.5Z" fill="url(#paint3_linear)"/>
<path opacity="0.3" d="M38.5 201.5L251 222.7L241 241L64 326L38.5 201.5Z" fill="url(#paint4_linear)"/>
<path d="M225.055 252.229C220.987 255.93 89.0159 374.635 89.0159 374.635L87.67 373.155C87.67 373.155 218.294 252.971 222.364 249.27C226.433 245.568 229.124 248.527 225.055 252.229Z" fill="url(#paint5_linear)"/>
<path d="M266.041 242.22C261.972 245.921 130.002 364.626 130.002 364.626L128.656 363.147C128.656 363.147 259.28 242.962 263.349 239.261C267.419 235.56 270.11 238.518 266.041 242.22Z" fill="url(#paint6_linear)"/>
<path d="M182.468 260.676C178.4 264.378 46.429 383.082 46.429 383.082L45.0831 381.603C45.0831 381.603 175.708 261.419 179.777 257.717C183.846 254.016 186.537 256.975 182.468 260.676Z" fill="url(#paint7_linear)"/>
<path d="M141.121 267.626C137.922 270.537 34.0191 363.708 34.0191 363.708L32.6733 362.228C32.6733 362.228 135.23 267.578 138.43 264.668C141.629 261.758 144.32 264.716 141.121 267.626Z" fill="url(#paint8_linear)"/>
<rect x="250.806" y="221.009" width="8" height="24" rx="4" transform="rotate(47.7065 250.806 221.009)" fill="#7A887E"/>
<rect x="291.792" y="211" width="8" height="24" rx="4" transform="rotate(47.7065 291.792 211)" fill="#7A887E"/>
<rect x="208.22" y="229.456" width="8" height="24" rx="4" transform="rotate(47.7065 208.22 229.456)" fill="#7A887E"/>
<rect x="166.22" y="237" width="8" height="24" rx="4" transform="rotate(47.7065 166.22 237)" fill="#7A887E"/>
<path d="M41 352.375C62.765 343.757 94.0606 336.598 131.747 331.618C169.434 326.638 212.187 324.01 255.717 324C299.247 323.99 342.023 326.596 379.756 331.559C417.488 336.521 448.849 343.664 470.693 352.272L448 400.5L255.717 455L63.5 400.5L41 352.375Z" fill="#CCB2AD"/>
<path fill-rule="evenodd" clip-rule="evenodd" d="M131.747 331.618C94.0606 336.598 62.765 343.757 41 352.375L55.2805 354.26C75.6427 349.81 101.687 346.073 131.812 343.303C169.526 339.836 212.309 338.007 255.87 338C299.431 337.993 342.239 339.807 379.998 343.262C410.073 346.014 436.103 349.729 456.498 354.155L470.693 352.272C448.849 343.664 417.488 336.521 379.756 331.559C342.023 326.596 299.247 323.99 255.717 324C212.187 324.01 169.434 326.638 131.747 331.618Z" fill="url(#paint9_linear)"/>
<path d="M171.29 396.22V397.09C170.596 397.064 169.906 397.219 169.29 397.54C168.662 397.957 168.152 398.529 167.81 399.2C167.217 400.463 166.722 401.771 166.33 403.11L157.47 428.73H156.53L149.29 408.41L142.09 428.73H141.25L131.8 402.34C131.1 400.34 130.653 399.177 130.46 398.85C130.178 398.29 129.731 397.829 129.18 397.53C128.496 397.211 127.744 397.064 126.99 397.1V396.23H138.76V397.1H138.2C137.52 397.053 136.846 397.251 136.3 397.66C135.883 397.988 135.64 398.489 135.64 399.02C135.82 400.312 136.156 401.578 136.64 402.79L142.9 420.63L148.17 405.47L147.23 402.8L146.48 400.67C146.184 399.948 145.815 399.258 145.38 398.61C145.179 398.315 144.925 398.061 144.63 397.86C144.274 397.596 143.88 397.391 143.46 397.25C142.999 397.138 142.524 397.091 142.05 397.11V396.24H154.43V397.11H153.59C152.903 397.051 152.218 397.251 151.67 397.67C151.259 398.066 151.037 398.619 151.06 399.19C151.208 400.623 151.562 402.028 152.11 403.36L158.2 420.63L164.2 403.12C164.719 401.84 165.056 400.494 165.2 399.12C165.197 398.759 165.078 398.408 164.86 398.12C164.648 397.817 164.348 397.586 164 397.46C163.251 397.217 162.467 397.105 161.68 397.13V396.26L171.29 396.22Z" fill="#776363"/>
<path d="M178.64 405.9V423.15C178.582 424.053 178.68 424.96 178.93 425.83C179.102 426.25 179.408 426.602 179.8 426.83C180.465 427.101 181.184 427.214 181.9 427.16V428H171.47V427.16C172.187 427.218 172.908 427.115 173.58 426.86C173.967 426.628 174.269 426.277 174.44 425.86C174.709 424.987 174.817 424.072 174.76 423.16V414.89C174.807 413.38 174.737 411.869 174.55 410.37C174.486 409.99 174.304 409.641 174.03 409.37C173.744 409.154 173.388 409.05 173.03 409.08C172.484 409.103 171.946 409.222 171.44 409.43L171.11 408.59L177.58 405.97L178.64 405.9ZM176.69 394.67C177.319 394.667 177.924 394.916 178.369 395.361C178.814 395.806 179.063 396.411 179.06 397.04C179.071 397.674 178.821 398.285 178.37 398.73C177.933 399.188 177.323 399.442 176.69 399.43C175.376 399.43 174.31 398.364 174.31 397.05C174.31 395.736 175.376 394.67 176.69 394.67Z" fill="#776363"/>
<path d="M190.93 394.67V416L196.39 411C197.107 410.386 197.776 409.717 198.39 409C198.508 408.837 198.575 408.642 198.58 408.44C198.585 408.124 198.441 407.823 198.19 407.63C197.817 407.364 197.368 407.227 196.91 407.24V406.49H206.24V407.24C205.146 407.237 204.061 407.437 203.04 407.83C202.007 408.311 201.061 408.96 200.24 409.75L194.73 414.84L200.24 421.84C201.773 423.76 202.803 424.98 203.33 425.5C203.897 426.102 204.577 426.588 205.33 426.93C205.979 427.116 206.655 427.194 207.33 427.16V428H196.93V427.16C197.351 427.189 197.771 427.095 198.14 426.89C198.352 426.725 198.471 426.468 198.46 426.2C198.313 425.547 197.988 424.948 197.52 424.47L190.93 416V423.13C190.869 424.053 190.968 424.98 191.22 425.87C191.379 426.27 191.673 426.602 192.05 426.81C192.804 427.057 193.598 427.159 194.39 427.11V428H183.47V427.16C184.309 427.205 185.148 427.068 185.93 426.76C186.262 426.584 186.526 426.303 186.68 425.96C186.966 425.1 187.084 424.194 187.03 423.29V403.74C187.076 402.218 187.022 400.695 186.87 399.18C186.82 398.748 186.63 398.344 186.33 398.03C186.047 397.804 185.691 397.69 185.33 397.71C184.817 397.756 184.316 397.892 183.85 398.11L183.45 397.29L189.83 394.67H190.93Z" fill="#776363"/>
<path d="M216 405.9V423.15C215.942 424.053 216.04 424.96 216.29 425.83C216.462 426.25 216.768 426.602 217.16 426.83C217.825 427.101 218.544 427.214 219.26 427.16V428H208.81V427.16C209.527 427.218 210.248 427.115 210.92 426.86C211.307 426.628 211.609 426.277 211.78 425.86C212.048 424.987 212.157 424.072 212.1 423.16V414.89C212.147 413.38 212.077 411.869 211.89 410.37C211.825 409.99 211.644 409.641 211.37 409.37C211.084 409.154 210.728 409.05 210.37 409.08C209.824 409.103 209.285 409.222 208.78 409.43L208.45 408.59L214.92 405.97L216 405.9ZM214 394.67C214.628 394.659 215.234 394.899 215.684 395.336C216.134 395.774 216.392 396.372 216.4 397C216.411 397.634 216.161 398.245 215.71 398.69C215.273 399.148 214.663 399.402 214.03 399.39C212.716 399.39 211.65 398.324 211.65 397.01C211.65 395.696 212.716 394.63 214.03 394.63L214 394.67Z" fill="#776363"/>
<path d="M220.36 408.66L227 406H227.89V411C228.701 409.441 229.841 408.077 231.23 407C232.262 406.268 233.494 405.87 234.76 405.86C236.85 405.829 238.839 406.762 240.15 408.39C241.985 410.664 242.928 413.53 242.8 416.45C242.923 419.805 241.785 423.083 239.61 425.64C237.971 427.585 235.543 428.687 233 428.64C231.978 428.663 230.961 428.497 230 428.15C229.217 427.813 228.502 427.335 227.89 426.74V433.28C227.828 434.222 227.919 435.167 228.16 436.08C228.355 436.495 228.687 436.831 229.1 437.03C229.875 437.32 230.704 437.439 231.53 437.38V438.25H220.25V437.38H220.84C221.604 437.417 222.364 437.248 223.04 436.89C223.355 436.696 223.597 436.405 223.73 436.06C223.956 435.104 224.041 434.12 223.98 433.14V412.84C224.024 411.952 223.96 411.062 223.79 410.19C223.689 409.851 223.478 409.556 223.19 409.35C222.857 409.147 222.47 409.05 222.08 409.07C221.588 409.096 221.104 409.208 220.65 409.4L220.36 408.66ZM227.86 412.39V420.39C227.816 421.534 227.886 422.68 228.07 423.81C228.322 424.765 228.889 425.608 229.68 426.2C230.605 426.896 231.743 427.25 232.9 427.2C234.387 427.238 235.802 426.556 236.7 425.37C238.079 423.407 238.749 421.034 238.6 418.64C238.6 415.36 237.88 412.837 236.44 411.07C235.606 409.936 234.288 409.258 232.88 409.24C232.103 409.245 231.338 409.437 230.65 409.8C229.599 410.523 228.659 411.395 227.86 412.39Z" fill="#776363"/>
<path d="M249.52 414.62C249.345 417.32 250.171 419.99 251.84 422.12C253.167 423.818 255.195 424.819 257.35 424.84C258.668 424.867 259.957 424.459 261.02 423.68C262.252 422.621 263.157 421.234 263.63 419.68L264.36 420.15C264.008 422.341 263.013 424.377 261.5 426C260.014 427.718 257.841 428.685 255.57 428.64C253.03 428.659 250.61 427.562 248.95 425.64C247.03 423.392 246.045 420.493 246.2 417.54C246.2 413.867 247.14 411.003 249.02 408.95C250.817 406.933 253.409 405.807 256.11 405.87C258.333 405.797 260.485 406.66 262.04 408.25C263.638 409.971 264.475 412.264 264.36 414.61L249.52 414.62ZM249.52 413.26H259.46C259.455 412.27 259.289 411.287 258.97 410.35C258.604 409.505 257.994 408.788 257.22 408.29C256.502 407.806 255.656 407.545 254.79 407.54C253.473 407.548 252.216 408.093 251.31 409.05C250.228 410.193 249.592 411.687 249.52 413.26Z" fill="#776363"/>
<path d="M282.38 425.59C281.507 426.555 280.467 427.354 279.31 427.95C278.3 428.427 277.196 428.669 276.08 428.66C273.698 428.643 271.447 427.565 269.94 425.72C268.143 423.622 267.206 420.921 267.32 418.16C267.315 415.097 268.34 412.121 270.23 409.71C271.938 407.276 274.737 405.843 277.71 405.88C279.453 405.82 281.145 406.47 282.4 407.68V403.68C282.445 402.171 282.385 400.661 282.22 399.16C282.167 398.727 281.974 398.323 281.67 398.01C281.402 397.802 281.069 397.696 280.73 397.71C280.172 397.744 279.625 397.873 279.11 398.09L278.81 397.27L285.21 394.65H286.26V419.47C286.213 421.009 286.273 422.549 286.44 424.08C286.494 424.518 286.691 424.926 287 425.24C287.25 425.456 287.57 425.574 287.9 425.57C288.482 425.534 289.054 425.399 289.59 425.17L289.85 425.99L283.48 428.64H282.4L282.38 425.59ZM282.38 423.95V412.88C282.301 411.863 282.016 410.873 281.54 409.97C281.123 409.14 280.478 408.446 279.68 407.97C278.999 407.551 278.219 407.32 277.42 407.3C275.978 407.332 274.626 408.012 273.74 409.15C272.32 410.777 271.61 413.153 271.61 416.28C271.61 419.407 272.297 421.823 273.67 423.53C274.724 425.039 276.421 425.971 278.26 426.05C279.868 425.962 281.364 425.2 282.38 423.95Z" fill="#776363"/>
<path d="M298.62 405.9V423.15C298.562 424.053 298.66 424.96 298.91 425.83C299.082 426.25 299.388 426.602 299.78 426.83C300.445 427.101 301.164 427.214 301.88 427.16V428H291.45V427.16C292.167 427.218 292.888 427.115 293.56 426.86C293.947 426.628 294.249 426.277 294.42 425.86C294.689 424.987 294.797 424.072 294.74 423.16V414.89C294.787 413.38 294.717 411.869 294.53 410.37C294.466 409.99 294.284 409.641 294.01 409.37C293.724 409.154 293.368 409.05 293.01 409.08C292.464 409.103 291.926 409.222 291.42 409.43L291.09 408.59L297.56 405.97L298.62 405.9ZM296.67 394.67C297.95 394.686 298.984 395.72 299 397C299.011 397.634 298.761 398.245 298.31 398.69C297.873 399.148 297.263 399.402 296.63 399.39C295.316 399.39 294.25 398.324 294.25 397.01C294.25 395.696 295.316 394.63 296.63 394.63L296.67 394.67Z" fill="#776363"/>
<path d="M316.71 424.91C315.401 426.009 314.014 427.012 312.56 427.91C311.714 428.303 310.792 428.504 309.86 428.5C308.475 428.543 307.139 427.99 306.19 426.98C305.202 425.888 304.684 424.451 304.75 422.98C304.724 422.026 304.967 421.083 305.45 420.26C306.302 419.002 307.449 417.973 308.79 417.26C311.327 415.903 313.973 414.759 316.7 413.84V413C316.7 410.86 316.367 409.39 315.7 408.59C314.938 407.749 313.831 407.306 312.7 407.39C311.846 407.346 311.008 407.633 310.36 408.19C309.807 408.638 309.481 409.308 309.47 410.02V411.38C309.52 411.96 309.353 412.537 309 413C308.627 413.394 308.102 413.609 307.56 413.59C307.019 413.608 306.499 413.384 306.14 412.98C305.753 412.516 305.557 411.923 305.59 411.32C305.666 409.834 306.427 408.467 307.65 407.62C309.325 406.401 311.372 405.803 313.44 405.93C315.061 405.878 316.671 406.221 318.13 406.93C319.043 407.428 319.751 408.232 320.13 409.2C320.494 410.545 320.635 411.94 320.55 413.33V420.62C320.519 421.875 320.559 423.13 320.67 424.38C320.695 424.724 320.832 425.051 321.06 425.31C321.231 425.461 321.452 425.543 321.68 425.54C321.91 425.547 322.138 425.492 322.34 425.38C323.022 424.866 323.658 424.294 324.24 423.67V424.98C322.493 427.327 320.827 428.5 319.24 428.5C318.539 428.529 317.864 428.234 317.41 427.7C316.863 426.878 316.616 425.893 316.71 424.91ZM316.71 423.39V415.2C315.152 415.784 313.626 416.452 312.14 417.2C311.109 417.718 310.205 418.455 309.49 419.36C308.969 420.074 308.689 420.936 308.69 421.82C308.651 422.847 309.009 423.85 309.69 424.62C310.262 425.314 311.111 425.72 312.01 425.73C313.21 425.73 314.777 424.947 316.71 423.38V423.39Z" fill="#776363"/>
<path d="M326.3 415.46H338.42V419H326.3V415.46Z" fill="#776363"/>
<path d="M360.5 421.41L360.24 428H341.3V427.16L355.55 408.16H348.55C347.541 408.096 346.528 408.193 345.55 408.45C345.049 408.674 344.642 409.067 344.4 409.56C343.945 410.464 343.696 411.458 343.67 412.47H342.73L342.87 406.47H360.87V407.34L346.48 426.34H354.31C355.439 426.415 356.572 426.275 357.65 425.93C358.272 425.623 358.772 425.116 359.07 424.49C359.432 423.473 359.644 422.408 359.7 421.33L360.5 421.41Z" fill="#776363"/>
<path d="M369.45 394.67V410.37C370.63 408.942 372.023 407.704 373.58 406.7C374.499 406.19 375.529 405.912 376.58 405.89C377.71 405.859 378.816 406.211 379.72 406.89C380.688 407.711 381.371 408.817 381.67 410.05C382.044 411.851 382.196 413.692 382.12 415.53V423.12C382.063 424.062 382.175 425.007 382.45 425.91C382.609 426.288 382.891 426.601 383.25 426.8C383.901 427.07 384.607 427.183 385.31 427.13V428H374.79V427.16H375.28C376.008 427.228 376.738 427.067 377.37 426.7C377.787 426.354 378.075 425.879 378.19 425.35C378.257 424.619 378.28 423.884 378.26 423.15V415.56C378.337 414.011 378.216 412.458 377.9 410.94C377.707 410.276 377.299 409.696 376.74 409.29C376.172 408.913 375.501 408.721 374.82 408.74C373.987 408.757 373.169 408.966 372.43 409.35C371.297 409.993 370.282 410.825 369.43 411.81V423.15C369.37 424.071 369.454 424.995 369.68 425.89C369.877 426.282 370.196 426.598 370.59 426.79C371.323 427.083 372.113 427.206 372.9 427.15V428H362.28V427.16C363.056 427.196 363.828 427.042 364.53 426.71C364.879 426.513 365.145 426.197 365.28 425.82C365.521 424.952 365.616 424.049 365.56 423.15V403.72C365.605 402.211 365.545 400.701 365.38 399.2C365.33 398.768 365.14 398.364 364.84 398.05C364.555 397.83 364.199 397.723 363.84 397.75C363.295 397.8 362.759 397.928 362.25 398.13L361.92 397.31L368.34 394.69L369.45 394.67Z" fill="#776363"/>
<path d="M391.66 372H120.33V374H391.66V372Z" fill="#776363"/>
</g>
<defs>
<radialGradient id="paint0_radial" cx="0" cy="0" r="1" gradientUnits="userSpaceOnUse" gradientTransform="translate(306.5 220.5) rotate(90) scale(167.5)">
<stop stop-color="#FFF8B9"/>
<stop offset="1" stop-color="#FFF8B9" stop-opacity="0"/>
</radialGradient>
<radialGradient id="paint1_radial" cx="0" cy="0" r="1" gradientUnits="userSpaceOnUse" gradientTransform="translate(197.5 122.5) rotate(90) scale(73.5)">
<stop offset="0.3125" stop-color="#FFF8B9" stop-opacity="0.63"/>
<stop offset="1" stop-color="#FFF8B9" stop-opacity="0"/>
</radialGradient>
<radialGradient id="paint2_radial" cx="0" cy="0" r="1" gradientUnits="userSpaceOnUse" gradientTransform="translate(145.5 173.5) rotate(90) scale(76.5)">
<stop stop-color="#FFF8B9" stop-opacity="0.66"/>
<stop offset="1" stop-color="#FFF8B9" stop-opacity="0"/>
</radialGradient>
<linearGradient id="paint3_linear" x1="294" y1="212.5" x2="121.5" y2="212.5" gradientUnits="userSpaceOnUse">
<stop stop-color="#FF0000" stop-opacity="0.2"/>
<stop offset="1" stop-opacity="0"/>
</linearGradient>
<linearGradient id="paint4_linear" x1="255" y1="222.5" x2="82.5" y2="222.5" gradientUnits="userSpaceOnUse">
<stop stop-color="#FF0000" stop-opacity="0.2"/>
<stop offset="1" stop-opacity="0"/>
</linearGradient>
<linearGradient id="paint5_linear" x1="225.91" y1="248" x2="126.41" y2="339.5" gradientUnits="userSpaceOnUse">
<stop stop-color="#DEC7C2"/>
<stop offset="1" stop-color="#E3F5EF" stop-opacity="0"/>
</linearGradient>
<linearGradient id="paint6_linear" x1="266.41" y1="238.5" x2="140.5" y2="354" gradientUnits="userSpaceOnUse">
<stop stop-color="#DEC7C2"/>
<stop offset="1" stop-color="#E3F5EF" stop-opacity="0"/>
</linearGradient>
<linearGradient id="paint7_linear" x1="183.91" y1="256.5" x2="103.5" y2="329" gradientUnits="userSpaceOnUse">
<stop stop-color="#DEC7C2"/>
<stop offset="1" stop-color="#E3F5EF" stop-opacity="0"/>
</linearGradient>
<linearGradient id="paint8_linear" x1="141.411" y1="264" x2="86.4145" y2="311.987" gradientUnits="userSpaceOnUse">
<stop stop-color="#DEC7C2"/>
<stop offset="1" stop-color="#E3F5EF" stop-opacity="0"/>
</linearGradient>
<linearGradient id="paint9_linear" x1="300.5" y1="324" x2="300" y2="339" gradientUnits="userSpaceOnUse">
<stop stop-color="#F4E3CA"/>
<stop offset="1" stop-color="#CCB2AC"/>
</linearGradient>
</defs>
</svg>
