<svg id="Layer_1" data-name="Layer 1" xmlns="http://www.w3.org/2000/svg" xmlns:xlink="http://www.w3.org/1999/xlink" viewBox="0 0 512 512"><defs><mask id="mask" x="10.9" y="10.9" width="490.2" height="490.2" maskUnits="userSpaceOnUse"><g id="mask-2"><circle id="path-1" cx="256" cy="256" r="245.1" style="fill:#fff"/></g></mask><mask id="mask-2-2" x="10.9" y="2.12" width="490.2" height="498.98" maskUnits="userSpaceOnUse"><g id="mask-2-3" data-name="mask-2"><circle id="path-1-2" data-name="path-1" cx="256" cy="256" r="245.1" style="fill:#fff"/></g></mask><mask id="mask-5" x="10.9" y="10.9" width="566.79" height="508.1" maskUnits="userSpaceOnUse"><g id="mask-2-6" data-name="mask-2"><circle id="path-1-5" data-name="path-1" cx="256" cy="256" r="245.1" style="fill:#fff"/></g></mask></defs><title>Artboard 1</title><g id="Wikipedia_zh_random-12" data-name="Wikipedia zh random-12"><g id="Wikipedia_zh_logo" data-name="Wikipedia zh logo"><circle id="Oval" cx="256" cy="256" r="256" style="fill:#ccc"/><g id="Group-3"><circle cx="256" cy="256" r="245.1" style="fill:#46b5d6"/><g style="mask:url(#mask)"><polygon id="Path-80" points="230.48 99.76 228.48 98.76 230.48 93.38 252.74 84.85 254.74 85.85 254.74 93.08 230.48 99.76" style="fill:#161616;fill-rule:evenodd"/></g><g style="mask:url(#mask-2-2)"><path id="cable" d="M31,95.43q159.11,10.16,211.58-3.28T419.56,3.83" style="fill:none;stroke:#3e4c50;stroke-width:4px"/></g><g style="mask:url(#mask)"><polygon points="228.48 98.76 228.48 92.38 252.74 84.85 252.74 92.08 228.48 98.76" style="fill:#161616;fill-rule:evenodd"/></g><g style="mask:url(#mask)"><rect id="Rectangle" x="241" y="92" width="3" height="18" style="fill:#171515"/></g><g style="mask:url(#mask-5)"><polygon id="shadow" points="311.64 123.81 577.69 389.86 391.66 519 199.18 327.61 311.64 123.81" style="fill-rule:evenodd;opacity:0.15000000596046448;isolation:isolate"/></g><g style="mask:url(#mask)"><path id="Path-81" d="M70.12,93.85q17.7-1.42,24.69.4c7,1.82,32.14,8.43,45.13,8.43s27.07-8,33.12-8.43,45.33,5.07,53.76,6.75,18.47-3.28,24-2.24q5.55,1,13.15,14.44" style="fill:none;stroke:#3e4c50;stroke-width:2px"/></g><g style="mask:url(#mask)"><g id="traffic-light"><path id="Path-79" d="M199.84,213,172,223.11a3.28,3.28,0,0,0-1.95,3.08c0,2.06,4.29,8.65,16.52,8.65q5.91,0,13.32,10.88l6-16.36Z" style="fill:#4f4f4f;fill-rule:evenodd"/><path id="Path-79-Copy" d="M199.84,147,172,157.11a3.28,3.28,0,0,0-1.95,3.08c0,2.06,4.29,8.65,16.52,8.65q5.91,0,13.32,10.88l6-16.36Z" style="fill:#4f4f4f;fill-rule:evenodd"/><path d="M199.84,283,172,293.11a3.28,3.28,0,0,0-1.95,3.08c0,2.06,4.29,8.65,16.52,8.65q5.91,0,13.32,10.88l6-16.36Z" style="fill:#4f4f4f;fill-rule:evenodd"/><polygon id="Path-78" points="264.37 303.62 199.18 327.61 249.38 349.06 311.64 335.89 264.37 303.62" style="fill:#080808;fill-rule:evenodd"/><polygon id="Path-75" points="199.18 327.61 264.75 313.6 264.75 98.67 199.18 115 199.18 327.61" style="fill:#6a6a6a;fill-rule:evenodd"/><polygon id="Path-77" points="311.64 335.89 264 313.8 264.75 98.67 311.64 122.5 311.64 335.89" style="fill:#1e1e1e;fill-rule:evenodd"/><g id="Group"><path id="Path-75-Copy" d="M204.85,152.15q-12.66-8-18.48-16.26c-5.83-8.23-4.08-20.89,3.1-26.71s11.78-8.36,18.46-6.5q6.66,1.88,29.14,15.87Z" style="fill:#6b1212;fill-rule:evenodd"/><ellipse cx="223.5" cy="140.5" rx="20.5" ry="25.5" style="fill:red"/><path d="M243.6,145.52C241.73,157.2,233.44,166,223.5,166c-11.32,0-20.5-11.42-20.5-25.5,0-13.92,9-25.25,20.13-25.49q1.45,1.55,3,3.31C232.5,125.72,237.71,136.46,243.6,145.52Z" style="fill:red;fill-rule:evenodd"/><path d="M244,146.15c-.14-.21-.27-.42-.4-.63-5.89-9.06-11.1-19.8-17.48-27.2q-1.53-1.77-3-3.31a67.51,67.51,0,0,0-15.2-12.33q9.91,3.58,30.22,12.32a28.5,28.5,0,0,1,7.13,14.54A37.08,37.08,0,0,1,244,146.15Z" style="fill:#4f4f4f;fill-rule:evenodd"/></g><g id="Group-Copy"><path d="M205,225.07q-12.66-8-18.48-16.26c-5.83-8.23-4.09-20.89,3.09-26.71s11.79-8.36,18.46-6.5q6.67,1.88,29.15,15.87Z" style="fill:#313131;fill-rule:evenodd"/><ellipse cx="223.63" cy="213.42" rx="20.5" ry="25.5" style="fill:#504c22"/><path d="M244.13,219.07a37.08,37.08,0,0,0,1.28-16.61,28.43,28.43,0,0,0-7.14-14.54Q218,179.19,208.05,175.6c2.91,1.67,10,6.09,18.19,15.64C232.78,198.81,238.08,209.88,244.13,219.07Z" style="fill:#4f4f4f;fill-rule:evenodd"/></g><g id="Group-Copy-2"><path d="M205,298.07q-12.66-8-18.48-16.26c-5.83-8.23-4.09-20.89,3.09-26.71s11.79-8.36,18.46-6.5q6.67,1.88,29.15,15.87Z" style="fill:#313131;fill-rule:evenodd"/><ellipse cx="223.63" cy="286.42" rx="20.5" ry="25.5" style="fill:#132e19"/><path d="M244.13,292.07a37.08,37.08,0,0,0,1.28-16.61,28.43,28.43,0,0,0-7.14-14.54Q218,252.19,208.05,248.6c2.91,1.67,10,6.09,18.19,15.64C232.78,271.81,238.08,282.88,244.13,292.07Z" style="fill:#4f4f4f;fill-rule:evenodd"/></g><path d="M312.55,303.62Q340.65,287,345.43,280c4.78-7,0-19.08-5.63-23.19s-10.74-5.41-18-3.55q-7.26,1.86-31.8,14.18Z" style="fill:#313131;fill-rule:evenodd"/><ellipse cx="299.5" cy="289.5" rx="16.5" ry="25.5" style="fill:#132e19"/><path d="M282.86,295a33.69,33.69,0,0,1-1.4-16.43,27.29,27.29,0,0,1,7.75-14.38q21.53-8.7,28.75-10.92c6.83-2.1,13.38-2.27,17.9,1.21-10.54-3.31-22.45,6.41-31.39,15.86C297.38,277.83,289.42,285.91,282.86,295Z" style="fill:#4f4f4f;fill-rule:evenodd"/><g id="Group-Copy-3"><path d="M312.55,159.62Q340.65,143,345.43,136c4.78-7,0-19.08-5.63-23.19s-10.74-5.41-18-3.55q-7.26,1.86-31.8,14.18Z" style="fill:#313131;fill-rule:evenodd"/><ellipse cx="299.5" cy="145.5" rx="16.5" ry="25.5" style="fill:#371a1a"/><path d="M282.86,151a33.69,33.69,0,0,1-1.4-16.43,27.29,27.29,0,0,1,7.75-14.38q21.53-8.7,28.75-10.92c6.83-2.1,13.38-2.27,17.9,1.21-10.54-3.31-22.45,6.41-31.39,15.86C297.38,133.83,289.42,141.91,282.86,151Z" style="fill:#4f4f4f;fill-rule:evenodd"/></g><g id="Group-Copy-4"><path d="M312.55,232.62Q340.65,216,345.43,209c4.78-7,0-19.08-5.63-23.19s-10.74-5.41-18-3.55q-7.26,1.86-31.8,14.18Z" style="fill:#766521;fill-rule:evenodd"/><ellipse cx="299.5" cy="218.5" rx="16.5" ry="25.5" style="fill:#ffe800"/><path d="M282.86,218.76a26.2,26.2,0,0,1-1.4-14.44q1.4-6.9,7.75-12.64Q310.74,184,318,182.09c6.83-1.85,13.38-2,17.9,1.06-10.54-2.91-22.45,5.64-31.39,13.94C297.38,203.67,289.42,210.78,282.86,218.76Z" style="fill:#4f4f4f;fill-rule:evenodd"/></g></g></g></g><path d="M171.29,396.22v.87a4,4,0,0,0-2,.45,4.38,4.38,0,0,0-1.48,1.66,27.09,27.09,0,0,0-1.48,3.91l-8.86,25.62h-.94l-7.24-20.32-7.2,20.32h-.84l-9.45-26.39a33.42,33.42,0,0,0-1.34-3.49,3.08,3.08,0,0,0-1.28-1.32,4.6,4.6,0,0,0-2.19-.43v-.87h11.77v.87h-.56a2.83,2.83,0,0,0-1.9.56,1.72,1.72,0,0,0-.66,1.36,16.39,16.39,0,0,0,1,3.77l6.26,17.84,5.27-15.16-.94-2.67-.75-2.13a11.65,11.65,0,0,0-1.1-2.06,3,3,0,0,0-.75-.75,4.35,4.35,0,0,0-1.17-.61,5.16,5.16,0,0,0-1.41-.14v-.87h12.38v.87h-.84a2.76,2.76,0,0,0-1.92.56,2,2,0,0,0-.61,1.52,15,15,0,0,0,1.05,4.17l6.09,17.27,6-17.51a14.59,14.59,0,0,0,1-4,1.65,1.65,0,0,0-.34-1,1.82,1.82,0,0,0-.86-.66,7,7,0,0,0-2.32-.33v-.87Z" style="fill:#3f3f3f"/><path id="Shape" d="M178.64,405.9v17.25a7.84,7.84,0,0,0,.29,2.68,2.07,2.07,0,0,0,.87,1,4.71,4.71,0,0,0,2.1.33V428H171.47v-.84a4.74,4.74,0,0,0,2.11-.3,2,2,0,0,0,.86-1,7.48,7.48,0,0,0,.32-2.7v-8.27a28.46,28.46,0,0,0-.21-4.52,1.83,1.83,0,0,0-.52-1,1.44,1.44,0,0,0-1-.29,4.59,4.59,0,0,0-1.59.35l-.33-.84,6.47-2.62Zm-1.95-11.23a2.36,2.36,0,0,1,2.37,2.37,2.34,2.34,0,0,1-.69,1.69,2.27,2.27,0,0,1-1.68.7,2.38,2.38,0,0,1,0-4.76Z" style="fill:#3f3f3f"/><path d="M190.93,394.67V416l5.46-5a17.17,17.17,0,0,0,2-2,1,1,0,0,0,.19-.56,1,1,0,0,0-.39-.81,2.08,2.08,0,0,0-1.28-.39v-.75h9.33v.75a9,9,0,0,0-3.2.59,10.33,10.33,0,0,0-2.8,1.92l-5.51,5.09,5.51,7q2.3,2.88,3.09,3.66a6.43,6.43,0,0,0,2,1.43,6.16,6.16,0,0,0,2,.23V428h-10.4v-.84a2.14,2.14,0,0,0,1.21-.27.83.83,0,0,0,.32-.69,3.63,3.63,0,0,0-.94-1.73L190.93,416v7.13a8.18,8.18,0,0,0,.29,2.74,1.86,1.86,0,0,0,.83.94,6.19,6.19,0,0,0,2.34.3V428H183.47v-.84a5.9,5.9,0,0,0,2.46-.4,1.71,1.71,0,0,0,.75-.8,7.13,7.13,0,0,0,.35-2.67V403.74a34.7,34.7,0,0,0-.16-4.56,2,2,0,0,0-.54-1.15,1.45,1.45,0,0,0-1-.32,4.52,4.52,0,0,0-1.48.4l-.4-.82,6.38-2.62Z" style="fill:#3f3f3f"/><path d="M216,405.9v17.25a7.84,7.84,0,0,0,.29,2.68,2.07,2.07,0,0,0,.87,1,4.71,4.71,0,0,0,2.1.33V428H208.81v-.84a4.74,4.74,0,0,0,2.11-.3,2,2,0,0,0,.86-1,7.48,7.48,0,0,0,.32-2.7v-8.27a28.46,28.46,0,0,0-.21-4.52,1.83,1.83,0,0,0-.52-1,1.44,1.44,0,0,0-1-.29,4.59,4.59,0,0,0-1.59.35l-.33-.84,6.47-2.62Zm-2-11.23a2.35,2.35,0,0,1,1.71,4,2.27,2.27,0,0,1-1.68.7,2.38,2.38,0,1,1,0-4.76Z" style="fill:#3f3f3f"/><path d="M220.36,408.66,227,406h.89v5a12.16,12.16,0,0,1,3.34-4,6.19,6.19,0,0,1,3.53-1.14,6.79,6.79,0,0,1,5.39,2.53,12,12,0,0,1,2.65,8.06,13.43,13.43,0,0,1-3.19,9.19,8.45,8.45,0,0,1-6.61,3,8.29,8.29,0,0,1-3-.49,7.16,7.16,0,0,1-2.11-1.41v6.54a8.81,8.81,0,0,0,.27,2.8,2,2,0,0,0,.94.95,5.75,5.75,0,0,0,2.43.35v.87H220.25v-.87h.59a4.23,4.23,0,0,0,2.2-.49,1.7,1.7,0,0,0,.69-.83,9.9,9.9,0,0,0,.25-2.92v-20.3a11.2,11.2,0,0,0-.19-2.65,1.59,1.59,0,0,0-.6-.84,2,2,0,0,0-1.11-.28,4.38,4.38,0,0,0-1.43.33Zm7.5,3.73v8a17.81,17.81,0,0,0,.21,3.42,4.35,4.35,0,0,0,1.61,2.39,5,5,0,0,0,3.22,1,4.6,4.6,0,0,0,3.8-1.83,10.55,10.55,0,0,0,1.9-6.73q0-4.92-2.16-7.57a4.5,4.5,0,0,0-3.56-1.83,4.94,4.94,0,0,0-2.23.56,13.2,13.2,0,0,0-2.79,2.59Z" style="fill:#3f3f3f"/><path d="M249.52,414.62a11,11,0,0,0,2.32,7.5,7.08,7.08,0,0,0,5.51,2.72,6,6,0,0,0,3.67-1.16,8.58,8.58,0,0,0,2.61-4l.73.47A11.18,11.18,0,0,1,261.5,426a7.62,7.62,0,0,1-5.93,2.64,8.67,8.67,0,0,1-6.62-3,11.57,11.57,0,0,1-2.75-8.1c0-3.67.94-6.54,2.82-8.59a9.21,9.21,0,0,1,7.09-3.08,8,8,0,0,1,5.93,2.38,8.72,8.72,0,0,1,2.32,6.36Zm0-1.36h9.94a9.3,9.3,0,0,0-.49-2.91,4.74,4.74,0,0,0-1.75-2.06,4.46,4.46,0,0,0-2.43-.75,4.83,4.83,0,0,0-3.48,1.51,6.56,6.56,0,0,0-1.79,4.21Z" style="fill:#3f3f3f"/><path d="M282.38,425.59a10.9,10.9,0,0,1-3.07,2.36,7.35,7.35,0,0,1-3.23.71,8,8,0,0,1-6.14-2.94,10.94,10.94,0,0,1-2.62-7.56,13.7,13.7,0,0,1,2.91-8.45,9,9,0,0,1,7.48-3.83,6.45,6.45,0,0,1,4.69,1.8v-4a31,31,0,0,0-.18-4.52,2,2,0,0,0-.55-1.15,1.45,1.45,0,0,0-.94-.3,4.74,4.74,0,0,0-1.62.38l-.3-.82,6.4-2.62h1.05v24.82a32.26,32.26,0,0,0,.18,4.61,2,2,0,0,0,.56,1.16,1.35,1.35,0,0,0,.9.33,5.22,5.22,0,0,0,1.69-.4l.26.82-6.37,2.65H282.4Zm0-1.64V412.88a7.4,7.4,0,0,0-.84-2.91,4.91,4.91,0,0,0-1.86-2,4.51,4.51,0,0,0-2.26-.67,4.8,4.8,0,0,0-3.68,1.85c-1.42,1.63-2.13,4-2.13,7.13s.69,5.54,2.06,7.25a5.9,5.9,0,0,0,4.59,2.52,5.72,5.72,0,0,0,4.12-2.1Z" style="fill:#3f3f3f"/><path d="M298.62,405.9v17.25a7.84,7.84,0,0,0,.29,2.68,2.07,2.07,0,0,0,.87,1,4.71,4.71,0,0,0,2.1.33V428H291.45v-.84a4.74,4.74,0,0,0,2.11-.3,2,2,0,0,0,.86-1,7.48,7.48,0,0,0,.32-2.7v-8.27a28.46,28.46,0,0,0-.21-4.52,1.83,1.83,0,0,0-.52-1,1.44,1.44,0,0,0-1-.29,4.59,4.59,0,0,0-1.59.35l-.33-.84,6.47-2.62Zm-1.95-11.23A2.37,2.37,0,0,1,299,397a2.34,2.34,0,0,1-.69,1.69,2.27,2.27,0,0,1-1.68.7,2.38,2.38,0,0,1,0-4.76Z" style="fill:#3f3f3f"/><path d="M316.71,424.91a35.85,35.85,0,0,1-4.15,3,6.47,6.47,0,0,1-2.7.59,4.85,4.85,0,0,1-3.67-1.52,5.56,5.56,0,0,1-1.44-4,5.09,5.09,0,0,1,.7-2.72,9.26,9.26,0,0,1,3.34-3,51.74,51.74,0,0,1,7.91-3.42V413c0-2.14-.33-3.61-1-4.41a3.7,3.7,0,0,0-3-1.2,3.34,3.34,0,0,0-2.34.8,2.42,2.42,0,0,0-.89,1.83v1.36A2.35,2.35,0,0,1,309,413a1.9,1.9,0,0,1-1.44.59,1.83,1.83,0,0,1-1.42-.61,2.39,2.39,0,0,1-.55-1.66,4.82,4.82,0,0,1,2.06-3.7,8.88,8.88,0,0,1,5.79-1.69,10,10,0,0,1,4.69,1,4.44,4.44,0,0,1,2,2.27,12.77,12.77,0,0,1,.42,4.13v7.29a33.74,33.74,0,0,0,.12,3.76,1.55,1.55,0,0,0,.39.93.93.93,0,0,0,.62.23,1.27,1.27,0,0,0,.66-.16,14.68,14.68,0,0,0,1.9-1.71V425c-1.75,2.35-3.41,3.52-5,3.52a2.28,2.28,0,0,1-1.83-.8A4.3,4.3,0,0,1,316.71,424.91Zm0-1.52V415.2a45.16,45.16,0,0,0-4.57,2,7.82,7.82,0,0,0-2.65,2.16,4.18,4.18,0,0,0-.8,2.46,4,4,0,0,0,1,2.8,3.06,3.06,0,0,0,2.32,1.11q1.8,0,4.7-2.35Z" style="fill:#3f3f3f"/><polygon points="326.3 415.46 338.42 415.46 338.42 419 326.3 419 326.3 415.46" style="fill:#3f3f3f"/><path d="M360.5,421.41l-.26,6.59H341.3v-.84l14.25-19h-7a9.48,9.48,0,0,0-3,.29,2.34,2.34,0,0,0-1.15,1.11,6.84,6.84,0,0,0-.73,2.91h-.94l.14-6h18v.87l-14.39,19h7.83a9,9,0,0,0,3.34-.41,3.1,3.1,0,0,0,1.42-1.44,11.37,11.37,0,0,0,.63-3.16Z" style="fill:#3f3f3f"/><path d="M369.45,394.67v15.7a17.84,17.84,0,0,1,4.13-3.67,6.44,6.44,0,0,1,3-.81,5,5,0,0,1,3.14,1,6,6,0,0,1,1.95,3.16,22.39,22.39,0,0,1,.45,5.48v7.59a8,8,0,0,0,.33,2.79,1.82,1.82,0,0,0,.8.89,4.54,4.54,0,0,0,2.06.33V428H374.79v-.84h.49a3.47,3.47,0,0,0,2.09-.46,2.39,2.39,0,0,0,.82-1.35,18,18,0,0,0,.07-2.2v-7.59a17.92,17.92,0,0,0-.36-4.62,3.12,3.12,0,0,0-1.16-1.65,3.28,3.28,0,0,0-1.92-.55,5.53,5.53,0,0,0-2.39.61,11.28,11.28,0,0,0-3,2.46v11.34a8.71,8.71,0,0,0,.25,2.74,2,2,0,0,0,.91.9,5.2,5.2,0,0,0,2.31.36V428H362.28v-.84a4.71,4.71,0,0,0,2.25-.45,1.68,1.68,0,0,0,.75-.89,8,8,0,0,0,.28-2.67V403.72a31,31,0,0,0-.18-4.52,2,2,0,0,0-.54-1.15,1.43,1.43,0,0,0-1-.3,5.77,5.77,0,0,0-1.59.38l-.33-.82,6.42-2.62Z" style="fill:#3f3f3f"/><rect x="120.33" y="372" width="271.33" height="2" style="fill:#3f3f3f"/></g></g></svg>