<svg xmlns="http://www.w3.org/2000/svg" xmlns:xlink="http://www.w3.org/1999/xlink" viewBox="0 0 512 512"><defs><linearGradient id="linear-gradient" x1="131.7669" y1="272.48144" x2="263.47237" y2="272.48144" gradientUnits="userSpaceOnUse"><stop offset="0" stop-color="#ffc7c7"/><stop offset="1" stop-color="#6dc5e8"/></linearGradient><linearGradient id="linear-gradient-2" x1="77.09003" y1="255.09228" x2="414.57228" y2="255.09228" gradientUnits="userSpaceOnUse"><stop offset="0" stop-color="#ffc7c7"/><stop offset="1" stop-color="#94d0e8"/></linearGradient></defs><title>Wikipedia_zh_physics</title><g id="Layer_2" data-name="Layer 2"><circle cx="256" cy="256" r="256" style="fill:#ccc"/><circle cx="256" cy="256" r="245.10001" style="fill:#512743"/><path d="M440.71,94.89,405.3,123.71A70.49539,70.49539,0,0,1,300.61,50.85l10.47-33.73A244.95309,244.95309,0,0,1,440.71,94.89Z" style="opacity:0.2"/><g id="txt"><path d="M171.295,397.22v.87a3.99983,3.99983,0,0,0-2,.45,4.38,4.38,0,0,0-1.48,1.66,27.15173,27.15173,0,0,0-1.48,3.91l-8.86,25.62h-.94l-7.24-20.32-7.2,20.32h-.84l-9.45-26.39a32.27416,32.27416,0,0,0-1.34-3.49,3.08,3.08,0,0,0-1.28-1.32,4.66014,4.66014,0,0,0-2.19-.43v-.87h11.77v.87h-.56a2.84008,2.84008,0,0,0-1.9.56,1.73,1.73,0,0,0-.66,1.36,16.19,16.19,0,0,0,1,3.77l6.26,17.84,5.27-15.16-.94-2.67-.75-2.13a11.59912,11.59912,0,0,0-1.1-2.06,2.84985,2.84985,0,0,0-.75-.75,4.21018,4.21018,0,0,0-1.17-.61,5.08,5.08,0,0,0-1.41-.14v-.87h12.38v.87h-.84a2.77,2.77,0,0,0-1.92.56,2.00005,2.00005,0,0,0-.61,1.52,14.99976,14.99976,0,0,0,1.05,4.17l6.09,17.27,6-17.51a14.71942,14.71942,0,0,0,1-4,1.68,1.68,0,0,0-.34-1,1.8,1.8,0,0,0-.86-.66,6.83026,6.83026,0,0,0-2.32-.33v-.87Z" style="fill:#f2f2f2"/><path d="M178.645,406.9v17.25a7.90012,7.90012,0,0,0,.29,2.68,2.06006,2.06006,0,0,0,.87,1,4.64016,4.64016,0,0,0,2.1.33V429h-10.43v-.84a4.85037,4.85037,0,0,0,2.11-.3,2.09,2.09,0,0,0,.86-1,7.58019,7.58019,0,0,0,.32-2.7v-8.27a29.26179,29.26179,0,0,0-.21-4.52,1.84,1.84,0,0,0-.52-1,1.46,1.46,0,0,0-1-.29,4.69,4.69,0,0,0-1.59.35l-.33-.84,6.47-2.62Zm-1.95-11.23a2.36,2.36,0,0,1,2.37,2.35q0,.01,0,.02a2.32,2.32,0,0,1-.69,1.69,2.26,2.26,0,0,1-1.68.7,2.38,2.38,0,0,1,0-4.76Z" style="fill:#f2f2f2"/><path d="M190.935,395.67V417l5.46-5a18.29,18.29,0,0,0,2-2,.98852.98852,0,0,0-.2-1.37,2.10016,2.10016,0,0,0-1.28-.39v-.75h9.33v.75a8.83022,8.83022,0,0,0-3.2.59,10.33025,10.33025,0,0,0-2.8,1.92l-5.51,5.09,5.51,7q2.3,2.88,3.09,3.66a6.36031,6.36031,0,0,0,2,1.43,6.12941,6.12941,0,0,0,2,.23V429h-10.4v-.84a2.1801,2.1801,0,0,0,1.21-.27.83.83,0,0,0,.32-.69,3.6101,3.6101,0,0,0-.94-1.73l-6.59-8.47v7.13a8.1,8.1,0,0,0,.29,2.74,1.86,1.86,0,0,0,.83.94,6.27991,6.27991,0,0,0,2.34.3V429h-10.92v-.84a5.85948,5.85948,0,0,0,2.46-.4,1.68988,1.68988,0,0,0,.75-.8,7.11,7.11,0,0,0,.35-2.67V404.74a35.00131,35.00131,0,0,0-.16-4.56,2.00005,2.00005,0,0,0-.54-1.15,1.46993,1.46993,0,0,0-1-.32,4.42994,4.42994,0,0,0-1.48.4l-.4-.82,6.38-2.62Z" style="fill:#f2f2f2"/><path d="M216.005,406.9v17.25a7.90012,7.90012,0,0,0,.29,2.68,2.06006,2.06006,0,0,0,.87,1,4.64016,4.64016,0,0,0,2.1.33V429h-10.45v-.84a4.85039,4.85039,0,0,0,2.11-.3,2.09009,2.09009,0,0,0,.86-1,7.58019,7.58019,0,0,0,.32-2.7v-8.27a29.26054,29.26054,0,0,0-.21-4.52,1.83988,1.83988,0,0,0-.52-1,1.46,1.46,0,0,0-1-.29,4.68991,4.68991,0,0,0-1.59.35l-.33-.84,6.47-2.62Zm-2-11.23a2.36,2.36,0,0,1,2.39984,2.31949L216.405,398a2.32,2.32,0,0,1-.69,1.69,2.26,2.26,0,0,1-1.68.7,2.38,2.38,0,0,1,0-4.76Z" style="fill:#f2f2f2"/><path d="M220.365,409.66l6.64-2.66h.89v5a12.17,12.17,0,0,1,3.34-4,6.17994,6.17994,0,0,1,3.53-1.14,6.79,6.79,0,0,1,5.39,2.53,12,12,0,0,1,2.65,8.06,13.42,13.42,0,0,1-3.19,9.19,8.44,8.44,0,0,1-6.61,3,8.26977,8.26977,0,0,1-3-.49,6.99982,6.99982,0,0,1-2.11-1.41v6.54a8.71,8.71,0,0,0,.27,2.8,2,2,0,0,0,.94.95,5.75962,5.75962,0,0,0,2.43.35v.87h-11.28v-.87h.59a4.26014,4.26014,0,0,0,2.2-.49,1.6901,1.6901,0,0,0,.69-.83,10.00013,10.00013,0,0,0,.25-2.92v-20.3a11.00066,11.00066,0,0,0-.19-2.65,1.59,1.59,0,0,0-.6-.84,1.94,1.94,0,0,0-1.11-.28,4.23945,4.23945,0,0,0-1.43.33Zm7.5,3.73v8a17.19089,17.19089,0,0,0,.21,3.42,4.37987,4.37987,0,0,0,1.61,2.39,4.99992,4.99992,0,0,0,3.22,1,4.62,4.62,0,0,0,3.8-1.83,10.57,10.57,0,0,0,1.9-6.73q0-4.92-2.16-7.57a4.49,4.49,0,0,0-3.56-1.83,4.85008,4.85008,0,0,0-2.23.56A13.06981,13.06981,0,0,0,227.865,413.39Z" style="fill:#f2f2f2"/><path d="M249.525,415.62a11,11,0,0,0,2.32,7.5,7.08007,7.08007,0,0,0,5.51,2.72,6,6,0,0,0,3.67-1.16,8.56009,8.56009,0,0,0,2.61-4l.73.47a11.1798,11.1798,0,0,1-2.86,5.85,7.64,7.64,0,0,1-5.93,2.64,8.66007,8.66007,0,0,1-6.62-3,11.53993,11.53993,0,0,1-2.75-8.1q0-5.51,2.82-8.59a9.21,9.21,0,0,1,7.09-3.08,7.92991,7.92991,0,0,1,5.93,2.38,8.72013,8.72013,0,0,1,2.32,6.36Zm0-1.36h9.94a9.19,9.19,0,0,0-.49-2.91,4.64993,4.64993,0,0,0-1.75-2.06,4.39989,4.39989,0,0,0-2.43-.75,4.83,4.83,0,0,0-3.48,1.51A6.56,6.56,0,0,0,249.525,414.26Z" style="fill:#f2f2f2"/><path d="M282.385,426.59a10.84052,10.84052,0,0,1-3.07,2.36,7.41985,7.41985,0,0,1-3.23.71,8,8,0,0,1-6.14-2.94,10.92994,10.92994,0,0,1-2.62-7.56,13.66006,13.66006,0,0,1,2.91-8.45,9,9,0,0,1,7.48-3.83,6.44,6.44,0,0,1,4.69,1.8v-4a32.40045,32.40045,0,0,0-.18-4.52,1.99987,1.99987,0,0,0-.55-1.15,1.44,1.44,0,0,0-.94-.3,4.94,4.94,0,0,0-1.62.38l-.3-.82,6.4-2.62h1.05v24.82a33.21472,33.21472,0,0,0,.18,4.61,2,2,0,0,0,.56,1.16,1.34994,1.34994,0,0,0,.9.33,5.1,5.1,0,0,0,1.69-.4l.26.82-6.37,2.65h-1.08Zm0-1.64V413.88a7.47957,7.47957,0,0,0-.84-2.91,4.87007,4.87007,0,0,0-1.86-2,4.51981,4.51981,0,0,0-2.26-.67,4.8,4.8,0,0,0-3.68,1.85q-2.13,2.44-2.13,7.13t2.06,7.25a5.91,5.91,0,0,0,4.59,2.52,5.71,5.71,0,0,0,4.12-2.1Z" style="fill:#f2f2f2"/><path d="M298.625,406.9v17.25a7.89988,7.89988,0,0,0,.29,2.68,2.06006,2.06006,0,0,0,.87,1,4.64019,4.64019,0,0,0,2.1.33V429h-10.43v-.84a4.85037,4.85037,0,0,0,2.11-.3,2.09,2.09,0,0,0,.86-1,7.58,7.58,0,0,0,.32-2.7v-8.27a29.25928,29.25928,0,0,0-.21-4.52,1.83987,1.83987,0,0,0-.52-1,1.46005,1.46005,0,0,0-1-.29,4.69,4.69,0,0,0-1.59.35l-.33-.84,6.47-2.62Zm-1.95-11.23a2.36,2.36,0,0,1,2.33,2.33,2.32007,2.32007,0,0,1-.69,1.69,2.26,2.26,0,0,1-1.68.7,2.38,2.38,0,1,1,0-4.76Z" style="fill:#f2f2f2"/><path d="M316.715,425.91a35.37641,35.37641,0,0,1-4.15,3,6.34006,6.34006,0,0,1-2.7.59,4.83,4.83,0,0,1-3.67-1.52,5.59006,5.59006,0,0,1-1.44-4,5.1,5.1,0,0,1,.7-2.72,9.31024,9.31024,0,0,1,3.34-3,52.00133,52.00133,0,0,1,7.91-3.42V414q0-3.21-1-4.41a3.68,3.68,0,0,0-3-1.2,3.33013,3.33013,0,0,0-2.34.8,2.4,2.4,0,0,0-.89,1.83v1.36A2.33993,2.33993,0,0,1,309.005,414a1.89006,1.89006,0,0,1-1.44.59,1.82,1.82,0,0,1-1.42-.61,2.39,2.39,0,0,1-.55-1.66,4.8,4.8,0,0,1,2.06-3.7,8.91,8.91,0,0,1,5.79-1.69,9.99976,9.99976,0,0,1,4.69,1,4.42013,4.42013,0,0,1,2,2.27,12.81032,12.81032,0,0,1,.42,4.13v7.29a33.38061,33.38061,0,0,0,.12,3.76,1.58011,1.58011,0,0,0,.39.93.92013.92013,0,0,0,.62.23,1.2798,1.2798,0,0,0,.66-.16,14.64036,14.64036,0,0,0,1.9-1.71v1.31q-2.62,3.52-5,3.52a2.28,2.28,0,0,1-1.83-.8A4.29984,4.29984,0,0,1,316.715,425.91Zm0-1.52V416.2a46.27528,46.27528,0,0,0-4.57,2,7.89,7.89,0,0,0-2.65,2.16,4.17,4.17,0,0,0-.8,2.46,4,4,0,0,0,1,2.8,3.05,3.05,0,0,0,2.32,1.11q1.8,0,4.7-2.35Z" style="fill:#f2f2f2"/><path d="M326.305,416.46h12.12V420h-12.12Z" style="fill:#f2f2f2"/><path d="M360.505,422.41l-.26,6.59h-18.94v-.84l14.25-19h-7a9.45049,9.45049,0,0,0-3,.29,2.3501,2.3501,0,0,0-1.15,1.11,6.85952,6.85952,0,0,0-.73,2.91h-.94l.14-6h18v.87l-14.39,19h7.83a9.00054,9.00054,0,0,0,3.34-.41,3.08993,3.08993,0,0,0,1.42-1.44,11.12948,11.12948,0,0,0,.63-3.16Z" style="fill:#f2f2f2"/><path d="M369.455,395.67v15.7a18.06023,18.06023,0,0,1,4.13-3.67,6.45037,6.45037,0,0,1,3-.81,5.00009,5.00009,0,0,1,3.14,1,5.99989,5.99989,0,0,1,1.95,3.16,22.40973,22.40973,0,0,1,.45,5.48v7.59a7.93953,7.93953,0,0,0,.33,2.79,1.83021,1.83021,0,0,0,.8.89,4.49005,4.49005,0,0,0,2.06.33V429h-10.52v-.84h.49a3.50984,3.50984,0,0,0,2.09-.46,2.42,2.42,0,0,0,.82-1.35,18.58734,18.58734,0,0,0,.07-2.2v-7.59a18.24091,18.24091,0,0,0-.36-4.62,3.10987,3.10987,0,0,0-1.16-1.65,3.3,3.3,0,0,0-1.92-.55,5.42006,5.42006,0,0,0-2.39.61,11.40032,11.40032,0,0,0-3,2.46v11.34a8.83017,8.83017,0,0,0,.25,2.74,2,2,0,0,0,.91.9,5.22018,5.22018,0,0,0,2.31.36V429h-10.62v-.84a4.74955,4.74955,0,0,0,2.25-.45,1.67,1.67,0,0,0,.75-.89,8.08945,8.08945,0,0,0,.28-2.67V404.72a32.402,32.402,0,0,0-.18-4.52,2.00008,2.00008,0,0,0-.54-1.15,1.4601,1.4601,0,0,0-1-.3,5.72011,5.72011,0,0,0-1.59.38l-.33-.82,6.42-2.62Z" style="fill:#f2f2f2"/><rect x="120.33501" y="373" width="271.32997" height="2" style="fill:#f2f2f2"/></g><g id="gargantua"><path d="M261.95187,277.72618A65.82951,65.82951,0,1,0,136.87019,317.076c.28508.689.57808,1.37.89486,2.05106,1.40164-.11881,2.81126-.22968,4.22083-.33259-.35637-.72066-.689-1.4492-1.01362-2.18567a62.28645,62.28645,0,0,1-3.817-11.82317,61.87461,61.87461,0,0,1,47.356-73.57611,61.95158,61.95158,0,0,1,73.57606,47.356,61.48225,61.48225,0,0,1-1.275,31.20908q-.67709,2.17373-1.50459,4.3c1.40957-.00793,2.82711-.01585,4.24461-.02378q.77207-2.12625,1.39376-4.3a64.7371,64.7371,0,0,0,2.52619-17.93667A66.59665,66.59665,0,0,0,261.95187,277.72618Z" style="fill:url(#linear-gradient)"/><path d="M339.63,268.12q-9.285,5.1-19.46,10.39-5.055,2.64-10.3,5.29a105.48513,105.48513,0,0,1-1.78,26.78c-.26,1.34-.55,2.68-.86005,4.01v.01a.43146.43146,0,0,0-.16,0c-3.42-.09-6.84-.16-10.26-.23-.55-.01-1.11-.03-1.66-.04-.84-.02-1.68-.04-2.52-.05-2.51-.05-5.03-.08-7.55-.11005-.38-.01-.75-.01-1.12-.01q-3.885-.045-7.78-.06994v-.01c.41-1.41.77-2.83,1.09-4.27a79.36492,79.36492,0,0,0,1.74-10.92q-8.49,4.005-17.33,8.04-2.31,1.065-4.65,2.11-.82507.375-1.65.75-4.86,2.19-9.8,4.37c-.39,0-.78.01-1.17005.02q-3.42.03-6.82995.1c-.76.01-1.52.02-2.28.04q-2.865.045-5.73.12c-1.78.03-3.56.07-5.33.12-2.39.06-4.79.13-7.18.2-2.67.08-5.35.17-8.02.26-.49.02-.97.03-1.45.05.85-.36,1.68-.72,2.48-1.08,1.87-.83,4.36-1.91,7.26-3.23,11.57-5.27,29.75-14.26,41.84-25.46q1.875-1.725,3.53-3.53c6.3-6.84,10.04-14.4,8.65-22.35a31.97827,31.97827,0,0,0-2.16-7.16,81.702,81.702,0,0,0-152.63,49.57c.8,4.21,1.44,7.7,2.06,10.63995.6,2.25,1.28,4.46,2.05,6.61005.17005.49.35.98.53,1.46-13.95,1.27-22.39,2.06-33.88,3.4-1.37.17-2.79.33-4.27.51-1.88.23-3.86.48-5.96.74,1.96-.66,3.84-1.31,5.61-1.96,10.69-3.88,17.7-7.69,16.62-13.49C95.79,290.92,92,219,162.64,192.37c75.4-28.41,119.99,34.24,128.03,36.75,2.09.65,6.76.2,13.13-.95,5.82-1.05,13.06-2.69,21.02-4.62,35.71-8.61,86.06-22.84,89.37-14.97C418.32,218.41,388.69,241.13,339.63,268.12Z" style="fill:url(#linear-gradient-2)"/><path d="M443.71832,324.15569a1561.7055,1561.7055,0,0,0-178.876-10.11262c-1.76594,0-3.524,0-5.28993.00788-1.4175.00793-2.835.01585-4.24461.02378q-57.27868.33257-113.32193,4.71978c-1.40957.10291-2.81919.21378-4.22083.33259q-26.04984,2.09064-51.79867,5.02859,25.26582-4.11,50.90381-7.07965c1.36206-.15839,2.732-.30886,4.10207-.4672a1116.15172,1116.15172,0,0,1,115.84014-6.83416q2.06687-.02378,4.13378-.02378c1.29869-.00793,2.59743-.00793,3.89617-.00793A1112.53253,1112.53253,0,0,1,443.71832,324.15569Z" style="fill:#e8e8e8"/><path d="M443.72,324.16c-34.27-3.91-68.93-6.76-104.75-8.42q-10.34994-.48-20.82-.82-26.16-.86992-53.31-.88c-1.76,0-3.52,0-5.29.01-1.42.01-2.83.02-4.24.02q-57.285.345-113.32,4.72c-1.41.11-2.82.22-4.22.34q-26.055,2.085-51.8,5.03,25.26-4.11,50.9-7.07995c1.36-.16,2.73-.31,4.1-.47a1115.56338,1115.56338,0,0,1,115.84-6.84c1.38-.01,2.76-.02,4.14-.02,1.29-.01,2.59-.01,3.89-.01q27.19491,0,54.05,1.31,10.365.495,20.68,1.19Q392.355,315.76505,443.72,324.16Z" style="fill:#e8e8e8"/><path d="M339.63,268.12A141.9257,141.9257,0,1,0,62.47,327.36L77.09,325.19c2.1-.26,4.07995-.51,5.96-.74.04.12.07.25.11.37l2.81-.66q25.74-2.93994,51.8-5.03c1.4-.12,2.81-.23,4.22-.34q32.565-2.535,65.6-3.72c.48-.02.96-.03,1.45-.05,2.67-.1,5.34-.18,8.02-.26,2.39-.08,4.78-.14,7.18-.2,1.77-.05,3.55-.09,5.33-.12q2.865-.075,5.73-.12c.76-.02,1.52-.03,2.28-.04q3.40494-.07507,6.82995-.1c.39-.01.78-.02,1.17005-.02q4.86-.06,9.73-.09c1.41,0,2.82-.01,4.24-.02,1.77-.01,3.53-.01,5.29-.01q5.7,0,11.34.04c.73,0,1.46.01,2.19.02,1.86.01,3.73.03,5.59.06.37,0,.74,0,1.12.01,2.52.03,5.04.06,7.55.11005q6.225.10492,12.38.26c.69.01,1.38.03,2.06.06a.43146.43146,0,0,1,.16,0c3.66.09,7.29.2,10.92.32q3.81.12,7.61.27c2.46.09,4.92.18,7.37.29q2.925.12,5.84.26c.22-1.16.42-2.33.6-3.5a143.15986,143.15986,0,0,0,.06-44.12Z" style="fill:#fff;opacity:0.15"/><path d="M320.72,289.98a120.9648,120.9648,0,0,1-1.83,21.07c-.22,1.3-.47,2.59-.74,3.87-3.63-.12-7.26-.23-10.92-.32a.43146.43146,0,0,0-.16,0c-.68-.03-1.37-.05-2.06-.06-3.28-.08-6.56-.15-9.86-.21-.84-.02-1.68-.04-2.52-.05-2.51-.05-5.03-.08-7.55-.11005-.38-.01-.75-.01-1.12-.01-1.86-.03-3.73-.05-5.59-.06-.73-.01-1.46-.02-2.19-.02q-5.64-.045-11.34-.04c-1.76,0-3.52,0-5.29.01-1.42.01-2.83.02-4.24.02q-4.875.03-9.73.09c-.39,0-.78.01-1.17005.02q-3.42.03-6.82995.1c-.76.01-1.52.02-2.28.04q-2.865.045-5.73.12c-1.78.03-3.56.07-5.33.12-2.4.06-4.79.12-7.18.2-2.68.08-5.35.16-8.02.26-.49.02-.97.03-1.45.05.85-.36,1.68-.72,2.48-1.08,1.87-.83,4.36-1.91,7.26-3.23,11.57-5.27,29.75-14.26,41.84-25.46q1.875-1.725,3.53-3.53c6.3-6.84,10.04-14.4,8.65-22.35a31.97827,31.97827,0,0,0-2.16-7.16,81.702,81.702,0,0,0-152.63,49.57c.8,4.21,1.44,7.7,2.06,10.63995.6,2.25,1.28,4.46,2.05,6.61005.17005.49.35.98.53,1.46-13.95,1.27-22.39,2.06-33.88,3.4-1.37.17-2.79.33-4.27.51-.12-.4-.24-.81-.35-1.22a121.33122,121.33122,0,1,1,237.47-44.72Q320.725,284.18,320.72,289.98Z" style="fill:#fff;opacity:0.15"/></g><path d="M405.3,123.71A66.184,66.184,0,0,1,300.61,50.85,70.51512,70.51512,0,0,0,405.3,123.71Z" style="fill:#d8d8d8"/><line x1="312.7" y1="11.9" x2="311.08" y2="17.12" style="fill:none"/></g></svg>