<?xml version="1.0" encoding="UTF-8"?>
<svg width="512px" height="512px" viewBox="0 0 512 512" version="1.1" xmlns="http://www.w3.org/2000/svg" xmlns:xlink="http://www.w3.org/1999/xlink">
    <!-- Generator: Sketch 53 (72520) - https://sketchapp.com -->
    <title>Wikipedia_zh_random 03@2x</title>
    <desc>Created with Sketch.</desc>
    <defs>
        <circle id="path-1" cx="245.711561" cy="245.366002" r="245.1"></circle>
        <circle id="path-3" cx="422" cy="313.054292" r="245.1"></circle>
        <linearGradient x1="73.8160319%" y1="71.7771826%" x2="20.862622%" y2="15.737601%" id="linearGradient-5">
            <stop stop-color="#000000" stop-opacity="0" offset="0%"></stop>
            <stop stop-color="#000000" offset="100%"></stop>
        </linearGradient>
        <circle id="path-6" cx="56.5" cy="56.5" r="56.5"></circle>
        <linearGradient x1="55.2575219%" y1="62.5673246%" x2="12.5108263%" y2="17.5378344%" id="linearGradient-8">
            <stop stop-color="#FFFFFF" stop-opacity="0" offset="0%"></stop>
            <stop stop-color="#FFFFFF" offset="100%"></stop>
        </linearGradient>
        <linearGradient x1="55.7303624%" y1="62.5673246%" x2="9.1392%" y2="17.5378344%" id="linearGradient-9">
            <stop stop-color="#FFFFFF" stop-opacity="0" offset="0%"></stop>
            <stop stop-color="#FFFFFF" offset="100%"></stop>
        </linearGradient>
        <linearGradient x1="73.6476702%" y1="89.4701305%" x2="0%" y2="29.1445394%" id="linearGradient-10">
            <stop stop-color="#FFFFFF" stop-opacity="0" offset="0%"></stop>
            <stop stop-color="#FFFFFF" offset="100%"></stop>
        </linearGradient>
        <linearGradient x1="20.7877622%" y1="12.615124%" x2="69.2825558%" y2="65.2672209%" id="linearGradient-11">
            <stop stop-color="#FFFFFF" offset="0%"></stop>
            <stop stop-color="#FFFFFF" stop-opacity="0" offset="100%"></stop>
        </linearGradient>
    </defs>
    <g id="Wikipedia_zh_random-03" stroke="none" stroke-width="1" fill="none" fill-rule="evenodd">
        <g id="Wikipedia_zh_logo">
            <circle id="Oval" fill="#CCCCCC" fill-rule="nonzero" cx="256" cy="256" r="256"></circle>
            <g id="Group-2" transform="translate(10.288439, 10.633998)">
                <mask id="mask-2" fill="white">
                    <use xlink:href="#path-1"></use>
                </mask>
                <use id="Oval" fill="#6490C7" fill-rule="nonzero" xlink:href="#path-1"></use>
                <g id="Group-4" mask="url(#mask-2)">
                    <g transform="translate(-176.288439, -67.688290)">
                        <path d="M504.42,82.279791 C467.06,216.22312 357.886667,288.647954 176.9,299.554292 L116.288439,381.054292 C279.68948,615.419086 361.39,732.601483 361.39,732.601483 C361.39,732.601483 507.173771,640.562565 798.741314,456.484728 L716.703721,171.054292 C612.54124,-22.072038 541.78,-51.6635384 504.42,82.279791 Z" id="Path-21" stroke="none" fill="#ECECEC" fill-rule="evenodd"></path>
                        <path d="M551.31,106.695831 C518.941707,168.472264 474.095437,206.351093 442.995,236.69757 C425.797179,253.478469 375.795513,276.600164 292.99,306.062658 C471.097706,267.368456 579.736865,216.814039 618.907477,154.399404 C677.663395,60.7774524 640.135,-62.8309198 551.31,106.695831 Z" id="Path-22" stroke="none" fill="#E4E4E4" fill-rule="evenodd"></path>
                        <path d="M578.438442,115.774186 C491.732814,267.062891 371.526475,389.89112 217.819425,484.258873 L232.634711,512.491325 C336.704904,499.897842 435.133333,459.95172 527.92,392.65296 C620.706667,325.3542 684.210819,278.767537 718.432457,252.892972 C711.808742,10.1917426 665.14407,-35.5145193 578.438442,115.774186 Z" id="Path-36" stroke="none" fill="#979797" fill-rule="evenodd"></path>
                        <path d="M217.819425,456.484728 C433.310754,439.304149 572.758833,374.913523 667.1,283.061917 C729.994112,221.827513 735.093367,281.658305 682.397767,462.554292 L474.687145,603.642095 L207.202488,558.954292 C70.6195606,502.094969 74.1585398,467.938448 217.819425,456.484728 Z" id="Path-28" stroke="none" fill="#454545" fill-rule="evenodd"></path>
                        <path d="M273.33,401.107566 C332.983542,369.697869 426.955564,311.013445 555.246067,225.054292 C521.905924,289.753317 475.947377,344.09474 417.370426,388.078561 C358.793475,432.062382 287.943142,470.724249 204.819425,504.064162 L153,450.254292 C173.566458,448.899504 213.676458,432.517262 273.33,401.107566 Z" id="Path-34" stroke="none" fill="#6C6C6C" fill-rule="evenodd"></path>
                        <path d="M169.165075,320.669383 C207.500051,310.931566 238.844437,306.062658 263.198232,306.062658 C287.552028,306.062658 332.329526,296.651374 397.530727,277.828807 C333.051335,308.546687 290.890065,327.403626 271.046918,334.399625 C251.20377,341.395623 208.87084,347.984447 144.048128,354.166097 L169.165075,320.669383 Z" id="Path-23" stroke="none" fill="#CBCBCB" fill-rule="evenodd"></path>
                        <path d="M176.9,366.300741 C264.641003,368.136442 391.784336,345.948312 558.33,299.736351 C461.513098,361.203778 375.327479,401.123624 299.773144,419.495892 C224.218809,437.868159 183.057241,443.757646 176.288439,437.164353 C88.9551434,388.086245 89.158997,364.465041 176.9,366.300741 Z" id="Path-31" stroke="none" fill="#8B8B8B" fill-rule="evenodd"></path>
                        <path d="M599.902474,146.184951 C532.207491,229.431179 429.903333,303.720959 292.99,369.054292 C379.096667,345.882437 444.846667,324.885225 490.24,306.062658 C535.633333,287.24009 598.22,282.198001 678,290.936389 C693.629965,111.189203 667.597457,62.938724 599.902474,146.184951 Z" id="Path-24" stroke="none" fill="#D8D8D8" fill-rule="evenodd"></path>
                        <path d="M647.23658,187.131969 C615.657524,239.560113 566.031997,296.603441 498.36,358.261952 C571.152554,338.940503 627.399221,320.704616 667.1,303.554292 C726.651169,277.828807 694.605165,108.489752 647.23658,187.131969 Z" id="Path-2" stroke="none" fill="#757575" fill-rule="evenodd"></path>
                        <path d="M433.310754,354.166097 C482.636918,336.758227 542.132155,295.387626 611.796465,230.054292 C546.697531,303.25945 490.430377,349.592783 442.995,369.054292 C395.559623,388.515801 320.501099,402.190558 217.819425,410.078561 C312.154147,390.211454 383.98459,371.573966 433.310754,354.166097 Z" id="Path-25" stroke="none" fill="#B3B3B3" fill-rule="evenodd"></path>
                        <path d="M492.3,369.756296 C546.745963,336.629717 595.493121,292.831016 638.541474,238.360194 C588.144508,315.83302 546.202521,367.263942 512.715512,392.65296 C479.228504,418.041979 410.572274,436.175756 306.746823,447.054292 C376.002978,428.648875 437.854037,402.882876 492.3,369.756296 Z" id="Path-35" stroke="none" fill="#4E4E4E" fill-rule="evenodd"></path>
                        <path d="M382.400324,474.307889 C439.550736,445.92759 548.235265,353.916356 708.453912,198.274186 C673.542807,337.460923 603.511503,430.054292 498.36,476.054292 C393.208497,522.054292 291.088497,539.560831 192,528.573909 C261.783138,520.776861 325.249913,502.688187 382.400324,474.307889 Z" id="Path-35" stroke="none" fill="#3D3D3D" fill-rule="evenodd"></path>
                        <path d="M112.099026,402.753846 C220.997299,385.142518 321.721393,334.170879 388.220834,268.572634 C432.553795,224.840471 462.480184,164.66769 478,88.0542924 C466.21979,168.951095 437.870735,236.569003 392.952836,290.908016 C348.034937,345.247029 262.327786,397.295788 135.831383,447.054292 C47.410963,429.261546 39.5001771,414.49473 112.099026,402.753846 Z" id="Path-26" stroke="none" fill="#FFFFFF" fill-rule="evenodd"></path>
                        <path d="M40.5090014,490.951181 C149.407274,473.339854 250.131368,422.368215 316.63081,356.76997 C360.963771,313.037807 393.555159,269.799248 414.404976,227.054292 C397.294766,274.082652 366.280711,324.766339 321.362812,379.105352 C276.444913,433.444365 207.81001,493.159791 115.458104,558.251628 C-7.10681322,525.125548 -32.0898473,502.692066 40.5090014,490.951181 Z" id="Path-26" stroke="none" fill="#E2E2E2" fill-rule="evenodd"></path>
                        <path d="M290,244.113427 C319.026667,235.308603 341.826667,227.523289 358.4,220.757486 C374.973333,213.991683 396.33,198.423952 422.47,174.054292 C403.641165,207.017284 385.737111,226.925392 368.757836,233.778615 C351.778562,240.631838 325.52595,244.076775 290,244.113427 Z" id="Path-27" stroke="none" fill="#D2D2D2" fill-rule="evenodd"></path>
                        <path d="M290,244.113427 C319.026667,235.308603 341.826667,227.523289 358.4,220.757486 C374.973333,213.991683 396.33,198.423952 422.47,174.054292 C400.838345,202.534403 381.53288,220.201069 364.553606,227.054292 C347.574331,233.907515 322.723129,239.593894 290,244.113427 Z" id="Path-27" stroke="none" fill="#EEEEEE" fill-rule="evenodd"></path>
                        <path d="M176.288439,267.554292 C203.975763,268.405295 235.476093,265.83146 270.789428,259.832787 C223.2678,271.830133 191.971324,277.828807 176.9,277.828807 C154.293014,277.828807 134.757453,266.277788 176.288439,267.554292 Z" id="Path-30" stroke="none" fill="#FFFFFF" fill-rule="evenodd"></path>
                        <path d="M593.994063,130.241259 C600.784816,151.586834 596.538494,187.458733 581.255096,237.856957 C565.971699,288.25518 547.843333,327.024894 526.87,354.166097 C564.547423,308.810812 589.561561,271.490006 601.912415,242.203678 C614.263269,212.91735 623.628092,173.034221 630.006884,122.554292 L593.994063,130.241259 Z" id="Path-32" stroke="none" fill="#B5B5B5" fill-rule="evenodd"></path>
                        <path d="M680.860304,283.230687 C634.817744,348.446424 538.613251,422.057582 392.246823,504.064162 C562.078709,466.068965 664.497985,425.065675 699.504652,381.054292 C752.014652,315.037219 749.924143,185.407082 680.860304,283.230687 Z" id="Path-29" stroke="none" fill="#353535" fill-rule="evenodd"></path>
                        <path d="M517.085,77.1543564 C517.085,165.107359 504.887409,258.809891 480.492228,358.261952 C511.410743,239.937183 528.658685,156.069739 532.236055,106.659621 C537.602111,32.5444439 517.085,-54.7751471 517.085,77.1543564 Z" id="Path-33" stroke="none" fill="#FFFFFF" fill-rule="evenodd"></path>
                        <path d="M290,531.751282 C423.493333,507.453289 546.477089,463.506326 658.951266,399.910395 L647.23658,512.491325 L377.65,642.659845 C185.723333,593.018796 156.506667,556.049275 290,531.751282 Z" id="Path-3" stroke="none" fill="#242424" fill-rule="evenodd"></path>
                        <mask id="mask-4" fill="white">
                            <use xlink:href="#path-3"></use>
                        </mask>
                        <use id="Oval" stroke="none" fill="#6490C7" fill-rule="nonzero" opacity="0.316731771" xlink:href="#path-3"></use>
                    </g>
                </g>
                <polygon id="Path-39" fill="url(#linearGradient-5)" opacity="0.297200521" mask="url(#mask-2)" points="245.5 103.350622 501.711561 361.25893 435.508026 453.596829 169.798106 186.149044"></polygon>
                <g id="balloon" mask="url(#mask-2)">
                    <g transform="translate(144.711561, 82.366002)">
                        <g id="Group-3" stroke-width="1" fill="none" fill-rule="evenodd">
                            <mask id="mask-7" fill="white">
                                <use xlink:href="#path-6"></use>
                            </mask>
                            <use id="Oval" fill="#FFFFFF" xlink:href="#path-6"></use>
                            <path d="M58.5816373,59.7892096 C58.5137903,59.9297807 58.4449877,60.0732207 58.3752296,60.2195294 C58.3522954,60.268299 58.3293612,60.3156342 58.3049936,60.3629694 C58.2610364,60.4538147 58.2166014,60.5456162 58.1716886,60.6383741 L57.4277606,62.1660095 C57.377592,62.2692862 57.3274235,62.372563 57.2758215,62.4758397 C57.1324828,62.78567 56.9719435,63.0983691 56.818571,63.4110682 C56.6451312,63.7682336 56.4688245,64.1282679 56.2939513,64.4811302 L56.2065147,64.6575613 L55.9327377,65.2141083 C55.1501083,66.7919477 54.4061803,68.2808543 53.8213583,69.4068579 L53.6966536,69.6464026 C53.5676487,69.8916849 53.4472442,70.11832 53.3383068,70.3220047 C52.6904158,71.4494427 52.1084605,71.8496401 51.5895744,71.6746434 C51.2914298,71.5771042 51.0162195,71.2902243 50.7582097,70.8426917 C50.6707958,70.6908233 50.591839,70.5342348 50.5217009,70.3736431 C50.3783621,70.0236496 50.2163894,69.6564434 50.0501164,69.2791963 C50.0099816,69.184526 49.96698,69.0884212 49.9254118,68.9923164 L49.7276043,68.5433494 C49.5221521,68.1005981 49.314311,67.6401559 49.1040809,67.1620227 C49.0567791,67.0573116 49.0094773,66.951166 48.9607421,66.8450205 C48.8154922,66.5256275 48.6678533,66.2009751 48.5178255,65.8710632 C48.2870501,65.3661546 48.0491079,64.8483364 47.8011319,64.3233462 C47.7437964,64.1999879 47.6850275,64.0751951 47.627692,63.948968 L47.4083838,63.4756162 L47.1088058,62.8315708 C46.6658892,61.8819984 46.2129388,60.9123444 45.7571217,59.9383871 L45.4604105,59.3043826 L45.0819963,58.4953813 C44.9682809,58.2544022 44.8559989,58.0153356 44.7451503,57.7781816 C43.7618466,55.6739176 42.7957436,53.599776 41.938578,51.7049343 C41.8841093,51.5873136 41.8325074,51.4696928 41.779472,51.3535064 C41.6174993,50.9934722 41.4583933,50.6363067 41.3050209,50.2949197 L41.0369775,49.6896031 C41.0342328,49.6821659 41.0308768,49.6749693 41.0269437,49.6680871 L40.7804011,49.0943273 C40.5410255,48.5463867 40.3174171,48.0242653 40.1138761,47.5337007 C39.6523254,46.4277787 39.3040123,45.717751 38.9671663,45.4366087 C38.6303203,45.1554664 37.9494613,44.9919449 36.9059554,44.9360033 C36.8314193,44.9273969 36.7626167,44.9187905 36.7038478,44.9058809 L36.6307451,44.8901025 L36.5461752,44.8642833 C36.4981015,44.8481403 36.4526926,44.8249364 36.4114368,44.7954322 C36.4022196,44.7885061 36.3935899,44.7808299 36.3856358,44.7724818 C36.3711923,44.7593109 36.3590769,44.7437921 36.3498012,44.726581 L36.3412008,44.7079338 L36.3412008,44.697893 C36.3405275,44.6907368 36.3405275,44.6835332 36.3412008,44.676377 C36.3398016,44.6673464 36.3398016,44.658154 36.3412008,44.6491234 L36.3412008,43.8128686 L36.434371,43.7311078 C38.1343683,43.721067 46.3663112,43.7311078 46.3663112,43.7311078 L46.4594814,43.8128686 L46.4594814,44.6089602 C46.4594814,44.8298578 46.3161427,44.9360033 46.0452325,44.9360033 L45.0088935,44.9790353 C44.1201934,45.0163297 43.6758434,45.2816936 43.6758434,45.775127 C43.6758434,46.0046309 43.7690135,46.3790092 43.9754213,46.8796146 C45.9649628,51.7321879 52.8380546,66.2325319 52.8380546,66.2325319 L53.0888974,66.2985143 L57.518064,57.4568761 L57.5764657,57.3406829 C57.5371646,57.2523505 57.4988712,57.167549 57.4623487,57.0839487 L57.4086848,56.964703 L57.3041812,56.708971 L57.2462806,56.5782317 C57.1813189,56.4345621 57.1220061,56.3009493 57.0697543,56.1817036 L57.0160904,56.0595844 L56.9708996,55.9604524 L56.9313578,55.8713772 C56.924948,55.8536518 56.9173999,55.8363742 56.9087624,55.8196561 L56.8875793,55.7722452 L56.8508618,55.6889168 C56.8508618,55.6759865 56.8409763,55.6644929 56.8353275,55.6529994 L56.8099077,55.5940948 C56.8051105,55.5857718 56.8008645,55.5771324 56.7971978,55.5682343 L56.7887245,55.5495573 C56.7894986,55.5443188 56.7894986,55.5389921 56.7887245,55.5337536 L56.7887245,55.5136398 L55.2578889,52.453477 L53.7722439,49.5254903 C53.7722439,49.5254903 53.1932378,48.325849 52.9955284,47.9278842 L52.9743452,47.8847833 L52.8557196,47.6462917 L52.7455672,47.4221671 L52.6791933,47.2899911 C52.6495369,47.2282132 52.6198805,47.1693086 52.5916363,47.1118408 C52.576102,47.0787968 52.5591555,47.0471894 52.5436212,47.0155821 L52.4970182,46.9207602 L52.4518275,46.8302483 C52.4377054,46.8000777 52.4235833,46.7713438 52.408049,46.7426099 L52.3656827,46.6578448 C52.3233164,46.5745164 52.2837745,46.4954981 52.2442326,46.4207899 C52.2230495,46.377689 52.2004541,46.3360248 52.179271,46.2943607 C52.1754586,46.2889374 52.1721493,46.2831659 52.1693855,46.2771203 L52.132668,46.2095956 C52.0733552,46.0975333 52.0168668,45.9969646 51.9617906,45.9064527 C51.9434319,45.8734087 51.923661,45.8432381 51.9053022,45.8130674 C51.850226,45.725429 51.7965621,45.6478474 51.7443103,45.578886 L51.7132417,45.5400952 C51.6905899,45.509802 51.6660618,45.4810096 51.6398067,45.4538934 C51.6286644,45.4399332 51.6163815,45.4269567 51.6030893,45.4151026 C51.5903794,45.4021723 51.5790817,45.3892421 51.5663718,45.3777485 L51.5381276,45.3504513 L51.5254177,45.3389577 L51.5042346,45.3202807 C51.4816392,45.3016036 51.4590439,45.2829266 51.4364485,45.2671229 L51.3898456,45.2340789 L51.3545403,45.2125285 C51.3289457,45.1967508 51.3025475,45.1823637 51.2754566,45.1694276 L51.2613344,45.1622441 C51.2389367,45.1502549 51.2158258,45.1396987 51.1921362,45.1306368 L51.1780141,45.1306368 C51.1483576,45.1191432 51.117289,45.1076496 51.0848082,45.0975928 L51.0170221,45.0760423 L50.9562971,45.0602387 L50.9096941,45.0487451 L50.8164883,45.0286313 L50.7162214,45.0099543 L50.6554963,45.0099543 L50.5862981,44.9984607 L50.5142753,44.9884039 L50.3730543,44.9682901 L50.2713752,44.9539231 L50.1809938,44.9395562 L50.1711083,44.9395562 L50.0990856,44.9237525 L50.0298873,44.9065122 C50.0023032,44.8986685 49.9753843,44.8885791 49.9493913,44.8763416 C49.9396113,44.8729102 49.9301577,44.8685823 49.9211471,44.8634113 L49.8971396,44.8476076 L49.8773686,44.831804 C49.8731489,44.8302557 49.8696325,44.8271893 49.8674831,44.8231838 C49.8616194,44.8186629 49.8563927,44.8133455 49.8519488,44.8073801 L49.8392389,44.7901398 C49.8336906,44.781014 49.828964,44.771397 49.8251168,44.7614059 C49.8243146,44.753285 49.8243146,44.7451029 49.8251168,44.736982 C49.8236575,44.7303596 49.8236575,44.7234907 49.8251168,44.7168683 C49.8243567,44.7058672 49.8243567,44.6948254 49.8251168,44.6838243 L49.8251168,43.843357 L49.9366814,43.7614653 L57.7038367,43.7614653 L57.9086071,43.8318635 L57.9086071,44.6407234 C57.9086071,44.831804 57.7673861,44.9280626 57.5004784,44.9280626 L56.9355944,45.0099543 C55.5120867,45.1234533 55.7451013,45.7153721 56.6898698,47.6304881 L59.4993225,53.5147802 L62.1622387,48.2006965 L62.685425,47.1564537 C62.7312934,47.0574801 62.7714282,46.9642441 62.8072629,46.8781802 C62.8263748,46.8341919 62.8435754,46.7911599 62.8588649,46.7490842 C62.8760655,46.708921 62.8918328,46.6701923 62.9047333,46.6328979 C62.9176337,46.5956035 62.9262341,46.5755219 62.9362678,46.5482683 C62.9463015,46.5210147 62.9649355,46.4636387 62.977836,46.4234755 C62.9907365,46.3833124 62.9921699,46.3761404 62.9979034,46.35319 C63.003637,46.3302396 63.0208376,46.2771668 63.0294379,46.2413068 C63.0380383,46.2054468 63.0394717,46.195406 63.0437718,46.17389 C63.048072,46.1523741 63.0437718,46.1394645 63.0538055,46.1236861 C63.0538055,46.0806541 63.066706,46.0404909 63.0710062,46.0017621 L63.0710062,45.8913134 C63.072513,45.8650376 63.072513,45.8386971 63.0710062,45.8124214 L63.0710062,45.7650862 C63.0716923,45.7521857 63.0716923,45.7392579 63.0710062,45.7263574 C63.0631906,45.6878626 63.0511737,45.6503433 63.0351715,45.6144743 C63.0265712,45.5943927 63.0179709,45.5771799 63.0079371,45.5585327 C63.0023341,45.546457 62.9956158,45.5349318 62.9878697,45.5241071 L62.9764026,45.5054599 L62.9764026,45.4939847 C62.9681448,45.4809737 62.9590474,45.4685157 62.9491683,45.4566903 C62.9377012,45.4394775 62.9248007,45.4236991 62.9119002,45.4079207 C62.7828953,45.2558744 62.3528792,45.0077233 61.4183107,44.9776009 L61.0298627,44.9288313 C60.9339889,44.9268747 60.8413778,44.893632 60.7661195,44.834161 C60.6863663,44.7827451 60.6386993,44.6938484 60.6399814,44.5989195 L60.6399814,43.8028278 L60.7546524,43.721067 C63.048072,43.7052886 68.1810317,43.721067 68.1810317,43.721067 L68.2756353,43.807131 L68.2756353,44.6032226 C68.2756353,44.8241202 68.152364,44.9331345 67.9086881,44.9331345 C66.7118098,44.9890761 66.4667006,45.1081313 66.0280841,45.739267 C65.7887084,46.0820885 65.3113904,46.8222386 64.8283389,47.6541903 L60.6270809,55.5161336 L60.6270809,55.52474 C60.6227322,55.5326098 60.6189017,55.5407554 60.6156138,55.5491248 C60.6156138,55.5591656 60.6041467,55.5720752 60.5969798,55.5878536 C60.5898129,55.603632 60.5969798,55.603632 60.5855127,55.6122384 C60.5855127,55.6208448 60.575479,55.6308856 60.5711788,55.6409264 C60.5650704,55.6514946 60.5597985,55.6625254 60.5554116,55.6739176 C60.5526589,55.6794269 60.5498235,55.6850189 60.5469255,55.6907332 L60.5875696,55.7751185 L65.6461059,66.3046646 L65.9525555,66.3894297 L73.2113151,48.8617367 L73.8072677,47.4250405 L73.9202445,47.153505 C74.2026866,46.377689 74.1546714,45.8288711 73.7987945,45.5056145 C73.4429176,45.1823578 73.190132,45.0027708 72.2665466,44.96398 L71.5194875,44.9280626 C71.4234137,44.9262791 71.3307896,44.8913228 71.2568164,44.8289306 C71.1790943,44.7779798 71.1322504,44.6902492 71.1325419,44.5961858 L71.1325419,43.7959461 L71.2455187,43.7140544 L80.2469455,43.7140544 L80.3401514,43.8002561 L80.3401514,44.6004959 C80.3401514,44.817437 80.2187013,44.9266259 79.9786256,44.9266259 C78.7994302,44.9797837 77.9252722,45.2412624 77.358976,45.7053152 C76.7541451,46.2242987 76.2959733,46.8976876 76.0314986,47.6563486 C76.0314986,47.6563486 68.7035407,64.7171154 66.1968678,70.3891918 C65.236565,72.2482766 64.2932087,72.0773098 63.4628292,70.336034 C62.9883266,69.3404036 62.2793972,67.7973919 61.498445,66.0762299 C61.4574909,65.9842814 61.4151246,65.8923328 61.3727583,65.8003843 L60.4350509,63.721485 L60.1526089,63.0965221 C59.6413888,61.9586588 59.1372298,60.8308523 58.6796738,59.8079246 C58.662728,59.768963 58.6457821,59.7301255 58.6288363,59.6914245 C58.6131579,59.7239046 58.5974244,59.7565005 58.5816373,59.7892096 Z" id="Path" fill="#898989" fill-rule="nonzero" mask="url(#mask-7)" transform="translate(58.340151, 57.714054) rotate(-29.000000) translate(-58.340151, -57.714054) "></path>
                            <circle id="Oval-Copy" fill="#000000" opacity="0.154971168" mask="url(#mask-7)" cx="68.5" cy="67.5" r="56.5"></circle>
                            <ellipse id="Oval" fill="#9E9E9E" mask="url(#mask-7)" transform="translate(82.199687, 95.535754) rotate(-17.000000) translate(-82.199687, -95.535754) " cx="82.1996871" cy="95.535754" rx="6" ry="5"></ellipse>
                        </g>
                        <path d="M80.868501,95.923356 C80.9108302,95.096011 81.6158406,94.4596301 82.4431855,94.5019594 C83.2705305,94.5442887 83.9069115,95.249299 83.8645822,96.076644 C82.669863,119.427965 82.8130774,138.7739 87.4660806,152.116839 C91.9941298,165.10146 101.371465,170.452999 112.589719,170.452999 C113.418146,170.452999 114.089719,171.124572 114.089719,171.952999 C114.089719,172.781427 113.418146,173.452999 112.589719,173.452999 C100.008389,173.452999 91.1588272,166.238986 86.2340957,152.116839 C81.4343182,138.353011 79.655645,119.629166 80.868501,95.923356 Z" id="Path-37" fill="#4D4D4D" fill-rule="nonzero"></path>
                        <path d="M114,170 C116.039843,188.733894 119.707527,199.047343 125.003054,200.940347 C132.946343,203.779852 142.903972,188.639985 137.925158,180.461111 C134.605948,175.008528 126.630896,171.521491 114,170 Z" id="Path-38" fill="#FF2121" fill-rule="evenodd"></path>
                    </g>
                </g>
                <g id="light" mask="url(#mask-2)">
                    <g transform="translate(15.711561, -39.633998)">
                        <polygon id="Path-17" fill="url(#linearGradient-8)" opacity="0.394312686" points="108.924887 39.7198934 215.579133 146.192864 279 300.719893 53 75.1040156"></polygon>
                        <polygon id="Path-17-Copy" fill="url(#linearGradient-9)" opacity="0.159054129" points="29.9248871 112.719893 136.579133 219.192864 230 362.719893 4 137.104016"></polygon>
                        <polygon id="Path-18" fill="url(#linearGradient-10)" opacity="0.2" points="20.2463787 87.7198934 104.267095 171.74061 70.4319678 171.74061 -2.27373675e-13 99.4373312"></polygon>
                        <polygon id="Path-20" fill="url(#linearGradient-11)" opacity="0.613211496" points="133.544263 37.5654113 285.746823 189 255.782234 140.323787 114.746823 -5.24580379e-15"></polygon>
                    </g>
                </g>
            </g>
            <g id="Group" transform="translate(120.330000, 372.000000)" fill="#F2F2F2" fill-rule="nonzero">
                <path d="M50.96,24.22 L50.96,25.09 C50.265562,25.0637195 49.5762578,25.218813 48.96,25.54 C48.3320648,25.956786 47.822299,26.5285504 47.48,27.2 C46.886903,28.4633563 46.3921031,29.7705642 46,31.11 L37.14,56.73 L36.2,56.73 L28.96,36.41 L21.76,56.73 L20.92,56.73 L11.47,30.34 C10.77,28.34 10.3233333,27.1766667 10.13,26.85 C9.84768421,26.289937 9.40111338,25.8294108 8.85,25.53 C8.16560649,25.2113924 7.41405357,25.0638272 6.66,25.1 L6.66,24.23 L18.43,24.23 L18.43,25.1 L17.87,25.1 C17.1899841,25.0525954 16.5156028,25.2513604 15.97,25.66 C15.5530974,25.9881462 15.3098196,26.4894459 15.31,27.02 C15.4901889,28.3123736 15.8259583,29.578224 16.31,30.79 L22.57,48.63 L27.84,33.47 L26.9,30.8 L26.15,28.67 C25.8535622,27.9480792 25.4850285,27.2579161 25.05,26.61 C24.8491324,26.3152724 24.5947276,26.0608676 24.3,25.86 C23.9444859,25.5964351 23.5496376,25.390574 23.13,25.25 C22.668848,25.1376935 22.1942324,25.0905686 21.72,25.11 L21.72,24.24 L34.1,24.24 L34.1,25.11 L33.26,25.11 C32.5725931,25.0510433 31.8879264,25.2507377 31.34,25.67 C30.9290186,26.0663649 30.7070415,26.6194881 30.73,27.19 C30.8779086,28.6232149 31.2315416,30.027643 31.78,31.36 L37.87,48.63 L43.87,31.12 C44.3893422,29.8401846 44.725977,28.4936452 44.87,27.12 C44.8671227,26.7587823 44.7478947,26.4081118 44.53,26.12 C44.317967,25.8168523 44.0176781,25.586398 43.67,25.46 C42.9214528,25.2171666 42.1365697,25.1055237 41.35,25.13 L41.35,24.26 L50.96,24.22 Z" id="Path"></path>
                <path d="M58.31,33.9 L58.31,51.15 C58.2524153,52.0533503 58.3505097,52.9598779 58.6,53.83 C58.7719125,54.2500768 59.0777513,54.6016157 59.47,54.83 C60.1350308,55.1010275 60.8538947,55.2139918 61.57,55.16 L61.57,56 L51.14,56 L51.14,55.16 C51.856877,55.2176801 52.5776092,55.1152063 53.25,54.86 C53.6370879,54.6282288 53.9387832,54.2774204 54.11,53.86 C54.3785262,52.9866426 54.4869365,52.0719307 54.43,51.16 L54.43,42.89 C54.4767779,41.3801714 54.406568,39.8689873 54.22,38.37 C54.1555423,37.9904777 53.9736736,37.6407301 53.7,37.37 C53.413635,37.1537206 53.0576458,37.0504837 52.7,37.08 C52.1536485,37.1030801 51.6155426,37.2215311 51.11,37.43 L50.78,36.59 L57.25,33.97 L58.31,33.9 Z M56.36,22.67 C56.9893786,22.6673274 57.5937514,22.9161648 58.0387933,23.3612067 C58.4838352,23.8062486 58.7326726,24.4106214 58.73,25.04 C58.740596,25.6739524 58.4912701,26.2846201 58.04,26.73 C57.602854,27.1884733 56.9933561,27.4424307 56.36,27.43 C55.0455623,27.43 53.98,26.3644377 53.98,25.05 C53.98,23.7355623 55.0455623,22.67 56.36,22.67 L56.36,22.67 Z" id="Shape"></path>
                <path d="M70.6,22.67 L70.6,44 L76.06,39 C76.7772923,38.3859578 77.4459578,37.7172923 78.06,37 C78.1783403,36.8367563 78.2445701,36.6415526 78.25,36.44 C78.2555337,36.1234904 78.1108782,35.823052 77.86,35.63 C77.4872725,35.3639077 77.037778,35.2269524 76.58,35.24 L76.58,34.49 L85.91,34.49 L85.91,35.24 C84.815994,35.2367333 83.7309068,35.4367962 82.71,35.83 C81.6771633,36.3111958 80.7310549,36.9599558 79.91,37.75 L74.4,42.84 L79.91,49.84 C81.4433333,51.76 82.4733333,52.98 83,53.5 C83.5673093,54.1022154 84.2466677,54.5879567 85,54.93 C85.6494358,55.1163624 86.3252137,55.1940768 87,55.16 L87,56 L76.6,56 L76.6,55.16 C77.020964,55.1890008 77.4412973,55.0952074 77.81,54.89 C78.0219744,54.7252829 78.1411941,54.4682155 78.13,54.2 C77.9830128,53.5473764 77.6575746,52.9484316 77.19,52.47 L70.6,44 L70.6,51.13 C70.5394772,52.0531927 70.6375626,52.9799308 70.89,53.87 C71.0495187,54.2699619 71.3428667,54.6021873 71.72,54.81 C72.4740445,55.0569255 73.2680521,55.1587213 74.06,55.11 L74.06,56 L63.14,56 L63.14,55.16 C63.9791957,55.2046029 64.8181681,55.0681847 65.6,54.76 C65.9319712,54.584109 66.1958699,54.302617 66.35,53.96 C66.6356796,53.1004203 66.7544765,52.1941694 66.7,51.29 L66.7,31.74 C66.745907,30.2181379 66.6924601,28.6949019 66.54,27.18 C66.4897738,26.7481644 66.3002055,26.344454 66,26.03 C65.7174244,25.8038692 65.3613603,25.6899286 65,25.71 C64.487169,25.7563068 63.9863374,25.8916666 63.52,26.11 L63.12,25.29 L69.5,22.67 L70.6,22.67 Z" id="Path"></path>
                <path d="M95.67,33.9 L95.67,51.15 C95.6124153,52.0533503 95.7105097,52.9598779 95.96,53.83 C96.1319125,54.2500768 96.4377513,54.6016157 96.83,54.83 C97.4950308,55.1010275 98.2138947,55.2139918 98.93,55.16 L98.93,56 L88.48,56 L88.48,55.16 C89.196877,55.2176801 89.9176092,55.1152063 90.59,54.86 C90.9770879,54.6282288 91.2787832,54.2774204 91.45,53.86 C91.7185262,52.9866426 91.8269365,52.0719307 91.77,51.16 L91.77,42.89 C91.8167779,41.3801714 91.746568,39.8689873 91.56,38.37 C91.4955423,37.9904777 91.3136736,37.6407301 91.04,37.37 C90.753635,37.1537206 90.3976458,37.0504837 90.04,37.08 C89.4936485,37.1030801 88.9555426,37.2215311 88.45,37.43 L88.12,36.59 L94.59,33.97 L95.67,33.9 Z M93.67,22.67 C94.2976445,22.6593108 94.9036862,22.8991157 95.3540819,23.3363748 C95.8044776,23.773634 96.0621113,24.3723141 96.07,25 C96.080596,25.6339524 95.8312701,26.2446201 95.38,26.69 C94.942854,27.1484733 94.3333561,27.4024307 93.7,27.39 C92.3855623,27.39 91.32,26.3244377 91.32,25.01 C91.32,23.6955623 92.3855623,22.63 93.7,22.63 L93.67,22.67 Z" id="Shape"></path>
                <path d="M100.03,36.66 L106.67,34 L107.56,34 L107.56,39 C108.371464,37.4411499 109.510916,36.0765373 110.9,35 C111.932168,34.2674894 113.164358,33.8695584 114.43,33.86 C116.520345,33.8285975 118.50862,34.7618694 119.82,36.39 C121.655339,38.6643359 122.597615,41.5302761 122.47,44.45 C122.593439,47.8044839 121.455262,51.0834331 119.28,53.64 C117.641197,55.5848215 115.212794,56.6869715 112.67,56.64 C111.648314,56.6634302 110.631135,56.4972909 109.67,56.15 C108.886633,55.8124824 108.171551,55.3346312 107.56,54.74 L107.56,61.28 C107.497695,62.2217975 107.588884,63.1674609 107.83,64.08 C108.025132,64.4950842 108.357004,64.8304871 108.77,65.03 C109.545436,65.3199394 110.37426,65.4393174 111.2,65.38 L111.2,66.25 L99.92,66.25 L99.92,65.38 L100.51,65.38 C101.274026,65.4171456 102.033959,65.2478878 102.71,64.89 C103.024541,64.6961924 103.266907,64.4046506 103.4,64.06 C103.626282,63.1042259 103.710519,62.120329 103.65,61.14 L103.65,40.84 C103.693966,39.9522345 103.630167,39.0624126 103.46,38.19 C103.358988,37.8510625 103.147856,37.5554774 102.86,37.35 C102.526587,37.14714 102.139741,37.0495572 101.75,37.07 C101.257775,37.0960428 100.773861,37.2077152 100.32,37.4 L100.03,36.66 Z M107.53,40.39 L107.53,48.39 C107.485925,49.5341489 107.556274,50.6798389 107.74,51.81 C107.99173,52.7654582 108.559121,53.6077339 109.35,54.2 C110.27518,54.8960913 111.41326,55.2495321 112.57,55.2 C114.05745,55.2375063 115.471922,54.5563261 116.37,53.37 C117.748573,51.4072169 118.418594,49.0339297 118.27,46.64 C118.27,43.36 117.55,40.8366667 116.11,39.07 C115.275928,37.93553 113.957968,37.2580389 112.55,37.24 C111.772526,37.2452254 111.007702,37.4372887 110.32,37.8 C109.26858,38.5225414 108.328612,39.3951284 107.53,40.39 L107.53,40.39 Z" id="Shape"></path>
                <path d="M129.19,42.62 C129.014526,45.3202574 129.840506,47.9904527 131.51,50.12 C132.836994,51.8179827 134.865093,52.8191492 137.02,52.84 C138.337526,52.8668524 139.627248,52.4592019 140.69,51.68 C141.921891,50.6213041 142.827134,49.2339596 143.3,47.68 L144.03,48.15 C143.678245,50.3405837 142.682675,52.3769768 141.17,54 C139.684018,55.7177064 137.510818,56.6852018 135.24,56.64 C132.700168,56.6591809 130.279957,55.5624086 128.62,53.64 C126.699535,51.3919821 125.715174,48.4925918 125.87,45.54 C125.87,41.8666667 126.81,39.0033333 128.69,36.95 C130.487266,34.9332289 133.079336,33.807196 135.78,33.87 C138.002966,33.7966162 140.154568,34.6601597 141.71,36.25 C143.308309,37.9710379 144.14476,40.2640689 144.03,42.61 L129.19,42.62 Z M129.19,41.26 L139.13,41.26 C139.124486,40.269938 138.95902,39.2872722 138.64,38.35 C138.273513,37.5051996 137.664442,36.7882366 136.89,36.29 C136.171479,35.8062654 135.326165,35.545366 134.46,35.54 C133.142613,35.5476753 131.885526,36.0931351 130.98,37.05 C129.897491,38.1930822 129.262165,39.6873415 129.19,41.26 L129.19,41.26 Z" id="Shape"></path>
                <path d="M162.05,53.59 C161.176607,54.55455 160.136685,55.3539689 158.98,55.95 C157.970457,56.4266449 156.86637,56.6693389 155.75,56.66 C153.367666,56.6431307 151.116804,55.5653562 149.61,53.72 C147.812542,51.6217201 146.876429,48.9205677 146.99,46.16 C146.985097,43.0967233 148.009975,40.1207037 149.9,37.71 C151.607664,35.2762023 154.407105,33.8427984 157.38,33.88 C159.122541,33.820378 160.81479,34.4698553 162.07,35.68 L162.07,31.68 C162.11538,30.1709798 162.055233,28.660633 161.89,27.16 C161.837008,26.7269376 161.64386,26.323082 161.34,26.01 C161.071774,25.80242 160.738886,25.696179 160.4,25.71 C159.842398,25.7441555 159.294629,25.8726445 158.78,26.09 L158.48,25.27 L164.88,22.65 L165.93,22.65 L165.93,47.47 C165.883062,49.0089813 165.943207,50.5493639 166.11,52.08 C166.163635,52.5178424 166.360518,52.9256699 166.67,53.24 C166.91953,53.4563928 167.239732,53.5738002 167.57,53.57 C168.152059,53.534268 168.723678,53.3989735 169.26,53.17 L169.52,53.99 L163.15,56.64 L162.07,56.64 L162.05,53.59 Z M162.05,51.95 L162.05,40.88 C161.971371,39.8628671 161.685512,38.8725686 161.21,37.97 C160.793461,37.1395653 160.148077,36.445604 159.35,35.97 C158.669187,35.5507049 157.889333,35.3195094 157.09,35.3 C155.647644,35.3322885 154.296308,36.0116285 153.41,37.15 C151.99,38.7766667 151.28,41.1533333 151.28,44.28 C151.28,47.4066667 151.966667,49.8233333 153.34,51.53 C154.394095,53.0389405 156.091056,53.9706053 157.93,54.05 C159.538022,53.9623089 161.034249,53.1996689 162.05,51.95 L162.05,51.95 Z" id="Shape"></path>
                <path d="M178.29,33.9 L178.29,51.15 C178.232415,52.0533503 178.33051,52.9598779 178.58,53.83 C178.751913,54.2500768 179.057751,54.6016157 179.45,54.83 C180.115031,55.1010275 180.833895,55.2139918 181.55,55.16 L181.55,56 L171.12,56 L171.12,55.16 C171.836877,55.2176801 172.557609,55.1152063 173.23,54.86 C173.617088,54.6282288 173.918783,54.2774204 174.09,53.86 C174.358526,52.9866426 174.466937,52.0719307 174.41,51.16 L174.41,42.89 C174.456778,41.3801714 174.386568,39.8689873 174.2,38.37 C174.135542,37.9904777 173.953674,37.6407301 173.68,37.37 C173.393635,37.1537206 173.037646,37.0504837 172.68,37.08 C172.133649,37.1030801 171.595543,37.2215311 171.09,37.43 L170.76,36.59 L177.23,33.97 L178.29,33.9 Z M176.34,22.67 C177.620065,22.6861712 178.653829,23.7199347 178.67,25 C178.680596,25.6339524 178.43127,26.2446201 177.98,26.69 C177.542854,27.1484733 176.933356,27.4024307 176.3,27.39 C174.985562,27.39 173.92,26.3244377 173.92,25.01 C173.92,23.6955623 174.985562,22.63 176.3,22.63 L176.34,22.67 Z" id="Shape"></path>
                <path d="M196.38,52.91 C195.070946,54.0089284 193.683981,55.0115538 192.23,55.91 C191.384337,56.302823 190.462436,56.5042754 189.53,56.5 C188.145289,56.5431107 186.808731,55.9895498 185.86,54.98 C184.871933,53.8883493 184.354468,52.4509466 184.42,50.98 C184.394158,50.0256875 184.636689,49.0832804 185.12,48.26 C185.971943,47.0025154 187.118614,45.9725711 188.46,45.26 C190.997499,43.9031069 193.643249,42.7591797 196.37,41.84 L196.37,41 C196.37,38.86 196.036667,37.39 195.37,36.59 C194.608466,35.7489061 193.501521,35.3061281 192.37,35.39 C191.516228,35.346416 190.678395,35.6328545 190.03,36.19 C189.476609,36.6378156 189.150578,37.3081937 189.14,38.02 L189.14,39.38 C189.190181,39.9596521 189.022618,40.5372092 188.67,41 C188.296991,41.3943208 187.772452,41.609236 187.23,41.59 C186.689551,41.6077106 186.169212,41.3841846 185.81,40.98 C185.423546,40.5160152 185.227047,39.9229449 185.26,39.32 C185.336092,37.8340488 186.096986,36.4673949 187.32,35.62 C188.994838,34.4006781 191.042219,33.8030834 193.11,33.93 C194.731301,33.8780091 196.340913,34.2212099 197.8,34.93 C198.712933,35.4278479 199.42111,36.2316294 199.8,37.2 C200.163619,38.5446744 200.305481,39.9396544 200.22,41.33 L200.22,48.62 C200.189287,49.8745926 200.229351,51.129919 200.34,52.38 C200.364922,52.7242786 200.501902,53.0509239 200.73,53.31 C200.901018,53.460859 201.12197,53.5428251 201.35,53.54 C201.580393,53.5470657 201.808419,53.4917867 202.01,53.38 C202.691979,52.8664869 203.327735,52.2943065 203.91,51.67 L203.91,52.98 C202.163333,55.3266667 200.496667,56.5 198.91,56.5 C198.20944,56.528904 197.53454,56.233866 197.08,55.7 C196.533301,54.8779337 196.286131,53.8927822 196.38,52.91 Z M196.38,51.39 L196.38,43.2 C194.821819,43.7840228 193.29627,44.4516591 191.81,45.2 C190.779418,45.7176698 189.874852,46.4549763 189.16,47.36 C188.639306,48.0744651 188.359155,48.9359289 188.36,49.82 C188.321193,50.8471509 188.679289,51.84982 189.36,52.62 C189.931898,53.3139021 190.780851,53.7200823 191.68,53.73 C192.88,53.73 194.446667,52.9466667 196.38,51.38 L196.38,51.39 Z" id="Shape"></path>
                <polygon id="Path" points="205.97 43.46 218.09 43.46 218.09 47 205.97 47"></polygon>
                <path d="M240.17,49.41 L239.91,56 L220.97,56 L220.97,55.16 L235.22,36.16 L228.22,36.16 C227.210925,36.0955471 226.198045,36.1934588 225.22,36.45 C224.718751,36.674273 224.31187,37.0670017 224.07,37.56 C223.614938,38.4642568 223.365644,39.4580197 223.34,40.47 L222.4,40.47 L222.54,34.47 L240.54,34.47 L240.54,35.34 L226.15,54.34 L233.98,54.34 C235.109209,54.4145357 236.242345,54.2754381 237.32,53.93 C237.941458,53.6228697 238.441591,53.1156925 238.74,52.49 C239.102168,51.4728019 239.314391,50.408316 239.37,49.33 L240.17,49.41 Z" id="Path"></path>
                <path d="M249.12,22.67 L249.12,38.37 C250.300286,36.9420822 251.69325,35.7042675 253.25,34.7 C254.169046,34.1895493 255.198932,33.9114799 256.25,33.89 C257.379597,33.8589286 258.486408,34.2114163 259.39,34.89 C260.357787,35.710641 261.040491,36.8169722 261.34,38.05 C261.714373,39.8512701 261.865511,41.6917868 261.79,43.53 L261.79,51.12 C261.733284,52.0622223 261.845033,53.007009 262.12,53.91 C262.279389,54.2879387 262.561127,54.6013723 262.92,54.8 C263.571232,55.0702158 264.276948,55.1832673 264.98,55.13 L264.98,56 L254.46,56 L254.46,55.16 L254.95,55.16 C255.677565,55.227959 256.4082,55.0671493 257.04,54.7 C257.45663,54.354378 257.74535,53.8790469 257.86,53.35 C257.926765,52.6186929 257.95014,51.8840722 257.93,51.15 L257.93,43.56 C258.006908,42.0109577 257.885932,40.4584315 257.57,38.94 C257.37737,38.2764066 256.96923,37.6958621 256.41,37.29 C255.842174,36.9127484 255.171447,36.7206131 254.49,36.74 C253.657039,36.7569418 252.839195,36.9656801 252.1,37.35 C250.96679,37.9925674 249.952099,38.8246137 249.1,39.81 L249.1,51.15 C249.039652,52.0707856 249.12401,52.9953401 249.35,53.89 C249.546562,54.2815792 249.866273,54.5977767 250.26,54.79 C250.992879,55.0831044 251.782685,55.2061911 252.57,55.15 L252.57,56 L241.95,56 L241.95,55.16 C242.725505,55.1961253 243.498044,55.0416174 244.2,54.71 C244.548634,54.5128661 244.814811,54.1970033 244.95,53.82 C245.191384,52.9518056 245.286021,52.0493829 245.23,51.15 L245.23,31.72 C245.27538,30.2109798 245.215233,28.700633 245.05,27.2 C244.999774,26.7681644 244.810205,26.364454 244.51,26.05 C244.225037,25.8301628 243.868916,25.7233264 243.51,25.75 C242.96454,25.7998856 242.429072,25.9278589 241.92,26.13 L241.59,25.31 L248.01,22.69 L249.12,22.67 Z" id="Path"></path>
                <rect id="Rectangle" x="-2.84217094e-14" y="0" width="271.33" height="2"></rect>
            </g>
        </g>
    </g>
</svg>