<?xml version="1.0" encoding="utf-8"?>
<!-- Generator: Adobe Illustrator 21.1.0, SVG Export Plug-In . SVG Version: 6.00 Build 0)  -->
<svg version="1.1" id="Layer_1" xmlns="http://www.w3.org/2000/svg" xmlns:xlink="http://www.w3.org/1999/xlink" x="0px" y="0px"
	 viewBox="0 0 512 512" style="enable-background:new 0 0 512 512;" xml:space="preserve">
<style type="text/css">
	.st0{fill:#CCCCCC;}
	.st1{fill:#FFFFFF;}
	.st2{opacity:0.15;}
	.st3{fill:none;}
	.st4{fill:#4D4D4D;}
	.st5{fill:#525252;}
	.st6{fill:#636A7A;}
</style>
<title>Wikipedia_zh_placeholder_logo</title>
<circle class="st0" cx="256" cy="256" r="256"/>
<circle class="st1" cx="256" cy="256" r="245.1"/>
<g class="st2">
	<path d="M499.5,284.2c-11.1,96.6-78.3,176.1-168.1,205.1L170.9,328.9c0.9,0,2,0,3.2,0h49.1c3.7,0,7.5,0,7.5-3.7
		c0-7.5-7.5-11.4-7.5-22.6s7.5-18.9,18.9-18.9s18.8,7.5,18.8,18.9s-7.5,15.1-7.5,22.6c0,3.7,3.7,3.7,7.5,3.7H310
		c7.5,0,7.5,0,7.5-7.5v-49.1c0-3.7,0-7.5,3.7-7.5c7.5,0,11.4,7.5,22.6,7.5s18.8-7.5,18.8-18.9c0-11.4-7.5-18.8-18.8-18.8
		s-15.1,7.5-22.6,7.5c-3.7,0-3.7-3.6-3.7-7.3c13.4-30.4,29.6-67.4,29.6-67.4c1.2-3.3,3.2-6.2,5.9-8.5c2.5-2,6.4-3.1,11.6-3.4
		c1.1,0,1.6-0.5,1.6-1.4v-3.4L499.5,284.2z"/>
	<line class="st3" x1="366" y1="150.8" x2="365.6" y2="150.4"/>
	<path d="M211.9,253.5c0,9.4-5.1,16.1-13.2,18.2l-29.9-29.9c0.5,0.3,1.1,0.4,1.7,0.4c7.5,0,11.4-7.5,22.6-7.5
		S211.9,242.1,211.9,253.5z"/>
	<line class="st3" x1="168.7" y1="241.8" x2="167.5" y2="240.6"/>
	<path d="M334.5,172.7L334.5,172.7l-17.1,40.6v-27.7c0-1.1,0-2.1,0-2.9c0.1-1.2-0.1-2.3-0.7-3.4c-0.1-0.2-0.3-0.4-0.5-0.5
		c-1-0.7-2.9-0.7-6.2-0.7h-18.1l5.7-10.6c2.1-3.6,4.2-6.9,5.2-8.3c1.9-2.7,3-3.3,8.2-3.5c1.1,0,1.6-0.5,1.6-1.4v-3.5L334.5,172.7z"
		/>
	<path d="M286.4,168.9l-0.5,1l-4.1,8.3h-15.1l-5.2-10.8c-1.2-2.4-2.1-4.4-2.7-5.9c0.8-1.6,1.3-3.4,1.7-5.2c0.7-0.2,1.4-0.3,2.1-0.3
		l2.5-0.4c1.2,0,1.8-0.4,1.8-1.2v-3.5l-0.9-0.3h-5.1c-0.1-4.4-1.8-8.7-4.7-11.9L286.4,168.9z"/>
	<line class="st3" x1="286.7" y1="169.2" x2="286.4" y2="168.9"/>
	<line class="st3" x1="256.1" y1="138.6" x2="255.1" y2="137.6"/>
	<path d="M230.7,174.4c0,3.7-3.7,3.7-7.5,3.7h-10.4c-2.5-5.6-4.6-10.4-6.1-14c-0.7-1.5-1.2-3.1-1.3-4.8c0-2.1,1.9-3.3,5.8-3.5
		l4.5-0.2c1.2,0,1.8-0.5,1.8-1.4v-3.4l6.3,6.3C225.6,164.6,230.7,168.3,230.7,174.4z"/>
	<line class="st3" x1="217.6" y1="150.8" x2="217.1" y2="150.4"/>
	<path d="M192.8,173.8l-18.4-18.4l0.3,0.1l0.3,0.1c0.3,0.1,0.6,0.1,0.9,0.1c4.6,0.2,7.5,0.9,9,2.2s3,4.3,5,9.1
		C190.8,169.1,191.8,171.4,192.8,173.8z"/>
	<line class="st3" x1="174.4" y1="155.4" x2="173.5" y2="154.4"/>
</g>
<g>
	<path class="st4" d="M171.3,396.2v0.9c-0.7,0-1.4,0.1-2,0.5c-0.6,0.4-1.1,1-1.5,1.7c-0.6,1.3-1.1,2.6-1.5,3.9l-8.9,25.6h-0.9
		l-7.2-20.3l-7.2,20.3h-0.8l-9.4-26.4c-0.4-1.2-0.8-2.4-1.3-3.5c-0.3-0.6-0.7-1-1.3-1.3c-0.7-0.3-1.4-0.5-2.2-0.4v-0.9h11.8v0.9
		h-0.6c-0.7,0-1.4,0.2-1.9,0.6c-0.4,0.3-0.7,0.8-0.7,1.4c0.2,1.3,0.5,2.6,1,3.8l6.3,17.8l5.3-15.2l-0.9-2.7l-0.8-2.1
		c-0.3-0.7-0.7-1.4-1.1-2.1c-0.2-0.3-0.5-0.5-0.8-0.8c-0.4-0.3-0.8-0.5-1.2-0.6c-0.5-0.1-0.9-0.2-1.4-0.1v-0.9h12.4v0.9h-0.8
		c-0.7-0.1-1.4,0.1-1.9,0.6c-0.4,0.4-0.6,0.9-0.6,1.5c0.1,1.4,0.5,2.8,1.1,4.2l6.1,17.3l6-17.5c0.5-1.3,0.9-2.6,1-4
		c0-0.4-0.1-0.7-0.3-1c-0.2-0.3-0.5-0.5-0.9-0.7c-0.7-0.2-1.5-0.4-2.3-0.3v-0.9L171.3,396.2z"/>
	<path class="st4" d="M178.6,405.9v17.2c-0.1,0.9,0,1.8,0.3,2.7c0.2,0.4,0.5,0.8,0.9,1c0.7,0.3,1.4,0.4,2.1,0.3v0.8h-10.4v-0.8
		c0.7,0.1,1.4,0,2.1-0.3c0.4-0.2,0.7-0.6,0.9-1c0.3-0.9,0.4-1.8,0.3-2.7v-8.3c0-1.5,0-3-0.2-4.5c-0.1-0.4-0.2-0.7-0.5-1
		c-0.3-0.2-0.6-0.3-1-0.3c-0.5,0-1.1,0.1-1.6,0.4l-0.3-0.8l6.5-2.6L178.6,405.9z M176.7,394.7c1.3,0,2.4,1,2.4,2.3v0l0,0v0
		c0,0.6-0.2,1.2-0.7,1.7c-0.4,0.5-1,0.7-1.7,0.7c-1.3,0-2.4-1.1-2.4-2.4S175.4,394.7,176.7,394.7z"/>
	<path class="st4" d="M190.9,394.7V416l5.5-5c0.7-0.6,1.4-1.3,2-2c0.3-0.4,0.2-1-0.2-1.4c-0.4-0.3-0.8-0.4-1.3-0.4v-0.8h9.3v0.8
		c-1.1,0-2.2,0.2-3.2,0.6c-1,0.5-2,1.1-2.8,1.9l-5.5,5.1l5.5,7c1.5,1.9,2.6,3.1,3.1,3.7c0.6,0.6,1.2,1.1,2,1.4
		c0.6,0.2,1.3,0.3,2,0.2v0.8h-10.4v-0.8c0.4,0,0.8-0.1,1.2-0.3c0.2-0.2,0.3-0.4,0.3-0.7c-0.1-0.7-0.5-1.3-0.9-1.7l-6.6-8.5v7.1
		c-0.1,0.9,0,1.8,0.3,2.7c0.2,0.4,0.5,0.7,0.8,0.9c0.8,0.2,1.5,0.3,2.3,0.3v0.9h-10.9v-0.8c0.8,0,1.7-0.1,2.5-0.4
		c0.3-0.2,0.6-0.5,0.8-0.8c0.3-0.9,0.4-1.8,0.4-2.7v-19.6c0-1.5,0-3-0.2-4.6c-0.1-0.4-0.2-0.8-0.5-1.1c-0.3-0.2-0.6-0.3-1-0.3
		c-0.5,0-1,0.2-1.5,0.4l-0.4-0.8l6.4-2.6L190.9,394.7z"/>
	<path class="st4" d="M216,405.9v17.2c-0.1,0.9,0,1.8,0.3,2.7c0.2,0.4,0.5,0.8,0.9,1c0.7,0.3,1.4,0.4,2.1,0.3v0.8h-10.4v-0.8
		c0.7,0.1,1.4,0,2.1-0.3c0.4-0.2,0.7-0.6,0.9-1c0.3-0.9,0.4-1.8,0.3-2.7v-8.3c0-1.5,0-3-0.2-4.5c-0.1-0.4-0.2-0.7-0.5-1
		c-0.3-0.2-0.6-0.3-1-0.3c-0.5,0-1.1,0.1-1.6,0.4l-0.3-0.8l6.5-2.6L216,405.9z M214,394.7c1.3,0,2.4,1,2.4,2.3v0
		c0,0.6-0.2,1.2-0.7,1.7c-0.4,0.5-1,0.7-1.7,0.7c-1.3,0-2.4-1.1-2.4-2.4S212.7,394.6,214,394.7L214,394.7z"/>
	<path class="st4" d="M220.4,408.7l6.6-2.7h0.9v5c0.8-1.6,2-2.9,3.3-4c1-0.7,2.3-1.1,3.5-1.1c2.1,0,4.1,0.9,5.4,2.5
		c1.8,2.3,2.8,5.1,2.6,8.1c0.1,3.4-1,6.6-3.2,9.2c-1.6,1.9-4.1,3-6.6,3c-1,0-2-0.1-3-0.5c-0.8-0.3-1.5-0.8-2.1-1.4v6.5
		c-0.1,0.9,0,1.9,0.3,2.8c0.2,0.4,0.5,0.8,0.9,1c0.8,0.3,1.6,0.4,2.4,0.4v0.9h-11.3v-0.9h0.6c0.8,0,1.5-0.1,2.2-0.5
		c0.3-0.2,0.6-0.5,0.7-0.8c0.2-1,0.3-1.9,0.2-2.9v-20.3c0-0.9,0-1.8-0.2-2.6c-0.1-0.3-0.3-0.6-0.6-0.8c-0.3-0.2-0.7-0.3-1.1-0.3
		c-0.5,0-1,0.1-1.4,0.3L220.4,408.7z M227.9,412.4v8c0,1.1,0,2.3,0.2,3.4c0.3,1,0.8,1.8,1.6,2.4c0.9,0.7,2.1,1,3.2,1
		c1.5,0,2.9-0.6,3.8-1.8c1.4-2,2-4.3,1.9-6.7c0-3.3-0.7-5.8-2.2-7.6c-0.8-1.1-2.2-1.8-3.6-1.8c-0.8,0-1.5,0.2-2.2,0.6
		C229.6,410.5,228.7,411.4,227.9,412.4z"/>
	<path class="st4" d="M249.5,414.6c-0.2,2.7,0.7,5.4,2.3,7.5c1.3,1.7,3.4,2.7,5.5,2.7c1.3,0,2.6-0.4,3.7-1.2c1.2-1.1,2.1-2.4,2.6-4
		l0.7,0.5c-0.4,2.2-1.3,4.2-2.9,5.9c-1.5,1.7-3.7,2.7-5.9,2.6c-2.5,0-5-1.1-6.6-3c-1.9-2.2-2.9-5.1-2.8-8.1c0-3.7,0.9-6.5,2.8-8.6
		c1.8-2,4.4-3.1,7.1-3.1c2.2-0.1,4.4,0.8,5.9,2.4c1.6,1.7,2.4,4,2.3,6.4L249.5,414.6z M249.5,413.3h9.9c0-1-0.2-2-0.5-2.9
		c-0.4-0.8-1-1.6-1.8-2.1c-0.7-0.5-1.6-0.7-2.4-0.8c-1.3,0-2.6,0.6-3.5,1.5C250.2,410.2,249.6,411.7,249.5,413.3z"/>
	<path class="st4" d="M282.4,425.6c-0.9,1-1.9,1.8-3.1,2.4c-1,0.5-2.1,0.7-3.2,0.7c-2.4,0-4.6-1.1-6.1-2.9c-1.8-2.1-2.7-4.8-2.6-7.6
		c0-3.1,1-6,2.9-8.5c1.7-2.4,4.5-3.9,7.5-3.8c1.7-0.1,3.4,0.6,4.7,1.8v-4c0-1.5,0-3-0.2-4.5c-0.1-0.4-0.2-0.8-0.5-1.1
		c-0.3-0.2-0.6-0.3-0.9-0.3c-0.6,0-1.1,0.2-1.6,0.4l-0.3-0.8l6.4-2.6h1v24.8c0,1.5,0,3.1,0.2,4.6c0.1,0.4,0.3,0.8,0.6,1.2
		c0.2,0.2,0.6,0.3,0.9,0.3c0.6,0,1.2-0.2,1.7-0.4l0.3,0.8l-6.4,2.6h-1.1L282.4,425.6z M282.4,423.9v-11.1c-0.1-1-0.4-2-0.8-2.9
		c-0.4-0.8-1.1-1.5-1.9-2c-0.7-0.4-1.5-0.7-2.3-0.7c-1.4,0-2.8,0.7-3.7,1.9c-1.4,1.6-2.1,4-2.1,7.1c0,3.1,0.7,5.5,2.1,7.2
		c1.1,1.5,2.8,2.4,4.6,2.5C279.9,426,281.4,425.2,282.4,423.9L282.4,423.9z"/>
	<path class="st4" d="M298.6,405.9v17.2c-0.1,0.9,0,1.8,0.3,2.7c0.2,0.4,0.5,0.8,0.9,1c0.7,0.3,1.4,0.4,2.1,0.3v0.8h-10.4v-0.8
		c0.7,0.1,1.4,0,2.1-0.3c0.4-0.2,0.7-0.6,0.9-1c0.3-0.9,0.4-1.8,0.3-2.7v-8.3c0-1.5,0-3-0.2-4.5c-0.1-0.4-0.2-0.7-0.5-1
		c-0.3-0.2-0.6-0.3-1-0.3c-0.5,0-1.1,0.1-1.6,0.4l-0.3-0.8l6.5-2.6L298.6,405.9z M296.7,394.7c1.3,0,2.3,1,2.3,2.3
		c0,0.6-0.2,1.2-0.7,1.7c-0.4,0.5-1,0.7-1.7,0.7c-1.3,0-2.4-1.1-2.4-2.4S295.3,394.6,296.7,394.7L296.7,394.7z"/>
	<path class="st4" d="M316.7,424.9c-1.3,1.1-2.7,2.1-4.1,3c-0.8,0.4-1.8,0.6-2.7,0.6c-1.4,0-2.7-0.5-3.7-1.5c-1-1.1-1.5-2.5-1.4-4
		c0-1,0.2-1.9,0.7-2.7c0.9-1.3,2-2.3,3.3-3c2.5-1.4,5.2-2.5,7.9-3.4V413c0-2.1-0.3-3.6-1-4.4c-0.8-0.8-1.9-1.3-3-1.2
		c-0.9,0-1.7,0.2-2.3,0.8c-0.6,0.4-0.9,1.1-0.9,1.8v1.4c0.1,0.6-0.1,1.2-0.5,1.6c-0.4,0.4-0.9,0.6-1.4,0.6c-0.5,0-1.1-0.2-1.4-0.6
		c-0.4-0.5-0.6-1.1-0.5-1.7c0.1-1.5,0.8-2.9,2.1-3.7c1.7-1.2,3.7-1.8,5.8-1.7c1.6-0.1,3.2,0.3,4.7,1c0.9,0.5,1.6,1.3,2,2.3
		c0.4,1.3,0.5,2.7,0.4,4.1v7.3c0,1.3,0,2.5,0.1,3.8c0,0.3,0.2,0.7,0.4,0.9c0.2,0.2,0.4,0.2,0.6,0.2c0.2,0,0.5,0,0.7-0.2
		c0.7-0.5,1.3-1.1,1.9-1.7v1.3c-1.7,2.3-3.4,3.5-5,3.5c-0.7,0-1.4-0.3-1.8-0.8C316.9,426.9,316.6,425.9,316.7,424.9z M316.7,423.4
		v-8.2c-1.6,0.6-3.1,1.3-4.6,2c-1,0.5-1.9,1.3-2.6,2.2c-0.5,0.7-0.8,1.6-0.8,2.5c0,1,0.3,2,1,2.8c0.6,0.7,1.4,1.1,2.3,1.1
		C313.2,425.7,314.8,424.9,316.7,423.4L316.7,423.4z"/>
	<path class="st4" d="M326.3,415.5h12.1v3.5h-12.1V415.5z"/>
	<path class="st4" d="M360.5,421.4l-0.3,6.6h-18.9v-0.8l14.2-19h-7c-1-0.1-2,0-3,0.3c-0.5,0.2-0.9,0.6-1.1,1.1
		c-0.5,0.9-0.7,1.9-0.7,2.9h-0.9l0.1-6h18v0.9l-14.4,19h7.8c1.1,0.1,2.3-0.1,3.3-0.4c0.6-0.3,1.1-0.8,1.4-1.4c0.4-1,0.6-2.1,0.6-3.2
		L360.5,421.4z"/>
	<path class="st4" d="M369.5,394.7v15.7c1.2-1.4,2.6-2.7,4.1-3.7c0.9-0.5,1.9-0.8,3-0.8c1.1,0,2.2,0.3,3.1,1c1,0.8,1.7,1.9,2,3.2
		c0.4,1.8,0.5,3.6,0.5,5.5v7.6c-0.1,0.9,0.1,1.9,0.3,2.8c0.2,0.4,0.4,0.7,0.8,0.9c0.7,0.3,1.4,0.4,2.1,0.3v0.9h-10.5v-0.8h0.5
		c0.7,0.1,1.5-0.1,2.1-0.5c0.4-0.3,0.7-0.8,0.8-1.4c0.1-0.7,0.1-1.5,0.1-2.2v-7.6c0.1-1.5,0-3.1-0.4-4.6c-0.2-0.7-0.6-1.2-1.2-1.6
		c-0.6-0.4-1.2-0.6-1.9-0.5c-0.8,0-1.7,0.2-2.4,0.6c-1.1,0.6-2.1,1.5-3,2.5v11.3c-0.1,0.9,0,1.8,0.2,2.7c0.2,0.4,0.5,0.7,0.9,0.9
		c0.7,0.3,1.5,0.4,2.3,0.4v0.9h-10.6v-0.8c0.8,0,1.5-0.1,2.2-0.5c0.3-0.2,0.6-0.5,0.8-0.9c0.2-0.9,0.3-1.8,0.3-2.7v-19.4
		c0-1.5,0-3-0.2-4.5c-0.1-0.4-0.2-0.8-0.5-1.1c-0.3-0.2-0.6-0.3-1-0.3c-0.5,0-1.1,0.2-1.6,0.4l-0.3-0.8l6.4-2.6L369.5,394.7z"/>
	<rect x="120.3" y="372" class="st4" width="271.3" height="2"/>
</g>
<path class="st5" d="M266.7,178.2h-5.8c-3.7,0-7.5,0-7.5-3.7c0-4.8,3.1-8.2,5.3-12.9c0.6,1.5,1.5,3.5,2.7,5.9L266.7,178.2z"/>
<path class="st5" d="M312.6,150.8v3.5c0,1-0.5,1.4-1.6,1.4c-5.2,0.2-6.3,0.8-8.2,3.5c-1,1.5-3.1,4.7-5.2,8.3l-5.7,10.6h-10.1
	l4.1-8.3l0.5-1l1.8-3.6c0.2-0.4,0.4-0.8,0.5-1.2c0.1-0.2,0.2-0.4,0.2-0.6s0.1-0.4,0.2-0.5s0.1-0.2,0.1-0.4s0.1-0.4,0.2-0.5
	c0-0.1,0.1-0.2,0.1-0.3c0-0.1,0.1-0.3,0.1-0.5s0-0.2,0.1-0.3s0-0.1,0-0.2c0-0.2,0-0.4,0.1-0.5v-0.5c0-0.1,0-0.2,0-0.3v-0.4
	c0-0.2-0.1-0.3-0.1-0.5c0-0.1-0.1-0.2-0.1-0.2c0-0.1-0.1-0.1-0.1-0.1l0-0.1v-0.1c0-0.1-0.1-0.1-0.1-0.2c0-0.1-0.1-0.1-0.2-0.2
	c-0.6-0.7-2.4-1.7-6.5-1.9l-1.7-0.2c-0.4,0-0.8-0.2-1.1-0.4c-0.3-0.2-0.5-0.6-0.5-1v-3.5l0.5-0.4c10-0.1,32.4,0,32.4,0L312.6,150.8z
	"/>
<path class="st5" d="M366,150.8v3.5c0,0.9-0.5,1.4-1.6,1.4c-5.2,0.2-9.1,1.4-11.6,3.4c-2.7,2.3-4.7,5.2-5.9,8.5
	c0,0-16.1,37-29.5,67.4v-21.6l17.1-40.5l0,0l2.6-6.2l0.5-1.2c1.2-3.4,1-5.8-0.5-7.2s-2.7-2.2-6.8-2.4l-3.3-0.1
	c-0.4,0-0.8-0.2-1.2-0.4c-0.3-0.2-0.5-0.6-0.5-1v-3.5l0.5-0.4h39.8L366,150.8z"/>
<path class="st5" d="M266.9,150.9v3.5c0,0.8-0.6,1.2-1.8,1.2l-2.5,0.4c-0.7,0-1.4,0.2-2.1,0.3c0.3-1.5,0.4-3,0.5-4.5
	c0-0.4,0-0.9-0.1-1.3h5.1L266.9,150.9z"/>
<path class="st5" d="M217.6,150.8v3.5c0,1-0.6,1.4-1.8,1.4l-4.5,0.2c-3.9,0.2-5.8,1.3-5.8,3.5c0.1,1.7,0.6,3.3,1.3,4.8
	c1.5,3.6,3.6,8.5,6.1,14h-18.1l-0.8-1.8c0,0,0-0.1,0-0.1l-1.1-2.5l0,0c-1-2.4-2-4.6-2.9-6.8c-2-4.8-3.5-7.9-5-9.1s-4.4-1.9-9-2.2
	c-0.3,0-0.6-0.1-0.9-0.1l-0.3-0.1l-0.3-0.1l-0.1,0c-0.2-0.1-0.4-0.2-0.6-0.3c0,0-0.1-0.1-0.1-0.1c-0.1-0.1-0.1-0.1-0.2-0.2l0-0.1
	v-3.9l0.4-0.4c7.4,0,43.2,0,43.2,0L217.6,150.8z"/>
<path class="st6" d="M317.5,185.6v27.7l-15,35.6l-1.4-0.4l-22.3-45.7c0,0,0,0,0,0v-0.1c0.1-0.1,0.1-0.2,0.2-0.3c0-0.1,0-0.1,0.1-0.1
	c0,0,0.1-0.1,0.1-0.1c0,0,0,0,0-0.1s0.1-0.1,0.1-0.2c0,0,0-0.1,0-0.1v0l12.6-23.6H310c3.4,0,5.2,0,6.2,0.7c0.2,0.1,0.4,0.3,0.5,0.5
	c0.5,1,0.8,2.2,0.7,3.4C317.5,183.6,317.5,184.5,317.5,185.6z"/>
<path class="st6" d="M260.5,156.3c-0.4,1.8-0.9,3.5-1.7,5.2C257.6,158.4,257.9,156.9,260.5,156.3z"/>
<path class="st6" d="M362.6,253.5c0,11.4-7.7,18.8-18.8,18.8s-15.1-7.5-22.6-7.5c-3.7,0-3.7,3.7-3.7,7.5v49.1c0,7.5,0,7.5-7.5,7.5
	h-49.1c-3.7,0-7.5,0-7.5-3.7c0-7.5,7.5-11.2,7.5-22.6s-7.5-18.9-18.8-18.9s-18.9,7.7-18.9,18.9s7.5,15.1,7.5,22.6
	c0,3.7-3.7,3.7-7.5,3.7h-49.1c-1.3,0-2.4,0-3.2,0c-4.2-0.2-4.2-1.2-4.2-7.4v-49.1c0-3.7,0-7.5,3.7-7.5c7.5,0,11.2,7.5,22.6,7.5
	c1.9,0,3.8-0.2,5.6-0.7c8.1-2.1,13.2-8.8,13.2-18.2c0-11.4-7.7-18.8-18.9-18.8s-15.1,7.5-22.6,7.5c-0.6,0-1.2-0.1-1.7-0.4
	c-0.5-0.3-1-0.7-1.2-1.2c-0.8-1.4-0.8-3.6-0.8-5.9v-49.1c0-7.5,0-7.5,7.5-7.5h20.6l0.4,0.8c0.7,1.5,1.4,3,2.1,4.6
	c0.2,0.5,0.4,1,0.7,1.5c3.7,8.2,7.9,17.3,12.2,26.4c0.5,1,1,2.1,1.5,3.1l1.6,3.5l1.3,2.8c2,4.2,4,8.4,5.9,12.6l1.3,2.8l1,2.1
	c0.2,0.6,0.5,1.1,0.8,1.6c1.1,2.3,2.1,4.5,3.1,6.7c0.7,1.4,1.3,2.9,1.9,4.2c0.2,0.5,0.4,0.9,0.6,1.4c0.9,2.1,1.8,4.1,2.7,6l0.9,2
	c0.2,0.4,0.4,0.8,0.6,1.2c0.7,1.6,1.4,3.2,2.1,4.8c0.3,0.7,0.6,1.4,1,2c1.1,2,2.3,3.2,3.6,3.6c2.3,0.8,4.8-1,7.6-5.9
	c0.5-0.9,1-1.9,1.6-2.9l0.5-1c2.6-4.9,5.8-11.4,9.2-18.2l1.2-2.4l0.4-0.8c0.8-1.5,1.5-3.1,2.3-4.7c0.7-1.4,1.4-2.7,2-4.1
	c0.2-0.4,0.5-0.9,0.7-1.4l3.2-6.6c0.2-0.4,0.4-0.8,0.6-1.2c0.1-0.2,0.2-0.4,0.3-0.6c0.3-0.6,0.6-1.2,0.9-1.8c2,4.4,4.2,9.3,6.5,14.2
	l1.2,2.7l4.1,9c0.2,0.4,0.4,0.8,0.6,1.2c3.5,7.5,6.6,14.2,8.7,18.5c3.7,7.6,7.8,8.3,12.1,0.2c3.2-7.2,8.4-18.8,13.9-31.4
	c0,3.7,0.1,7.3,3.7,7.3c7.5,0,11.2-7.5,22.6-7.5S362.6,242.1,362.6,253.5z"/>
<path class="st6" d="M265.7,210.2l-19.3,38.4l-1.1-0.3c0,0-20.6-43.3-32.5-70.2h10.4c3.7,0,7.5,0,7.5-3.7c0-6.2-5.1-9.8-6.9-17.3
	c-0.4-1.7-0.6-3.5-0.6-5.3c0-11.4,7.5-18.8,18.9-18.8c4.8-0.2,9.4,1.5,13.1,4.6l1,1c2.9,3.3,4.6,7.5,4.7,11.9h-29.2l-0.5,0.4v3.8
	c0,0,0,0.1,0,0.1v0.1c0,0.1,0,0.1,0.1,0.1l0.1,0.1c0,0,0,0.1,0.1,0.1c0,0,0,0,0,0l0.1,0.1l0.1,0.1c0,0,0.1,0.1,0.1,0.1
	c0.1,0.1,0.2,0.1,0.4,0.1l0.3,0.1l0.3,0.1h0l0.4,0.1l0.4,0.1l0.6,0.1l0.3,0l0.3,0.1h0.3l0.4,0.1l0.4,0.1l0.2,0.1l0.3,0.1l0.3,0.1
	c0.1,0.1,0.3,0.1,0.4,0.1h0.1c0.1,0,0.2,0.1,0.3,0.1l0.1,0c0.1,0.1,0.2,0.1,0.4,0.2l0.2,0.1l0.2,0.1c0.1,0.1,0.2,0.1,0.3,0.2
	l0.1,0.1l0.1,0.1l0.1,0.1c0.1,0.1,0.1,0.1,0.2,0.2c0.1,0.1,0.1,0.1,0.2,0.2c0.1,0.1,0.2,0.2,0.3,0.4l0.1,0.2c0.2,0.3,0.5,0.6,0.7,1
	c0.1,0.1,0.2,0.3,0.2,0.4c0.2,0.4,0.5,0.8,0.8,1.3l0.2,0.3c0,0,0,0.1,0.1,0.1c0.1,0.2,0.2,0.4,0.3,0.6c0.2,0.3,0.4,0.7,0.5,1
	l0.2,0.4c0.1,0.1,0.1,0.2,0.2,0.4l0.2,0.4l0.2,0.4c0.1,0.1,0.1,0.3,0.2,0.4c0.1,0.2,0.3,0.5,0.4,0.8l0.3,0.6l0.5,1l0.5,1l0.1,0.2
	c0.9,1.7,3.4,6.9,3.4,6.9l6.6,12.7l6.8,13.3v0.1c0,0,0,0,0,0.1l0,0.1c0,0,0,0.1,0.1,0.1l0.1,0.2c0,0.1,0.1,0.1,0.1,0.2l0.2,0.4
	l0.1,0.2c0,0.1,0.1,0.1,0.1,0.2l0.2,0.4l0.2,0.4l0.2,0.5c0.2,0.5,0.5,1.1,0.8,1.7l0.3,0.6l0.5,1.1l0.2,0.5
	C265.2,209,265.4,209.6,265.7,210.2z"/>
<polygon class="st6" points="281.8,178.2 274.1,193.4 266.7,178.2 "/>
</svg>
