<svg id="Layer_1" data-name="Layer 1" xmlns="http://www.w3.org/2000/svg" viewBox="0 0 512 512"><title>Wikipedia_zh_blackbox_logo</title><circle cx="256" cy="256" r="256" style="fill:#ccc"/><circle cx="256" cy="256" r="245.1" style="fill:#999"/><path d="M497.81,296.21c-15.05,91.19-80.44,165.41-166.67,193.16L168.02,326.25h82.14V309.5H350.61V149Z" style="opacity:0.2"/><path d="M171.29,396.22v.87a4,4,0,0,0-2,.45,4.38,4.38,0,0,0-1.48,1.66,27.151,27.151,0,0,0-1.48,3.91l-8.86,25.62h-.94l-7.24-20.32-7.2,20.32h-.84l-9.45-26.39a32.273,32.273,0,0,0-1.34-3.49,3.08,3.08,0,0,0-1.28-1.32,4.66,4.66,0,0,0-2.19-.43v-.87h11.77v.87h-.56a2.84,2.84,0,0,0-1.9.56,1.73,1.73,0,0,0-.66,1.36,16.19,16.19,0,0,0,1,3.77l6.26,17.84,5.27-15.16-.94-2.67-.75-2.13a11.6,11.6,0,0,0-1.1-2.06,2.85,2.85,0,0,0-.75-.75,4.21,4.21,0,0,0-1.17-.61,5.08,5.08,0,0,0-1.41-.14v-.87h12.38v.87h-.84a2.77,2.77,0,0,0-1.92.56,2,2,0,0,0-.61,1.52,15,15,0,0,0,1.05,4.17l6.09,17.27,6-17.51a14.72,14.72,0,0,0,1-4,1.68,1.68,0,0,0-.34-1,1.8,1.8,0,0,0-.86-.66,6.83,6.83,0,0,0-2.32-.33v-.87Z" style="fill:#fff"/><path d="M178.64,405.9v17.25a7.9,7.9,0,0,0,.29,2.68,2.06,2.06,0,0,0,.87,1,4.64,4.64,0,0,0,2.1.33V428H171.47v-.84a4.85,4.85,0,0,0,2.11-.3,2.09,2.09,0,0,0,.86-1,7.58,7.58,0,0,0,.32-2.7v-8.27a29.261,29.261,0,0,0-.21-4.52,1.84,1.84,0,0,0-.52-1,1.46,1.46,0,0,0-1-.29,4.69,4.69,0,0,0-1.59.35l-.33-.84,6.47-2.62Zm-1.95-11.23a2.36,2.36,0,0,1,2.37,2.35q0,.01,0,.02a2.32,2.32,0,0,1-.69,1.69,2.26,2.26,0,0,1-1.68.7,2.38,2.38,0,0,1,0-4.76Z" style="fill:#fff"/><path d="M190.93,394.67V416l5.46-5a18.292,18.292,0,0,0,2-2,.989.989,0,0,0-.2-1.37,2.1,2.1,0,0,0-1.28-.39v-.75h9.33v.75a8.83,8.83,0,0,0-3.2.59,10.33,10.33,0,0,0-2.8,1.92l-5.51,5.09,5.51,7q2.3,2.88,3.09,3.66a6.36,6.36,0,0,0,2,1.43,6.129,6.129,0,0,0,2,.23V428h-10.4v-.84a2.18,2.18,0,0,0,1.21-.27.83.83,0,0,0,.32-.69,3.61,3.61,0,0,0-.94-1.73L190.93,416v7.13a8.1,8.1,0,0,0,.29,2.74,1.86,1.86,0,0,0,.83.94,6.28,6.28,0,0,0,2.34.3V428H183.47v-.84a5.86,5.86,0,0,0,2.46-.4,1.69,1.69,0,0,0,.75-.8,7.11,7.11,0,0,0,.35-2.67V403.74a35,35,0,0,0-.16-4.56,2,2,0,0,0-.54-1.15,1.47,1.47,0,0,0-1-.32,4.43,4.43,0,0,0-1.48.4l-.4-.82,6.38-2.62Z" style="fill:#fff"/><path d="M216,405.9v17.25a7.9,7.9,0,0,0,.29,2.68,2.06,2.06,0,0,0,.87,1,4.64,4.64,0,0,0,2.1.33V428H208.81v-.84a4.85,4.85,0,0,0,2.11-.3,2.09,2.09,0,0,0,.86-1,7.58,7.58,0,0,0,.32-2.7v-8.27a29.261,29.261,0,0,0-.21-4.52,1.84,1.84,0,0,0-.52-1,1.46,1.46,0,0,0-1-.29,4.69,4.69,0,0,0-1.59.35l-.33-.84,6.47-2.62Zm-2-11.23a2.36,2.36,0,0,1,2.4,2.319V397a2.32,2.32,0,0,1-.69,1.69,2.26,2.26,0,0,1-1.68.7,2.38,2.38,0,1,1,0-4.76Z" style="fill:#fff"/><path d="M220.36,408.66,227,406h.89v5a12.17,12.17,0,0,1,3.34-4,6.18,6.18,0,0,1,3.53-1.14,6.79,6.79,0,0,1,5.39,2.53,12,12,0,0,1,2.65,8.06,13.42,13.42,0,0,1-3.19,9.19,8.44,8.44,0,0,1-6.61,3,8.27,8.27,0,0,1-3-.49,7,7,0,0,1-2.11-1.41v6.54a8.71,8.71,0,0,0,.27,2.8,2,2,0,0,0,.94.95,5.76,5.76,0,0,0,2.43.35v.87H220.25v-.87h.59a4.26,4.26,0,0,0,2.2-.49,1.69,1.69,0,0,0,.69-.83,10,10,0,0,0,.25-2.92v-20.3a11,11,0,0,0-.19-2.65,1.59,1.59,0,0,0-.6-.84,1.94,1.94,0,0,0-1.11-.28,4.24,4.24,0,0,0-1.43.33Zm7.5,3.73v8a17.19,17.19,0,0,0,.21,3.42,4.38,4.38,0,0,0,1.61,2.39,5,5,0,0,0,3.22,1,4.62,4.62,0,0,0,3.8-1.83,10.57,10.57,0,0,0,1.9-6.73q0-4.92-2.16-7.57a4.49,4.49,0,0,0-3.56-1.83,4.85,4.85,0,0,0-2.23.56A13.07,13.07,0,0,0,227.86,412.39Z" style="fill:#fff"/><path d="M249.52,414.62a11,11,0,0,0,2.32,7.5,7.08,7.08,0,0,0,5.51,2.72,6,6,0,0,0,3.67-1.16,8.56,8.56,0,0,0,2.61-4l.73.47A11.18,11.18,0,0,1,261.5,426a7.64,7.64,0,0,1-5.93,2.64,8.66,8.66,0,0,1-6.62-3,11.54,11.54,0,0,1-2.75-8.1q0-5.51,2.82-8.59a9.21,9.21,0,0,1,7.09-3.08,7.93,7.93,0,0,1,5.93,2.38,8.72,8.72,0,0,1,2.32,6.36Zm0-1.36h9.94a9.19,9.19,0,0,0-.49-2.91,4.65,4.65,0,0,0-1.75-2.06,4.4,4.4,0,0,0-2.43-.75,4.83,4.83,0,0,0-3.48,1.51A6.56,6.56,0,0,0,249.52,413.26Z" style="fill:#fff"/><path d="M282.38,425.59a10.84,10.84,0,0,1-3.07,2.36,7.42,7.42,0,0,1-3.23.71,8,8,0,0,1-6.14-2.94,10.93,10.93,0,0,1-2.62-7.56,13.66,13.66,0,0,1,2.91-8.45,9,9,0,0,1,7.48-3.83,6.44,6.44,0,0,1,4.69,1.8v-4a32.4,32.4,0,0,0-.18-4.52,2,2,0,0,0-.55-1.15,1.44,1.44,0,0,0-.94-.3,4.94,4.94,0,0,0-1.62.38l-.3-.82,6.4-2.62h1.05v24.82a33.212,33.212,0,0,0,.18,4.61,2,2,0,0,0,.56,1.16,1.35,1.35,0,0,0,.9.33,5.1,5.1,0,0,0,1.69-.4l.26.82-6.37,2.65H282.4Zm0-1.64V412.88a7.48,7.48,0,0,0-.84-2.91,4.87,4.87,0,0,0-1.86-2,4.52,4.52,0,0,0-2.26-.67,4.8,4.8,0,0,0-3.68,1.85q-2.13,2.44-2.13,7.13t2.06,7.25a5.91,5.91,0,0,0,4.59,2.52,5.71,5.71,0,0,0,4.12-2.1Z" style="fill:#fff"/><path d="M298.62,405.9v17.25a7.9,7.9,0,0,0,.29,2.68,2.06,2.06,0,0,0,.87,1,4.64,4.64,0,0,0,2.1.33V428H291.45v-.84a4.85,4.85,0,0,0,2.11-.3,2.09,2.09,0,0,0,.86-1,7.58,7.58,0,0,0,.32-2.7v-8.27a29.261,29.261,0,0,0-.21-4.52,1.84,1.84,0,0,0-.52-1,1.46,1.46,0,0,0-1-.29,4.69,4.69,0,0,0-1.59.35l-.33-.84,6.47-2.62Zm-1.95-11.23A2.36,2.36,0,0,1,299,397a2.32,2.32,0,0,1-.69,1.69,2.26,2.26,0,0,1-1.68.7,2.38,2.38,0,1,1,0-4.76Z" style="fill:#fff"/><path d="M316.71,424.91a35.378,35.378,0,0,1-4.15,3,6.34,6.34,0,0,1-2.7.59,4.83,4.83,0,0,1-3.67-1.52,5.59,5.59,0,0,1-1.44-4,5.1,5.1,0,0,1,.7-2.72,9.31,9.31,0,0,1,3.34-3,52,52,0,0,1,7.91-3.42V413q0-3.21-1-4.41a3.68,3.68,0,0,0-3-1.2,3.33,3.33,0,0,0-2.34.8,2.4,2.4,0,0,0-.89,1.83v1.36A2.34,2.34,0,0,1,309,413a1.89,1.89,0,0,1-1.44.59,1.82,1.82,0,0,1-1.42-.61,2.39,2.39,0,0,1-.55-1.66,4.8,4.8,0,0,1,2.06-3.7,8.91,8.91,0,0,1,5.79-1.69,10,10,0,0,1,4.69,1,4.42,4.42,0,0,1,2,2.27,12.81,12.81,0,0,1,.42,4.13v7.29a33.381,33.381,0,0,0,.12,3.76,1.58,1.58,0,0,0,.39.93.92.92,0,0,0,.62.23,1.28,1.28,0,0,0,.66-.16,14.642,14.642,0,0,0,1.9-1.71v1.31q-2.62,3.52-5,3.52a2.28,2.28,0,0,1-1.83-.8A4.3,4.3,0,0,1,316.71,424.91Zm0-1.52V415.2a46.274,46.274,0,0,0-4.57,2,7.89,7.89,0,0,0-2.65,2.16,4.17,4.17,0,0,0-.8,2.46,4,4,0,0,0,1,2.8,3.05,3.05,0,0,0,2.32,1.11q1.8,0,4.7-2.35Z" style="fill:#fff"/><path d="M326.3,415.46h12.12V419H326.3Z" style="fill:#fff"/><path d="M360.5,421.41l-.26,6.59H341.3v-.84l14.25-19h-7a9.45,9.45,0,0,0-3,.29,2.35,2.35,0,0,0-1.15,1.11,6.86,6.86,0,0,0-.73,2.91h-.94l.14-6h18v.87l-14.39,19h7.83a9,9,0,0,0,3.34-.41,3.09,3.09,0,0,0,1.42-1.44,11.129,11.129,0,0,0,.63-3.16Z" style="fill:#fff"/><path d="M369.45,394.67v15.7a18.06,18.06,0,0,1,4.13-3.67,6.45,6.45,0,0,1,3-.81,5,5,0,0,1,3.14,1,6,6,0,0,1,1.95,3.16,22.41,22.41,0,0,1,.45,5.48v7.59a7.94,7.94,0,0,0,.33,2.79,1.83,1.83,0,0,0,.8.89,4.49,4.49,0,0,0,2.06.33V428H374.79v-.84h.49a3.51,3.51,0,0,0,2.09-.46,2.42,2.42,0,0,0,.82-1.35,18.588,18.588,0,0,0,.07-2.2v-7.59a18.241,18.241,0,0,0-.36-4.62,3.11,3.11,0,0,0-1.16-1.65,3.3,3.3,0,0,0-1.92-.55,5.42,5.42,0,0,0-2.39.61,11.4,11.4,0,0,0-3,2.46v11.34a8.831,8.831,0,0,0,.25,2.74,2,2,0,0,0,.91.9,5.22,5.22,0,0,0,2.31.36V428H362.28v-.84a4.75,4.75,0,0,0,2.25-.45,1.67,1.67,0,0,0,.75-.89,8.09,8.09,0,0,0,.28-2.67V403.72a32.4,32.4,0,0,0-.18-4.52,2,2,0,0,0-.54-1.15,1.46,1.46,0,0,0-1-.3,5.72,5.72,0,0,0-1.59.38l-.33-.82,6.42-2.62Z" style="fill:#fff"/><rect x="120.33" y="372" width="271.33" height="2" style="fill:#f2f2f2"/><rect x="190.11" y="149" width="160.5" height="160.5" style="fill:#4f4f4f"/><rect x="168.02" y="244.11" width="82.14" height="82.14" style="fill:#303030"/><polygon points="315.55 309.5 250.16 309.5 250.16 244.11 315.55 309.5" style="opacity:0.15"/><line x1="341.65" y1="327.6" x2="323.55" y2="309.5" style="fill:none"/></svg>