<svg id="Layer_1" data-name="Layer 1" xmlns="http://www.w3.org/2000/svg" viewBox="0 0 512 512"><title>Artboard 1</title><circle cx="255" cy="256" r="256" style="fill:#ccc"/><path d="M500.1,256c0,107-68.58,198-164.18,231.42A244.63,244.63,0,0,1,255,501.1C119.64,501.1,9.9,391.36,9.9,256S119.64,10.9,255,10.9c126.88,0,231.25,96.42,243.82,220A245.35,245.35,0,0,1,500.1,256Z" style="fill:#265572"/><g style="opacity:0.1899999976158142"><path d="M249.89,216.71v55.9L120,142.69a11.6,11.6,0,0,0,12.19.08C176.35,157,209.18,212.32,249.89,216.71Z" style="fill:#2e1129"/><path d="M498.82,230.88,393.31,125.37a11.66,11.66,0,0,1-15.17,17.31c-44.35,14.11-77.23,69.63-118,74v61.1A28.66,28.66,0,0,1,283.66,306h20.22a12.82,12.82,0,0,1,12.79,12.78v8.1H193.33v-8.1A12.82,12.82,0,0,1,206.12,306h20.22a28.6,28.6,0,0,1,10.14-21.86L174,221.62c0,13.72-21.93,24.85-49,24.85-18.17,0-34-5-42.49-12.48L335.92,487.42C431.52,454,500.1,363,500.1,256A245.35,245.35,0,0,0,498.82,230.88ZM385,246.47c-27.06,0-49-11.13-49-24.85h98C434,235.34,412.07,246.47,385,246.47Z" style="fill:#2e1129"/><path d="M255,92.5l66.59,66.59c-20.2,14.86-39.71,29.18-61.48,31.17V149.42C288.38,145.42,255,106.08,255,92.5Z" style="fill:#2e1129"/></g><line x1="382.67" y1="367.67" x2="124.67" y2="367.67" style="fill:none;stroke:#f2f2f2;stroke-miterlimit:10;stroke-width:3px"/><g id="wikipedia-zh"><path d="M170.29,396.22v.87a4,4,0,0,0-2,.45,4.38,4.38,0,0,0-1.48,1.66,27.15,27.15,0,0,0-1.48,3.91l-8.86,25.62h-.94l-7.24-20.32-7.2,20.32h-.84l-9.45-26.39a32.27,32.27,0,0,0-1.34-3.49,3.08,3.08,0,0,0-1.28-1.32,4.66,4.66,0,0,0-2.19-.43v-.87h11.77v.87h-.56a2.84,2.84,0,0,0-1.9.56,1.73,1.73,0,0,0-.66,1.36,16.19,16.19,0,0,0,1,3.77l6.26,17.84,5.27-15.16-.94-2.67-.75-2.13a11.6,11.6,0,0,0-1.1-2.06,2.85,2.85,0,0,0-.75-.75,4.21,4.21,0,0,0-1.17-.61,5.08,5.08,0,0,0-1.41-.14v-.87h12.38v.87h-.84a2.77,2.77,0,0,0-1.92.56,2,2,0,0,0-.61,1.52,15,15,0,0,0,1.05,4.17l6.09,17.27,6-17.51a14.72,14.72,0,0,0,1-4,1.68,1.68,0,0,0-.34-1,1.8,1.8,0,0,0-.86-.66,6.83,6.83,0,0,0-2.32-.33v-.87Z" style="fill:#f2f2f2"/><path d="M177.64,405.9v17.25a7.9,7.9,0,0,0,.29,2.68,2.06,2.06,0,0,0,.87,1,4.64,4.64,0,0,0,2.1.33V428H170.47v-.84a4.85,4.85,0,0,0,2.11-.3,2.09,2.09,0,0,0,.86-1,7.58,7.58,0,0,0,.32-2.7v-8.27a29.26,29.26,0,0,0-.21-4.52,1.84,1.84,0,0,0-.52-1,1.46,1.46,0,0,0-1-.29,4.69,4.69,0,0,0-1.59.35l-.33-.84,6.47-2.62Zm-1.95-11.23a2.36,2.36,0,0,1,2.37,2.35h0a2.32,2.32,0,0,1-.69,1.69,2.26,2.26,0,0,1-1.68.7,2.38,2.38,0,0,1,0-4.76Z" style="fill:#f2f2f2"/><path d="M189.93,394.67V416l5.46-5a18.29,18.29,0,0,0,2-2,1,1,0,0,0-.2-1.37,2.1,2.1,0,0,0-1.28-.39v-.75h9.33v.75a8.83,8.83,0,0,0-3.2.59,10.33,10.33,0,0,0-2.8,1.92l-5.51,5.09,5.51,7q2.3,2.88,3.09,3.66a6.36,6.36,0,0,0,2,1.43,6.13,6.13,0,0,0,2,.23V428h-10.4v-.84a2.18,2.18,0,0,0,1.21-.27.83.83,0,0,0,.32-.69,3.61,3.61,0,0,0-.94-1.73L189.93,416v7.13a8.1,8.1,0,0,0,.29,2.74,1.86,1.86,0,0,0,.83.94,6.28,6.28,0,0,0,2.34.3V428H182.47v-.84a5.86,5.86,0,0,0,2.46-.4,1.69,1.69,0,0,0,.75-.8,7.11,7.11,0,0,0,.35-2.67V403.74a35,35,0,0,0-.16-4.56,2,2,0,0,0-.54-1.15,1.47,1.47,0,0,0-1-.32,4.43,4.43,0,0,0-1.48.4l-.4-.82,6.38-2.62Z" style="fill:#f2f2f2"/><path d="M215,405.9v17.25a7.9,7.9,0,0,0,.29,2.68,2.06,2.06,0,0,0,.87,1,4.64,4.64,0,0,0,2.1.33V428H207.81v-.84a4.85,4.85,0,0,0,2.11-.3,2.09,2.09,0,0,0,.86-1,7.58,7.58,0,0,0,.32-2.7v-8.27a29.26,29.26,0,0,0-.21-4.52,1.84,1.84,0,0,0-.52-1,1.46,1.46,0,0,0-1-.29,4.69,4.69,0,0,0-1.59.35l-.33-.84,6.47-2.62Zm-2-11.23a2.36,2.36,0,0,1,2.4,2.32h0a2.32,2.32,0,0,1-.69,1.69,2.26,2.26,0,0,1-1.68.7,2.38,2.38,0,1,1,0-4.76Z" style="fill:#f2f2f2"/><path d="M219.36,408.66,226,406h.89v5a12.17,12.17,0,0,1,3.34-4,6.18,6.18,0,0,1,3.53-1.14,6.79,6.79,0,0,1,5.39,2.53,12,12,0,0,1,2.65,8.06,13.42,13.42,0,0,1-3.19,9.19,8.44,8.44,0,0,1-6.61,3,8.27,8.27,0,0,1-3-.49,7,7,0,0,1-2.11-1.41v6.54a8.71,8.71,0,0,0,.27,2.8,2,2,0,0,0,.94,1,5.76,5.76,0,0,0,2.43.35v.87H219.25v-.87h.59a4.26,4.26,0,0,0,2.2-.49,1.69,1.69,0,0,0,.69-.83,10,10,0,0,0,.25-2.92v-20.3a11,11,0,0,0-.19-2.65,1.59,1.59,0,0,0-.6-.84,1.94,1.94,0,0,0-1.11-.28,4.24,4.24,0,0,0-1.43.33Zm7.5,3.73v8a17.19,17.19,0,0,0,.21,3.42,4.38,4.38,0,0,0,1.61,2.39,5,5,0,0,0,3.22,1,4.62,4.62,0,0,0,3.8-1.83,10.57,10.57,0,0,0,1.9-6.73q0-4.92-2.16-7.57a4.49,4.49,0,0,0-3.56-1.83,4.85,4.85,0,0,0-2.23.56A13.07,13.07,0,0,0,226.86,412.39Z" style="fill:#f2f2f2"/><path d="M248.52,414.62a11,11,0,0,0,2.32,7.5,7.08,7.08,0,0,0,5.51,2.72,6,6,0,0,0,3.67-1.16,8.56,8.56,0,0,0,2.61-4l.73.47A11.18,11.18,0,0,1,260.5,426a7.64,7.64,0,0,1-5.93,2.64,8.66,8.66,0,0,1-6.62-3,11.54,11.54,0,0,1-2.75-8.1q0-5.51,2.82-8.59a9.21,9.21,0,0,1,7.09-3.08,7.93,7.93,0,0,1,5.93,2.38,8.72,8.72,0,0,1,2.32,6.36Zm0-1.36h9.94a9.19,9.19,0,0,0-.49-2.91,4.65,4.65,0,0,0-1.75-2.06,4.4,4.4,0,0,0-2.43-.75,4.83,4.83,0,0,0-3.48,1.51A6.56,6.56,0,0,0,248.52,413.26Z" style="fill:#f2f2f2"/><path d="M281.38,425.59a10.84,10.84,0,0,1-3.07,2.36,7.42,7.42,0,0,1-3.23.71,8,8,0,0,1-6.14-2.94,10.93,10.93,0,0,1-2.62-7.56,13.66,13.66,0,0,1,2.91-8.45,9,9,0,0,1,7.48-3.83,6.44,6.44,0,0,1,4.69,1.8v-4a32.4,32.4,0,0,0-.18-4.52,2,2,0,0,0-.55-1.15,1.44,1.44,0,0,0-.94-.3,4.94,4.94,0,0,0-1.62.38l-.3-.82,6.4-2.62h1v24.82a33.21,33.21,0,0,0,.18,4.61,2,2,0,0,0,.56,1.16,1.35,1.35,0,0,0,.9.33,5.1,5.1,0,0,0,1.69-.4l.26.82-6.37,2.65h-1Zm0-1.64V412.88a7.48,7.48,0,0,0-.84-2.91,4.87,4.87,0,0,0-1.86-2,4.52,4.52,0,0,0-2.26-.67,4.8,4.8,0,0,0-3.68,1.85q-2.13,2.44-2.13,7.13t2.06,7.25a5.91,5.91,0,0,0,4.59,2.52A5.71,5.71,0,0,0,281.38,423.95Z" style="fill:#f2f2f2"/><path d="M297.62,405.9v17.25a7.9,7.9,0,0,0,.29,2.68,2.06,2.06,0,0,0,.87,1,4.64,4.64,0,0,0,2.1.33V428H290.45v-.84a4.85,4.85,0,0,0,2.11-.3,2.09,2.09,0,0,0,.86-1,7.58,7.58,0,0,0,.32-2.7v-8.27a29.26,29.26,0,0,0-.21-4.52,1.84,1.84,0,0,0-.52-1,1.46,1.46,0,0,0-1-.29,4.69,4.69,0,0,0-1.59.35l-.33-.84,6.47-2.62Zm-2-11.23A2.36,2.36,0,0,1,298,397a2.32,2.32,0,0,1-.69,1.69,2.26,2.26,0,0,1-1.68.7,2.38,2.38,0,1,1,0-4.76Z" style="fill:#f2f2f2"/><path d="M315.71,424.91a35.38,35.38,0,0,1-4.15,3,6.34,6.34,0,0,1-2.7.59,4.83,4.83,0,0,1-3.67-1.52,5.59,5.59,0,0,1-1.44-4,5.1,5.1,0,0,1,.7-2.72,9.31,9.31,0,0,1,3.34-3,52,52,0,0,1,7.91-3.42V413q0-3.21-1-4.41a3.68,3.68,0,0,0-3-1.2,3.33,3.33,0,0,0-2.34.8,2.4,2.4,0,0,0-.89,1.83v1.36A2.34,2.34,0,0,1,308,413a1.89,1.89,0,0,1-1.44.59,1.82,1.82,0,0,1-1.42-.61,2.39,2.39,0,0,1-.55-1.66,4.8,4.8,0,0,1,2.06-3.7,8.91,8.91,0,0,1,5.79-1.69,10,10,0,0,1,4.69,1,4.42,4.42,0,0,1,2,2.27,12.81,12.81,0,0,1,.42,4.13v7.29a33.38,33.38,0,0,0,.12,3.76,1.58,1.58,0,0,0,.39.93.92.92,0,0,0,.62.23,1.28,1.28,0,0,0,.66-.16,14.64,14.64,0,0,0,1.9-1.71V425q-2.62,3.52-5,3.52a2.28,2.28,0,0,1-1.83-.8A4.3,4.3,0,0,1,315.71,424.91Zm0-1.52V415.2a46.27,46.27,0,0,0-4.57,2,7.89,7.89,0,0,0-2.65,2.16,4.17,4.17,0,0,0-.8,2.46,4,4,0,0,0,1,2.8,3,3,0,0,0,2.32,1.11q1.8,0,4.7-2.35Z" style="fill:#f2f2f2"/><path d="M325.3,415.46h12.12V419H325.3Z" style="fill:#f2f2f2"/><path d="M359.5,421.41l-.26,6.59H340.3v-.84l14.25-19h-7a9.45,9.45,0,0,0-3,.29,2.35,2.35,0,0,0-1.15,1.11,6.86,6.86,0,0,0-.73,2.91h-.94l.14-6h18v.87l-14.39,19h7.83a9,9,0,0,0,3.34-.41,3.09,3.09,0,0,0,1.42-1.44,11.13,11.13,0,0,0,.63-3.16Z" style="fill:#f2f2f2"/><path d="M368.45,394.67v15.7a18.06,18.06,0,0,1,4.13-3.67,6.45,6.45,0,0,1,3-.81,5,5,0,0,1,3.14,1,6,6,0,0,1,2,3.16,22.41,22.41,0,0,1,.45,5.48v7.59a7.94,7.94,0,0,0,.33,2.79,1.83,1.83,0,0,0,.8.89,4.49,4.49,0,0,0,2.06.33V428H373.79v-.84h.49a3.51,3.51,0,0,0,2.09-.46,2.42,2.42,0,0,0,.82-1.35,18.59,18.59,0,0,0,.07-2.2v-7.59a18.24,18.24,0,0,0-.36-4.62,3.11,3.11,0,0,0-1.16-1.65,3.3,3.3,0,0,0-1.92-.55,5.42,5.42,0,0,0-2.39.61,11.4,11.4,0,0,0-3,2.46v11.34a8.83,8.83,0,0,0,.25,2.74,2,2,0,0,0,.91.9,5.22,5.22,0,0,0,2.31.36V428H361.28v-.84a4.75,4.75,0,0,0,2.25-.45,1.67,1.67,0,0,0,.75-.89,8.09,8.09,0,0,0,.28-2.67V403.72a32.4,32.4,0,0,0-.18-4.52,2,2,0,0,0-.54-1.15,1.46,1.46,0,0,0-1-.3,5.72,5.72,0,0,0-1.59.38l-.33-.82,6.42-2.62Z" style="fill:#f2f2f2"/></g><line x1="345.01" y1="225" x2="385" y2="132" style="fill:none;stroke:#7d7979;stroke-miterlimit:10;stroke-width:3px"/><line x1="424.99" y1="225" x2="385" y2="132" style="fill:none;stroke:#7d7979;stroke-miterlimit:10;stroke-width:3px"/><line x1="385" y1="132" x2="385" y2="225" style="fill:none;stroke:#7d7979;stroke-miterlimit:10;stroke-width:3px"/><path d="M434,221.62c0,13.72-21.93,24.85-49,24.85s-49-11.13-49-24.85Z" style="fill:#e8ebc5"/><line x1="86" y1="225" x2="125.99" y2="132" style="fill:none;stroke:#7d7979;stroke-miterlimit:10;stroke-width:3px"/><line x1="165.98" y1="225" x2="125.99" y2="132" style="fill:none;stroke:#7d7979;stroke-miterlimit:10;stroke-width:3px"/><line x1="125.99" y1="132" x2="125.99" y2="225" style="fill:none;stroke:#7d7979;stroke-miterlimit:10;stroke-width:3px"/><path d="M174,221.62c0,13.72-21.93,24.85-49,24.85-18.17,0-34-5-42.49-12.48a24.46,24.46,0,0,1-2.22-2.22A15.26,15.26,0,0,1,76,221.62Z" style="fill:#e8ebc5"/><path d="M396,132.79a11.65,11.65,0,0,1-17.84,9.89c-44.35,14.11-77.23,69.63-118,74v61.1A28.66,28.66,0,0,1,283.66,306h20.22a12.82,12.82,0,0,1,12.79,12.78v8.1H193.33v-8.1A12.82,12.82,0,0,1,206.12,306h20.22a28.66,28.66,0,0,1,23.55-28.19v-61.1c-40.71-4.39-73.54-59.68-117.73-73.94a11.63,11.63,0,0,1-15.9-3.79,11.49,11.49,0,0,1-1.79-6.19,11.66,11.66,0,0,1,22.42-4.52c41.83,14.73,73.76,58.4,113,62V149.42c-28.27-4,5.11-43.34,5.11-56.92,0,13.58,33.38,52.92,5.11,56.92v40.84c21.77-2,41.28-16.31,61.48-31.17,16.37-12.06,33.19-24.47,52-31a11.66,11.66,0,0,1,19.67-2.74h0A11.57,11.57,0,0,1,396,132.79Z" style="fill:#bdd1ca"/></svg>